<?xml version="1.0" encoding="utf-8" standalone="no"?>
<!DOCTYPE svg PUBLIC "-//W3C//DTD SVG 1.1//EN"
  "http://www.w3.org/Graphics/SVG/1.1/DTD/svg11.dtd">
<!-- Created with matplotlib (https://matplotlib.org/) -->
<svg height="432pt" version="1.1" viewBox="0 0 432 432" width="432pt" xmlns="http://www.w3.org/2000/svg" xmlns:xlink="http://www.w3.org/1999/xlink">
 <defs>
  <style type="text/css">
*{stroke-linecap:butt;stroke-linejoin:round;}
  </style>
 </defs>
 <g id="figure_1">
  <g id="patch_1">
   <path d="M 0 432 
L 432 432 
L 432 0 
L 0 0 
z
" style="fill:#ffffff;"/>
  </g>
  <g id="axes_1">
   <g id="patch_2">
    <path d="M 72.072 205.884 
L 416.448 205.884 
L 416.448 91.152 
L 72.072 91.152 
z
" style="fill:#ffffff;"/>
   </g>
   <g id="patch_3">
    <path clip-path="url(#p0c32ab56c3)" d="M 75.202691 91.152 
L 79.376945 91.152 
L 79.376945 91.152 
L 75.202691 91.152 
z
" style="fill:#176d9c;opacity:0.9;"/>
   </g>
   <g id="patch_4">
    <path clip-path="url(#p0c32ab56c3)" d="M 106.5096 91.152 
L 110.683855 91.152 
L 110.683855 91.152 
L 106.5096 91.152 
z
" style="fill:#176d9c;opacity:0.9;"/>
   </g>
   <g id="patch_5">
    <path clip-path="url(#p0c32ab56c3)" d="M 137.816509 91.152 
L 141.990764 91.152 
L 141.990764 91.152 
L 137.816509 91.152 
z
" style="fill:#176d9c;opacity:0.9;"/>
   </g>
   <g id="patch_6">
    <path clip-path="url(#p0c32ab56c3)" d="M 169.123418 91.152 
L 173.297673 91.152 
L 173.297673 91.152 
L 169.123418 91.152 
z
" style="fill:#176d9c;opacity:0.9;"/>
   </g>
   <g id="patch_7">
    <path clip-path="url(#p0c32ab56c3)" d="M 200.430327 91.152 
L 204.604582 91.152 
L 204.604582 91.152 
L 200.430327 91.152 
z
" style="fill:#176d9c;opacity:0.9;"/>
   </g>
   <g id="patch_8">
    <path clip-path="url(#p0c32ab56c3)" d="M 231.737236 91.152 
L 235.911491 91.152 
L 235.911491 91.152 
L 231.737236 91.152 
z
" style="fill:#176d9c;opacity:0.9;"/>
   </g>
   <g id="patch_9">
    <path clip-path="url(#p0c32ab56c3)" d="M 263.044145 91.152 
L 267.2184 91.152 
L 267.2184 91.152 
L 263.044145 91.152 
z
" style="fill:#176d9c;opacity:0.9;"/>
   </g>
   <g id="patch_10">
    <path clip-path="url(#p0c32ab56c3)" d="M 294.351055 91.152 
L 298.525309 91.152 
L 298.525309 91.152 
L 294.351055 91.152 
z
" style="fill:#176d9c;opacity:0.9;"/>
   </g>
   <g id="patch_11">
    <path clip-path="url(#p0c32ab56c3)" d="M 325.657964 91.152 
L 329.832218 91.152 
L 329.832218 91.152 
L 325.657964 91.152 
z
" style="fill:#176d9c;opacity:0.9;"/>
   </g>
   <g id="patch_12">
    <path clip-path="url(#p0c32ab56c3)" d="M 356.964873 91.152 
L 361.139127 91.152 
L 361.139127 91.152 
L 356.964873 91.152 
z
" style="fill:#176d9c;opacity:0.9;"/>
   </g>
   <g id="patch_13">
    <path clip-path="url(#p0c32ab56c3)" d="M 388.271782 91.152 
L 392.446036 91.152 
L 392.446036 91.152 
L 388.271782 91.152 
z
" style="fill:#176d9c;opacity:0.9;"/>
   </g>
   <g id="patch_14">
    <path clip-path="url(#p0c32ab56c3)" d="M 79.376945 91.152 
L 83.5512 91.152 
L 83.5512 91.152 
L 79.376945 91.152 
z
" style="fill:#c38820;opacity:0.9;"/>
   </g>
   <g id="patch_15">
    <path clip-path="url(#p0c32ab56c3)" d="M 110.683855 91.152 
L 114.858109 91.152 
L 114.858109 92.765777 
L 110.683855 92.765777 
z
" style="fill:#c38820;opacity:0.9;"/>
   </g>
   <g id="patch_16">
    <path clip-path="url(#p0c32ab56c3)" d="M 141.990764 91.152 
L 146.165018 91.152 
L 146.165018 94.135247 
L 141.990764 94.135247 
z
" style="fill:#c38820;opacity:0.9;"/>
   </g>
   <g id="patch_17">
    <path clip-path="url(#p0c32ab56c3)" d="M 173.297673 91.152 
L 177.471927 91.152 
L 177.471927 95.525455 
L 173.297673 95.525455 
z
" style="fill:#c38820;opacity:0.9;"/>
   </g>
   <g id="patch_18">
    <path clip-path="url(#p0c32ab56c3)" d="M 204.604582 91.152 
L 208.778836 91.152 
L 208.778836 96.66601 
L 204.604582 96.66601 
z
" style="fill:#c38820;opacity:0.9;"/>
   </g>
   <g id="patch_19">
    <path clip-path="url(#p0c32ab56c3)" d="M 235.911491 91.152 
L 240.085745 91.152 
L 240.085745 98.525189 
L 235.911491 98.525189 
z
" style="fill:#c38820;opacity:0.9;"/>
   </g>
   <g id="patch_20">
    <path clip-path="url(#p0c32ab56c3)" d="M 267.2184 91.152 
L 271.392655 91.152 
L 271.392655 103.901741 
L 267.2184 103.901741 
z
" style="fill:#c38820;opacity:0.9;"/>
   </g>
   <g id="patch_21">
    <path clip-path="url(#p0c32ab56c3)" d="M 298.525309 91.152 
L 302.699564 91.152 
L 302.699564 116.096916 
L 298.525309 116.096916 
z
" style="fill:#c38820;opacity:0.9;"/>
   </g>
   <g id="patch_22">
    <path clip-path="url(#p0c32ab56c3)" d="M 329.832218 91.152 
L 334.006473 91.152 
L 334.006473 136.30931 
L 329.832218 136.30931 
z
" style="fill:#c38820;opacity:0.9;"/>
   </g>
   <g id="patch_23">
    <path clip-path="url(#p0c32ab56c3)" d="M 361.139127 91.152 
L 365.313382 91.152 
L 365.313382 163.933385 
L 361.139127 163.933385 
z
" style="fill:#c38820;opacity:0.9;"/>
   </g>
   <g id="patch_24">
    <path clip-path="url(#p0c32ab56c3)" d="M 392.446036 91.152 
L 396.620291 91.152 
L 396.620291 198.163754 
L 392.446036 198.163754 
z
" style="fill:#c38820;opacity:0.9;"/>
   </g>
   <g id="patch_25">
    <path clip-path="url(#p0c32ab56c3)" d="M 83.5512 91.152 
L 87.725455 91.152 
L 87.725455 91.152 
L 83.5512 91.152 
z
" style="fill:#158b6a;opacity:0.9;"/>
   </g>
   <g id="patch_26">
    <path clip-path="url(#p0c32ab56c3)" d="M 114.858109 91.152 
L 119.032364 91.152 
L 119.032364 92.067792 
L 114.858109 92.067792 
z
" style="fill:#158b6a;opacity:0.9;"/>
   </g>
   <g id="patch_27">
    <path clip-path="url(#p0c32ab56c3)" d="M 146.165018 91.152 
L 150.339273 91.152 
L 150.339273 92.868428 
L 146.165018 92.868428 
z
" style="fill:#158b6a;opacity:0.9;"/>
   </g>
   <g id="patch_28">
    <path clip-path="url(#p0c32ab56c3)" d="M 177.471927 91.152 
L 181.646182 91.152 
L 181.646182 93.729469 
L 177.471927 93.729469 
z
" style="fill:#158b6a;opacity:0.9;"/>
   </g>
   <g id="patch_29">
    <path clip-path="url(#p0c32ab56c3)" d="M 208.778836 91.152 
L 212.953091 91.152 
L 212.953091 94.674156 
L 208.778836 94.674156 
z
" style="fill:#158b6a;opacity:0.9;"/>
   </g>
   <g id="patch_30">
    <path clip-path="url(#p0c32ab56c3)" d="M 240.085745 91.152 
L 244.26 91.152 
L 244.26 96.593169 
L 240.085745 96.593169 
z
" style="fill:#158b6a;opacity:0.9;"/>
   </g>
   <g id="patch_31">
    <path clip-path="url(#p0c32ab56c3)" d="M 271.392655 91.152 
L 275.566909 91.152 
L 275.566909 102.173158 
L 271.392655 102.173158 
z
" style="fill:#158b6a;opacity:0.9;"/>
   </g>
   <g id="patch_32">
    <path clip-path="url(#p0c32ab56c3)" d="M 302.699564 91.152 
L 306.873818 91.152 
L 306.873818 114.628659 
L 302.699564 114.628659 
z
" style="fill:#158b6a;opacity:0.9;"/>
   </g>
   <g id="patch_33">
    <path clip-path="url(#p0c32ab56c3)" d="M 334.006473 91.152 
L 338.180727 91.152 
L 338.180727 135.040203 
L 334.006473 135.040203 
z
" style="fill:#158b6a;opacity:0.9;"/>
   </g>
   <g id="patch_34">
    <path clip-path="url(#p0c32ab56c3)" d="M 365.313382 91.152 
L 369.487636 91.152 
L 369.487636 162.740874 
L 365.313382 162.740874 
z
" style="fill:#158b6a;opacity:0.9;"/>
   </g>
   <g id="patch_35">
    <path clip-path="url(#p0c32ab56c3)" d="M 396.620291 91.152 
L 400.794545 91.152 
L 400.794545 196.922594 
L 396.620291 196.922594 
z
" style="fill:#158b6a;opacity:0.9;"/>
   </g>
   <g id="patch_36">
    <path clip-path="url(#p0c32ab56c3)" d="M 87.725455 91.152 
L 91.899709 91.152 
L 91.899709 91.152 
L 87.725455 91.152 
z
" style="fill:#ba611b;opacity:0.9;"/>
   </g>
   <g id="patch_37">
    <path clip-path="url(#p0c32ab56c3)" d="M 119.032364 91.152 
L 123.206618 91.152 
L 123.206618 92.903627 
L 119.032364 92.903627 
z
" style="fill:#ba611b;opacity:0.9;"/>
   </g>
   <g id="patch_38">
    <path clip-path="url(#p0c32ab56c3)" d="M 150.339273 91.152 
L 154.513527 91.152 
L 154.513527 94.61031 
L 150.339273 94.61031 
z
" style="fill:#ba611b;opacity:0.9;"/>
   </g>
   <g id="patch_39">
    <path clip-path="url(#p0c32ab56c3)" d="M 181.646182 91.152 
L 185.820436 91.152 
L 185.820436 96.056232 
L 181.646182 96.056232 
z
" style="fill:#ba611b;opacity:0.9;"/>
   </g>
   <g id="patch_40">
    <path clip-path="url(#p0c32ab56c3)" d="M 212.953091 91.152 
L 217.127345 91.152 
L 217.127345 97.298956 
L 212.953091 97.298956 
z
" style="fill:#ba611b;opacity:0.9;"/>
   </g>
   <g id="patch_41">
    <path clip-path="url(#p0c32ab56c3)" d="M 244.26 91.152 
L 248.434255 91.152 
L 248.434255 99.361024 
L 244.26 99.361024 
z
" style="fill:#ba611b;opacity:0.9;"/>
   </g>
   <g id="patch_42">
    <path clip-path="url(#p0c32ab56c3)" d="M 275.566909 91.152 
L 279.741164 91.152 
L 279.741164 104.908905 
L 275.566909 104.908905 
z
" style="fill:#ba611b;opacity:0.9;"/>
   </g>
   <g id="patch_43">
    <path clip-path="url(#p0c32ab56c3)" d="M 306.873818 91.152 
L 311.048073 91.152 
L 311.048073 117.071042 
L 306.873818 117.071042 
z
" style="fill:#ba611b;opacity:0.9;"/>
   </g>
   <g id="patch_44">
    <path clip-path="url(#p0c32ab56c3)" d="M 338.180727 91.152 
L 342.354982 91.152 
L 342.354982 136.956706 
L 338.180727 136.956706 
z
" style="fill:#ba611b;opacity:0.9;"/>
   </g>
   <g id="patch_45">
    <path clip-path="url(#p0c32ab56c3)" d="M 369.487636 91.152 
L 373.661891 91.152 
L 373.661891 163.845676 
L 369.487636 163.845676 
z
" style="fill:#ba611b;opacity:0.9;"/>
   </g>
   <g id="patch_46">
    <path clip-path="url(#p0c32ab56c3)" d="M 400.794545 91.152 
L 404.9688 91.152 
L 404.9688 196.72697 
L 400.794545 196.72697 
z
" style="fill:#ba611b;opacity:0.9;"/>
   </g>
   <g id="patch_47">
    <path clip-path="url(#p0c32ab56c3)" d="M 91.899709 91.152 
L 96.073964 91.152 
L 96.073964 91.152 
L 91.899709 91.152 
z
" style="fill:#c282b5;opacity:0.9;"/>
   </g>
   <g id="patch_48">
    <path clip-path="url(#p0c32ab56c3)" d="M 123.206618 91.152 
L 127.380873 91.152 
L 127.380873 93.735139 
L 123.206618 93.735139 
z
" style="fill:#c282b5;opacity:0.9;"/>
   </g>
   <g id="patch_49">
    <path clip-path="url(#p0c32ab56c3)" d="M 154.513527 91.152 
L 158.687782 91.152 
L 158.687782 95.409206 
L 154.513527 95.409206 
z
" style="fill:#c282b5;opacity:0.9;"/>
   </g>
   <g id="patch_50">
    <path clip-path="url(#p0c32ab56c3)" d="M 185.820436 91.152 
L 189.994691 91.152 
L 189.994691 96.825354 
L 185.820436 96.825354 
z
" style="fill:#c282b5;opacity:0.9;"/>
   </g>
   <g id="patch_51">
    <path clip-path="url(#p0c32ab56c3)" d="M 217.127345 91.152 
L 221.3016 91.152 
L 221.3016 97.860044 
L 217.127345 97.860044 
z
" style="fill:#c282b5;opacity:0.9;"/>
   </g>
   <g id="patch_52">
    <path clip-path="url(#p0c32ab56c3)" d="M 248.434255 91.152 
L 252.608509 91.152 
L 252.608509 99.515031 
L 248.434255 99.515031 
z
" style="fill:#c282b5;opacity:0.9;"/>
   </g>
   <g id="patch_53">
    <path clip-path="url(#p0c32ab56c3)" d="M 279.741164 91.152 
L 283.915418 91.152 
L 283.915418 104.652372 
L 279.741164 104.652372 
z
" style="fill:#c282b5;opacity:0.9;"/>
   </g>
   <g id="patch_54">
    <path clip-path="url(#p0c32ab56c3)" d="M 311.048073 91.152 
L 315.222327 91.152 
L 315.222327 116.574881 
L 311.048073 116.574881 
z
" style="fill:#c282b5;opacity:0.9;"/>
   </g>
   <g id="patch_55">
    <path clip-path="url(#p0c32ab56c3)" d="M 342.354982 91.152 
L 346.529236 91.152 
L 346.529236 136.510403 
L 342.354982 136.510403 
z
" style="fill:#c282b5;opacity:0.9;"/>
   </g>
   <g id="patch_56">
    <path clip-path="url(#p0c32ab56c3)" d="M 373.661891 91.152 
L 377.836145 91.152 
L 377.836145 163.940759 
L 373.661891 163.940759 
z
" style="fill:#c282b5;opacity:0.9;"/>
   </g>
   <g id="patch_57">
    <path clip-path="url(#p0c32ab56c3)" d="M 404.9688 91.152 
L 409.143055 91.152 
L 409.143055 198.106061 
L 404.9688 198.106061 
z
" style="fill:#c282b5;opacity:0.9;"/>
   </g>
   <g id="patch_58">
    <path clip-path="url(#p0c32ab56c3)" d="M 96.073964 91.152 
L 100.248218 91.152 
L 100.248218 91.152 
L 96.073964 91.152 
z
" style="fill:#bd926e;opacity:0.9;"/>
   </g>
   <g id="patch_59">
    <path clip-path="url(#p0c32ab56c3)" d="M 127.380873 91.152 
L 131.555127 91.152 
L 131.555127 94.511164 
L 127.380873 94.511164 
z
" style="fill:#bd926e;opacity:0.9;"/>
   </g>
   <g id="patch_60">
    <path clip-path="url(#p0c32ab56c3)" d="M 158.687782 91.152 
L 162.862036 91.152 
L 162.862036 97.051559 
L 158.687782 97.051559 
z
" style="fill:#bd926e;opacity:0.9;"/>
   </g>
   <g id="patch_61">
    <path clip-path="url(#p0c32ab56c3)" d="M 189.994691 91.152 
L 194.168945 91.152 
L 194.168945 99.157551 
L 189.994691 99.157551 
z
" style="fill:#bd926e;opacity:0.9;"/>
   </g>
   <g id="patch_62">
    <path clip-path="url(#p0c32ab56c3)" d="M 221.3016 91.152 
L 225.475855 91.152 
L 225.475855 100.554399 
L 221.3016 100.554399 
z
" style="fill:#bd926e;opacity:0.9;"/>
   </g>
   <g id="patch_63">
    <path clip-path="url(#p0c32ab56c3)" d="M 252.608509 91.152 
L 256.782764 91.152 
L 256.782764 102.289131 
L 252.608509 102.289131 
z
" style="fill:#bd926e;opacity:0.9;"/>
   </g>
   <g id="patch_64">
    <path clip-path="url(#p0c32ab56c3)" d="M 283.915418 91.152 
L 288.089673 91.152 
L 288.089673 107.349159 
L 283.915418 107.349159 
z
" style="fill:#bd926e;opacity:0.9;"/>
   </g>
   <g id="patch_65">
    <path clip-path="url(#p0c32ab56c3)" d="M 315.222327 91.152 
L 319.396582 91.152 
L 319.396582 119.113031 
L 315.222327 119.113031 
z
" style="fill:#bd926e;opacity:0.9;"/>
   </g>
   <g id="patch_66">
    <path clip-path="url(#p0c32ab56c3)" d="M 346.529236 91.152 
L 350.703491 91.152 
L 350.703491 138.916309 
L 346.529236 138.916309 
z
" style="fill:#bd926e;opacity:0.9;"/>
   </g>
   <g id="patch_67">
    <path clip-path="url(#p0c32ab56c3)" d="M 377.836145 91.152 
L 382.0104 91.152 
L 382.0104 166.268999 
L 377.836145 166.268999 
z
" style="fill:#bd926e;opacity:0.9;"/>
   </g>
   <g id="patch_68">
    <path clip-path="url(#p0c32ab56c3)" d="M 409.143055 91.152 
L 413.317309 91.152 
L 413.317309 200.420571 
L 409.143055 200.420571 
z
" style="fill:#bd926e;opacity:0.9;"/>
   </g>
   <g id="matplotlib.axis_1">
    <g id="xtick_1">
     <g id="line2d_1">
      <defs>
       <path d="M 0 0 
L 0 6 
" id="m5f45b741bf" style="stroke:#000000;stroke-width:1.25;"/>
      </defs>
      <g>
       <use style="stroke:#000000;stroke-width:1.25;" x="87.725455" xlink:href="#m5f45b741bf" y="205.884"/>
      </g>
     </g>
     <g id="text_1">
      <!-- 0 -->
      <defs>
       <path d="M 31.78125 66.40625 
Q 24.171875 66.40625 20.328125 58.90625 
Q 16.5 51.421875 16.5 36.375 
Q 16.5 21.390625 20.328125 13.890625 
Q 24.171875 6.390625 31.78125 6.390625 
Q 39.453125 6.390625 43.28125 13.890625 
Q 47.125 21.390625 47.125 36.375 
Q 47.125 51.421875 43.28125 58.90625 
Q 39.453125 66.40625 31.78125 66.40625 
z
M 31.78125 74.21875 
Q 44.046875 74.21875 50.515625 64.515625 
Q 56.984375 54.828125 56.984375 36.375 
Q 56.984375 17.96875 50.515625 8.265625 
Q 44.046875 -1.421875 31.78125 -1.421875 
Q 19.53125 -1.421875 13.0625 8.265625 
Q 6.59375 17.96875 6.59375 36.375 
Q 6.59375 54.828125 13.0625 64.515625 
Q 19.53125 74.21875 31.78125 74.21875 
z
" id="DejaVuSans-48"/>
      </defs>
      <g transform="translate(83.526205 225.413938)scale(0.132 -0.132)">
       <use xlink:href="#DejaVuSans-48"/>
      </g>
     </g>
    </g>
    <g id="xtick_2">
     <g id="line2d_2">
      <g>
       <use style="stroke:#000000;stroke-width:1.25;" x="119.032364" xlink:href="#m5f45b741bf" y="205.884"/>
      </g>
     </g>
     <g id="text_2">
      <!-- 1 -->
      <defs>
       <path d="M 12.40625 8.296875 
L 28.515625 8.296875 
L 28.515625 63.921875 
L 10.984375 60.40625 
L 10.984375 69.390625 
L 28.421875 72.90625 
L 38.28125 72.90625 
L 38.28125 8.296875 
L 54.390625 8.296875 
L 54.390625 0 
L 12.40625 0 
z
" id="DejaVuSans-49"/>
      </defs>
      <g transform="translate(114.833114 225.413938)scale(0.132 -0.132)">
       <use xlink:href="#DejaVuSans-49"/>
      </g>
     </g>
    </g>
    <g id="xtick_3">
     <g id="line2d_3">
      <g>
       <use style="stroke:#000000;stroke-width:1.25;" x="150.339273" xlink:href="#m5f45b741bf" y="205.884"/>
      </g>
     </g>
     <g id="text_3">
      <!-- 2 -->
      <defs>
       <path d="M 19.1875 8.296875 
L 53.609375 8.296875 
L 53.609375 0 
L 7.328125 0 
L 7.328125 8.296875 
Q 12.9375 14.109375 22.625 23.890625 
Q 32.328125 33.6875 34.8125 36.53125 
Q 39.546875 41.84375 41.421875 45.53125 
Q 43.3125 49.21875 43.3125 52.78125 
Q 43.3125 58.59375 39.234375 62.25 
Q 35.15625 65.921875 28.609375 65.921875 
Q 23.96875 65.921875 18.8125 64.3125 
Q 13.671875 62.703125 7.8125 59.421875 
L 7.8125 69.390625 
Q 13.765625 71.78125 18.9375 73 
Q 24.125 74.21875 28.421875 74.21875 
Q 39.75 74.21875 46.484375 68.546875 
Q 53.21875 62.890625 53.21875 53.421875 
Q 53.21875 48.921875 51.53125 44.890625 
Q 49.859375 40.875 45.40625 35.40625 
Q 44.1875 33.984375 37.640625 27.21875 
Q 31.109375 20.453125 19.1875 8.296875 
z
" id="DejaVuSans-50"/>
      </defs>
      <g transform="translate(146.140023 225.413938)scale(0.132 -0.132)">
       <use xlink:href="#DejaVuSans-50"/>
      </g>
     </g>
    </g>
    <g id="xtick_4">
     <g id="line2d_4">
      <g>
       <use style="stroke:#000000;stroke-width:1.25;" x="181.646182" xlink:href="#m5f45b741bf" y="205.884"/>
      </g>
     </g>
     <g id="text_4">
      <!-- 3 -->
      <defs>
       <path d="M 40.578125 39.3125 
Q 47.65625 37.796875 51.625 33 
Q 55.609375 28.21875 55.609375 21.1875 
Q 55.609375 10.40625 48.1875 4.484375 
Q 40.765625 -1.421875 27.09375 -1.421875 
Q 22.515625 -1.421875 17.65625 -0.515625 
Q 12.796875 0.390625 7.625 2.203125 
L 7.625 11.71875 
Q 11.71875 9.328125 16.59375 8.109375 
Q 21.484375 6.890625 26.8125 6.890625 
Q 36.078125 6.890625 40.9375 10.546875 
Q 45.796875 14.203125 45.796875 21.1875 
Q 45.796875 27.640625 41.28125 31.265625 
Q 36.765625 34.90625 28.71875 34.90625 
L 20.21875 34.90625 
L 20.21875 43.015625 
L 29.109375 43.015625 
Q 36.375 43.015625 40.234375 45.921875 
Q 44.09375 48.828125 44.09375 54.296875 
Q 44.09375 59.90625 40.109375 62.90625 
Q 36.140625 65.921875 28.71875 65.921875 
Q 24.65625 65.921875 20.015625 65.03125 
Q 15.375 64.15625 9.8125 62.3125 
L 9.8125 71.09375 
Q 15.4375 72.65625 20.34375 73.4375 
Q 25.25 74.21875 29.59375 74.21875 
Q 40.828125 74.21875 47.359375 69.109375 
Q 53.90625 64.015625 53.90625 55.328125 
Q 53.90625 49.265625 50.4375 45.09375 
Q 46.96875 40.921875 40.578125 39.3125 
z
" id="DejaVuSans-51"/>
      </defs>
      <g transform="translate(177.446932 225.413938)scale(0.132 -0.132)">
       <use xlink:href="#DejaVuSans-51"/>
      </g>
     </g>
    </g>
    <g id="xtick_5">
     <g id="line2d_5">
      <g>
       <use style="stroke:#000000;stroke-width:1.25;" x="212.953091" xlink:href="#m5f45b741bf" y="205.884"/>
      </g>
     </g>
     <g id="text_5">
      <!-- 4 -->
      <defs>
       <path d="M 37.796875 64.3125 
L 12.890625 25.390625 
L 37.796875 25.390625 
z
M 35.203125 72.90625 
L 47.609375 72.90625 
L 47.609375 25.390625 
L 58.015625 25.390625 
L 58.015625 17.1875 
L 47.609375 17.1875 
L 47.609375 0 
L 37.796875 0 
L 37.796875 17.1875 
L 4.890625 17.1875 
L 4.890625 26.703125 
z
" id="DejaVuSans-52"/>
      </defs>
      <g transform="translate(208.753841 225.413938)scale(0.132 -0.132)">
       <use xlink:href="#DejaVuSans-52"/>
      </g>
     </g>
    </g>
    <g id="xtick_6">
     <g id="line2d_6">
      <g>
       <use style="stroke:#000000;stroke-width:1.25;" x="244.26" xlink:href="#m5f45b741bf" y="205.884"/>
      </g>
     </g>
     <g id="text_6">
      <!-- 5 -->
      <defs>
       <path d="M 10.796875 72.90625 
L 49.515625 72.90625 
L 49.515625 64.59375 
L 19.828125 64.59375 
L 19.828125 46.734375 
Q 21.96875 47.46875 24.109375 47.828125 
Q 26.265625 48.1875 28.421875 48.1875 
Q 40.625 48.1875 47.75 41.5 
Q 54.890625 34.8125 54.890625 23.390625 
Q 54.890625 11.625 47.5625 5.09375 
Q 40.234375 -1.421875 26.90625 -1.421875 
Q 22.3125 -1.421875 17.546875 -0.640625 
Q 12.796875 0.140625 7.71875 1.703125 
L 7.71875 11.625 
Q 12.109375 9.234375 16.796875 8.0625 
Q 21.484375 6.890625 26.703125 6.890625 
Q 35.15625 6.890625 40.078125 11.328125 
Q 45.015625 15.765625 45.015625 23.390625 
Q 45.015625 31 40.078125 35.4375 
Q 35.15625 39.890625 26.703125 39.890625 
Q 22.75 39.890625 18.8125 39.015625 
Q 14.890625 38.140625 10.796875 36.28125 
z
" id="DejaVuSans-53"/>
      </defs>
      <g transform="translate(240.06075 225.413938)scale(0.132 -0.132)">
       <use xlink:href="#DejaVuSans-53"/>
      </g>
     </g>
    </g>
    <g id="xtick_7">
     <g id="line2d_7">
      <g>
       <use style="stroke:#000000;stroke-width:1.25;" x="275.566909" xlink:href="#m5f45b741bf" y="205.884"/>
      </g>
     </g>
     <g id="text_7">
      <!-- 6 -->
      <defs>
       <path d="M 33.015625 40.375 
Q 26.375 40.375 22.484375 35.828125 
Q 18.609375 31.296875 18.609375 23.390625 
Q 18.609375 15.53125 22.484375 10.953125 
Q 26.375 6.390625 33.015625 6.390625 
Q 39.65625 6.390625 43.53125 10.953125 
Q 47.40625 15.53125 47.40625 23.390625 
Q 47.40625 31.296875 43.53125 35.828125 
Q 39.65625 40.375 33.015625 40.375 
z
M 52.59375 71.296875 
L 52.59375 62.3125 
Q 48.875 64.0625 45.09375 64.984375 
Q 41.3125 65.921875 37.59375 65.921875 
Q 27.828125 65.921875 22.671875 59.328125 
Q 17.53125 52.734375 16.796875 39.40625 
Q 19.671875 43.65625 24.015625 45.921875 
Q 28.375 48.1875 33.59375 48.1875 
Q 44.578125 48.1875 50.953125 41.515625 
Q 57.328125 34.859375 57.328125 23.390625 
Q 57.328125 12.15625 50.6875 5.359375 
Q 44.046875 -1.421875 33.015625 -1.421875 
Q 20.359375 -1.421875 13.671875 8.265625 
Q 6.984375 17.96875 6.984375 36.375 
Q 6.984375 53.65625 15.1875 63.9375 
Q 23.390625 74.21875 37.203125 74.21875 
Q 40.921875 74.21875 44.703125 73.484375 
Q 48.484375 72.75 52.59375 71.296875 
z
" id="DejaVuSans-54"/>
      </defs>
      <g transform="translate(271.367659 225.413938)scale(0.132 -0.132)">
       <use xlink:href="#DejaVuSans-54"/>
      </g>
     </g>
    </g>
    <g id="xtick_8">
     <g id="line2d_8">
      <g>
       <use style="stroke:#000000;stroke-width:1.25;" x="306.873818" xlink:href="#m5f45b741bf" y="205.884"/>
      </g>
     </g>
     <g id="text_8">
      <!-- 7 -->
      <defs>
       <path d="M 8.203125 72.90625 
L 55.078125 72.90625 
L 55.078125 68.703125 
L 28.609375 0 
L 18.3125 0 
L 43.21875 64.59375 
L 8.203125 64.59375 
z
" id="DejaVuSans-55"/>
      </defs>
      <g transform="translate(302.674568 225.413938)scale(0.132 -0.132)">
       <use xlink:href="#DejaVuSans-55"/>
      </g>
     </g>
    </g>
    <g id="xtick_9">
     <g id="line2d_9">
      <g>
       <use style="stroke:#000000;stroke-width:1.25;" x="338.180727" xlink:href="#m5f45b741bf" y="205.884"/>
      </g>
     </g>
     <g id="text_9">
      <!-- 8 -->
      <defs>
       <path d="M 31.78125 34.625 
Q 24.75 34.625 20.71875 30.859375 
Q 16.703125 27.09375 16.703125 20.515625 
Q 16.703125 13.921875 20.71875 10.15625 
Q 24.75 6.390625 31.78125 6.390625 
Q 38.8125 6.390625 42.859375 10.171875 
Q 46.921875 13.96875 46.921875 20.515625 
Q 46.921875 27.09375 42.890625 30.859375 
Q 38.875 34.625 31.78125 34.625 
z
M 21.921875 38.8125 
Q 15.578125 40.375 12.03125 44.71875 
Q 8.5 49.078125 8.5 55.328125 
Q 8.5 64.0625 14.71875 69.140625 
Q 20.953125 74.21875 31.78125 74.21875 
Q 42.671875 74.21875 48.875 69.140625 
Q 55.078125 64.0625 55.078125 55.328125 
Q 55.078125 49.078125 51.53125 44.71875 
Q 48 40.375 41.703125 38.8125 
Q 48.828125 37.15625 52.796875 32.3125 
Q 56.78125 27.484375 56.78125 20.515625 
Q 56.78125 9.90625 50.3125 4.234375 
Q 43.84375 -1.421875 31.78125 -1.421875 
Q 19.734375 -1.421875 13.25 4.234375 
Q 6.78125 9.90625 6.78125 20.515625 
Q 6.78125 27.484375 10.78125 32.3125 
Q 14.796875 37.15625 21.921875 38.8125 
z
M 18.3125 54.390625 
Q 18.3125 48.734375 21.84375 45.5625 
Q 25.390625 42.390625 31.78125 42.390625 
Q 38.140625 42.390625 41.71875 45.5625 
Q 45.3125 48.734375 45.3125 54.390625 
Q 45.3125 60.0625 41.71875 63.234375 
Q 38.140625 66.40625 31.78125 66.40625 
Q 25.390625 66.40625 21.84375 63.234375 
Q 18.3125 60.0625 18.3125 54.390625 
z
" id="DejaVuSans-56"/>
      </defs>
      <g transform="translate(333.981477 225.413938)scale(0.132 -0.132)">
       <use xlink:href="#DejaVuSans-56"/>
      </g>
     </g>
    </g>
    <g id="xtick_10">
     <g id="line2d_10">
      <g>
       <use style="stroke:#000000;stroke-width:1.25;" x="369.487636" xlink:href="#m5f45b741bf" y="205.884"/>
      </g>
     </g>
     <g id="text_10">
      <!-- 9 -->
      <defs>
       <path d="M 10.984375 1.515625 
L 10.984375 10.5 
Q 14.703125 8.734375 18.5 7.8125 
Q 22.3125 6.890625 25.984375 6.890625 
Q 35.75 6.890625 40.890625 13.453125 
Q 46.046875 20.015625 46.78125 33.40625 
Q 43.953125 29.203125 39.59375 26.953125 
Q 35.25 24.703125 29.984375 24.703125 
Q 19.046875 24.703125 12.671875 31.3125 
Q 6.296875 37.9375 6.296875 49.421875 
Q 6.296875 60.640625 12.9375 67.421875 
Q 19.578125 74.21875 30.609375 74.21875 
Q 43.265625 74.21875 49.921875 64.515625 
Q 56.59375 54.828125 56.59375 36.375 
Q 56.59375 19.140625 48.40625 8.859375 
Q 40.234375 -1.421875 26.421875 -1.421875 
Q 22.703125 -1.421875 18.890625 -0.6875 
Q 15.09375 0.046875 10.984375 1.515625 
z
M 30.609375 32.421875 
Q 37.25 32.421875 41.125 36.953125 
Q 45.015625 41.5 45.015625 49.421875 
Q 45.015625 57.28125 41.125 61.84375 
Q 37.25 66.40625 30.609375 66.40625 
Q 23.96875 66.40625 20.09375 61.84375 
Q 16.21875 57.28125 16.21875 49.421875 
Q 16.21875 41.5 20.09375 36.953125 
Q 23.96875 32.421875 30.609375 32.421875 
z
" id="DejaVuSans-57"/>
      </defs>
      <g transform="translate(365.288386 225.413938)scale(0.132 -0.132)">
       <use xlink:href="#DejaVuSans-57"/>
      </g>
     </g>
    </g>
    <g id="xtick_11">
     <g id="line2d_11">
      <g>
       <use style="stroke:#000000;stroke-width:1.25;" x="400.794545" xlink:href="#m5f45b741bf" y="205.884"/>
      </g>
     </g>
     <g id="text_11">
      <!-- 10 -->
      <g transform="translate(392.396045 225.413938)scale(0.132 -0.132)">
       <use xlink:href="#DejaVuSans-49"/>
       <use x="63.623047" xlink:href="#DejaVuSans-48"/>
      </g>
     </g>
    </g>
    <g id="text_12">
     <!-- fcday -->
     <defs>
      <path d="M 37.109375 75.984375 
L 37.109375 68.5 
L 28.515625 68.5 
Q 23.6875 68.5 21.796875 66.546875 
Q 19.921875 64.59375 19.921875 59.515625 
L 19.921875 54.6875 
L 34.71875 54.6875 
L 34.71875 47.703125 
L 19.921875 47.703125 
L 19.921875 0 
L 10.890625 0 
L 10.890625 47.703125 
L 2.296875 47.703125 
L 2.296875 54.6875 
L 10.890625 54.6875 
L 10.890625 58.5 
Q 10.890625 67.625 15.140625 71.796875 
Q 19.390625 75.984375 28.609375 75.984375 
z
" id="DejaVuSans-102"/>
      <path d="M 48.78125 52.59375 
L 48.78125 44.1875 
Q 44.96875 46.296875 41.140625 47.34375 
Q 37.3125 48.390625 33.40625 48.390625 
Q 24.65625 48.390625 19.8125 42.84375 
Q 14.984375 37.3125 14.984375 27.296875 
Q 14.984375 17.28125 19.8125 11.734375 
Q 24.65625 6.203125 33.40625 6.203125 
Q 37.3125 6.203125 41.140625 7.25 
Q 44.96875 8.296875 48.78125 10.40625 
L 48.78125 2.09375 
Q 45.015625 0.34375 40.984375 -0.53125 
Q 36.96875 -1.421875 32.421875 -1.421875 
Q 20.0625 -1.421875 12.78125 6.34375 
Q 5.515625 14.109375 5.515625 27.296875 
Q 5.515625 40.671875 12.859375 48.328125 
Q 20.21875 56 33.015625 56 
Q 37.15625 56 41.109375 55.140625 
Q 45.0625 54.296875 48.78125 52.59375 
z
" id="DejaVuSans-99"/>
      <path d="M 45.40625 46.390625 
L 45.40625 75.984375 
L 54.390625 75.984375 
L 54.390625 0 
L 45.40625 0 
L 45.40625 8.203125 
Q 42.578125 3.328125 38.25 0.953125 
Q 33.9375 -1.421875 27.875 -1.421875 
Q 17.96875 -1.421875 11.734375 6.484375 
Q 5.515625 14.40625 5.515625 27.296875 
Q 5.515625 40.1875 11.734375 48.09375 
Q 17.96875 56 27.875 56 
Q 33.9375 56 38.25 53.625 
Q 42.578125 51.265625 45.40625 46.390625 
z
M 14.796875 27.296875 
Q 14.796875 17.390625 18.875 11.75 
Q 22.953125 6.109375 30.078125 6.109375 
Q 37.203125 6.109375 41.296875 11.75 
Q 45.40625 17.390625 45.40625 27.296875 
Q 45.40625 37.203125 41.296875 42.84375 
Q 37.203125 48.484375 30.078125 48.484375 
Q 22.953125 48.484375 18.875 42.84375 
Q 14.796875 37.203125 14.796875 27.296875 
z
" id="DejaVuSans-100"/>
      <path d="M 34.28125 27.484375 
Q 23.390625 27.484375 19.1875 25 
Q 14.984375 22.515625 14.984375 16.5 
Q 14.984375 11.71875 18.140625 8.90625 
Q 21.296875 6.109375 26.703125 6.109375 
Q 34.1875 6.109375 38.703125 11.40625 
Q 43.21875 16.703125 43.21875 25.484375 
L 43.21875 27.484375 
z
M 52.203125 31.203125 
L 52.203125 0 
L 43.21875 0 
L 43.21875 8.296875 
Q 40.140625 3.328125 35.546875 0.953125 
Q 30.953125 -1.421875 24.3125 -1.421875 
Q 15.921875 -1.421875 10.953125 3.296875 
Q 6 8.015625 6 15.921875 
Q 6 25.140625 12.171875 29.828125 
Q 18.359375 34.515625 30.609375 34.515625 
L 43.21875 34.515625 
L 43.21875 35.40625 
Q 43.21875 41.609375 39.140625 45 
Q 35.0625 48.390625 27.6875 48.390625 
Q 23 48.390625 18.546875 47.265625 
Q 14.109375 46.140625 10.015625 43.890625 
L 10.015625 52.203125 
Q 14.9375 54.109375 19.578125 55.046875 
Q 24.21875 56 28.609375 56 
Q 40.484375 56 46.34375 49.84375 
Q 52.203125 43.703125 52.203125 31.203125 
z
" id="DejaVuSans-97"/>
      <path d="M 32.171875 -5.078125 
Q 28.375 -14.84375 24.75 -17.8125 
Q 21.140625 -20.796875 15.09375 -20.796875 
L 7.90625 -20.796875 
L 7.90625 -13.28125 
L 13.1875 -13.28125 
Q 16.890625 -13.28125 18.9375 -11.515625 
Q 21 -9.765625 23.484375 -3.21875 
L 25.09375 0.875 
L 2.984375 54.6875 
L 12.5 54.6875 
L 29.59375 11.921875 
L 46.6875 54.6875 
L 56.203125 54.6875 
z
" id="DejaVuSans-121"/>
     </defs>
     <g transform="translate(224.521875 243.100875)scale(0.144 -0.144)">
      <use xlink:href="#DejaVuSans-102"/>
      <use x="35.205078" xlink:href="#DejaVuSans-99"/>
      <use x="90.185547" xlink:href="#DejaVuSans-100"/>
      <use x="153.662109" xlink:href="#DejaVuSans-97"/>
      <use x="214.941406" xlink:href="#DejaVuSans-121"/>
     </g>
    </g>
   </g>
   <g id="matplotlib.axis_2">
    <g id="ytick_1">
     <g id="line2d_12">
      <path clip-path="url(#p0c32ab56c3)" d="M 72.072 167.889103 
L 416.448 167.889103 
" style="fill:none;stroke:#000000;stroke-dasharray:1,1.65;stroke-dashoffset:0;"/>
     </g>
     <g id="line2d_13">
      <defs>
       <path d="M 0 0 
L -6 0 
" id="m8f4bb0f5ef" style="stroke:#000000;stroke-width:1.25;"/>
      </defs>
      <g>
       <use style="stroke:#000000;stroke-width:1.25;" x="72.072" xlink:href="#m8f4bb0f5ef" y="167.889103"/>
      </g>
     </g>
     <g id="text_13">
      <!-- −4 -->
      <defs>
       <path d="M 10.59375 35.5 
L 73.1875 35.5 
L 73.1875 27.203125 
L 10.59375 27.203125 
z
" id="DejaVuSans-8722"/>
      </defs>
      <g transform="translate(43.112313 172.904072)scale(0.132 -0.132)">
       <use xlink:href="#DejaVuSans-8722"/>
       <use x="83.789062" xlink:href="#DejaVuSans-52"/>
      </g>
     </g>
    </g>
    <g id="ytick_2">
     <g id="line2d_14">
      <path clip-path="url(#p0c32ab56c3)" d="M 72.072 129.520551 
L 416.448 129.520551 
" style="fill:none;stroke:#000000;stroke-dasharray:1,1.65;stroke-dashoffset:0;"/>
     </g>
     <g id="line2d_15">
      <g>
       <use style="stroke:#000000;stroke-width:1.25;" x="72.072" xlink:href="#m8f4bb0f5ef" y="129.520551"/>
      </g>
     </g>
     <g id="text_14">
      <!-- −2 -->
      <g transform="translate(43.112313 134.53552)scale(0.132 -0.132)">
       <use xlink:href="#DejaVuSans-8722"/>
       <use x="83.789062" xlink:href="#DejaVuSans-50"/>
      </g>
     </g>
    </g>
    <g id="ytick_3">
     <g id="line2d_16">
      <path clip-path="url(#p0c32ab56c3)" d="M 72.072 91.152 
L 416.448 91.152 
" style="fill:none;stroke:#000000;stroke-dasharray:1,1.65;stroke-dashoffset:0;"/>
     </g>
     <g id="line2d_17">
      <g>
       <use style="stroke:#000000;stroke-width:1.25;" x="72.072" xlink:href="#m8f4bb0f5ef" y="91.152"/>
      </g>
     </g>
     <g id="text_15">
      <!-- 0 -->
      <g transform="translate(54.1735 96.166969)scale(0.132 -0.132)">
       <use xlink:href="#DejaVuSans-48"/>
      </g>
     </g>
    </g>
    <g id="text_16">
     <!-- RMSE $[K]$ -->
     <defs>
      <path d="M 44.390625 34.1875 
Q 47.5625 33.109375 50.5625 29.59375 
Q 53.5625 26.078125 56.59375 19.921875 
L 66.609375 0 
L 56 0 
L 46.6875 18.703125 
Q 43.0625 26.03125 39.671875 28.421875 
Q 36.28125 30.8125 30.421875 30.8125 
L 19.671875 30.8125 
L 19.671875 0 
L 9.8125 0 
L 9.8125 72.90625 
L 32.078125 72.90625 
Q 44.578125 72.90625 50.734375 67.671875 
Q 56.890625 62.453125 56.890625 51.90625 
Q 56.890625 45.015625 53.6875 40.46875 
Q 50.484375 35.9375 44.390625 34.1875 
z
M 19.671875 64.796875 
L 19.671875 38.921875 
L 32.078125 38.921875 
Q 39.203125 38.921875 42.84375 42.21875 
Q 46.484375 45.515625 46.484375 51.90625 
Q 46.484375 58.296875 42.84375 61.546875 
Q 39.203125 64.796875 32.078125 64.796875 
z
" id="DejaVuSans-82"/>
      <path d="M 9.8125 72.90625 
L 24.515625 72.90625 
L 43.109375 23.296875 
L 61.8125 72.90625 
L 76.515625 72.90625 
L 76.515625 0 
L 66.890625 0 
L 66.890625 64.015625 
L 48.09375 14.015625 
L 38.1875 14.015625 
L 19.390625 64.015625 
L 19.390625 0 
L 9.8125 0 
z
" id="DejaVuSans-77"/>
      <path d="M 53.515625 70.515625 
L 53.515625 60.890625 
Q 47.90625 63.578125 42.921875 64.890625 
Q 37.9375 66.21875 33.296875 66.21875 
Q 25.25 66.21875 20.875 63.09375 
Q 16.5 59.96875 16.5 54.203125 
Q 16.5 49.359375 19.40625 46.890625 
Q 22.3125 44.4375 30.421875 42.921875 
L 36.375 41.703125 
Q 47.40625 39.59375 52.65625 34.296875 
Q 57.90625 29 57.90625 20.125 
Q 57.90625 9.515625 50.796875 4.046875 
Q 43.703125 -1.421875 29.984375 -1.421875 
Q 24.8125 -1.421875 18.96875 -0.25 
Q 13.140625 0.921875 6.890625 3.21875 
L 6.890625 13.375 
Q 12.890625 10.015625 18.65625 8.296875 
Q 24.421875 6.59375 29.984375 6.59375 
Q 38.421875 6.59375 43.015625 9.90625 
Q 47.609375 13.234375 47.609375 19.390625 
Q 47.609375 24.75 44.3125 27.78125 
Q 41.015625 30.8125 33.5 32.328125 
L 27.484375 33.5 
Q 16.453125 35.6875 11.515625 40.375 
Q 6.59375 45.0625 6.59375 53.421875 
Q 6.59375 63.09375 13.40625 68.65625 
Q 20.21875 74.21875 32.171875 74.21875 
Q 37.3125 74.21875 42.625 73.28125 
Q 47.953125 72.359375 53.515625 70.515625 
z
" id="DejaVuSans-83"/>
      <path d="M 9.8125 72.90625 
L 55.90625 72.90625 
L 55.90625 64.59375 
L 19.671875 64.59375 
L 19.671875 43.015625 
L 54.390625 43.015625 
L 54.390625 34.71875 
L 19.671875 34.71875 
L 19.671875 8.296875 
L 56.78125 8.296875 
L 56.78125 0 
L 9.8125 0 
z
" id="DejaVuSans-69"/>
      <path id="DejaVuSans-32"/>
      <path d="M 8.59375 75.984375 
L 29.296875 75.984375 
L 29.296875 69 
L 17.578125 69 
L 17.578125 -6.203125 
L 29.296875 -6.203125 
L 29.296875 -13.1875 
L 8.59375 -13.1875 
z
" id="DejaVuSans-91"/>
      <path d="M 16.890625 72.90625 
L 26.8125 72.90625 
L 20.796875 42.1875 
L 59.078125 72.90625 
L 72.21875 72.90625 
L 28.90625 38.09375 
L 60.59375 0 
L 48.578125 0 
L 19.484375 35.5 
L 12.59375 0 
L 2.6875 0 
z
" id="DejaVuSans-Oblique-75"/>
      <path d="M 30.421875 75.984375 
L 30.421875 -13.1875 
L 9.71875 -13.1875 
L 9.71875 -6.203125 
L 21.390625 -6.203125 
L 21.390625 69 
L 9.71875 69 
L 9.71875 75.984375 
z
" id="DejaVuSans-93"/>
     </defs>
     <g transform="translate(36.117562 181.494)rotate(-90)scale(0.144 -0.144)">
      <use transform="translate(0 0.015625)" xlink:href="#DejaVuSans-82"/>
      <use transform="translate(69.482422 0.015625)" xlink:href="#DejaVuSans-77"/>
      <use transform="translate(155.761719 0.015625)" xlink:href="#DejaVuSans-83"/>
      <use transform="translate(219.238281 0.015625)" xlink:href="#DejaVuSans-69"/>
      <use transform="translate(282.421875 0.015625)" xlink:href="#DejaVuSans-32"/>
      <use transform="translate(314.208984 0.015625)" xlink:href="#DejaVuSans-91"/>
      <use transform="translate(353.222656 0.015625)" xlink:href="#DejaVuSans-Oblique-75"/>
      <use transform="translate(418.798828 0.015625)" xlink:href="#DejaVuSans-93"/>
     </g>
    </g>
   </g>
   <g id="line2d_18">
    <path clip-path="url(#p0c32ab56c3)" d="M 0 0 
" style="fill:none;stroke:#424242;stroke-linecap:square;stroke-width:2.7;"/>
   </g>
   <g id="line2d_19">
    <path clip-path="url(#p0c32ab56c3)" d="M 0 0 
" style="fill:none;stroke:#424242;stroke-linecap:square;stroke-width:2.7;"/>
   </g>
   <g id="line2d_20">
    <path clip-path="url(#p0c32ab56c3)" d="M 0 0 
" style="fill:none;stroke:#424242;stroke-linecap:square;stroke-width:2.7;"/>
   </g>
   <g id="line2d_21">
    <path clip-path="url(#p0c32ab56c3)" d="M 0 0 
" style="fill:none;stroke:#424242;stroke-linecap:square;stroke-width:2.7;"/>
   </g>
   <g id="line2d_22">
    <path clip-path="url(#p0c32ab56c3)" d="M 0 0 
" style="fill:none;stroke:#424242;stroke-linecap:square;stroke-width:2.7;"/>
   </g>
   <g id="line2d_23">
    <path clip-path="url(#p0c32ab56c3)" d="M 0 0 
" style="fill:none;stroke:#424242;stroke-linecap:square;stroke-width:2.7;"/>
   </g>
   <g id="line2d_24">
    <path clip-path="url(#p0c32ab56c3)" d="M 0 0 
" style="fill:none;stroke:#424242;stroke-linecap:square;stroke-width:2.7;"/>
   </g>
   <g id="line2d_25">
    <path clip-path="url(#p0c32ab56c3)" d="M 0 0 
" style="fill:none;stroke:#424242;stroke-linecap:square;stroke-width:2.7;"/>
   </g>
   <g id="line2d_26">
    <path clip-path="url(#p0c32ab56c3)" d="M 0 0 
" style="fill:none;stroke:#424242;stroke-linecap:square;stroke-width:2.7;"/>
   </g>
   <g id="line2d_27">
    <path clip-path="url(#p0c32ab56c3)" d="M 0 0 
" style="fill:none;stroke:#424242;stroke-linecap:square;stroke-width:2.7;"/>
   </g>
   <g id="line2d_28">
    <path clip-path="url(#p0c32ab56c3)" d="M 0 0 
" style="fill:none;stroke:#424242;stroke-linecap:square;stroke-width:2.7;"/>
   </g>
   <g id="line2d_29">
    <path clip-path="url(#p0c32ab56c3)" d="M 0 0 
" style="fill:none;stroke:#424242;stroke-linecap:square;stroke-width:2.7;"/>
   </g>
   <g id="line2d_30">
    <path clip-path="url(#p0c32ab56c3)" d="M 0 0 
" style="fill:none;stroke:#424242;stroke-linecap:square;stroke-width:2.7;"/>
   </g>
   <g id="line2d_31">
    <path clip-path="url(#p0c32ab56c3)" d="M 0 0 
" style="fill:none;stroke:#424242;stroke-linecap:square;stroke-width:2.7;"/>
   </g>
   <g id="line2d_32">
    <path clip-path="url(#p0c32ab56c3)" d="M 0 0 
" style="fill:none;stroke:#424242;stroke-linecap:square;stroke-width:2.7;"/>
   </g>
   <g id="line2d_33">
    <path clip-path="url(#p0c32ab56c3)" d="M 0 0 
" style="fill:none;stroke:#424242;stroke-linecap:square;stroke-width:2.7;"/>
   </g>
   <g id="line2d_34">
    <path clip-path="url(#p0c32ab56c3)" d="M 0 0 
" style="fill:none;stroke:#424242;stroke-linecap:square;stroke-width:2.7;"/>
   </g>
   <g id="line2d_35">
    <path clip-path="url(#p0c32ab56c3)" d="M 0 0 
" style="fill:none;stroke:#424242;stroke-linecap:square;stroke-width:2.7;"/>
   </g>
   <g id="line2d_36">
    <path clip-path="url(#p0c32ab56c3)" d="M 0 0 
" style="fill:none;stroke:#424242;stroke-linecap:square;stroke-width:2.7;"/>
   </g>
   <g id="line2d_37">
    <path clip-path="url(#p0c32ab56c3)" d="M 0 0 
" style="fill:none;stroke:#424242;stroke-linecap:square;stroke-width:2.7;"/>
   </g>
   <g id="line2d_38">
    <path clip-path="url(#p0c32ab56c3)" d="M 0 0 
" style="fill:none;stroke:#424242;stroke-linecap:square;stroke-width:2.7;"/>
   </g>
   <g id="line2d_39">
    <path clip-path="url(#p0c32ab56c3)" d="M 0 0 
" style="fill:none;stroke:#424242;stroke-linecap:square;stroke-width:2.7;"/>
   </g>
   <g id="line2d_40">
    <path clip-path="url(#p0c32ab56c3)" d="M 0 0 
" style="fill:none;stroke:#424242;stroke-linecap:square;stroke-width:2.7;"/>
   </g>
   <g id="line2d_41">
    <path clip-path="url(#p0c32ab56c3)" d="M 0 0 
" style="fill:none;stroke:#424242;stroke-linecap:square;stroke-width:2.7;"/>
   </g>
   <g id="line2d_42">
    <path clip-path="url(#p0c32ab56c3)" d="M 0 0 
" style="fill:none;stroke:#424242;stroke-linecap:square;stroke-width:2.7;"/>
   </g>
   <g id="line2d_43">
    <path clip-path="url(#p0c32ab56c3)" d="M 0 0 
" style="fill:none;stroke:#424242;stroke-linecap:square;stroke-width:2.7;"/>
   </g>
   <g id="line2d_44">
    <path clip-path="url(#p0c32ab56c3)" d="M 0 0 
" style="fill:none;stroke:#424242;stroke-linecap:square;stroke-width:2.7;"/>
   </g>
   <g id="line2d_45">
    <path clip-path="url(#p0c32ab56c3)" d="M 0 0 
" style="fill:none;stroke:#424242;stroke-linecap:square;stroke-width:2.7;"/>
   </g>
   <g id="line2d_46">
    <path clip-path="url(#p0c32ab56c3)" d="M 0 0 
" style="fill:none;stroke:#424242;stroke-linecap:square;stroke-width:2.7;"/>
   </g>
   <g id="line2d_47">
    <path clip-path="url(#p0c32ab56c3)" d="M 0 0 
" style="fill:none;stroke:#424242;stroke-linecap:square;stroke-width:2.7;"/>
   </g>
   <g id="line2d_48">
    <path clip-path="url(#p0c32ab56c3)" d="M 0 0 
" style="fill:none;stroke:#424242;stroke-linecap:square;stroke-width:2.7;"/>
   </g>
   <g id="line2d_49">
    <path clip-path="url(#p0c32ab56c3)" d="M 0 0 
" style="fill:none;stroke:#424242;stroke-linecap:square;stroke-width:2.7;"/>
   </g>
   <g id="line2d_50">
    <path clip-path="url(#p0c32ab56c3)" d="M 0 0 
" style="fill:none;stroke:#424242;stroke-linecap:square;stroke-width:2.7;"/>
   </g>
   <g id="line2d_51">
    <path clip-path="url(#p0c32ab56c3)" d="M 0 0 
" style="fill:none;stroke:#424242;stroke-linecap:square;stroke-width:2.7;"/>
   </g>
   <g id="line2d_52">
    <path clip-path="url(#p0c32ab56c3)" d="M 0 0 
" style="fill:none;stroke:#424242;stroke-linecap:square;stroke-width:2.7;"/>
   </g>
   <g id="line2d_53">
    <path clip-path="url(#p0c32ab56c3)" d="M 0 0 
" style="fill:none;stroke:#424242;stroke-linecap:square;stroke-width:2.7;"/>
   </g>
   <g id="line2d_54">
    <path clip-path="url(#p0c32ab56c3)" d="M 0 0 
" style="fill:none;stroke:#424242;stroke-linecap:square;stroke-width:2.7;"/>
   </g>
   <g id="line2d_55">
    <path clip-path="url(#p0c32ab56c3)" d="M 0 0 
" style="fill:none;stroke:#424242;stroke-linecap:square;stroke-width:2.7;"/>
   </g>
   <g id="line2d_56">
    <path clip-path="url(#p0c32ab56c3)" d="M 0 0 
" style="fill:none;stroke:#424242;stroke-linecap:square;stroke-width:2.7;"/>
   </g>
   <g id="line2d_57">
    <path clip-path="url(#p0c32ab56c3)" d="M 0 0 
" style="fill:none;stroke:#424242;stroke-linecap:square;stroke-width:2.7;"/>
   </g>
   <g id="line2d_58">
    <path clip-path="url(#p0c32ab56c3)" d="M 0 0 
" style="fill:none;stroke:#424242;stroke-linecap:square;stroke-width:2.7;"/>
   </g>
   <g id="line2d_59">
    <path clip-path="url(#p0c32ab56c3)" d="M 0 0 
" style="fill:none;stroke:#424242;stroke-linecap:square;stroke-width:2.7;"/>
   </g>
   <g id="line2d_60">
    <path clip-path="url(#p0c32ab56c3)" d="M 0 0 
" style="fill:none;stroke:#424242;stroke-linecap:square;stroke-width:2.7;"/>
   </g>
   <g id="line2d_61">
    <path clip-path="url(#p0c32ab56c3)" d="M 0 0 
" style="fill:none;stroke:#424242;stroke-linecap:square;stroke-width:2.7;"/>
   </g>
   <g id="line2d_62">
    <path clip-path="url(#p0c32ab56c3)" d="M 0 0 
" style="fill:none;stroke:#424242;stroke-linecap:square;stroke-width:2.7;"/>
   </g>
   <g id="line2d_63">
    <path clip-path="url(#p0c32ab56c3)" d="M 0 0 
" style="fill:none;stroke:#424242;stroke-linecap:square;stroke-width:2.7;"/>
   </g>
   <g id="line2d_64">
    <path clip-path="url(#p0c32ab56c3)" d="M 0 0 
" style="fill:none;stroke:#424242;stroke-linecap:square;stroke-width:2.7;"/>
   </g>
   <g id="line2d_65">
    <path clip-path="url(#p0c32ab56c3)" d="M 0 0 
" style="fill:none;stroke:#424242;stroke-linecap:square;stroke-width:2.7;"/>
   </g>
   <g id="line2d_66">
    <path clip-path="url(#p0c32ab56c3)" d="M 0 0 
" style="fill:none;stroke:#424242;stroke-linecap:square;stroke-width:2.7;"/>
   </g>
   <g id="line2d_67">
    <path clip-path="url(#p0c32ab56c3)" d="M 0 0 
" style="fill:none;stroke:#424242;stroke-linecap:square;stroke-width:2.7;"/>
   </g>
   <g id="line2d_68">
    <path clip-path="url(#p0c32ab56c3)" d="M 0 0 
" style="fill:none;stroke:#424242;stroke-linecap:square;stroke-width:2.7;"/>
   </g>
   <g id="line2d_69">
    <path clip-path="url(#p0c32ab56c3)" d="M 0 0 
" style="fill:none;stroke:#424242;stroke-linecap:square;stroke-width:2.7;"/>
   </g>
   <g id="line2d_70">
    <path clip-path="url(#p0c32ab56c3)" d="M 0 0 
" style="fill:none;stroke:#424242;stroke-linecap:square;stroke-width:2.7;"/>
   </g>
   <g id="line2d_71">
    <path clip-path="url(#p0c32ab56c3)" d="M 0 0 
" style="fill:none;stroke:#424242;stroke-linecap:square;stroke-width:2.7;"/>
   </g>
   <g id="line2d_72">
    <path clip-path="url(#p0c32ab56c3)" d="M 0 0 
" style="fill:none;stroke:#424242;stroke-linecap:square;stroke-width:2.7;"/>
   </g>
   <g id="line2d_73">
    <path clip-path="url(#p0c32ab56c3)" d="M 0 0 
" style="fill:none;stroke:#424242;stroke-linecap:square;stroke-width:2.7;"/>
   </g>
   <g id="line2d_74">
    <path clip-path="url(#p0c32ab56c3)" d="M 0 0 
" style="fill:none;stroke:#424242;stroke-linecap:square;stroke-width:2.7;"/>
   </g>
   <g id="line2d_75">
    <path clip-path="url(#p0c32ab56c3)" d="M 0 0 
" style="fill:none;stroke:#424242;stroke-linecap:square;stroke-width:2.7;"/>
   </g>
   <g id="line2d_76">
    <path clip-path="url(#p0c32ab56c3)" d="M 0 0 
" style="fill:none;stroke:#424242;stroke-linecap:square;stroke-width:2.7;"/>
   </g>
   <g id="line2d_77">
    <path clip-path="url(#p0c32ab56c3)" d="M 0 0 
" style="fill:none;stroke:#424242;stroke-linecap:square;stroke-width:2.7;"/>
   </g>
   <g id="line2d_78">
    <path clip-path="url(#p0c32ab56c3)" d="M 0 0 
" style="fill:none;stroke:#424242;stroke-linecap:square;stroke-width:2.7;"/>
   </g>
   <g id="line2d_79">
    <path clip-path="url(#p0c32ab56c3)" d="M 0 0 
" style="fill:none;stroke:#424242;stroke-linecap:square;stroke-width:2.7;"/>
   </g>
   <g id="line2d_80">
    <path clip-path="url(#p0c32ab56c3)" d="M 0 0 
" style="fill:none;stroke:#424242;stroke-linecap:square;stroke-width:2.7;"/>
   </g>
   <g id="line2d_81">
    <path clip-path="url(#p0c32ab56c3)" d="M 0 0 
" style="fill:none;stroke:#424242;stroke-linecap:square;stroke-width:2.7;"/>
   </g>
   <g id="line2d_82">
    <path clip-path="url(#p0c32ab56c3)" d="M 0 0 
" style="fill:none;stroke:#424242;stroke-linecap:square;stroke-width:2.7;"/>
   </g>
   <g id="line2d_83">
    <path clip-path="url(#p0c32ab56c3)" d="M 0 0 
" style="fill:none;stroke:#424242;stroke-linecap:square;stroke-width:2.7;"/>
   </g>
   <g id="patch_69">
    <path d="M 72.072 205.884 
L 72.072 91.152 
" style="fill:none;stroke:#000000;stroke-linecap:square;stroke-linejoin:miter;stroke-width:1.25;"/>
   </g>
   <g id="patch_70">
    <path d="M 72.072 205.884 
L 416.448 205.884 
" style="fill:none;stroke:#000000;stroke-linecap:square;stroke-linejoin:miter;stroke-width:1.25;"/>
   </g>
   <g id="legend_1">
    <g id="patch_71">
     <path d="M 73.872 76.867875 
L 331.352156 76.867875 
Q 333.152156 76.867875 333.152156 75.067875 
L 333.152156 35.586 
Q 333.152156 33.786 331.352156 33.786 
L 73.872 33.786 
Q 72.072 33.786 72.072 35.586 
L 72.072 75.067875 
Q 72.072 76.867875 73.872 76.867875 
z
" style="fill:#ffffff;opacity:0.8;stroke:#cccccc;stroke-linejoin:miter;"/>
    </g>
    <g id="patch_72">
     <path d="M 75.672 44.224594 
L 93.672 44.224594 
L 93.672 37.924594 
L 75.672 37.924594 
z
" style="fill:#176d9c;opacity:0.9;"/>
    </g>
    <g id="text_17">
     <!-- base -->
     <defs>
      <path d="M 48.6875 27.296875 
Q 48.6875 37.203125 44.609375 42.84375 
Q 40.53125 48.484375 33.40625 48.484375 
Q 26.265625 48.484375 22.1875 42.84375 
Q 18.109375 37.203125 18.109375 27.296875 
Q 18.109375 17.390625 22.1875 11.75 
Q 26.265625 6.109375 33.40625 6.109375 
Q 40.53125 6.109375 44.609375 11.75 
Q 48.6875 17.390625 48.6875 27.296875 
z
M 18.109375 46.390625 
Q 20.953125 51.265625 25.265625 53.625 
Q 29.59375 56 35.59375 56 
Q 45.5625 56 51.78125 48.09375 
Q 58.015625 40.1875 58.015625 27.296875 
Q 58.015625 14.40625 51.78125 6.484375 
Q 45.5625 -1.421875 35.59375 -1.421875 
Q 29.59375 -1.421875 25.265625 0.953125 
Q 20.953125 3.328125 18.109375 8.203125 
L 18.109375 0 
L 9.078125 0 
L 9.078125 75.984375 
L 18.109375 75.984375 
z
" id="DejaVuSans-98"/>
      <path d="M 44.28125 53.078125 
L 44.28125 44.578125 
Q 40.484375 46.53125 36.375 47.5 
Q 32.28125 48.484375 27.875 48.484375 
Q 21.1875 48.484375 17.84375 46.4375 
Q 14.5 44.390625 14.5 40.28125 
Q 14.5 37.15625 16.890625 35.375 
Q 19.28125 33.59375 26.515625 31.984375 
L 29.59375 31.296875 
Q 39.15625 29.25 43.1875 25.515625 
Q 47.21875 21.78125 47.21875 15.09375 
Q 47.21875 7.46875 41.1875 3.015625 
Q 35.15625 -1.421875 24.609375 -1.421875 
Q 20.21875 -1.421875 15.453125 -0.5625 
Q 10.6875 0.296875 5.421875 2 
L 5.421875 11.28125 
Q 10.40625 8.6875 15.234375 7.390625 
Q 20.0625 6.109375 24.8125 6.109375 
Q 31.15625 6.109375 34.5625 8.28125 
Q 37.984375 10.453125 37.984375 14.40625 
Q 37.984375 18.0625 35.515625 20.015625 
Q 33.0625 21.96875 24.703125 23.78125 
L 21.578125 24.515625 
Q 13.234375 26.265625 9.515625 29.90625 
Q 5.8125 33.546875 5.8125 39.890625 
Q 5.8125 47.609375 11.28125 51.796875 
Q 16.75 56 26.8125 56 
Q 31.78125 56 36.171875 55.265625 
Q 40.578125 54.546875 44.28125 53.078125 
z
" id="DejaVuSans-115"/>
      <path d="M 56.203125 29.59375 
L 56.203125 25.203125 
L 14.890625 25.203125 
Q 15.484375 15.921875 20.484375 11.0625 
Q 25.484375 6.203125 34.421875 6.203125 
Q 39.59375 6.203125 44.453125 7.46875 
Q 49.3125 8.734375 54.109375 11.28125 
L 54.109375 2.78125 
Q 49.265625 0.734375 44.1875 -0.34375 
Q 39.109375 -1.421875 33.890625 -1.421875 
Q 20.796875 -1.421875 13.15625 6.1875 
Q 5.515625 13.8125 5.515625 26.8125 
Q 5.515625 40.234375 12.765625 48.109375 
Q 20.015625 56 32.328125 56 
Q 43.359375 56 49.78125 48.890625 
Q 56.203125 41.796875 56.203125 29.59375 
z
M 47.21875 32.234375 
Q 47.125 39.59375 43.09375 43.984375 
Q 39.0625 48.390625 32.421875 48.390625 
Q 24.90625 48.390625 20.390625 44.140625 
Q 15.875 39.890625 15.1875 32.171875 
z
" id="DejaVuSans-101"/>
     </defs>
     <g transform="translate(100.872 44.224594)scale(0.09 -0.09)">
      <use xlink:href="#DejaVuSans-98"/>
      <use x="63.476562" xlink:href="#DejaVuSans-97"/>
      <use x="124.755859" xlink:href="#DejaVuSans-115"/>
      <use x="176.855469" xlink:href="#DejaVuSans-101"/>
     </g>
    </g>
    <g id="patch_73">
     <path d="M 75.672 57.434906 
L 93.672 57.434906 
L 93.672 51.134906 
L 75.672 51.134906 
z
" style="fill:#c38820;opacity:0.9;"/>
    </g>
    <g id="text_18">
     <!-- sphereconv -->
     <defs>
      <path d="M 18.109375 8.203125 
L 18.109375 -20.796875 
L 9.078125 -20.796875 
L 9.078125 54.6875 
L 18.109375 54.6875 
L 18.109375 46.390625 
Q 20.953125 51.265625 25.265625 53.625 
Q 29.59375 56 35.59375 56 
Q 45.5625 56 51.78125 48.09375 
Q 58.015625 40.1875 58.015625 27.296875 
Q 58.015625 14.40625 51.78125 6.484375 
Q 45.5625 -1.421875 35.59375 -1.421875 
Q 29.59375 -1.421875 25.265625 0.953125 
Q 20.953125 3.328125 18.109375 8.203125 
z
M 48.6875 27.296875 
Q 48.6875 37.203125 44.609375 42.84375 
Q 40.53125 48.484375 33.40625 48.484375 
Q 26.265625 48.484375 22.1875 42.84375 
Q 18.109375 37.203125 18.109375 27.296875 
Q 18.109375 17.390625 22.1875 11.75 
Q 26.265625 6.109375 33.40625 6.109375 
Q 40.53125 6.109375 44.609375 11.75 
Q 48.6875 17.390625 48.6875 27.296875 
z
" id="DejaVuSans-112"/>
      <path d="M 54.890625 33.015625 
L 54.890625 0 
L 45.90625 0 
L 45.90625 32.71875 
Q 45.90625 40.484375 42.875 44.328125 
Q 39.84375 48.1875 33.796875 48.1875 
Q 26.515625 48.1875 22.3125 43.546875 
Q 18.109375 38.921875 18.109375 30.90625 
L 18.109375 0 
L 9.078125 0 
L 9.078125 75.984375 
L 18.109375 75.984375 
L 18.109375 46.1875 
Q 21.34375 51.125 25.703125 53.5625 
Q 30.078125 56 35.796875 56 
Q 45.21875 56 50.046875 50.171875 
Q 54.890625 44.34375 54.890625 33.015625 
z
" id="DejaVuSans-104"/>
      <path d="M 41.109375 46.296875 
Q 39.59375 47.171875 37.8125 47.578125 
Q 36.03125 48 33.890625 48 
Q 26.265625 48 22.1875 43.046875 
Q 18.109375 38.09375 18.109375 28.8125 
L 18.109375 0 
L 9.078125 0 
L 9.078125 54.6875 
L 18.109375 54.6875 
L 18.109375 46.1875 
Q 20.953125 51.171875 25.484375 53.578125 
Q 30.03125 56 36.53125 56 
Q 37.453125 56 38.578125 55.875 
Q 39.703125 55.765625 41.0625 55.515625 
z
" id="DejaVuSans-114"/>
      <path d="M 30.609375 48.390625 
Q 23.390625 48.390625 19.1875 42.75 
Q 14.984375 37.109375 14.984375 27.296875 
Q 14.984375 17.484375 19.15625 11.84375 
Q 23.34375 6.203125 30.609375 6.203125 
Q 37.796875 6.203125 41.984375 11.859375 
Q 46.1875 17.53125 46.1875 27.296875 
Q 46.1875 37.015625 41.984375 42.703125 
Q 37.796875 48.390625 30.609375 48.390625 
z
M 30.609375 56 
Q 42.328125 56 49.015625 48.375 
Q 55.71875 40.765625 55.71875 27.296875 
Q 55.71875 13.875 49.015625 6.21875 
Q 42.328125 -1.421875 30.609375 -1.421875 
Q 18.84375 -1.421875 12.171875 6.21875 
Q 5.515625 13.875 5.515625 27.296875 
Q 5.515625 40.765625 12.171875 48.375 
Q 18.84375 56 30.609375 56 
z
" id="DejaVuSans-111"/>
      <path d="M 54.890625 33.015625 
L 54.890625 0 
L 45.90625 0 
L 45.90625 32.71875 
Q 45.90625 40.484375 42.875 44.328125 
Q 39.84375 48.1875 33.796875 48.1875 
Q 26.515625 48.1875 22.3125 43.546875 
Q 18.109375 38.921875 18.109375 30.90625 
L 18.109375 0 
L 9.078125 0 
L 9.078125 54.6875 
L 18.109375 54.6875 
L 18.109375 46.1875 
Q 21.34375 51.125 25.703125 53.5625 
Q 30.078125 56 35.796875 56 
Q 45.21875 56 50.046875 50.171875 
Q 54.890625 44.34375 54.890625 33.015625 
z
" id="DejaVuSans-110"/>
      <path d="M 2.984375 54.6875 
L 12.5 54.6875 
L 29.59375 8.796875 
L 46.6875 54.6875 
L 56.203125 54.6875 
L 35.6875 0 
L 23.484375 0 
z
" id="DejaVuSans-118"/>
     </defs>
     <g transform="translate(100.872 57.434906)scale(0.09 -0.09)">
      <use xlink:href="#DejaVuSans-115"/>
      <use x="52.099609" xlink:href="#DejaVuSans-112"/>
      <use x="115.576172" xlink:href="#DejaVuSans-104"/>
      <use x="178.955078" xlink:href="#DejaVuSans-101"/>
      <use x="240.478516" xlink:href="#DejaVuSans-114"/>
      <use x="279.341797" xlink:href="#DejaVuSans-101"/>
      <use x="340.865234" xlink:href="#DejaVuSans-99"/>
      <use x="395.845703" xlink:href="#DejaVuSans-111"/>
      <use x="457.027344" xlink:href="#DejaVuSans-110"/>
      <use x="520.40625" xlink:href="#DejaVuSans-118"/>
     </g>
    </g>
    <g id="patch_74">
     <path d="M 75.672 70.645219 
L 93.672 70.645219 
L 93.672 64.345219 
L 75.672 64.345219 
z
" style="fill:#158b6a;opacity:0.9;"/>
    </g>
    <g id="text_19">
     <!-- hemconv -->
     <defs>
      <path d="M 52 44.1875 
Q 55.375 50.25 60.0625 53.125 
Q 64.75 56 71.09375 56 
Q 79.640625 56 84.28125 50.015625 
Q 88.921875 44.046875 88.921875 33.015625 
L 88.921875 0 
L 79.890625 0 
L 79.890625 32.71875 
Q 79.890625 40.578125 77.09375 44.375 
Q 74.3125 48.1875 68.609375 48.1875 
Q 61.625 48.1875 57.5625 43.546875 
Q 53.515625 38.921875 53.515625 30.90625 
L 53.515625 0 
L 44.484375 0 
L 44.484375 32.71875 
Q 44.484375 40.625 41.703125 44.40625 
Q 38.921875 48.1875 33.109375 48.1875 
Q 26.21875 48.1875 22.15625 43.53125 
Q 18.109375 38.875 18.109375 30.90625 
L 18.109375 0 
L 9.078125 0 
L 9.078125 54.6875 
L 18.109375 54.6875 
L 18.109375 46.1875 
Q 21.1875 51.21875 25.484375 53.609375 
Q 29.78125 56 35.6875 56 
Q 41.65625 56 45.828125 52.96875 
Q 50 49.953125 52 44.1875 
z
" id="DejaVuSans-109"/>
     </defs>
     <g transform="translate(100.872 70.645219)scale(0.09 -0.09)">
      <use xlink:href="#DejaVuSans-104"/>
      <use x="63.378906" xlink:href="#DejaVuSans-101"/>
      <use x="124.902344" xlink:href="#DejaVuSans-109"/>
      <use x="222.314453" xlink:href="#DejaVuSans-99"/>
      <use x="277.294922" xlink:href="#DejaVuSans-111"/>
      <use x="338.476562" xlink:href="#DejaVuSans-110"/>
      <use x="401.855469" xlink:href="#DejaVuSans-118"/>
     </g>
    </g>
    <g id="patch_75">
     <path d="M 171.036844 44.224594 
L 189.036844 44.224594 
L 189.036844 37.924594 
L 171.036844 37.924594 
z
" style="fill:#ba611b;opacity:0.9;"/>
    </g>
    <g id="text_20">
     <!-- hemconv_sharedweights -->
     <defs>
      <path d="M 50.984375 -16.609375 
L 50.984375 -23.578125 
L -0.984375 -23.578125 
L -0.984375 -16.609375 
z
" id="DejaVuSans-95"/>
      <path d="M 4.203125 54.6875 
L 13.1875 54.6875 
L 24.421875 12.015625 
L 35.59375 54.6875 
L 46.1875 54.6875 
L 57.421875 12.015625 
L 68.609375 54.6875 
L 77.59375 54.6875 
L 63.28125 0 
L 52.6875 0 
L 40.921875 44.828125 
L 29.109375 0 
L 18.5 0 
z
" id="DejaVuSans-119"/>
      <path d="M 9.421875 54.6875 
L 18.40625 54.6875 
L 18.40625 0 
L 9.421875 0 
z
M 9.421875 75.984375 
L 18.40625 75.984375 
L 18.40625 64.59375 
L 9.421875 64.59375 
z
" id="DejaVuSans-105"/>
      <path d="M 45.40625 27.984375 
Q 45.40625 37.75 41.375 43.109375 
Q 37.359375 48.484375 30.078125 48.484375 
Q 22.859375 48.484375 18.828125 43.109375 
Q 14.796875 37.75 14.796875 27.984375 
Q 14.796875 18.265625 18.828125 12.890625 
Q 22.859375 7.515625 30.078125 7.515625 
Q 37.359375 7.515625 41.375 12.890625 
Q 45.40625 18.265625 45.40625 27.984375 
z
M 54.390625 6.78125 
Q 54.390625 -7.171875 48.1875 -13.984375 
Q 42 -20.796875 29.203125 -20.796875 
Q 24.46875 -20.796875 20.265625 -20.09375 
Q 16.0625 -19.390625 12.109375 -17.921875 
L 12.109375 -9.1875 
Q 16.0625 -11.328125 19.921875 -12.34375 
Q 23.78125 -13.375 27.78125 -13.375 
Q 36.625 -13.375 41.015625 -8.765625 
Q 45.40625 -4.15625 45.40625 5.171875 
L 45.40625 9.625 
Q 42.625 4.78125 38.28125 2.390625 
Q 33.9375 0 27.875 0 
Q 17.828125 0 11.671875 7.65625 
Q 5.515625 15.328125 5.515625 27.984375 
Q 5.515625 40.671875 11.671875 48.328125 
Q 17.828125 56 27.875 56 
Q 33.9375 56 38.28125 53.609375 
Q 42.625 51.21875 45.40625 46.390625 
L 45.40625 54.6875 
L 54.390625 54.6875 
z
" id="DejaVuSans-103"/>
      <path d="M 18.3125 70.21875 
L 18.3125 54.6875 
L 36.8125 54.6875 
L 36.8125 47.703125 
L 18.3125 47.703125 
L 18.3125 18.015625 
Q 18.3125 11.328125 20.140625 9.421875 
Q 21.96875 7.515625 27.59375 7.515625 
L 36.8125 7.515625 
L 36.8125 0 
L 27.59375 0 
Q 17.1875 0 13.234375 3.875 
Q 9.28125 7.765625 9.28125 18.015625 
L 9.28125 47.703125 
L 2.6875 47.703125 
L 2.6875 54.6875 
L 9.28125 54.6875 
L 9.28125 70.21875 
z
" id="DejaVuSans-116"/>
     </defs>
     <g transform="translate(196.236844 44.224594)scale(0.09 -0.09)">
      <use xlink:href="#DejaVuSans-104"/>
      <use x="63.378906" xlink:href="#DejaVuSans-101"/>
      <use x="124.902344" xlink:href="#DejaVuSans-109"/>
      <use x="222.314453" xlink:href="#DejaVuSans-99"/>
      <use x="277.294922" xlink:href="#DejaVuSans-111"/>
      <use x="338.476562" xlink:href="#DejaVuSans-110"/>
      <use x="401.855469" xlink:href="#DejaVuSans-118"/>
      <use x="461.035156" xlink:href="#DejaVuSans-95"/>
      <use x="511.035156" xlink:href="#DejaVuSans-115"/>
      <use x="563.134766" xlink:href="#DejaVuSans-104"/>
      <use x="626.513672" xlink:href="#DejaVuSans-97"/>
      <use x="687.792969" xlink:href="#DejaVuSans-114"/>
      <use x="726.65625" xlink:href="#DejaVuSans-101"/>
      <use x="788.179688" xlink:href="#DejaVuSans-100"/>
      <use x="851.65625" xlink:href="#DejaVuSans-119"/>
      <use x="933.443359" xlink:href="#DejaVuSans-101"/>
      <use x="994.966797" xlink:href="#DejaVuSans-105"/>
      <use x="1022.75" xlink:href="#DejaVuSans-103"/>
      <use x="1086.226562" xlink:href="#DejaVuSans-104"/>
      <use x="1149.605469" xlink:href="#DejaVuSans-116"/>
      <use x="1188.814453" xlink:href="#DejaVuSans-115"/>
     </g>
    </g>
    <g id="patch_76">
     <path d="M 171.036844 57.685219 
L 189.036844 57.685219 
L 189.036844 51.385219 
L 171.036844 51.385219 
z
" style="fill:#c282b5;opacity:0.9;"/>
    </g>
    <g id="text_21">
     <!-- sphereconv_hemconv -->
     <g transform="translate(196.236844 57.685219)scale(0.09 -0.09)">
      <use xlink:href="#DejaVuSans-115"/>
      <use x="52.099609" xlink:href="#DejaVuSans-112"/>
      <use x="115.576172" xlink:href="#DejaVuSans-104"/>
      <use x="178.955078" xlink:href="#DejaVuSans-101"/>
      <use x="240.478516" xlink:href="#DejaVuSans-114"/>
      <use x="279.341797" xlink:href="#DejaVuSans-101"/>
      <use x="340.865234" xlink:href="#DejaVuSans-99"/>
      <use x="395.845703" xlink:href="#DejaVuSans-111"/>
      <use x="457.027344" xlink:href="#DejaVuSans-110"/>
      <use x="520.40625" xlink:href="#DejaVuSans-118"/>
      <use x="579.585938" xlink:href="#DejaVuSans-95"/>
      <use x="629.585938" xlink:href="#DejaVuSans-104"/>
      <use x="692.964844" xlink:href="#DejaVuSans-101"/>
      <use x="754.488281" xlink:href="#DejaVuSans-109"/>
      <use x="851.900391" xlink:href="#DejaVuSans-99"/>
      <use x="906.880859" xlink:href="#DejaVuSans-111"/>
      <use x="968.0625" xlink:href="#DejaVuSans-110"/>
      <use x="1031.441406" xlink:href="#DejaVuSans-118"/>
     </g>
    </g>
    <g id="patch_77">
     <path d="M 171.036844 71.145844 
L 189.036844 71.145844 
L 189.036844 64.845844 
L 171.036844 64.845844 
z
" style="fill:#bd926e;opacity:0.9;"/>
    </g>
    <g id="text_22">
     <!-- sphereconv_hemconv_shared -->
     <g transform="translate(196.236844 71.145844)scale(0.09 -0.09)">
      <use xlink:href="#DejaVuSans-115"/>
      <use x="52.099609" xlink:href="#DejaVuSans-112"/>
      <use x="115.576172" xlink:href="#DejaVuSans-104"/>
      <use x="178.955078" xlink:href="#DejaVuSans-101"/>
      <use x="240.478516" xlink:href="#DejaVuSans-114"/>
      <use x="279.341797" xlink:href="#DejaVuSans-101"/>
      <use x="340.865234" xlink:href="#DejaVuSans-99"/>
      <use x="395.845703" xlink:href="#DejaVuSans-111"/>
      <use x="457.027344" xlink:href="#DejaVuSans-110"/>
      <use x="520.40625" xlink:href="#DejaVuSans-118"/>
      <use x="579.585938" xlink:href="#DejaVuSans-95"/>
      <use x="629.585938" xlink:href="#DejaVuSans-104"/>
      <use x="692.964844" xlink:href="#DejaVuSans-101"/>
      <use x="754.488281" xlink:href="#DejaVuSans-109"/>
      <use x="851.900391" xlink:href="#DejaVuSans-99"/>
      <use x="906.880859" xlink:href="#DejaVuSans-111"/>
      <use x="968.0625" xlink:href="#DejaVuSans-110"/>
      <use x="1031.441406" xlink:href="#DejaVuSans-118"/>
      <use x="1090.621094" xlink:href="#DejaVuSans-95"/>
      <use x="1140.621094" xlink:href="#DejaVuSans-115"/>
      <use x="1192.720703" xlink:href="#DejaVuSans-104"/>
      <use x="1256.099609" xlink:href="#DejaVuSans-97"/>
      <use x="1317.378906" xlink:href="#DejaVuSans-114"/>
      <use x="1356.242188" xlink:href="#DejaVuSans-101"/>
      <use x="1417.765625" xlink:href="#DejaVuSans-100"/>
     </g>
    </g>
   </g>
  </g>
  <g id="axes_2">
   <g id="patch_78">
    <path d="M 72.072 376.308 
L 416.448 376.308 
L 416.448 261.576 
L 72.072 261.576 
z
" style="fill:#ffffff;"/>
   </g>
   <g id="patch_79">
    <path clip-path="url(#p7631906868)" d="M 75.202691 376.308 
L 79.376945 376.308 
L 79.376945 376.308 
L 75.202691 376.308 
z
" style="fill:#176d9c;opacity:0.9;"/>
   </g>
   <g id="patch_80">
    <path clip-path="url(#p7631906868)" d="M 106.5096 376.308 
L 110.683855 376.308 
L 110.683855 376.308 
L 106.5096 376.308 
z
" style="fill:#176d9c;opacity:0.9;"/>
   </g>
   <g id="patch_81">
    <path clip-path="url(#p7631906868)" d="M 137.816509 376.308 
L 141.990764 376.308 
L 141.990764 376.308 
L 137.816509 376.308 
z
" style="fill:#176d9c;opacity:0.9;"/>
   </g>
   <g id="patch_82">
    <path clip-path="url(#p7631906868)" d="M 169.123418 376.308 
L 173.297673 376.308 
L 173.297673 376.308 
L 169.123418 376.308 
z
" style="fill:#176d9c;opacity:0.9;"/>
   </g>
   <g id="patch_83">
    <path clip-path="url(#p7631906868)" d="M 200.430327 376.308 
L 204.604582 376.308 
L 204.604582 376.308 
L 200.430327 376.308 
z
" style="fill:#176d9c;opacity:0.9;"/>
   </g>
   <g id="patch_84">
    <path clip-path="url(#p7631906868)" d="M 231.737236 376.308 
L 235.911491 376.308 
L 235.911491 376.308 
L 231.737236 376.308 
z
" style="fill:#176d9c;opacity:0.9;"/>
   </g>
   <g id="patch_85">
    <path clip-path="url(#p7631906868)" d="M 263.044145 376.308 
L 267.2184 376.308 
L 267.2184 376.308 
L 263.044145 376.308 
z
" style="fill:#176d9c;opacity:0.9;"/>
   </g>
   <g id="patch_86">
    <path clip-path="url(#p7631906868)" d="M 294.351055 376.308 
L 298.525309 376.308 
L 298.525309 376.308 
L 294.351055 376.308 
z
" style="fill:#176d9c;opacity:0.9;"/>
   </g>
   <g id="patch_87">
    <path clip-path="url(#p7631906868)" d="M 325.657964 376.308 
L 329.832218 376.308 
L 329.832218 376.308 
L 325.657964 376.308 
z
" style="fill:#176d9c;opacity:0.9;"/>
   </g>
   <g id="patch_88">
    <path clip-path="url(#p7631906868)" d="M 356.964873 376.308 
L 361.139127 376.308 
L 361.139127 376.308 
L 356.964873 376.308 
z
" style="fill:#176d9c;opacity:0.9;"/>
   </g>
   <g id="patch_89">
    <path clip-path="url(#p7631906868)" d="M 388.271782 376.308 
L 392.446036 376.308 
L 392.446036 376.308 
L 388.271782 376.308 
z
" style="fill:#176d9c;opacity:0.9;"/>
   </g>
   <g id="patch_90">
    <path clip-path="url(#p7631906868)" d="M 79.376945 376.308 
L 83.5512 376.308 
L 83.5512 376.308 
L 79.376945 376.308 
z
" style="fill:#c38820;opacity:0.9;"/>
   </g>
   <g id="patch_91">
    <path clip-path="url(#p7631906868)" d="M 110.683855 376.308 
L 114.858109 376.308 
L 114.858109 374.55458 
L 110.683855 374.55458 
z
" style="fill:#c38820;opacity:0.9;"/>
   </g>
   <g id="patch_92">
    <path clip-path="url(#p7631906868)" d="M 141.990764 376.308 
L 146.165018 376.308 
L 146.165018 371.644198 
L 141.990764 371.644198 
z
" style="fill:#c38820;opacity:0.9;"/>
   </g>
   <g id="patch_93">
    <path clip-path="url(#p7631906868)" d="M 173.297673 376.308 
L 177.471927 376.308 
L 177.471927 366.886112 
L 173.297673 366.886112 
z
" style="fill:#c38820;opacity:0.9;"/>
   </g>
   <g id="patch_94">
    <path clip-path="url(#p7631906868)" d="M 204.604582 376.308 
L 208.778836 376.308 
L 208.778836 361.054557 
L 204.604582 361.054557 
z
" style="fill:#c38820;opacity:0.9;"/>
   </g>
   <g id="patch_95">
    <path clip-path="url(#p7631906868)" d="M 235.911491 376.308 
L 240.085745 376.308 
L 240.085745 352.393877 
L 235.911491 352.393877 
z
" style="fill:#c38820;opacity:0.9;"/>
   </g>
   <g id="patch_96">
    <path clip-path="url(#p7631906868)" d="M 267.2184 376.308 
L 271.392655 376.308 
L 271.392655 336.772249 
L 267.2184 336.772249 
z
" style="fill:#c38820;opacity:0.9;"/>
   </g>
   <g id="patch_97">
    <path clip-path="url(#p7631906868)" d="M 298.525309 376.308 
L 302.699564 376.308 
L 302.699564 318.7033 
L 298.525309 318.7033 
z
" style="fill:#c38820;opacity:0.9;"/>
   </g>
   <g id="patch_98">
    <path clip-path="url(#p7631906868)" d="M 329.832218 376.308 
L 334.006473 376.308 
L 334.006473 304.061408 
L 329.832218 304.061408 
z
" style="fill:#c38820;opacity:0.9;"/>
   </g>
   <g id="patch_99">
    <path clip-path="url(#p7631906868)" d="M 361.139127 376.308 
L 365.313382 376.308 
L 365.313382 290.822543 
L 361.139127 290.822543 
z
" style="fill:#c38820;opacity:0.9;"/>
   </g>
   <g id="patch_100">
    <path clip-path="url(#p7631906868)" d="M 392.446036 376.308 
L 396.620291 376.308 
L 396.620291 277.163049 
L 392.446036 277.163049 
z
" style="fill:#c38820;opacity:0.9;"/>
   </g>
   <g id="patch_101">
    <path clip-path="url(#p7631906868)" d="M 83.5512 376.308 
L 87.725455 376.308 
L 87.725455 376.308 
L 83.5512 376.308 
z
" style="fill:#158b6a;opacity:0.9;"/>
   </g>
   <g id="patch_102">
    <path clip-path="url(#p7631906868)" d="M 114.858109 376.308 
L 119.032364 376.308 
L 119.032364 375.435995 
L 114.858109 375.435995 
z
" style="fill:#158b6a;opacity:0.9;"/>
   </g>
   <g id="patch_103">
    <path clip-path="url(#p7631906868)" d="M 146.165018 376.308 
L 150.339273 376.308 
L 150.339273 373.571334 
L 146.165018 373.571334 
z
" style="fill:#158b6a;opacity:0.9;"/>
   </g>
   <g id="patch_104">
    <path clip-path="url(#p7631906868)" d="M 177.471927 376.308 
L 181.646182 376.308 
L 181.646182 370.098118 
L 177.471927 370.098118 
z
" style="fill:#158b6a;opacity:0.9;"/>
   </g>
   <g id="patch_105">
    <path clip-path="url(#p7631906868)" d="M 208.778836 376.308 
L 212.953091 376.308 
L 212.953091 364.847467 
L 208.778836 364.847467 
z
" style="fill:#158b6a;opacity:0.9;"/>
   </g>
   <g id="patch_106">
    <path clip-path="url(#p7631906868)" d="M 240.085745 376.308 
L 244.26 376.308 
L 244.26 355.62 
L 240.085745 355.62 
z
" style="fill:#158b6a;opacity:0.9;"/>
   </g>
   <g id="patch_107">
    <path clip-path="url(#p7631906868)" d="M 271.392655 376.308 
L 275.566909 376.308 
L 275.566909 338.205873 
L 271.392655 338.205873 
z
" style="fill:#158b6a;opacity:0.9;"/>
   </g>
   <g id="patch_108">
    <path clip-path="url(#p7631906868)" d="M 302.699564 376.308 
L 306.873818 376.308 
L 306.873818 317.376583 
L 302.699564 317.376583 
z
" style="fill:#158b6a;opacity:0.9;"/>
   </g>
   <g id="patch_109">
    <path clip-path="url(#p7631906868)" d="M 334.006473 376.308 
L 338.180727 376.308 
L 338.180727 299.678107 
L 334.006473 299.678107 
z
" style="fill:#158b6a;opacity:0.9;"/>
   </g>
   <g id="patch_110">
    <path clip-path="url(#p7631906868)" d="M 365.313382 376.308 
L 369.487636 376.308 
L 369.487636 283.476264 
L 365.313382 283.476264 
z
" style="fill:#158b6a;opacity:0.9;"/>
   </g>
   <g id="patch_111">
    <path clip-path="url(#p7631906868)" d="M 396.620291 376.308 
L 400.794545 376.308 
L 400.794545 267.039429 
L 396.620291 267.039429 
z
" style="fill:#158b6a;opacity:0.9;"/>
   </g>
   <g id="patch_112">
    <path clip-path="url(#p7631906868)" d="M 87.725455 376.308 
L 91.899709 376.308 
L 91.899709 376.308 
L 87.725455 376.308 
z
" style="fill:#ba611b;opacity:0.9;"/>
   </g>
   <g id="patch_113">
    <path clip-path="url(#p7631906868)" d="M 119.032364 376.308 
L 123.206618 376.308 
L 123.206618 374.297778 
L 119.032364 374.297778 
z
" style="fill:#ba611b;opacity:0.9;"/>
   </g>
   <g id="patch_114">
    <path clip-path="url(#p7631906868)" d="M 150.339273 376.308 
L 154.513527 376.308 
L 154.513527 370.274306 
L 150.339273 370.274306 
z
" style="fill:#ba611b;opacity:0.9;"/>
   </g>
   <g id="patch_115">
    <path clip-path="url(#p7631906868)" d="M 181.646182 376.308 
L 185.820436 376.308 
L 185.820436 364.859088 
L 181.646182 364.859088 
z
" style="fill:#ba611b;opacity:0.9;"/>
   </g>
   <g id="patch_116">
    <path clip-path="url(#p7631906868)" d="M 212.953091 376.308 
L 217.127345 376.308 
L 217.127345 358.71276 
L 212.953091 358.71276 
z
" style="fill:#ba611b;opacity:0.9;"/>
   </g>
   <g id="patch_117">
    <path clip-path="url(#p7631906868)" d="M 244.26 376.308 
L 248.434255 376.308 
L 248.434255 349.877404 
L 244.26 349.877404 
z
" style="fill:#ba611b;opacity:0.9;"/>
   </g>
   <g id="patch_118">
    <path clip-path="url(#p7631906868)" d="M 275.566909 376.308 
L 279.741164 376.308 
L 279.741164 334.413055 
L 275.566909 334.413055 
z
" style="fill:#ba611b;opacity:0.9;"/>
   </g>
   <g id="patch_119">
    <path clip-path="url(#p7631906868)" d="M 306.873818 376.308 
L 311.048073 376.308 
L 311.048073 317.279115 
L 306.873818 317.279115 
z
" style="fill:#ba611b;opacity:0.9;"/>
   </g>
   <g id="patch_120">
    <path clip-path="url(#p7631906868)" d="M 338.180727 376.308 
L 342.354982 376.308 
L 342.354982 304.460445 
L 338.180727 304.460445 
z
" style="fill:#ba611b;opacity:0.9;"/>
   </g>
   <g id="patch_121">
    <path clip-path="url(#p7631906868)" d="M 369.487636 376.308 
L 373.661891 376.308 
L 373.661891 294.03787 
L 369.487636 294.03787 
z
" style="fill:#ba611b;opacity:0.9;"/>
   </g>
   <g id="patch_122">
    <path clip-path="url(#p7631906868)" d="M 400.794545 376.308 
L 404.9688 376.308 
L 404.9688 284.436695 
L 400.794545 284.436695 
z
" style="fill:#ba611b;opacity:0.9;"/>
   </g>
   <g id="patch_123">
    <path clip-path="url(#p7631906868)" d="M 91.899709 376.308 
L 96.073964 376.308 
L 96.073964 376.308 
L 91.899709 376.308 
z
" style="fill:#c282b5;opacity:0.9;"/>
   </g>
   <g id="patch_124">
    <path clip-path="url(#p7631906868)" d="M 123.206618 376.308 
L 127.380873 376.308 
L 127.380873 373.546452 
L 123.206618 373.546452 
z
" style="fill:#c282b5;opacity:0.9;"/>
   </g>
   <g id="patch_125">
    <path clip-path="url(#p7631906868)" d="M 154.513527 376.308 
L 158.687782 376.308 
L 158.687782 369.714906 
L 154.513527 369.714906 
z
" style="fill:#c282b5;opacity:0.9;"/>
   </g>
   <g id="patch_126">
    <path clip-path="url(#p7631906868)" d="M 185.820436 376.308 
L 189.994691 376.308 
L 189.994691 364.262035 
L 185.820436 364.262035 
z
" style="fill:#c282b5;opacity:0.9;"/>
   </g>
   <g id="patch_127">
    <path clip-path="url(#p7631906868)" d="M 217.127345 376.308 
L 221.3016 376.308 
L 221.3016 358.129027 
L 217.127345 358.129027 
z
" style="fill:#c282b5;opacity:0.9;"/>
   </g>
   <g id="patch_128">
    <path clip-path="url(#p7631906868)" d="M 248.434255 376.308 
L 252.608509 376.308 
L 252.608509 349.813606 
L 248.434255 349.813606 
z
" style="fill:#c282b5;opacity:0.9;"/>
   </g>
   <g id="patch_129">
    <path clip-path="url(#p7631906868)" d="M 279.741164 376.308 
L 283.915418 376.308 
L 283.915418 335.117857 
L 279.741164 335.117857 
z
" style="fill:#c282b5;opacity:0.9;"/>
   </g>
   <g id="patch_130">
    <path clip-path="url(#p7631906868)" d="M 311.048073 376.308 
L 315.222327 376.308 
L 315.222327 318.562291 
L 311.048073 318.562291 
z
" style="fill:#c282b5;opacity:0.9;"/>
   </g>
   <g id="patch_131">
    <path clip-path="url(#p7631906868)" d="M 342.354982 376.308 
L 346.529236 376.308 
L 346.529236 305.904902 
L 342.354982 305.904902 
z
" style="fill:#c282b5;opacity:0.9;"/>
   </g>
   <g id="patch_132">
    <path clip-path="url(#p7631906868)" d="M 373.661891 376.308 
L 377.836145 376.308 
L 377.836145 294.584145 
L 373.661891 294.584145 
z
" style="fill:#c282b5;opacity:0.9;"/>
   </g>
   <g id="patch_133">
    <path clip-path="url(#p7631906868)" d="M 404.9688 376.308 
L 409.143055 376.308 
L 409.143055 282.379166 
L 404.9688 282.379166 
z
" style="fill:#c282b5;opacity:0.9;"/>
   </g>
   <g id="patch_134">
    <path clip-path="url(#p7631906868)" d="M 96.073964 376.308 
L 100.248218 376.308 
L 100.248218 376.308 
L 96.073964 376.308 
z
" style="fill:#bd926e;opacity:0.9;"/>
   </g>
   <g id="patch_135">
    <path clip-path="url(#p7631906868)" d="M 127.380873 376.308 
L 131.555127 376.308 
L 131.555127 372.422302 
L 127.380873 372.422302 
z
" style="fill:#bd926e;opacity:0.9;"/>
   </g>
   <g id="patch_136">
    <path clip-path="url(#p7631906868)" d="M 158.687782 376.308 
L 162.862036 376.308 
L 162.862036 366.129661 
L 158.687782 366.129661 
z
" style="fill:#bd926e;opacity:0.9;"/>
   </g>
   <g id="patch_137">
    <path clip-path="url(#p7631906868)" d="M 189.994691 376.308 
L 194.168945 376.308 
L 194.168945 357.730793 
L 189.994691 357.730793 
z
" style="fill:#bd926e;opacity:0.9;"/>
   </g>
   <g id="patch_138">
    <path clip-path="url(#p7631906868)" d="M 221.3016 376.308 
L 225.475855 376.308 
L 225.475855 349.066952 
L 221.3016 349.066952 
z
" style="fill:#bd926e;opacity:0.9;"/>
   </g>
   <g id="patch_139">
    <path clip-path="url(#p7631906868)" d="M 252.608509 376.308 
L 256.782764 376.308 
L 256.782764 339.116096 
L 252.608509 339.116096 
z
" style="fill:#bd926e;opacity:0.9;"/>
   </g>
   <g id="patch_140">
    <path clip-path="url(#p7631906868)" d="M 283.915418 376.308 
L 288.089673 376.308 
L 288.089673 323.644194 
L 283.915418 323.644194 
z
" style="fill:#bd926e;opacity:0.9;"/>
   </g>
   <g id="patch_141">
    <path clip-path="url(#p7631906868)" d="M 315.222327 376.308 
L 319.396582 376.308 
L 319.396582 307.015046 
L 315.222327 307.015046 
z
" style="fill:#bd926e;opacity:0.9;"/>
   </g>
   <g id="patch_142">
    <path clip-path="url(#p7631906868)" d="M 346.529236 376.308 
L 350.703491 376.308 
L 350.703491 294.417816 
L 346.529236 294.417816 
z
" style="fill:#bd926e;opacity:0.9;"/>
   </g>
   <g id="patch_143">
    <path clip-path="url(#p7631906868)" d="M 377.836145 376.308 
L 382.0104 376.308 
L 382.0104 283.084284 
L 377.836145 283.084284 
z
" style="fill:#bd926e;opacity:0.9;"/>
   </g>
   <g id="patch_144">
    <path clip-path="url(#p7631906868)" d="M 409.143055 376.308 
L 413.317309 376.308 
L 413.317309 270.845493 
L 409.143055 270.845493 
z
" style="fill:#bd926e;opacity:0.9;"/>
   </g>
   <g id="matplotlib.axis_3">
    <g id="xtick_12">
     <g id="line2d_84">
      <g>
       <use style="stroke:#000000;stroke-width:1.25;" x="87.725455" xlink:href="#m5f45b741bf" y="376.308"/>
      </g>
     </g>
     <g id="text_23">
      <!-- 0 -->
      <g transform="translate(83.526205 395.837938)scale(0.132 -0.132)">
       <use xlink:href="#DejaVuSans-48"/>
      </g>
     </g>
    </g>
    <g id="xtick_13">
     <g id="line2d_85">
      <g>
       <use style="stroke:#000000;stroke-width:1.25;" x="119.032364" xlink:href="#m5f45b741bf" y="376.308"/>
      </g>
     </g>
     <g id="text_24">
      <!-- 1 -->
      <g transform="translate(114.833114 395.837938)scale(0.132 -0.132)">
       <use xlink:href="#DejaVuSans-49"/>
      </g>
     </g>
    </g>
    <g id="xtick_14">
     <g id="line2d_86">
      <g>
       <use style="stroke:#000000;stroke-width:1.25;" x="150.339273" xlink:href="#m5f45b741bf" y="376.308"/>
      </g>
     </g>
     <g id="text_25">
      <!-- 2 -->
      <g transform="translate(146.140023 395.837938)scale(0.132 -0.132)">
       <use xlink:href="#DejaVuSans-50"/>
      </g>
     </g>
    </g>
    <g id="xtick_15">
     <g id="line2d_87">
      <g>
       <use style="stroke:#000000;stroke-width:1.25;" x="181.646182" xlink:href="#m5f45b741bf" y="376.308"/>
      </g>
     </g>
     <g id="text_26">
      <!-- 3 -->
      <g transform="translate(177.446932 395.837938)scale(0.132 -0.132)">
       <use xlink:href="#DejaVuSans-51"/>
      </g>
     </g>
    </g>
    <g id="xtick_16">
     <g id="line2d_88">
      <g>
       <use style="stroke:#000000;stroke-width:1.25;" x="212.953091" xlink:href="#m5f45b741bf" y="376.308"/>
      </g>
     </g>
     <g id="text_27">
      <!-- 4 -->
      <g transform="translate(208.753841 395.837938)scale(0.132 -0.132)">
       <use xlink:href="#DejaVuSans-52"/>
      </g>
     </g>
    </g>
    <g id="xtick_17">
     <g id="line2d_89">
      <g>
       <use style="stroke:#000000;stroke-width:1.25;" x="244.26" xlink:href="#m5f45b741bf" y="376.308"/>
      </g>
     </g>
     <g id="text_28">
      <!-- 5 -->
      <g transform="translate(240.06075 395.837938)scale(0.132 -0.132)">
       <use xlink:href="#DejaVuSans-53"/>
      </g>
     </g>
    </g>
    <g id="xtick_18">
     <g id="line2d_90">
      <g>
       <use style="stroke:#000000;stroke-width:1.25;" x="275.566909" xlink:href="#m5f45b741bf" y="376.308"/>
      </g>
     </g>
     <g id="text_29">
      <!-- 6 -->
      <g transform="translate(271.367659 395.837938)scale(0.132 -0.132)">
       <use xlink:href="#DejaVuSans-54"/>
      </g>
     </g>
    </g>
    <g id="xtick_19">
     <g id="line2d_91">
      <g>
       <use style="stroke:#000000;stroke-width:1.25;" x="306.873818" xlink:href="#m5f45b741bf" y="376.308"/>
      </g>
     </g>
     <g id="text_30">
      <!-- 7 -->
      <g transform="translate(302.674568 395.837938)scale(0.132 -0.132)">
       <use xlink:href="#DejaVuSans-55"/>
      </g>
     </g>
    </g>
    <g id="xtick_20">
     <g id="line2d_92">
      <g>
       <use style="stroke:#000000;stroke-width:1.25;" x="338.180727" xlink:href="#m5f45b741bf" y="376.308"/>
      </g>
     </g>
     <g id="text_31">
      <!-- 8 -->
      <g transform="translate(333.981477 395.837938)scale(0.132 -0.132)">
       <use xlink:href="#DejaVuSans-56"/>
      </g>
     </g>
    </g>
    <g id="xtick_21">
     <g id="line2d_93">
      <g>
       <use style="stroke:#000000;stroke-width:1.25;" x="369.487636" xlink:href="#m5f45b741bf" y="376.308"/>
      </g>
     </g>
     <g id="text_32">
      <!-- 9 -->
      <g transform="translate(365.288386 395.837938)scale(0.132 -0.132)">
       <use xlink:href="#DejaVuSans-57"/>
      </g>
     </g>
    </g>
    <g id="xtick_22">
     <g id="line2d_94">
      <g>
       <use style="stroke:#000000;stroke-width:1.25;" x="400.794545" xlink:href="#m5f45b741bf" y="376.308"/>
      </g>
     </g>
     <g id="text_33">
      <!-- 10 -->
      <g transform="translate(392.396045 395.837938)scale(0.132 -0.132)">
       <use xlink:href="#DejaVuSans-49"/>
       <use x="63.623047" xlink:href="#DejaVuSans-48"/>
      </g>
     </g>
    </g>
    <g id="text_34">
     <!-- fcday -->
     <g transform="translate(224.521875 413.524875)scale(0.144 -0.144)">
      <use xlink:href="#DejaVuSans-102"/>
      <use x="35.205078" xlink:href="#DejaVuSans-99"/>
      <use x="90.185547" xlink:href="#DejaVuSans-100"/>
      <use x="153.662109" xlink:href="#DejaVuSans-97"/>
      <use x="214.941406" xlink:href="#DejaVuSans-121"/>
     </g>
    </g>
   </g>
   <g id="matplotlib.axis_4">
    <g id="ytick_4">
     <g id="line2d_95">
      <path clip-path="url(#p7631906868)" d="M 72.072 376.308 
L 416.448 376.308 
" style="fill:none;stroke:#000000;stroke-dasharray:1,1.65;stroke-dashoffset:0;"/>
     </g>
     <g id="line2d_96">
      <g>
       <use style="stroke:#000000;stroke-width:1.25;" x="72.072" xlink:href="#m8f4bb0f5ef" y="376.308"/>
      </g>
     </g>
     <g id="text_35">
      <!-- 0.0 -->
      <defs>
       <path d="M 10.6875 12.40625 
L 21 12.40625 
L 21 0 
L 10.6875 0 
z
" id="DejaVuSans-46"/>
      </defs>
      <g transform="translate(41.579875 381.322969)scale(0.132 -0.132)">
       <use xlink:href="#DejaVuSans-48"/>
       <use x="63.623047" xlink:href="#DejaVuSans-46"/>
       <use x="95.410156" xlink:href="#DejaVuSans-48"/>
      </g>
     </g>
    </g>
    <g id="ytick_5">
     <g id="line2d_97">
      <path clip-path="url(#p7631906868)" d="M 72.072 327.770255 
L 416.448 327.770255 
" style="fill:none;stroke:#000000;stroke-dasharray:1,1.65;stroke-dashoffset:0;"/>
     </g>
     <g id="line2d_98">
      <g>
       <use style="stroke:#000000;stroke-width:1.25;" x="72.072" xlink:href="#m8f4bb0f5ef" y="327.770255"/>
      </g>
     </g>
     <g id="text_36">
      <!-- 0.1 -->
      <g transform="translate(41.579875 332.785224)scale(0.132 -0.132)">
       <use xlink:href="#DejaVuSans-48"/>
       <use x="63.623047" xlink:href="#DejaVuSans-46"/>
       <use x="95.410156" xlink:href="#DejaVuSans-49"/>
      </g>
     </g>
    </g>
    <g id="ytick_6">
     <g id="line2d_99">
      <path clip-path="url(#p7631906868)" d="M 72.072 279.23251 
L 416.448 279.23251 
" style="fill:none;stroke:#000000;stroke-dasharray:1,1.65;stroke-dashoffset:0;"/>
     </g>
     <g id="line2d_100">
      <g>
       <use style="stroke:#000000;stroke-width:1.25;" x="72.072" xlink:href="#m8f4bb0f5ef" y="279.23251"/>
      </g>
     </g>
     <g id="text_37">
      <!-- 0.2 -->
      <g transform="translate(41.579875 284.247479)scale(0.132 -0.132)">
       <use xlink:href="#DejaVuSans-48"/>
       <use x="63.623047" xlink:href="#DejaVuSans-46"/>
       <use x="95.410156" xlink:href="#DejaVuSans-50"/>
      </g>
     </g>
    </g>
    <g id="text_38">
     <!-- acc -->
     <g transform="translate(34.585125 331.272)rotate(-90)scale(0.144 -0.144)">
      <use xlink:href="#DejaVuSans-97"/>
      <use x="61.279297" xlink:href="#DejaVuSans-99"/>
      <use x="116.259766" xlink:href="#DejaVuSans-99"/>
     </g>
    </g>
   </g>
   <g id="line2d_101">
    <path clip-path="url(#p7631906868)" d="M 0 0 
" style="fill:none;stroke:#424242;stroke-linecap:square;stroke-width:2.7;"/>
   </g>
   <g id="line2d_102">
    <path clip-path="url(#p7631906868)" d="M 0 0 
" style="fill:none;stroke:#424242;stroke-linecap:square;stroke-width:2.7;"/>
   </g>
   <g id="line2d_103">
    <path clip-path="url(#p7631906868)" d="M 0 0 
" style="fill:none;stroke:#424242;stroke-linecap:square;stroke-width:2.7;"/>
   </g>
   <g id="line2d_104">
    <path clip-path="url(#p7631906868)" d="M 0 0 
" style="fill:none;stroke:#424242;stroke-linecap:square;stroke-width:2.7;"/>
   </g>
   <g id="line2d_105">
    <path clip-path="url(#p7631906868)" d="M 0 0 
" style="fill:none;stroke:#424242;stroke-linecap:square;stroke-width:2.7;"/>
   </g>
   <g id="line2d_106">
    <path clip-path="url(#p7631906868)" d="M 0 0 
" style="fill:none;stroke:#424242;stroke-linecap:square;stroke-width:2.7;"/>
   </g>
   <g id="line2d_107">
    <path clip-path="url(#p7631906868)" d="M 0 0 
" style="fill:none;stroke:#424242;stroke-linecap:square;stroke-width:2.7;"/>
   </g>
   <g id="line2d_108">
    <path clip-path="url(#p7631906868)" d="M 0 0 
" style="fill:none;stroke:#424242;stroke-linecap:square;stroke-width:2.7;"/>
   </g>
   <g id="line2d_109">
    <path clip-path="url(#p7631906868)" d="M 0 0 
" style="fill:none;stroke:#424242;stroke-linecap:square;stroke-width:2.7;"/>
   </g>
   <g id="line2d_110">
    <path clip-path="url(#p7631906868)" d="M 0 0 
" style="fill:none;stroke:#424242;stroke-linecap:square;stroke-width:2.7;"/>
   </g>
   <g id="line2d_111">
    <path clip-path="url(#p7631906868)" d="M 0 0 
" style="fill:none;stroke:#424242;stroke-linecap:square;stroke-width:2.7;"/>
   </g>
   <g id="line2d_112">
    <path clip-path="url(#p7631906868)" d="M 0 0 
" style="fill:none;stroke:#424242;stroke-linecap:square;stroke-width:2.7;"/>
   </g>
   <g id="line2d_113">
    <path clip-path="url(#p7631906868)" d="M 0 0 
" style="fill:none;stroke:#424242;stroke-linecap:square;stroke-width:2.7;"/>
   </g>
   <g id="line2d_114">
    <path clip-path="url(#p7631906868)" d="M 0 0 
" style="fill:none;stroke:#424242;stroke-linecap:square;stroke-width:2.7;"/>
   </g>
   <g id="line2d_115">
    <path clip-path="url(#p7631906868)" d="M 0 0 
" style="fill:none;stroke:#424242;stroke-linecap:square;stroke-width:2.7;"/>
   </g>
   <g id="line2d_116">
    <path clip-path="url(#p7631906868)" d="M 0 0 
" style="fill:none;stroke:#424242;stroke-linecap:square;stroke-width:2.7;"/>
   </g>
   <g id="line2d_117">
    <path clip-path="url(#p7631906868)" d="M 0 0 
" style="fill:none;stroke:#424242;stroke-linecap:square;stroke-width:2.7;"/>
   </g>
   <g id="line2d_118">
    <path clip-path="url(#p7631906868)" d="M 0 0 
" style="fill:none;stroke:#424242;stroke-linecap:square;stroke-width:2.7;"/>
   </g>
   <g id="line2d_119">
    <path clip-path="url(#p7631906868)" d="M 0 0 
" style="fill:none;stroke:#424242;stroke-linecap:square;stroke-width:2.7;"/>
   </g>
   <g id="line2d_120">
    <path clip-path="url(#p7631906868)" d="M 0 0 
" style="fill:none;stroke:#424242;stroke-linecap:square;stroke-width:2.7;"/>
   </g>
   <g id="line2d_121">
    <path clip-path="url(#p7631906868)" d="M 0 0 
" style="fill:none;stroke:#424242;stroke-linecap:square;stroke-width:2.7;"/>
   </g>
   <g id="line2d_122">
    <path clip-path="url(#p7631906868)" d="M 0 0 
" style="fill:none;stroke:#424242;stroke-linecap:square;stroke-width:2.7;"/>
   </g>
   <g id="line2d_123">
    <path clip-path="url(#p7631906868)" d="M 0 0 
" style="fill:none;stroke:#424242;stroke-linecap:square;stroke-width:2.7;"/>
   </g>
   <g id="line2d_124">
    <path clip-path="url(#p7631906868)" d="M 0 0 
" style="fill:none;stroke:#424242;stroke-linecap:square;stroke-width:2.7;"/>
   </g>
   <g id="line2d_125">
    <path clip-path="url(#p7631906868)" d="M 0 0 
" style="fill:none;stroke:#424242;stroke-linecap:square;stroke-width:2.7;"/>
   </g>
   <g id="line2d_126">
    <path clip-path="url(#p7631906868)" d="M 0 0 
" style="fill:none;stroke:#424242;stroke-linecap:square;stroke-width:2.7;"/>
   </g>
   <g id="line2d_127">
    <path clip-path="url(#p7631906868)" d="M 0 0 
" style="fill:none;stroke:#424242;stroke-linecap:square;stroke-width:2.7;"/>
   </g>
   <g id="line2d_128">
    <path clip-path="url(#p7631906868)" d="M 0 0 
" style="fill:none;stroke:#424242;stroke-linecap:square;stroke-width:2.7;"/>
   </g>
   <g id="line2d_129">
    <path clip-path="url(#p7631906868)" d="M 0 0 
" style="fill:none;stroke:#424242;stroke-linecap:square;stroke-width:2.7;"/>
   </g>
   <g id="line2d_130">
    <path clip-path="url(#p7631906868)" d="M 0 0 
" style="fill:none;stroke:#424242;stroke-linecap:square;stroke-width:2.7;"/>
   </g>
   <g id="line2d_131">
    <path clip-path="url(#p7631906868)" d="M 0 0 
" style="fill:none;stroke:#424242;stroke-linecap:square;stroke-width:2.7;"/>
   </g>
   <g id="line2d_132">
    <path clip-path="url(#p7631906868)" d="M 0 0 
" style="fill:none;stroke:#424242;stroke-linecap:square;stroke-width:2.7;"/>
   </g>
   <g id="line2d_133">
    <path clip-path="url(#p7631906868)" d="M 0 0 
" style="fill:none;stroke:#424242;stroke-linecap:square;stroke-width:2.7;"/>
   </g>
   <g id="line2d_134">
    <path clip-path="url(#p7631906868)" d="M 0 0 
" style="fill:none;stroke:#424242;stroke-linecap:square;stroke-width:2.7;"/>
   </g>
   <g id="line2d_135">
    <path clip-path="url(#p7631906868)" d="M 0 0 
" style="fill:none;stroke:#424242;stroke-linecap:square;stroke-width:2.7;"/>
   </g>
   <g id="line2d_136">
    <path clip-path="url(#p7631906868)" d="M 0 0 
" style="fill:none;stroke:#424242;stroke-linecap:square;stroke-width:2.7;"/>
   </g>
   <g id="line2d_137">
    <path clip-path="url(#p7631906868)" d="M 0 0 
" style="fill:none;stroke:#424242;stroke-linecap:square;stroke-width:2.7;"/>
   </g>
   <g id="line2d_138">
    <path clip-path="url(#p7631906868)" d="M 0 0 
" style="fill:none;stroke:#424242;stroke-linecap:square;stroke-width:2.7;"/>
   </g>
   <g id="line2d_139">
    <path clip-path="url(#p7631906868)" d="M 0 0 
" style="fill:none;stroke:#424242;stroke-linecap:square;stroke-width:2.7;"/>
   </g>
   <g id="line2d_140">
    <path clip-path="url(#p7631906868)" d="M 0 0 
" style="fill:none;stroke:#424242;stroke-linecap:square;stroke-width:2.7;"/>
   </g>
   <g id="line2d_141">
    <path clip-path="url(#p7631906868)" d="M 0 0 
" style="fill:none;stroke:#424242;stroke-linecap:square;stroke-width:2.7;"/>
   </g>
   <g id="line2d_142">
    <path clip-path="url(#p7631906868)" d="M 0 0 
" style="fill:none;stroke:#424242;stroke-linecap:square;stroke-width:2.7;"/>
   </g>
   <g id="line2d_143">
    <path clip-path="url(#p7631906868)" d="M 0 0 
" style="fill:none;stroke:#424242;stroke-linecap:square;stroke-width:2.7;"/>
   </g>
   <g id="line2d_144">
    <path clip-path="url(#p7631906868)" d="M 0 0 
" style="fill:none;stroke:#424242;stroke-linecap:square;stroke-width:2.7;"/>
   </g>
   <g id="line2d_145">
    <path clip-path="url(#p7631906868)" d="M 0 0 
" style="fill:none;stroke:#424242;stroke-linecap:square;stroke-width:2.7;"/>
   </g>
   <g id="line2d_146">
    <path clip-path="url(#p7631906868)" d="M 0 0 
" style="fill:none;stroke:#424242;stroke-linecap:square;stroke-width:2.7;"/>
   </g>
   <g id="line2d_147">
    <path clip-path="url(#p7631906868)" d="M 0 0 
" style="fill:none;stroke:#424242;stroke-linecap:square;stroke-width:2.7;"/>
   </g>
   <g id="line2d_148">
    <path clip-path="url(#p7631906868)" d="M 0 0 
" style="fill:none;stroke:#424242;stroke-linecap:square;stroke-width:2.7;"/>
   </g>
   <g id="line2d_149">
    <path clip-path="url(#p7631906868)" d="M 0 0 
" style="fill:none;stroke:#424242;stroke-linecap:square;stroke-width:2.7;"/>
   </g>
   <g id="line2d_150">
    <path clip-path="url(#p7631906868)" d="M 0 0 
" style="fill:none;stroke:#424242;stroke-linecap:square;stroke-width:2.7;"/>
   </g>
   <g id="line2d_151">
    <path clip-path="url(#p7631906868)" d="M 0 0 
" style="fill:none;stroke:#424242;stroke-linecap:square;stroke-width:2.7;"/>
   </g>
   <g id="line2d_152">
    <path clip-path="url(#p7631906868)" d="M 0 0 
" style="fill:none;stroke:#424242;stroke-linecap:square;stroke-width:2.7;"/>
   </g>
   <g id="line2d_153">
    <path clip-path="url(#p7631906868)" d="M 0 0 
" style="fill:none;stroke:#424242;stroke-linecap:square;stroke-width:2.7;"/>
   </g>
   <g id="line2d_154">
    <path clip-path="url(#p7631906868)" d="M 0 0 
" style="fill:none;stroke:#424242;stroke-linecap:square;stroke-width:2.7;"/>
   </g>
   <g id="line2d_155">
    <path clip-path="url(#p7631906868)" d="M 0 0 
" style="fill:none;stroke:#424242;stroke-linecap:square;stroke-width:2.7;"/>
   </g>
   <g id="line2d_156">
    <path clip-path="url(#p7631906868)" d="M 0 0 
" style="fill:none;stroke:#424242;stroke-linecap:square;stroke-width:2.7;"/>
   </g>
   <g id="line2d_157">
    <path clip-path="url(#p7631906868)" d="M 0 0 
" style="fill:none;stroke:#424242;stroke-linecap:square;stroke-width:2.7;"/>
   </g>
   <g id="line2d_158">
    <path clip-path="url(#p7631906868)" d="M 0 0 
" style="fill:none;stroke:#424242;stroke-linecap:square;stroke-width:2.7;"/>
   </g>
   <g id="line2d_159">
    <path clip-path="url(#p7631906868)" d="M 0 0 
" style="fill:none;stroke:#424242;stroke-linecap:square;stroke-width:2.7;"/>
   </g>
   <g id="line2d_160">
    <path clip-path="url(#p7631906868)" d="M 0 0 
" style="fill:none;stroke:#424242;stroke-linecap:square;stroke-width:2.7;"/>
   </g>
   <g id="line2d_161">
    <path clip-path="url(#p7631906868)" d="M 0 0 
" style="fill:none;stroke:#424242;stroke-linecap:square;stroke-width:2.7;"/>
   </g>
   <g id="line2d_162">
    <path clip-path="url(#p7631906868)" d="M 0 0 
" style="fill:none;stroke:#424242;stroke-linecap:square;stroke-width:2.7;"/>
   </g>
   <g id="line2d_163">
    <path clip-path="url(#p7631906868)" d="M 0 0 
" style="fill:none;stroke:#424242;stroke-linecap:square;stroke-width:2.7;"/>
   </g>
   <g id="line2d_164">
    <path clip-path="url(#p7631906868)" d="M 0 0 
" style="fill:none;stroke:#424242;stroke-linecap:square;stroke-width:2.7;"/>
   </g>
   <g id="line2d_165">
    <path clip-path="url(#p7631906868)" d="M 0 0 
" style="fill:none;stroke:#424242;stroke-linecap:square;stroke-width:2.7;"/>
   </g>
   <g id="line2d_166">
    <path clip-path="url(#p7631906868)" d="M 0 0 
" style="fill:none;stroke:#424242;stroke-linecap:square;stroke-width:2.7;"/>
   </g>
   <g id="patch_145">
    <path d="M 72.072 376.308 
L 72.072 261.576 
" style="fill:none;stroke:#000000;stroke-linecap:square;stroke-linejoin:miter;stroke-width:1.25;"/>
   </g>
   <g id="patch_146">
    <path d="M 72.072 376.308 
L 416.448 376.308 
" style="fill:none;stroke:#000000;stroke-linecap:square;stroke-linejoin:miter;stroke-width:1.25;"/>
   </g>
  </g>
  <g id="text_39">
   <!-- temperature850 -->
   <defs>
    <path d="M 8.5 21.578125 
L 8.5 54.6875 
L 17.484375 54.6875 
L 17.484375 21.921875 
Q 17.484375 14.15625 20.5 10.265625 
Q 23.53125 6.390625 29.59375 6.390625 
Q 36.859375 6.390625 41.078125 11.03125 
Q 45.3125 15.671875 45.3125 23.6875 
L 45.3125 54.6875 
L 54.296875 54.6875 
L 54.296875 0 
L 45.3125 0 
L 45.3125 8.40625 
Q 42.046875 3.421875 37.71875 1 
Q 33.40625 -1.421875 27.6875 -1.421875 
Q 18.265625 -1.421875 13.375 4.4375 
Q 8.5 10.296875 8.5 21.578125 
z
M 31.109375 56 
z
" id="DejaVuSans-117"/>
   </defs>
   <g transform="translate(145.20465 21.7701)scale(0.1728 -0.1728)">
    <use xlink:href="#DejaVuSans-116"/>
    <use x="39.208984" xlink:href="#DejaVuSans-101"/>
    <use x="100.732422" xlink:href="#DejaVuSans-109"/>
    <use x="198.144531" xlink:href="#DejaVuSans-112"/>
    <use x="261.621094" xlink:href="#DejaVuSans-101"/>
    <use x="323.144531" xlink:href="#DejaVuSans-114"/>
    <use x="364.257812" xlink:href="#DejaVuSans-97"/>
    <use x="425.537109" xlink:href="#DejaVuSans-116"/>
    <use x="464.746094" xlink:href="#DejaVuSans-117"/>
    <use x="528.125" xlink:href="#DejaVuSans-114"/>
    <use x="566.988281" xlink:href="#DejaVuSans-101"/>
    <use x="628.511719" xlink:href="#DejaVuSans-56"/>
    <use x="692.134766" xlink:href="#DejaVuSans-53"/>
    <use x="755.757812" xlink:href="#DejaVuSans-48"/>
   </g>
  </g>
 </g>
 <defs>
  <clipPath id="p0c32ab56c3">
   <rect height="114.732" width="344.376" x="72.072" y="91.152"/>
  </clipPath>
  <clipPath id="p7631906868">
   <rect height="114.732" width="344.376" x="72.072" y="261.576"/>
  </clipPath>
 </defs>
</svg>
