<?xml version="1.0" encoding="utf-8" standalone="no"?>
<!DOCTYPE svg PUBLIC "-//W3C//DTD SVG 1.1//EN"
  "http://www.w3.org/Graphics/SVG/1.1/DTD/svg11.dtd">
<!-- Created with matplotlib (https://matplotlib.org/) -->
<svg height="432pt" version="1.1" viewBox="0 0 432 432" width="432pt" xmlns="http://www.w3.org/2000/svg" xmlns:xlink="http://www.w3.org/1999/xlink">
 <defs>
  <style type="text/css">
*{stroke-linecap:butt;stroke-linejoin:round;}
  </style>
 </defs>
 <g id="figure_1">
  <g id="patch_1">
   <path d="M 0 432 
L 432 432 
L 432 0 
L 0 0 
z
" style="fill:#ffffff;"/>
  </g>
  <g id="axes_1">
   <g id="patch_2">
    <path d="M 63.702 205.884 
L 416.448 205.884 
L 416.448 91.152 
L 63.702 91.152 
z
" style="fill:#ffffff;"/>
   </g>
   <g id="matplotlib.axis_1">
    <g id="xtick_1">
     <g id="line2d_1">
      <defs>
       <path d="M 0 0 
L 0 6 
" id="md8bdd6edad" style="stroke:#000000;stroke-width:1.25;"/>
      </defs>
      <g>
       <use style="stroke:#000000;stroke-width:1.25;" x="79.735909" xlink:href="#md8bdd6edad" y="205.884"/>
      </g>
     </g>
     <g id="text_1">
      <!-- 0 -->
      <defs>
       <path d="M 31.78125 66.40625 
Q 24.171875 66.40625 20.328125 58.90625 
Q 16.5 51.421875 16.5 36.375 
Q 16.5 21.390625 20.328125 13.890625 
Q 24.171875 6.390625 31.78125 6.390625 
Q 39.453125 6.390625 43.28125 13.890625 
Q 47.125 21.390625 47.125 36.375 
Q 47.125 51.421875 43.28125 58.90625 
Q 39.453125 66.40625 31.78125 66.40625 
z
M 31.78125 74.21875 
Q 44.046875 74.21875 50.515625 64.515625 
Q 56.984375 54.828125 56.984375 36.375 
Q 56.984375 17.96875 50.515625 8.265625 
Q 44.046875 -1.421875 31.78125 -1.421875 
Q 19.53125 -1.421875 13.0625 8.265625 
Q 6.59375 17.96875 6.59375 36.375 
Q 6.59375 54.828125 13.0625 64.515625 
Q 19.53125 74.21875 31.78125 74.21875 
z
" id="DejaVuSans-48"/>
      </defs>
      <g transform="translate(75.536659 225.413938)scale(0.132 -0.132)">
       <use xlink:href="#DejaVuSans-48"/>
      </g>
     </g>
    </g>
    <g id="xtick_2">
     <g id="line2d_2">
      <g>
       <use style="stroke:#000000;stroke-width:1.25;" x="143.871545" xlink:href="#md8bdd6edad" y="205.884"/>
      </g>
     </g>
     <g id="text_2">
      <!-- 2 -->
      <defs>
       <path d="M 19.1875 8.296875 
L 53.609375 8.296875 
L 53.609375 0 
L 7.328125 0 
L 7.328125 8.296875 
Q 12.9375 14.109375 22.625 23.890625 
Q 32.328125 33.6875 34.8125 36.53125 
Q 39.546875 41.84375 41.421875 45.53125 
Q 43.3125 49.21875 43.3125 52.78125 
Q 43.3125 58.59375 39.234375 62.25 
Q 35.15625 65.921875 28.609375 65.921875 
Q 23.96875 65.921875 18.8125 64.3125 
Q 13.671875 62.703125 7.8125 59.421875 
L 7.8125 69.390625 
Q 13.765625 71.78125 18.9375 73 
Q 24.125 74.21875 28.421875 74.21875 
Q 39.75 74.21875 46.484375 68.546875 
Q 53.21875 62.890625 53.21875 53.421875 
Q 53.21875 48.921875 51.53125 44.890625 
Q 49.859375 40.875 45.40625 35.40625 
Q 44.1875 33.984375 37.640625 27.21875 
Q 31.109375 20.453125 19.1875 8.296875 
z
" id="DejaVuSans-50"/>
      </defs>
      <g transform="translate(139.672295 225.413938)scale(0.132 -0.132)">
       <use xlink:href="#DejaVuSans-50"/>
      </g>
     </g>
    </g>
    <g id="xtick_3">
     <g id="line2d_3">
      <g>
       <use style="stroke:#000000;stroke-width:1.25;" x="208.007182" xlink:href="#md8bdd6edad" y="205.884"/>
      </g>
     </g>
     <g id="text_3">
      <!-- 4 -->
      <defs>
       <path d="M 37.796875 64.3125 
L 12.890625 25.390625 
L 37.796875 25.390625 
z
M 35.203125 72.90625 
L 47.609375 72.90625 
L 47.609375 25.390625 
L 58.015625 25.390625 
L 58.015625 17.1875 
L 47.609375 17.1875 
L 47.609375 0 
L 37.796875 0 
L 37.796875 17.1875 
L 4.890625 17.1875 
L 4.890625 26.703125 
z
" id="DejaVuSans-52"/>
      </defs>
      <g transform="translate(203.807932 225.413938)scale(0.132 -0.132)">
       <use xlink:href="#DejaVuSans-52"/>
      </g>
     </g>
    </g>
    <g id="xtick_4">
     <g id="line2d_4">
      <g>
       <use style="stroke:#000000;stroke-width:1.25;" x="272.142818" xlink:href="#md8bdd6edad" y="205.884"/>
      </g>
     </g>
     <g id="text_4">
      <!-- 6 -->
      <defs>
       <path d="M 33.015625 40.375 
Q 26.375 40.375 22.484375 35.828125 
Q 18.609375 31.296875 18.609375 23.390625 
Q 18.609375 15.53125 22.484375 10.953125 
Q 26.375 6.390625 33.015625 6.390625 
Q 39.65625 6.390625 43.53125 10.953125 
Q 47.40625 15.53125 47.40625 23.390625 
Q 47.40625 31.296875 43.53125 35.828125 
Q 39.65625 40.375 33.015625 40.375 
z
M 52.59375 71.296875 
L 52.59375 62.3125 
Q 48.875 64.0625 45.09375 64.984375 
Q 41.3125 65.921875 37.59375 65.921875 
Q 27.828125 65.921875 22.671875 59.328125 
Q 17.53125 52.734375 16.796875 39.40625 
Q 19.671875 43.65625 24.015625 45.921875 
Q 28.375 48.1875 33.59375 48.1875 
Q 44.578125 48.1875 50.953125 41.515625 
Q 57.328125 34.859375 57.328125 23.390625 
Q 57.328125 12.15625 50.6875 5.359375 
Q 44.046875 -1.421875 33.015625 -1.421875 
Q 20.359375 -1.421875 13.671875 8.265625 
Q 6.984375 17.96875 6.984375 36.375 
Q 6.984375 53.65625 15.1875 63.9375 
Q 23.390625 74.21875 37.203125 74.21875 
Q 40.921875 74.21875 44.703125 73.484375 
Q 48.484375 72.75 52.59375 71.296875 
z
" id="DejaVuSans-54"/>
      </defs>
      <g transform="translate(267.943568 225.413938)scale(0.132 -0.132)">
       <use xlink:href="#DejaVuSans-54"/>
      </g>
     </g>
    </g>
    <g id="xtick_5">
     <g id="line2d_5">
      <g>
       <use style="stroke:#000000;stroke-width:1.25;" x="336.278455" xlink:href="#md8bdd6edad" y="205.884"/>
      </g>
     </g>
     <g id="text_5">
      <!-- 8 -->
      <defs>
       <path d="M 31.78125 34.625 
Q 24.75 34.625 20.71875 30.859375 
Q 16.703125 27.09375 16.703125 20.515625 
Q 16.703125 13.921875 20.71875 10.15625 
Q 24.75 6.390625 31.78125 6.390625 
Q 38.8125 6.390625 42.859375 10.171875 
Q 46.921875 13.96875 46.921875 20.515625 
Q 46.921875 27.09375 42.890625 30.859375 
Q 38.875 34.625 31.78125 34.625 
z
M 21.921875 38.8125 
Q 15.578125 40.375 12.03125 44.71875 
Q 8.5 49.078125 8.5 55.328125 
Q 8.5 64.0625 14.71875 69.140625 
Q 20.953125 74.21875 31.78125 74.21875 
Q 42.671875 74.21875 48.875 69.140625 
Q 55.078125 64.0625 55.078125 55.328125 
Q 55.078125 49.078125 51.53125 44.71875 
Q 48 40.375 41.703125 38.8125 
Q 48.828125 37.15625 52.796875 32.3125 
Q 56.78125 27.484375 56.78125 20.515625 
Q 56.78125 9.90625 50.3125 4.234375 
Q 43.84375 -1.421875 31.78125 -1.421875 
Q 19.734375 -1.421875 13.25 4.234375 
Q 6.78125 9.90625 6.78125 20.515625 
Q 6.78125 27.484375 10.78125 32.3125 
Q 14.796875 37.15625 21.921875 38.8125 
z
M 18.3125 54.390625 
Q 18.3125 48.734375 21.84375 45.5625 
Q 25.390625 42.390625 31.78125 42.390625 
Q 38.140625 42.390625 41.71875 45.5625 
Q 45.3125 48.734375 45.3125 54.390625 
Q 45.3125 60.0625 41.71875 63.234375 
Q 38.140625 66.40625 31.78125 66.40625 
Q 25.390625 66.40625 21.84375 63.234375 
Q 18.3125 60.0625 18.3125 54.390625 
z
" id="DejaVuSans-56"/>
      </defs>
      <g transform="translate(332.079205 225.413938)scale(0.132 -0.132)">
       <use xlink:href="#DejaVuSans-56"/>
      </g>
     </g>
    </g>
    <g id="xtick_6">
     <g id="line2d_6">
      <g>
       <use style="stroke:#000000;stroke-width:1.25;" x="400.414091" xlink:href="#md8bdd6edad" y="205.884"/>
      </g>
     </g>
     <g id="text_6">
      <!-- 10 -->
      <defs>
       <path d="M 12.40625 8.296875 
L 28.515625 8.296875 
L 28.515625 63.921875 
L 10.984375 60.40625 
L 10.984375 69.390625 
L 28.421875 72.90625 
L 38.28125 72.90625 
L 38.28125 8.296875 
L 54.390625 8.296875 
L 54.390625 0 
L 12.40625 0 
z
" id="DejaVuSans-49"/>
      </defs>
      <g transform="translate(392.015591 225.413938)scale(0.132 -0.132)">
       <use xlink:href="#DejaVuSans-49"/>
       <use x="63.623047" xlink:href="#DejaVuSans-48"/>
      </g>
     </g>
    </g>
    <g id="text_7">
     <!-- fcday -->
     <defs>
      <path d="M 37.109375 75.984375 
L 37.109375 68.5 
L 28.515625 68.5 
Q 23.6875 68.5 21.796875 66.546875 
Q 19.921875 64.59375 19.921875 59.515625 
L 19.921875 54.6875 
L 34.71875 54.6875 
L 34.71875 47.703125 
L 19.921875 47.703125 
L 19.921875 0 
L 10.890625 0 
L 10.890625 47.703125 
L 2.296875 47.703125 
L 2.296875 54.6875 
L 10.890625 54.6875 
L 10.890625 58.5 
Q 10.890625 67.625 15.140625 71.796875 
Q 19.390625 75.984375 28.609375 75.984375 
z
" id="DejaVuSans-102"/>
      <path d="M 48.78125 52.59375 
L 48.78125 44.1875 
Q 44.96875 46.296875 41.140625 47.34375 
Q 37.3125 48.390625 33.40625 48.390625 
Q 24.65625 48.390625 19.8125 42.84375 
Q 14.984375 37.3125 14.984375 27.296875 
Q 14.984375 17.28125 19.8125 11.734375 
Q 24.65625 6.203125 33.40625 6.203125 
Q 37.3125 6.203125 41.140625 7.25 
Q 44.96875 8.296875 48.78125 10.40625 
L 48.78125 2.09375 
Q 45.015625 0.34375 40.984375 -0.53125 
Q 36.96875 -1.421875 32.421875 -1.421875 
Q 20.0625 -1.421875 12.78125 6.34375 
Q 5.515625 14.109375 5.515625 27.296875 
Q 5.515625 40.671875 12.859375 48.328125 
Q 20.21875 56 33.015625 56 
Q 37.15625 56 41.109375 55.140625 
Q 45.0625 54.296875 48.78125 52.59375 
z
" id="DejaVuSans-99"/>
      <path d="M 45.40625 46.390625 
L 45.40625 75.984375 
L 54.390625 75.984375 
L 54.390625 0 
L 45.40625 0 
L 45.40625 8.203125 
Q 42.578125 3.328125 38.25 0.953125 
Q 33.9375 -1.421875 27.875 -1.421875 
Q 17.96875 -1.421875 11.734375 6.484375 
Q 5.515625 14.40625 5.515625 27.296875 
Q 5.515625 40.1875 11.734375 48.09375 
Q 17.96875 56 27.875 56 
Q 33.9375 56 38.25 53.625 
Q 42.578125 51.265625 45.40625 46.390625 
z
M 14.796875 27.296875 
Q 14.796875 17.390625 18.875 11.75 
Q 22.953125 6.109375 30.078125 6.109375 
Q 37.203125 6.109375 41.296875 11.75 
Q 45.40625 17.390625 45.40625 27.296875 
Q 45.40625 37.203125 41.296875 42.84375 
Q 37.203125 48.484375 30.078125 48.484375 
Q 22.953125 48.484375 18.875 42.84375 
Q 14.796875 37.203125 14.796875 27.296875 
z
" id="DejaVuSans-100"/>
      <path d="M 34.28125 27.484375 
Q 23.390625 27.484375 19.1875 25 
Q 14.984375 22.515625 14.984375 16.5 
Q 14.984375 11.71875 18.140625 8.90625 
Q 21.296875 6.109375 26.703125 6.109375 
Q 34.1875 6.109375 38.703125 11.40625 
Q 43.21875 16.703125 43.21875 25.484375 
L 43.21875 27.484375 
z
M 52.203125 31.203125 
L 52.203125 0 
L 43.21875 0 
L 43.21875 8.296875 
Q 40.140625 3.328125 35.546875 0.953125 
Q 30.953125 -1.421875 24.3125 -1.421875 
Q 15.921875 -1.421875 10.953125 3.296875 
Q 6 8.015625 6 15.921875 
Q 6 25.140625 12.171875 29.828125 
Q 18.359375 34.515625 30.609375 34.515625 
L 43.21875 34.515625 
L 43.21875 35.40625 
Q 43.21875 41.609375 39.140625 45 
Q 35.0625 48.390625 27.6875 48.390625 
Q 23 48.390625 18.546875 47.265625 
Q 14.109375 46.140625 10.015625 43.890625 
L 10.015625 52.203125 
Q 14.9375 54.109375 19.578125 55.046875 
Q 24.21875 56 28.609375 56 
Q 40.484375 56 46.34375 49.84375 
Q 52.203125 43.703125 52.203125 31.203125 
z
" id="DejaVuSans-97"/>
      <path d="M 32.171875 -5.078125 
Q 28.375 -14.84375 24.75 -17.8125 
Q 21.140625 -20.796875 15.09375 -20.796875 
L 7.90625 -20.796875 
L 7.90625 -13.28125 
L 13.1875 -13.28125 
Q 16.890625 -13.28125 18.9375 -11.515625 
Q 21 -9.765625 23.484375 -3.21875 
L 25.09375 0.875 
L 2.984375 54.6875 
L 12.5 54.6875 
L 29.59375 11.921875 
L 46.6875 54.6875 
L 56.203125 54.6875 
z
" id="DejaVuSans-121"/>
     </defs>
     <g transform="translate(220.336875 243.100875)scale(0.144 -0.144)">
      <use xlink:href="#DejaVuSans-102"/>
      <use x="35.205078" xlink:href="#DejaVuSans-99"/>
      <use x="90.185547" xlink:href="#DejaVuSans-100"/>
      <use x="153.662109" xlink:href="#DejaVuSans-97"/>
      <use x="214.941406" xlink:href="#DejaVuSans-121"/>
     </g>
    </g>
   </g>
   <g id="matplotlib.axis_2">
    <g id="ytick_1">
     <g id="line2d_7">
      <path clip-path="url(#p19827af73c)" d="M 63.702 200.668909 
L 416.448 200.668909 
" style="fill:none;stroke:#000000;stroke-dasharray:1,1.65;stroke-dashoffset:0;"/>
     </g>
     <g id="line2d_8">
      <defs>
       <path d="M 0 0 
L -6 0 
" id="mabb9901cf3" style="stroke:#000000;stroke-width:1.25;"/>
      </defs>
      <g>
       <use style="stroke:#000000;stroke-width:1.25;" x="63.702" xlink:href="#mabb9901cf3" y="200.668909"/>
      </g>
     </g>
     <g id="text_8">
      <!-- 0 -->
      <g transform="translate(45.8035 205.683878)scale(0.132 -0.132)">
       <use xlink:href="#DejaVuSans-48"/>
      </g>
     </g>
    </g>
    <g id="ytick_2">
     <g id="line2d_9">
      <path clip-path="url(#p19827af73c)" d="M 63.702 161.330997 
L 416.448 161.330997 
" style="fill:none;stroke:#000000;stroke-dasharray:1,1.65;stroke-dashoffset:0;"/>
     </g>
     <g id="line2d_10">
      <g>
       <use style="stroke:#000000;stroke-width:1.25;" x="63.702" xlink:href="#mabb9901cf3" y="161.330997"/>
      </g>
     </g>
     <g id="text_9">
      <!-- 2 -->
      <g transform="translate(45.8035 166.345965)scale(0.132 -0.132)">
       <use xlink:href="#DejaVuSans-50"/>
      </g>
     </g>
    </g>
    <g id="ytick_3">
     <g id="line2d_11">
      <path clip-path="url(#p19827af73c)" d="M 63.702 121.993084 
L 416.448 121.993084 
" style="fill:none;stroke:#000000;stroke-dasharray:1,1.65;stroke-dashoffset:0;"/>
     </g>
     <g id="line2d_12">
      <g>
       <use style="stroke:#000000;stroke-width:1.25;" x="63.702" xlink:href="#mabb9901cf3" y="121.993084"/>
      </g>
     </g>
     <g id="text_10">
      <!-- 4 -->
      <g transform="translate(45.8035 127.008053)scale(0.132 -0.132)">
       <use xlink:href="#DejaVuSans-52"/>
      </g>
     </g>
    </g>
    <g id="text_11">
     <!-- RMSE $[K]$ -->
     <defs>
      <path d="M 44.390625 34.1875 
Q 47.5625 33.109375 50.5625 29.59375 
Q 53.5625 26.078125 56.59375 19.921875 
L 66.609375 0 
L 56 0 
L 46.6875 18.703125 
Q 43.0625 26.03125 39.671875 28.421875 
Q 36.28125 30.8125 30.421875 30.8125 
L 19.671875 30.8125 
L 19.671875 0 
L 9.8125 0 
L 9.8125 72.90625 
L 32.078125 72.90625 
Q 44.578125 72.90625 50.734375 67.671875 
Q 56.890625 62.453125 56.890625 51.90625 
Q 56.890625 45.015625 53.6875 40.46875 
Q 50.484375 35.9375 44.390625 34.1875 
z
M 19.671875 64.796875 
L 19.671875 38.921875 
L 32.078125 38.921875 
Q 39.203125 38.921875 42.84375 42.21875 
Q 46.484375 45.515625 46.484375 51.90625 
Q 46.484375 58.296875 42.84375 61.546875 
Q 39.203125 64.796875 32.078125 64.796875 
z
" id="DejaVuSans-82"/>
      <path d="M 9.8125 72.90625 
L 24.515625 72.90625 
L 43.109375 23.296875 
L 61.8125 72.90625 
L 76.515625 72.90625 
L 76.515625 0 
L 66.890625 0 
L 66.890625 64.015625 
L 48.09375 14.015625 
L 38.1875 14.015625 
L 19.390625 64.015625 
L 19.390625 0 
L 9.8125 0 
z
" id="DejaVuSans-77"/>
      <path d="M 53.515625 70.515625 
L 53.515625 60.890625 
Q 47.90625 63.578125 42.921875 64.890625 
Q 37.9375 66.21875 33.296875 66.21875 
Q 25.25 66.21875 20.875 63.09375 
Q 16.5 59.96875 16.5 54.203125 
Q 16.5 49.359375 19.40625 46.890625 
Q 22.3125 44.4375 30.421875 42.921875 
L 36.375 41.703125 
Q 47.40625 39.59375 52.65625 34.296875 
Q 57.90625 29 57.90625 20.125 
Q 57.90625 9.515625 50.796875 4.046875 
Q 43.703125 -1.421875 29.984375 -1.421875 
Q 24.8125 -1.421875 18.96875 -0.25 
Q 13.140625 0.921875 6.890625 3.21875 
L 6.890625 13.375 
Q 12.890625 10.015625 18.65625 8.296875 
Q 24.421875 6.59375 29.984375 6.59375 
Q 38.421875 6.59375 43.015625 9.90625 
Q 47.609375 13.234375 47.609375 19.390625 
Q 47.609375 24.75 44.3125 27.78125 
Q 41.015625 30.8125 33.5 32.328125 
L 27.484375 33.5 
Q 16.453125 35.6875 11.515625 40.375 
Q 6.59375 45.0625 6.59375 53.421875 
Q 6.59375 63.09375 13.40625 68.65625 
Q 20.21875 74.21875 32.171875 74.21875 
Q 37.3125 74.21875 42.625 73.28125 
Q 47.953125 72.359375 53.515625 70.515625 
z
" id="DejaVuSans-83"/>
      <path d="M 9.8125 72.90625 
L 55.90625 72.90625 
L 55.90625 64.59375 
L 19.671875 64.59375 
L 19.671875 43.015625 
L 54.390625 43.015625 
L 54.390625 34.71875 
L 19.671875 34.71875 
L 19.671875 8.296875 
L 56.78125 8.296875 
L 56.78125 0 
L 9.8125 0 
z
" id="DejaVuSans-69"/>
      <path id="DejaVuSans-32"/>
      <path d="M 8.59375 75.984375 
L 29.296875 75.984375 
L 29.296875 69 
L 17.578125 69 
L 17.578125 -6.203125 
L 29.296875 -6.203125 
L 29.296875 -13.1875 
L 8.59375 -13.1875 
z
" id="DejaVuSans-91"/>
      <path d="M 16.890625 72.90625 
L 26.8125 72.90625 
L 20.796875 42.1875 
L 59.078125 72.90625 
L 72.21875 72.90625 
L 28.90625 38.09375 
L 60.59375 0 
L 48.578125 0 
L 19.484375 35.5 
L 12.59375 0 
L 2.6875 0 
z
" id="DejaVuSans-Oblique-75"/>
      <path d="M 30.421875 75.984375 
L 30.421875 -13.1875 
L 9.71875 -13.1875 
L 9.71875 -6.203125 
L 21.390625 -6.203125 
L 21.390625 69 
L 9.71875 69 
L 9.71875 75.984375 
z
" id="DejaVuSans-93"/>
     </defs>
     <g transform="translate(38.80875 181.494)rotate(-90)scale(0.144 -0.144)">
      <use transform="translate(0 0.015625)" xlink:href="#DejaVuSans-82"/>
      <use transform="translate(69.482422 0.015625)" xlink:href="#DejaVuSans-77"/>
      <use transform="translate(155.761719 0.015625)" xlink:href="#DejaVuSans-83"/>
      <use transform="translate(219.238281 0.015625)" xlink:href="#DejaVuSans-69"/>
      <use transform="translate(282.421875 0.015625)" xlink:href="#DejaVuSans-32"/>
      <use transform="translate(314.208984 0.015625)" xlink:href="#DejaVuSans-91"/>
      <use transform="translate(353.222656 0.015625)" xlink:href="#DejaVuSans-Oblique-75"/>
      <use transform="translate(418.798828 0.015625)" xlink:href="#DejaVuSans-93"/>
     </g>
    </g>
   </g>
   <g id="line2d_13">
    <path clip-path="url(#p19827af73c)" d="M 79.735909 200.668909 
L 111.803727 170.965516 
L 143.871545 158.667939 
L 175.939364 146.665895 
L 208.007182 135.402852 
L 240.075 125.676171 
L 272.142818 117.695987 
L 304.210636 111.270701 
L 336.278455 106.060196 
L 368.346273 101.592057 
L 400.414091 97.092444 
" style="fill:none;stroke:#0173b2;stroke-linecap:square;stroke-opacity:0.9;stroke-width:0.9;"/>
   </g>
   <g id="line2d_14">
    <path clip-path="url(#p19827af73c)" d="M 79.735909 200.668909 
L 111.803727 171.955132 
L 143.871545 160.550159 
L 175.939364 149.13383 
L 208.007182 137.971688 
L 240.075 127.916006 
L 272.142818 119.399548 
L 304.210636 112.357753 
L 336.278455 106.648246 
L 368.346273 102.023304 
L 400.414091 98.181518 
" style="fill:none;stroke:#de8f05;stroke-linecap:square;stroke-opacity:0.9;stroke-width:0.9;"/>
   </g>
   <g id="line2d_15">
    <path clip-path="url(#p19827af73c)" d="M 79.735909 200.668909 
L 111.803727 171.875015 
L 143.871545 159.754699 
L 175.939364 147.720948 
L 208.007182 136.16046 
L 240.075 125.948138 
L 272.142818 117.457798 
L 304.210636 110.530218 
L 336.278455 104.875041 
L 368.346273 100.267032 
L 400.414091 96.367091 
" style="fill:none;stroke:#029e73;stroke-linecap:square;stroke-opacity:0.9;stroke-width:0.9;"/>
   </g>
   <g id="line2d_16">
    <path clip-path="url(#p19827af73c)" d="M 79.735909 200.668909 
L 111.803727 172.710916 
L 143.871545 161.755771 
L 175.939364 150.50587 
L 208.007182 139.338631 
L 240.075 129.188614 
L 272.142818 120.539193 
L 304.210636 113.409478 
L 336.278455 107.698989 
L 368.346273 103.133666 
L 400.414091 99.41776 
" style="fill:none;stroke:#d55e00;stroke-linecap:square;stroke-opacity:0.9;stroke-width:0.9;"/>
   </g>
   <g id="line2d_17">
    <path clip-path="url(#p19827af73c)" d="M 79.735909 200.668909 
L 111.803727 172.9801 
L 143.871545 161.691083 
L 175.939364 150.357177 
L 208.007182 139.312799 
L 240.075 129.409664 
L 272.142818 121.113605 
L 304.210636 114.322205 
L 336.278455 108.802244 
L 368.346273 104.328958 
L 400.414091 100.65344 
" style="fill:none;stroke:#cc78bc;stroke-linecap:square;stroke-opacity:0.9;stroke-width:0.9;"/>
   </g>
   <g id="line2d_18">
    <path clip-path="url(#p19827af73c)" d="M 79.735909 200.668909 
L 111.803727 173.37506 
L 143.871545 162.640912 
L 175.939364 151.466502 
L 208.007182 140.11572 
L 240.075 129.60433 
L 272.142818 120.572965 
L 304.210636 113.083379 
L 336.278455 106.992821 
L 368.346273 102.15452 
L 400.414091 98.366517 
" style="fill:none;stroke:#ca9161;stroke-linecap:square;stroke-opacity:0.9;stroke-width:0.9;"/>
   </g>
   <g id="line2d_19">
    <path clip-path="url(#p19827af73c)" d="M 79.735909 200.668909 
L 111.803727 171.129489 
L 143.871545 158.940473 
L 175.939364 147.020722 
L 208.007182 135.633013 
L 240.075 125.6162 
L 272.142818 117.389522 
L 304.210636 110.790613 
L 336.278455 105.583995 
L 368.346273 101.525587 
L 400.414091 98.256191 
" style="fill:none;stroke:#fbafe4;stroke-linecap:square;stroke-opacity:0.9;stroke-width:0.9;"/>
   </g>
   <g id="line2d_20">
    <path clip-path="url(#p19827af73c)" d="M 79.735909 200.668909 
L 111.803727 169.690547 
L 143.871545 157.288248 
L 175.939364 145.299591 
L 208.007182 134.049296 
L 240.075 124.27481 
L 272.142818 116.252299 
L 304.210636 109.78685 
L 336.278455 104.520471 
L 368.346273 100.204223 
L 400.414091 96.576173 
" style="fill:none;stroke:#949494;stroke-linecap:square;stroke-opacity:0.9;stroke-width:0.9;"/>
   </g>
   <g id="line2d_21"/>
   <g id="line2d_22"/>
   <g id="line2d_23"/>
   <g id="line2d_24"/>
   <g id="line2d_25"/>
   <g id="line2d_26"/>
   <g id="line2d_27"/>
   <g id="line2d_28"/>
   <g id="line2d_29"/>
   <g id="patch_3">
    <path d="M 63.702 205.884 
L 63.702 91.152 
" style="fill:none;stroke:#000000;stroke-linecap:square;stroke-linejoin:miter;stroke-width:1.25;"/>
   </g>
   <g id="patch_4">
    <path d="M 63.702 205.884 
L 416.448 205.884 
" style="fill:none;stroke:#000000;stroke-linecap:square;stroke-linejoin:miter;stroke-width:1.25;"/>
   </g>
   <g id="legend_1">
    <g id="patch_5">
     <path d="M 65.502 102.787875 
L 382.500281 102.787875 
Q 384.300281 102.787875 384.300281 100.987875 
L 384.300281 35.586 
Q 384.300281 33.786 382.500281 33.786 
L 65.502 33.786 
Q 63.702 33.786 63.702 35.586 
L 63.702 100.987875 
Q 63.702 102.787875 65.502 102.787875 
z
" style="fill:#ffffff;opacity:0.8;stroke:#cccccc;stroke-linejoin:miter;"/>
    </g>
    <g id="line2d_30">
     <path d="M 67.302 41.074594 
L 85.302 41.074594 
" style="fill:none;"/>
    </g>
    <g id="line2d_31"/>
    <g id="text_12">
     <!-- nettype -->
     <defs>
      <path d="M 54.890625 33.015625 
L 54.890625 0 
L 45.90625 0 
L 45.90625 32.71875 
Q 45.90625 40.484375 42.875 44.328125 
Q 39.84375 48.1875 33.796875 48.1875 
Q 26.515625 48.1875 22.3125 43.546875 
Q 18.109375 38.921875 18.109375 30.90625 
L 18.109375 0 
L 9.078125 0 
L 9.078125 54.6875 
L 18.109375 54.6875 
L 18.109375 46.1875 
Q 21.34375 51.125 25.703125 53.5625 
Q 30.078125 56 35.796875 56 
Q 45.21875 56 50.046875 50.171875 
Q 54.890625 44.34375 54.890625 33.015625 
z
" id="DejaVuSans-110"/>
      <path d="M 56.203125 29.59375 
L 56.203125 25.203125 
L 14.890625 25.203125 
Q 15.484375 15.921875 20.484375 11.0625 
Q 25.484375 6.203125 34.421875 6.203125 
Q 39.59375 6.203125 44.453125 7.46875 
Q 49.3125 8.734375 54.109375 11.28125 
L 54.109375 2.78125 
Q 49.265625 0.734375 44.1875 -0.34375 
Q 39.109375 -1.421875 33.890625 -1.421875 
Q 20.796875 -1.421875 13.15625 6.1875 
Q 5.515625 13.8125 5.515625 26.8125 
Q 5.515625 40.234375 12.765625 48.109375 
Q 20.015625 56 32.328125 56 
Q 43.359375 56 49.78125 48.890625 
Q 56.203125 41.796875 56.203125 29.59375 
z
M 47.21875 32.234375 
Q 47.125 39.59375 43.09375 43.984375 
Q 39.0625 48.390625 32.421875 48.390625 
Q 24.90625 48.390625 20.390625 44.140625 
Q 15.875 39.890625 15.1875 32.171875 
z
" id="DejaVuSans-101"/>
      <path d="M 18.3125 70.21875 
L 18.3125 54.6875 
L 36.8125 54.6875 
L 36.8125 47.703125 
L 18.3125 47.703125 
L 18.3125 18.015625 
Q 18.3125 11.328125 20.140625 9.421875 
Q 21.96875 7.515625 27.59375 7.515625 
L 36.8125 7.515625 
L 36.8125 0 
L 27.59375 0 
Q 17.1875 0 13.234375 3.875 
Q 9.28125 7.765625 9.28125 18.015625 
L 9.28125 47.703125 
L 2.6875 47.703125 
L 2.6875 54.6875 
L 9.28125 54.6875 
L 9.28125 70.21875 
z
" id="DejaVuSans-116"/>
      <path d="M 18.109375 8.203125 
L 18.109375 -20.796875 
L 9.078125 -20.796875 
L 9.078125 54.6875 
L 18.109375 54.6875 
L 18.109375 46.390625 
Q 20.953125 51.265625 25.265625 53.625 
Q 29.59375 56 35.59375 56 
Q 45.5625 56 51.78125 48.09375 
Q 58.015625 40.1875 58.015625 27.296875 
Q 58.015625 14.40625 51.78125 6.484375 
Q 45.5625 -1.421875 35.59375 -1.421875 
Q 29.59375 -1.421875 25.265625 0.953125 
Q 20.953125 3.328125 18.109375 8.203125 
z
M 48.6875 27.296875 
Q 48.6875 37.203125 44.609375 42.84375 
Q 40.53125 48.484375 33.40625 48.484375 
Q 26.265625 48.484375 22.1875 42.84375 
Q 18.109375 37.203125 18.109375 27.296875 
Q 18.109375 17.390625 22.1875 11.75 
Q 26.265625 6.109375 33.40625 6.109375 
Q 40.53125 6.109375 44.609375 11.75 
Q 48.6875 17.390625 48.6875 27.296875 
z
" id="DejaVuSans-112"/>
     </defs>
     <g transform="translate(92.502 44.224594)scale(0.09 -0.09)">
      <use xlink:href="#DejaVuSans-110"/>
      <use x="63.378906" xlink:href="#DejaVuSans-101"/>
      <use x="124.902344" xlink:href="#DejaVuSans-116"/>
      <use x="164.111328" xlink:href="#DejaVuSans-116"/>
      <use x="203.320312" xlink:href="#DejaVuSans-121"/>
      <use x="262.5" xlink:href="#DejaVuSans-112"/>
      <use x="325.976562" xlink:href="#DejaVuSans-101"/>
     </g>
    </g>
    <g id="line2d_32">
     <path d="M 67.302 54.284906 
L 85.302 54.284906 
" style="fill:none;stroke:#0173b2;stroke-linecap:square;stroke-width:1.5;"/>
    </g>
    <g id="line2d_33"/>
    <g id="text_13">
     <!-- base -->
     <defs>
      <path d="M 48.6875 27.296875 
Q 48.6875 37.203125 44.609375 42.84375 
Q 40.53125 48.484375 33.40625 48.484375 
Q 26.265625 48.484375 22.1875 42.84375 
Q 18.109375 37.203125 18.109375 27.296875 
Q 18.109375 17.390625 22.1875 11.75 
Q 26.265625 6.109375 33.40625 6.109375 
Q 40.53125 6.109375 44.609375 11.75 
Q 48.6875 17.390625 48.6875 27.296875 
z
M 18.109375 46.390625 
Q 20.953125 51.265625 25.265625 53.625 
Q 29.59375 56 35.59375 56 
Q 45.5625 56 51.78125 48.09375 
Q 58.015625 40.1875 58.015625 27.296875 
Q 58.015625 14.40625 51.78125 6.484375 
Q 45.5625 -1.421875 35.59375 -1.421875 
Q 29.59375 -1.421875 25.265625 0.953125 
Q 20.953125 3.328125 18.109375 8.203125 
L 18.109375 0 
L 9.078125 0 
L 9.078125 75.984375 
L 18.109375 75.984375 
z
" id="DejaVuSans-98"/>
      <path d="M 44.28125 53.078125 
L 44.28125 44.578125 
Q 40.484375 46.53125 36.375 47.5 
Q 32.28125 48.484375 27.875 48.484375 
Q 21.1875 48.484375 17.84375 46.4375 
Q 14.5 44.390625 14.5 40.28125 
Q 14.5 37.15625 16.890625 35.375 
Q 19.28125 33.59375 26.515625 31.984375 
L 29.59375 31.296875 
Q 39.15625 29.25 43.1875 25.515625 
Q 47.21875 21.78125 47.21875 15.09375 
Q 47.21875 7.46875 41.1875 3.015625 
Q 35.15625 -1.421875 24.609375 -1.421875 
Q 20.21875 -1.421875 15.453125 -0.5625 
Q 10.6875 0.296875 5.421875 2 
L 5.421875 11.28125 
Q 10.40625 8.6875 15.234375 7.390625 
Q 20.0625 6.109375 24.8125 6.109375 
Q 31.15625 6.109375 34.5625 8.28125 
Q 37.984375 10.453125 37.984375 14.40625 
Q 37.984375 18.0625 35.515625 20.015625 
Q 33.0625 21.96875 24.703125 23.78125 
L 21.578125 24.515625 
Q 13.234375 26.265625 9.515625 29.90625 
Q 5.8125 33.546875 5.8125 39.890625 
Q 5.8125 47.609375 11.28125 51.796875 
Q 16.75 56 26.8125 56 
Q 31.78125 56 36.171875 55.265625 
Q 40.578125 54.546875 44.28125 53.078125 
z
" id="DejaVuSans-115"/>
     </defs>
     <g transform="translate(92.502 57.434906)scale(0.09 -0.09)">
      <use xlink:href="#DejaVuSans-98"/>
      <use x="63.476562" xlink:href="#DejaVuSans-97"/>
      <use x="124.755859" xlink:href="#DejaVuSans-115"/>
      <use x="176.855469" xlink:href="#DejaVuSans-101"/>
     </g>
    </g>
    <g id="line2d_34">
     <path d="M 67.302 67.495219 
L 85.302 67.495219 
" style="fill:none;stroke:#de8f05;stroke-linecap:square;stroke-width:1.5;"/>
    </g>
    <g id="line2d_35"/>
    <g id="text_14">
     <!-- sphereconv -->
     <defs>
      <path d="M 54.890625 33.015625 
L 54.890625 0 
L 45.90625 0 
L 45.90625 32.71875 
Q 45.90625 40.484375 42.875 44.328125 
Q 39.84375 48.1875 33.796875 48.1875 
Q 26.515625 48.1875 22.3125 43.546875 
Q 18.109375 38.921875 18.109375 30.90625 
L 18.109375 0 
L 9.078125 0 
L 9.078125 75.984375 
L 18.109375 75.984375 
L 18.109375 46.1875 
Q 21.34375 51.125 25.703125 53.5625 
Q 30.078125 56 35.796875 56 
Q 45.21875 56 50.046875 50.171875 
Q 54.890625 44.34375 54.890625 33.015625 
z
" id="DejaVuSans-104"/>
      <path d="M 41.109375 46.296875 
Q 39.59375 47.171875 37.8125 47.578125 
Q 36.03125 48 33.890625 48 
Q 26.265625 48 22.1875 43.046875 
Q 18.109375 38.09375 18.109375 28.8125 
L 18.109375 0 
L 9.078125 0 
L 9.078125 54.6875 
L 18.109375 54.6875 
L 18.109375 46.1875 
Q 20.953125 51.171875 25.484375 53.578125 
Q 30.03125 56 36.53125 56 
Q 37.453125 56 38.578125 55.875 
Q 39.703125 55.765625 41.0625 55.515625 
z
" id="DejaVuSans-114"/>
      <path d="M 30.609375 48.390625 
Q 23.390625 48.390625 19.1875 42.75 
Q 14.984375 37.109375 14.984375 27.296875 
Q 14.984375 17.484375 19.15625 11.84375 
Q 23.34375 6.203125 30.609375 6.203125 
Q 37.796875 6.203125 41.984375 11.859375 
Q 46.1875 17.53125 46.1875 27.296875 
Q 46.1875 37.015625 41.984375 42.703125 
Q 37.796875 48.390625 30.609375 48.390625 
z
M 30.609375 56 
Q 42.328125 56 49.015625 48.375 
Q 55.71875 40.765625 55.71875 27.296875 
Q 55.71875 13.875 49.015625 6.21875 
Q 42.328125 -1.421875 30.609375 -1.421875 
Q 18.84375 -1.421875 12.171875 6.21875 
Q 5.515625 13.875 5.515625 27.296875 
Q 5.515625 40.765625 12.171875 48.375 
Q 18.84375 56 30.609375 56 
z
" id="DejaVuSans-111"/>
      <path d="M 2.984375 54.6875 
L 12.5 54.6875 
L 29.59375 8.796875 
L 46.6875 54.6875 
L 56.203125 54.6875 
L 35.6875 0 
L 23.484375 0 
z
" id="DejaVuSans-118"/>
     </defs>
     <g transform="translate(92.502 70.645219)scale(0.09 -0.09)">
      <use xlink:href="#DejaVuSans-115"/>
      <use x="52.099609" xlink:href="#DejaVuSans-112"/>
      <use x="115.576172" xlink:href="#DejaVuSans-104"/>
      <use x="178.955078" xlink:href="#DejaVuSans-101"/>
      <use x="240.478516" xlink:href="#DejaVuSans-114"/>
      <use x="279.341797" xlink:href="#DejaVuSans-101"/>
      <use x="340.865234" xlink:href="#DejaVuSans-99"/>
      <use x="395.845703" xlink:href="#DejaVuSans-111"/>
      <use x="457.027344" xlink:href="#DejaVuSans-110"/>
      <use x="520.40625" xlink:href="#DejaVuSans-118"/>
     </g>
    </g>
    <g id="line2d_36">
     <path d="M 67.302 80.705531 
L 85.302 80.705531 
" style="fill:none;stroke:#029e73;stroke-linecap:square;stroke-width:1.5;"/>
    </g>
    <g id="line2d_37"/>
    <g id="text_15">
     <!-- hemconv -->
     <defs>
      <path d="M 52 44.1875 
Q 55.375 50.25 60.0625 53.125 
Q 64.75 56 71.09375 56 
Q 79.640625 56 84.28125 50.015625 
Q 88.921875 44.046875 88.921875 33.015625 
L 88.921875 0 
L 79.890625 0 
L 79.890625 32.71875 
Q 79.890625 40.578125 77.09375 44.375 
Q 74.3125 48.1875 68.609375 48.1875 
Q 61.625 48.1875 57.5625 43.546875 
Q 53.515625 38.921875 53.515625 30.90625 
L 53.515625 0 
L 44.484375 0 
L 44.484375 32.71875 
Q 44.484375 40.625 41.703125 44.40625 
Q 38.921875 48.1875 33.109375 48.1875 
Q 26.21875 48.1875 22.15625 43.53125 
Q 18.109375 38.875 18.109375 30.90625 
L 18.109375 0 
L 9.078125 0 
L 9.078125 54.6875 
L 18.109375 54.6875 
L 18.109375 46.1875 
Q 21.1875 51.21875 25.484375 53.609375 
Q 29.78125 56 35.6875 56 
Q 41.65625 56 45.828125 52.96875 
Q 50 49.953125 52 44.1875 
z
" id="DejaVuSans-109"/>
     </defs>
     <g transform="translate(92.502 83.855531)scale(0.09 -0.09)">
      <use xlink:href="#DejaVuSans-104"/>
      <use x="63.378906" xlink:href="#DejaVuSans-101"/>
      <use x="124.902344" xlink:href="#DejaVuSans-109"/>
      <use x="222.314453" xlink:href="#DejaVuSans-99"/>
      <use x="277.294922" xlink:href="#DejaVuSans-111"/>
      <use x="338.476562" xlink:href="#DejaVuSans-110"/>
      <use x="401.855469" xlink:href="#DejaVuSans-118"/>
     </g>
    </g>
    <g id="line2d_38">
     <path d="M 67.302 93.915844 
L 85.302 93.915844 
" style="fill:none;stroke:#d55e00;stroke-linecap:square;stroke-width:1.5;"/>
    </g>
    <g id="line2d_39"/>
    <g id="text_16">
     <!-- hemconv_sharedweights -->
     <defs>
      <path d="M 50.984375 -16.609375 
L 50.984375 -23.578125 
L -0.984375 -23.578125 
L -0.984375 -16.609375 
z
" id="DejaVuSans-95"/>
      <path d="M 4.203125 54.6875 
L 13.1875 54.6875 
L 24.421875 12.015625 
L 35.59375 54.6875 
L 46.1875 54.6875 
L 57.421875 12.015625 
L 68.609375 54.6875 
L 77.59375 54.6875 
L 63.28125 0 
L 52.6875 0 
L 40.921875 44.828125 
L 29.109375 0 
L 18.5 0 
z
" id="DejaVuSans-119"/>
      <path d="M 9.421875 54.6875 
L 18.40625 54.6875 
L 18.40625 0 
L 9.421875 0 
z
M 9.421875 75.984375 
L 18.40625 75.984375 
L 18.40625 64.59375 
L 9.421875 64.59375 
z
" id="DejaVuSans-105"/>
      <path d="M 45.40625 27.984375 
Q 45.40625 37.75 41.375 43.109375 
Q 37.359375 48.484375 30.078125 48.484375 
Q 22.859375 48.484375 18.828125 43.109375 
Q 14.796875 37.75 14.796875 27.984375 
Q 14.796875 18.265625 18.828125 12.890625 
Q 22.859375 7.515625 30.078125 7.515625 
Q 37.359375 7.515625 41.375 12.890625 
Q 45.40625 18.265625 45.40625 27.984375 
z
M 54.390625 6.78125 
Q 54.390625 -7.171875 48.1875 -13.984375 
Q 42 -20.796875 29.203125 -20.796875 
Q 24.46875 -20.796875 20.265625 -20.09375 
Q 16.0625 -19.390625 12.109375 -17.921875 
L 12.109375 -9.1875 
Q 16.0625 -11.328125 19.921875 -12.34375 
Q 23.78125 -13.375 27.78125 -13.375 
Q 36.625 -13.375 41.015625 -8.765625 
Q 45.40625 -4.15625 45.40625 5.171875 
L 45.40625 9.625 
Q 42.625 4.78125 38.28125 2.390625 
Q 33.9375 0 27.875 0 
Q 17.828125 0 11.671875 7.65625 
Q 5.515625 15.328125 5.515625 27.984375 
Q 5.515625 40.671875 11.671875 48.328125 
Q 17.828125 56 27.875 56 
Q 33.9375 56 38.28125 53.609375 
Q 42.625 51.21875 45.40625 46.390625 
L 45.40625 54.6875 
L 54.390625 54.6875 
z
" id="DejaVuSans-103"/>
     </defs>
     <g transform="translate(92.502 97.065844)scale(0.09 -0.09)">
      <use xlink:href="#DejaVuSans-104"/>
      <use x="63.378906" xlink:href="#DejaVuSans-101"/>
      <use x="124.902344" xlink:href="#DejaVuSans-109"/>
      <use x="222.314453" xlink:href="#DejaVuSans-99"/>
      <use x="277.294922" xlink:href="#DejaVuSans-111"/>
      <use x="338.476562" xlink:href="#DejaVuSans-110"/>
      <use x="401.855469" xlink:href="#DejaVuSans-118"/>
      <use x="461.035156" xlink:href="#DejaVuSans-95"/>
      <use x="511.035156" xlink:href="#DejaVuSans-115"/>
      <use x="563.134766" xlink:href="#DejaVuSans-104"/>
      <use x="626.513672" xlink:href="#DejaVuSans-97"/>
      <use x="687.792969" xlink:href="#DejaVuSans-114"/>
      <use x="726.65625" xlink:href="#DejaVuSans-101"/>
      <use x="788.179688" xlink:href="#DejaVuSans-100"/>
      <use x="851.65625" xlink:href="#DejaVuSans-119"/>
      <use x="933.443359" xlink:href="#DejaVuSans-101"/>
      <use x="994.966797" xlink:href="#DejaVuSans-105"/>
      <use x="1022.75" xlink:href="#DejaVuSans-103"/>
      <use x="1086.226562" xlink:href="#DejaVuSans-104"/>
      <use x="1149.605469" xlink:href="#DejaVuSans-116"/>
      <use x="1188.814453" xlink:href="#DejaVuSans-115"/>
     </g>
    </g>
    <g id="line2d_40">
     <path d="M 222.184969 41.074594 
L 240.184969 41.074594 
" style="fill:none;stroke:#cc78bc;stroke-linecap:square;stroke-width:1.5;"/>
    </g>
    <g id="line2d_41"/>
    <g id="text_17">
     <!-- sphereconv_hemconv -->
     <g transform="translate(247.384969 44.224594)scale(0.09 -0.09)">
      <use xlink:href="#DejaVuSans-115"/>
      <use x="52.099609" xlink:href="#DejaVuSans-112"/>
      <use x="115.576172" xlink:href="#DejaVuSans-104"/>
      <use x="178.955078" xlink:href="#DejaVuSans-101"/>
      <use x="240.478516" xlink:href="#DejaVuSans-114"/>
      <use x="279.341797" xlink:href="#DejaVuSans-101"/>
      <use x="340.865234" xlink:href="#DejaVuSans-99"/>
      <use x="395.845703" xlink:href="#DejaVuSans-111"/>
      <use x="457.027344" xlink:href="#DejaVuSans-110"/>
      <use x="520.40625" xlink:href="#DejaVuSans-118"/>
      <use x="579.585938" xlink:href="#DejaVuSans-95"/>
      <use x="629.585938" xlink:href="#DejaVuSans-104"/>
      <use x="692.964844" xlink:href="#DejaVuSans-101"/>
      <use x="754.488281" xlink:href="#DejaVuSans-109"/>
      <use x="851.900391" xlink:href="#DejaVuSans-99"/>
      <use x="906.880859" xlink:href="#DejaVuSans-111"/>
      <use x="968.0625" xlink:href="#DejaVuSans-110"/>
      <use x="1031.441406" xlink:href="#DejaVuSans-118"/>
     </g>
    </g>
    <g id="line2d_42">
     <path d="M 222.184969 54.535219 
L 240.184969 54.535219 
" style="fill:none;stroke:#ca9161;stroke-linecap:square;stroke-width:1.5;"/>
    </g>
    <g id="line2d_43"/>
    <g id="text_18">
     <!-- sphereconv_hemconv_shared -->
     <g transform="translate(247.384969 57.685219)scale(0.09 -0.09)">
      <use xlink:href="#DejaVuSans-115"/>
      <use x="52.099609" xlink:href="#DejaVuSans-112"/>
      <use x="115.576172" xlink:href="#DejaVuSans-104"/>
      <use x="178.955078" xlink:href="#DejaVuSans-101"/>
      <use x="240.478516" xlink:href="#DejaVuSans-114"/>
      <use x="279.341797" xlink:href="#DejaVuSans-101"/>
      <use x="340.865234" xlink:href="#DejaVuSans-99"/>
      <use x="395.845703" xlink:href="#DejaVuSans-111"/>
      <use x="457.027344" xlink:href="#DejaVuSans-110"/>
      <use x="520.40625" xlink:href="#DejaVuSans-118"/>
      <use x="579.585938" xlink:href="#DejaVuSans-95"/>
      <use x="629.585938" xlink:href="#DejaVuSans-104"/>
      <use x="692.964844" xlink:href="#DejaVuSans-101"/>
      <use x="754.488281" xlink:href="#DejaVuSans-109"/>
      <use x="851.900391" xlink:href="#DejaVuSans-99"/>
      <use x="906.880859" xlink:href="#DejaVuSans-111"/>
      <use x="968.0625" xlink:href="#DejaVuSans-110"/>
      <use x="1031.441406" xlink:href="#DejaVuSans-118"/>
      <use x="1090.621094" xlink:href="#DejaVuSans-95"/>
      <use x="1140.621094" xlink:href="#DejaVuSans-115"/>
      <use x="1192.720703" xlink:href="#DejaVuSans-104"/>
      <use x="1256.099609" xlink:href="#DejaVuSans-97"/>
      <use x="1317.378906" xlink:href="#DejaVuSans-114"/>
      <use x="1356.242188" xlink:href="#DejaVuSans-101"/>
      <use x="1417.765625" xlink:href="#DejaVuSans-100"/>
     </g>
    </g>
    <g id="line2d_44">
     <path d="M 222.184969 67.995844 
L 240.184969 67.995844 
" style="fill:none;stroke:#fbafe4;stroke-linecap:square;stroke-width:1.5;"/>
    </g>
    <g id="line2d_45"/>
    <g id="text_19">
     <!-- base_latlon -->
     <defs>
      <path d="M 9.421875 75.984375 
L 18.40625 75.984375 
L 18.40625 0 
L 9.421875 0 
z
" id="DejaVuSans-108"/>
     </defs>
     <g transform="translate(247.384969 71.145844)scale(0.09 -0.09)">
      <use xlink:href="#DejaVuSans-98"/>
      <use x="63.476562" xlink:href="#DejaVuSans-97"/>
      <use x="124.755859" xlink:href="#DejaVuSans-115"/>
      <use x="176.855469" xlink:href="#DejaVuSans-101"/>
      <use x="238.378906" xlink:href="#DejaVuSans-95"/>
      <use x="288.378906" xlink:href="#DejaVuSans-108"/>
      <use x="316.162109" xlink:href="#DejaVuSans-97"/>
      <use x="377.441406" xlink:href="#DejaVuSans-116"/>
      <use x="416.650391" xlink:href="#DejaVuSans-108"/>
      <use x="444.433594" xlink:href="#DejaVuSans-111"/>
      <use x="505.615234" xlink:href="#DejaVuSans-110"/>
     </g>
    </g>
    <g id="line2d_46">
     <path d="M 222.184969 81.456469 
L 240.184969 81.456469 
" style="fill:none;stroke:#949494;stroke-linecap:square;stroke-width:1.5;"/>
    </g>
    <g id="line2d_47"/>
    <g id="text_20">
     <!-- hemconv_halfsize -->
     <defs>
      <path d="M 5.515625 54.6875 
L 48.1875 54.6875 
L 48.1875 46.484375 
L 14.40625 7.171875 
L 48.1875 7.171875 
L 48.1875 0 
L 4.296875 0 
L 4.296875 8.203125 
L 38.09375 47.515625 
L 5.515625 47.515625 
z
" id="DejaVuSans-122"/>
     </defs>
     <g transform="translate(247.384969 84.606469)scale(0.09 -0.09)">
      <use xlink:href="#DejaVuSans-104"/>
      <use x="63.378906" xlink:href="#DejaVuSans-101"/>
      <use x="124.902344" xlink:href="#DejaVuSans-109"/>
      <use x="222.314453" xlink:href="#DejaVuSans-99"/>
      <use x="277.294922" xlink:href="#DejaVuSans-111"/>
      <use x="338.476562" xlink:href="#DejaVuSans-110"/>
      <use x="401.855469" xlink:href="#DejaVuSans-118"/>
      <use x="461.035156" xlink:href="#DejaVuSans-95"/>
      <use x="511.035156" xlink:href="#DejaVuSans-104"/>
      <use x="574.414062" xlink:href="#DejaVuSans-97"/>
      <use x="635.693359" xlink:href="#DejaVuSans-108"/>
      <use x="663.476562" xlink:href="#DejaVuSans-102"/>
      <use x="698.681641" xlink:href="#DejaVuSans-115"/>
      <use x="750.78125" xlink:href="#DejaVuSans-105"/>
      <use x="778.564453" xlink:href="#DejaVuSans-122"/>
      <use x="831.054688" xlink:href="#DejaVuSans-101"/>
     </g>
    </g>
   </g>
  </g>
  <g id="axes_2">
   <g id="patch_6">
    <path d="M 63.702 376.308 
L 416.448 376.308 
L 416.448 261.576 
L 63.702 261.576 
z
" style="fill:#ffffff;"/>
   </g>
   <g id="matplotlib.axis_3">
    <g id="xtick_7">
     <g id="line2d_48">
      <g>
       <use style="stroke:#000000;stroke-width:1.25;" x="79.735909" xlink:href="#md8bdd6edad" y="376.308"/>
      </g>
     </g>
     <g id="text_21">
      <!-- 0 -->
      <g transform="translate(75.536659 395.837938)scale(0.132 -0.132)">
       <use xlink:href="#DejaVuSans-48"/>
      </g>
     </g>
    </g>
    <g id="xtick_8">
     <g id="line2d_49">
      <g>
       <use style="stroke:#000000;stroke-width:1.25;" x="143.871545" xlink:href="#md8bdd6edad" y="376.308"/>
      </g>
     </g>
     <g id="text_22">
      <!-- 2 -->
      <g transform="translate(139.672295 395.837938)scale(0.132 -0.132)">
       <use xlink:href="#DejaVuSans-50"/>
      </g>
     </g>
    </g>
    <g id="xtick_9">
     <g id="line2d_50">
      <g>
       <use style="stroke:#000000;stroke-width:1.25;" x="208.007182" xlink:href="#md8bdd6edad" y="376.308"/>
      </g>
     </g>
     <g id="text_23">
      <!-- 4 -->
      <g transform="translate(203.807932 395.837938)scale(0.132 -0.132)">
       <use xlink:href="#DejaVuSans-52"/>
      </g>
     </g>
    </g>
    <g id="xtick_10">
     <g id="line2d_51">
      <g>
       <use style="stroke:#000000;stroke-width:1.25;" x="272.142818" xlink:href="#md8bdd6edad" y="376.308"/>
      </g>
     </g>
     <g id="text_24">
      <!-- 6 -->
      <g transform="translate(267.943568 395.837938)scale(0.132 -0.132)">
       <use xlink:href="#DejaVuSans-54"/>
      </g>
     </g>
    </g>
    <g id="xtick_11">
     <g id="line2d_52">
      <g>
       <use style="stroke:#000000;stroke-width:1.25;" x="336.278455" xlink:href="#md8bdd6edad" y="376.308"/>
      </g>
     </g>
     <g id="text_25">
      <!-- 8 -->
      <g transform="translate(332.079205 395.837938)scale(0.132 -0.132)">
       <use xlink:href="#DejaVuSans-56"/>
      </g>
     </g>
    </g>
    <g id="xtick_12">
     <g id="line2d_53">
      <g>
       <use style="stroke:#000000;stroke-width:1.25;" x="400.414091" xlink:href="#md8bdd6edad" y="376.308"/>
      </g>
     </g>
     <g id="text_26">
      <!-- 10 -->
      <g transform="translate(392.015591 395.837938)scale(0.132 -0.132)">
       <use xlink:href="#DejaVuSans-49"/>
       <use x="63.623047" xlink:href="#DejaVuSans-48"/>
      </g>
     </g>
    </g>
    <g id="text_27">
     <!-- fcday -->
     <g transform="translate(220.336875 413.524875)scale(0.144 -0.144)">
      <use xlink:href="#DejaVuSans-102"/>
      <use x="35.205078" xlink:href="#DejaVuSans-99"/>
      <use x="90.185547" xlink:href="#DejaVuSans-100"/>
      <use x="153.662109" xlink:href="#DejaVuSans-97"/>
      <use x="214.941406" xlink:href="#DejaVuSans-121"/>
     </g>
    </g>
   </g>
   <g id="matplotlib.axis_4">
    <g id="ytick_4">
     <g id="line2d_54">
      <path clip-path="url(#pde6d513068)" d="M 63.702 345.105931 
L 416.448 345.105931 
" style="fill:none;stroke:#000000;stroke-dasharray:1,1.65;stroke-dashoffset:0;"/>
     </g>
     <g id="line2d_55">
      <g>
       <use style="stroke:#000000;stroke-width:1.25;" x="63.702" xlink:href="#mabb9901cf3" y="345.105931"/>
      </g>
     </g>
     <g id="text_28">
      <!-- 0.6 -->
      <defs>
       <path d="M 10.6875 12.40625 
L 21 12.40625 
L 21 0 
L 10.6875 0 
z
" id="DejaVuSans-46"/>
      </defs>
      <g transform="translate(33.209875 350.1209)scale(0.132 -0.132)">
       <use xlink:href="#DejaVuSans-48"/>
       <use x="63.623047" xlink:href="#DejaVuSans-46"/>
       <use x="95.410156" xlink:href="#DejaVuSans-54"/>
      </g>
     </g>
    </g>
    <g id="ytick_5">
     <g id="line2d_56">
      <path clip-path="url(#pde6d513068)" d="M 63.702 305.948511 
L 416.448 305.948511 
" style="fill:none;stroke:#000000;stroke-dasharray:1,1.65;stroke-dashoffset:0;"/>
     </g>
     <g id="line2d_57">
      <g>
       <use style="stroke:#000000;stroke-width:1.25;" x="63.702" xlink:href="#mabb9901cf3" y="305.948511"/>
      </g>
     </g>
     <g id="text_29">
      <!-- 0.8 -->
      <g transform="translate(33.209875 310.96348)scale(0.132 -0.132)">
       <use xlink:href="#DejaVuSans-48"/>
       <use x="63.623047" xlink:href="#DejaVuSans-46"/>
       <use x="95.410156" xlink:href="#DejaVuSans-56"/>
      </g>
     </g>
    </g>
    <g id="ytick_6">
     <g id="line2d_58">
      <path clip-path="url(#pde6d513068)" d="M 63.702 266.791091 
L 416.448 266.791091 
" style="fill:none;stroke:#000000;stroke-dasharray:1,1.65;stroke-dashoffset:0;"/>
     </g>
     <g id="line2d_59">
      <g>
       <use style="stroke:#000000;stroke-width:1.25;" x="63.702" xlink:href="#mabb9901cf3" y="266.791091"/>
      </g>
     </g>
     <g id="text_30">
      <!-- 1.0 -->
      <g transform="translate(33.209875 271.80606)scale(0.132 -0.132)">
       <use xlink:href="#DejaVuSans-49"/>
       <use x="63.623047" xlink:href="#DejaVuSans-46"/>
       <use x="95.410156" xlink:href="#DejaVuSans-48"/>
      </g>
     </g>
    </g>
    <g id="text_31">
     <!-- acc -->
     <g transform="translate(26.215125 331.272)rotate(-90)scale(0.144 -0.144)">
      <use xlink:href="#DejaVuSans-97"/>
      <use x="61.279297" xlink:href="#DejaVuSans-99"/>
      <use x="116.259766" xlink:href="#DejaVuSans-99"/>
     </g>
    </g>
   </g>
   <g id="line2d_60">
    <path clip-path="url(#pde6d513068)" d="M 79.735909 266.791091 
L 111.803727 274.269339 
L 143.871545 282.142937 
L 175.939364 292.945383 
L 208.007182 306.007541 
L 240.075 319.67068 
L 272.142818 332.594044 
L 304.210636 344.133311 
L 336.278455 354.156143 
L 368.346273 362.903932 
L 400.414091 371.092909 
" style="fill:none;stroke:#0173b2;stroke-linecap:square;stroke-opacity:0.9;stroke-width:0.9;"/>
   </g>
   <g id="line2d_61">
    <path clip-path="url(#pde6d513068)" d="M 79.735909 266.791091 
L 111.803727 273.734476 
L 143.871545 280.57667 
L 175.939364 290.021367 
L 208.007182 301.819006 
L 240.075 314.61768 
L 272.142818 327.033826 
L 304.210636 338.312455 
L 336.278455 348.043098 
L 368.346273 356.175676 
L 400.414091 362.998309 
" style="fill:none;stroke:#de8f05;stroke-linecap:square;stroke-opacity:0.9;stroke-width:0.9;"/>
   </g>
   <g id="line2d_62">
    <path clip-path="url(#pde6d513068)" d="M 79.735909 266.791091 
L 111.803727 273.825804 
L 143.871545 281.376788 
L 175.939364 291.85507 
L 208.007182 304.67465 
L 240.075 318.172871 
L 272.142818 330.840375 
L 304.210636 341.997101 
L 336.278455 351.486743 
L 368.346273 359.308895 
L 400.414091 365.810633 
" style="fill:none;stroke:#029e73;stroke-linecap:square;stroke-opacity:0.9;stroke-width:0.9;"/>
   </g>
   <g id="line2d_63">
    <path clip-path="url(#pde6d513068)" d="M 79.735909 266.791091 
L 111.803727 273.30292 
L 143.871545 279.495464 
L 175.939364 288.356891 
L 208.007182 299.757563 
L 240.075 312.3871 
L 272.142818 324.837478 
L 304.210636 336.217196 
L 336.278455 345.993537 
L 368.346273 354.163918 
L 400.414091 360.994888 
" style="fill:none;stroke:#d55e00;stroke-linecap:square;stroke-opacity:0.9;stroke-width:0.9;"/>
   </g>
   <g id="line2d_64">
    <path clip-path="url(#pde6d513068)" d="M 79.735909 266.791091 
L 111.803727 273.294796 
L 143.871545 279.962916 
L 175.939364 289.2634 
L 208.007182 300.901236 
L 240.075 313.545451 
L 272.142818 325.776377 
L 304.210636 336.908052 
L 336.278455 346.705807 
L 368.346273 355.135352 
L 400.414091 362.338847 
" style="fill:none;stroke:#cc78bc;stroke-linecap:square;stroke-opacity:0.9;stroke-width:0.9;"/>
   </g>
   <g id="line2d_65">
    <path clip-path="url(#pde6d513068)" d="M 79.735909 266.791091 
L 111.803727 272.921043 
L 143.871545 278.622545 
L 175.939364 286.928747 
L 208.007182 298.013235 
L 240.075 310.712313 
L 272.142818 323.517515 
L 304.210636 335.466395 
L 336.278455 346.07581 
L 368.346273 355.078533 
L 400.414091 362.490806 
" style="fill:none;stroke:#ca9161;stroke-linecap:square;stroke-opacity:0.9;stroke-width:0.9;"/>
   </g>
   <g id="line2d_66">
    <path clip-path="url(#pde6d513068)" d="M 79.735909 266.791091 
L 111.803727 274.100875 
L 143.871545 281.680435 
L 175.939364 292.059267 
L 208.007182 304.842316 
L 240.075 318.503492 
L 272.142818 331.482619 
L 304.210636 343.072436 
L 336.278455 352.980433 
L 368.346273 361.205248 
L 400.414091 368.144555 
" style="fill:none;stroke:#fbafe4;stroke-linecap:square;stroke-opacity:0.9;stroke-width:0.9;"/>
   </g>
   <g id="line2d_67">
    <path clip-path="url(#pde6d513068)" d="M 79.735909 266.791091 
L 111.803727 274.98517 
L 143.871545 283.246971 
L 175.939364 294.178971 
L 208.007182 307.01838 
L 240.075 320.120075 
L 272.142818 332.122013 
L 304.210636 342.487216 
L 336.278455 351.241895 
L 368.346273 358.480482 
L 400.414091 364.476458 
" style="fill:none;stroke:#949494;stroke-linecap:square;stroke-opacity:0.9;stroke-width:0.9;"/>
   </g>
   <g id="line2d_68"/>
   <g id="line2d_69"/>
   <g id="line2d_70"/>
   <g id="line2d_71"/>
   <g id="line2d_72"/>
   <g id="line2d_73"/>
   <g id="line2d_74"/>
   <g id="line2d_75"/>
   <g id="line2d_76"/>
   <g id="patch_7">
    <path d="M 63.702 376.308 
L 63.702 261.576 
" style="fill:none;stroke:#000000;stroke-linecap:square;stroke-linejoin:miter;stroke-width:1.25;"/>
   </g>
   <g id="patch_8">
    <path d="M 63.702 376.308 
L 416.448 376.308 
" style="fill:none;stroke:#000000;stroke-linecap:square;stroke-linejoin:miter;stroke-width:1.25;"/>
   </g>
  </g>
  <g id="text_32">
   <!-- temperature850 -->
   <defs>
    <path d="M 8.5 21.578125 
L 8.5 54.6875 
L 17.484375 54.6875 
L 17.484375 21.921875 
Q 17.484375 14.15625 20.5 10.265625 
Q 23.53125 6.390625 29.59375 6.390625 
Q 36.859375 6.390625 41.078125 11.03125 
Q 45.3125 15.671875 45.3125 23.6875 
L 45.3125 54.6875 
L 54.296875 54.6875 
L 54.296875 0 
L 45.3125 0 
L 45.3125 8.40625 
Q 42.046875 3.421875 37.71875 1 
Q 33.40625 -1.421875 27.6875 -1.421875 
Q 18.265625 -1.421875 13.375 4.4375 
Q 8.5 10.296875 8.5 21.578125 
z
M 31.109375 56 
z
" id="DejaVuSans-117"/>
    <path d="M 10.796875 72.90625 
L 49.515625 72.90625 
L 49.515625 64.59375 
L 19.828125 64.59375 
L 19.828125 46.734375 
Q 21.96875 47.46875 24.109375 47.828125 
Q 26.265625 48.1875 28.421875 48.1875 
Q 40.625 48.1875 47.75 41.5 
Q 54.890625 34.8125 54.890625 23.390625 
Q 54.890625 11.625 47.5625 5.09375 
Q 40.234375 -1.421875 26.90625 -1.421875 
Q 22.3125 -1.421875 17.546875 -0.640625 
Q 12.796875 0.140625 7.71875 1.703125 
L 7.71875 11.625 
Q 12.109375 9.234375 16.796875 8.0625 
Q 21.484375 6.890625 26.703125 6.890625 
Q 35.15625 6.890625 40.078125 11.328125 
Q 45.015625 15.765625 45.015625 23.390625 
Q 45.015625 31 40.078125 35.4375 
Q 35.15625 39.890625 26.703125 39.890625 
Q 22.75 39.890625 18.8125 39.015625 
Q 14.890625 38.140625 10.796875 36.28125 
z
" id="DejaVuSans-53"/>
   </defs>
   <g transform="translate(145.20465 21.7701)scale(0.1728 -0.1728)">
    <use xlink:href="#DejaVuSans-116"/>
    <use x="39.208984" xlink:href="#DejaVuSans-101"/>
    <use x="100.732422" xlink:href="#DejaVuSans-109"/>
    <use x="198.144531" xlink:href="#DejaVuSans-112"/>
    <use x="261.621094" xlink:href="#DejaVuSans-101"/>
    <use x="323.144531" xlink:href="#DejaVuSans-114"/>
    <use x="364.257812" xlink:href="#DejaVuSans-97"/>
    <use x="425.537109" xlink:href="#DejaVuSans-116"/>
    <use x="464.746094" xlink:href="#DejaVuSans-117"/>
    <use x="528.125" xlink:href="#DejaVuSans-114"/>
    <use x="566.988281" xlink:href="#DejaVuSans-101"/>
    <use x="628.511719" xlink:href="#DejaVuSans-56"/>
    <use x="692.134766" xlink:href="#DejaVuSans-53"/>
    <use x="755.757812" xlink:href="#DejaVuSans-48"/>
   </g>
  </g>
 </g>
 <defs>
  <clipPath id="p19827af73c">
   <rect height="114.732" width="352.746" x="63.702" y="91.152"/>
  </clipPath>
  <clipPath id="pde6d513068">
   <rect height="114.732" width="352.746" x="63.702" y="261.576"/>
  </clipPath>
 </defs>
</svg>
