<?xml version="1.0" encoding="utf-8" standalone="no"?>
<!DOCTYPE svg PUBLIC "-//W3C//DTD SVG 1.1//EN"
  "http://www.w3.org/Graphics/SVG/1.1/DTD/svg11.dtd">
<!-- Created with matplotlib (https://matplotlib.org/) -->
<svg height="432pt" version="1.1" viewBox="0 0 432 432" width="432pt" xmlns="http://www.w3.org/2000/svg" xmlns:xlink="http://www.w3.org/1999/xlink">
 <defs>
  <style type="text/css">
*{stroke-linecap:butt;stroke-linejoin:round;}
  </style>
 </defs>
 <g id="figure_1">
  <g id="patch_1">
   <path d="M 0 432 
L 432 432 
L 432 0 
L 0 0 
z
" style="fill:#ffffff;"/>
  </g>
  <g id="axes_1">
   <g id="patch_2">
    <path d="M 82.44 205.884 
L 416.448 205.884 
L 416.448 91.152 
L 82.44 91.152 
z
" style="fill:#ffffff;"/>
   </g>
   <g id="patch_3">
    <path clip-path="url(#padc7e9abcf)" d="M 85.476436 91.152 
L 89.525018 91.152 
L 89.525018 91.152 
L 85.476436 91.152 
z
" style="fill:#176d9c;opacity:0.9;"/>
   </g>
   <g id="patch_4">
    <path clip-path="url(#padc7e9abcf)" d="M 115.8408 91.152 
L 119.889382 91.152 
L 119.889382 91.152 
L 115.8408 91.152 
z
" style="fill:#176d9c;opacity:0.9;"/>
   </g>
   <g id="patch_5">
    <path clip-path="url(#padc7e9abcf)" d="M 146.205164 91.152 
L 150.253745 91.152 
L 150.253745 91.152 
L 146.205164 91.152 
z
" style="fill:#176d9c;opacity:0.9;"/>
   </g>
   <g id="patch_6">
    <path clip-path="url(#padc7e9abcf)" d="M 176.569527 91.152 
L 180.618109 91.152 
L 180.618109 91.152 
L 176.569527 91.152 
z
" style="fill:#176d9c;opacity:0.9;"/>
   </g>
   <g id="patch_7">
    <path clip-path="url(#padc7e9abcf)" d="M 206.933891 91.152 
L 210.982473 91.152 
L 210.982473 91.152 
L 206.933891 91.152 
z
" style="fill:#176d9c;opacity:0.9;"/>
   </g>
   <g id="patch_8">
    <path clip-path="url(#padc7e9abcf)" d="M 237.298255 91.152 
L 241.346836 91.152 
L 241.346836 91.152 
L 237.298255 91.152 
z
" style="fill:#176d9c;opacity:0.9;"/>
   </g>
   <g id="patch_9">
    <path clip-path="url(#padc7e9abcf)" d="M 267.662618 91.152 
L 271.7112 91.152 
L 271.7112 91.152 
L 267.662618 91.152 
z
" style="fill:#176d9c;opacity:0.9;"/>
   </g>
   <g id="patch_10">
    <path clip-path="url(#padc7e9abcf)" d="M 298.026982 91.152 
L 302.075564 91.152 
L 302.075564 91.152 
L 298.026982 91.152 
z
" style="fill:#176d9c;opacity:0.9;"/>
   </g>
   <g id="patch_11">
    <path clip-path="url(#padc7e9abcf)" d="M 328.391345 91.152 
L 332.439927 91.152 
L 332.439927 91.152 
L 328.391345 91.152 
z
" style="fill:#176d9c;opacity:0.9;"/>
   </g>
   <g id="patch_12">
    <path clip-path="url(#padc7e9abcf)" d="M 358.755709 91.152 
L 362.804291 91.152 
L 362.804291 91.152 
L 358.755709 91.152 
z
" style="fill:#176d9c;opacity:0.9;"/>
   </g>
   <g id="patch_13">
    <path clip-path="url(#padc7e9abcf)" d="M 389.120073 91.152 
L 393.168655 91.152 
L 393.168655 91.152 
L 389.120073 91.152 
z
" style="fill:#176d9c;opacity:0.9;"/>
   </g>
   <g id="patch_14">
    <path clip-path="url(#padc7e9abcf)" d="M 89.525018 91.152 
L 93.5736 91.152 
L 93.5736 91.152 
L 89.525018 91.152 
z
" style="fill:#c38820;opacity:0.9;"/>
   </g>
   <g id="patch_15">
    <path clip-path="url(#padc7e9abcf)" d="M 119.889382 91.152 
L 123.937964 91.152 
L 123.937964 105.230135 
L 119.889382 105.230135 
z
" style="fill:#c38820;opacity:0.9;"/>
   </g>
   <g id="patch_16">
    <path clip-path="url(#padc7e9abcf)" d="M 150.253745 91.152 
L 154.302327 91.152 
L 154.302327 120.332696 
L 150.253745 120.332696 
z
" style="fill:#c38820;opacity:0.9;"/>
   </g>
   <g id="patch_17">
    <path clip-path="url(#padc7e9abcf)" d="M 180.618109 91.152 
L 184.666691 91.152 
L 184.666691 128.518034 
L 180.618109 128.518034 
z
" style="fill:#c38820;opacity:0.9;"/>
   </g>
   <g id="patch_18">
    <path clip-path="url(#padc7e9abcf)" d="M 210.982473 91.152 
L 215.031055 91.152 
L 215.031055 126.99371 
L 210.982473 126.99371 
z
" style="fill:#c38820;opacity:0.9;"/>
   </g>
   <g id="patch_19">
    <path clip-path="url(#padc7e9abcf)" d="M 241.346836 91.152 
L 245.395418 91.152 
L 245.395418 118.866148 
L 241.346836 118.866148 
z
" style="fill:#c38820;opacity:0.9;"/>
   </g>
   <g id="patch_20">
    <path clip-path="url(#padc7e9abcf)" d="M 271.7112 91.152 
L 275.759782 91.152 
L 275.759782 109.242125 
L 271.7112 109.242125 
z
" style="fill:#c38820;opacity:0.9;"/>
   </g>
   <g id="patch_21">
    <path clip-path="url(#padc7e9abcf)" d="M 302.075564 91.152 
L 306.124145 91.152 
L 306.124145 100.221864 
L 302.075564 100.221864 
z
" style="fill:#c38820;opacity:0.9;"/>
   </g>
   <g id="patch_22">
    <path clip-path="url(#padc7e9abcf)" d="M 332.439927 91.152 
L 336.488509 91.152 
L 336.488509 95.083673 
L 332.439927 95.083673 
z
" style="fill:#c38820;opacity:0.9;"/>
   </g>
   <g id="patch_23">
    <path clip-path="url(#padc7e9abcf)" d="M 362.804291 91.152 
L 366.852873 91.152 
L 366.852873 96.569646 
L 362.804291 96.569646 
z
" style="fill:#c38820;opacity:0.9;"/>
   </g>
   <g id="patch_24">
    <path clip-path="url(#padc7e9abcf)" d="M 393.168655 91.152 
L 397.217236 91.152 
L 397.217236 109.414023 
L 393.168655 109.414023 
z
" style="fill:#c38820;opacity:0.9;"/>
   </g>
   <g id="patch_25">
    <path clip-path="url(#padc7e9abcf)" d="M 93.5736 91.152 
L 97.622182 91.152 
L 97.622182 91.152 
L 93.5736 91.152 
z
" style="fill:#158b6a;opacity:0.9;"/>
   </g>
   <g id="patch_26">
    <path clip-path="url(#padc7e9abcf)" d="M 123.937964 91.152 
L 127.986545 91.152 
L 127.986545 102.712338 
L 123.937964 102.712338 
z
" style="fill:#158b6a;opacity:0.9;"/>
   </g>
   <g id="patch_27">
    <path clip-path="url(#padc7e9abcf)" d="M 154.302327 91.152 
L 158.350909 91.152 
L 158.350909 112.951685 
L 154.302327 112.951685 
z
" style="fill:#158b6a;opacity:0.9;"/>
   </g>
   <g id="patch_28">
    <path clip-path="url(#padc7e9abcf)" d="M 184.666691 91.152 
L 188.715273 91.152 
L 188.715273 116.850442 
L 184.666691 116.850442 
z
" style="fill:#158b6a;opacity:0.9;"/>
   </g>
   <g id="patch_29">
    <path clip-path="url(#padc7e9abcf)" d="M 215.031055 91.152 
L 219.079636 91.152 
L 219.079636 114.443422 
L 215.031055 114.443422 
z
" style="fill:#158b6a;opacity:0.9;"/>
   </g>
   <g id="patch_30">
    <path clip-path="url(#padc7e9abcf)" d="M 245.395418 91.152 
L 249.444 91.152 
L 249.444 107.860583 
L 245.395418 107.860583 
z
" style="fill:#158b6a;opacity:0.9;"/>
   </g>
   <g id="patch_31">
    <path clip-path="url(#padc7e9abcf)" d="M 275.759782 91.152 
L 279.808364 91.152 
L 279.808364 100.80846 
L 275.759782 100.80846 
z
" style="fill:#158b6a;opacity:0.9;"/>
   </g>
   <g id="patch_32">
    <path clip-path="url(#padc7e9abcf)" d="M 306.124145 91.152 
L 310.172727 91.152 
L 310.172727 95.113211 
L 306.124145 95.113211 
z
" style="fill:#158b6a;opacity:0.9;"/>
   </g>
   <g id="patch_33">
    <path clip-path="url(#padc7e9abcf)" d="M 336.488509 91.152 
L 340.537091 91.152 
L 340.537091 92.388879 
L 336.488509 92.388879 
z
" style="fill:#158b6a;opacity:0.9;"/>
   </g>
   <g id="patch_34">
    <path clip-path="url(#padc7e9abcf)" d="M 366.852873 91.152 
L 370.901455 91.152 
L 370.901455 96.472133 
L 366.852873 96.472133 
z
" style="fill:#158b6a;opacity:0.9;"/>
   </g>
   <g id="patch_35">
    <path clip-path="url(#padc7e9abcf)" d="M 397.217236 91.152 
L 401.265818 91.152 
L 401.265818 112.195094 
L 397.217236 112.195094 
z
" style="fill:#158b6a;opacity:0.9;"/>
   </g>
   <g id="patch_36">
    <path clip-path="url(#padc7e9abcf)" d="M 97.622182 91.152 
L 101.670764 91.152 
L 101.670764 91.152 
L 97.622182 91.152 
z
" style="fill:#ba611b;opacity:0.9;"/>
   </g>
   <g id="patch_37">
    <path clip-path="url(#padc7e9abcf)" d="M 127.986545 91.152 
L 132.035127 91.152 
L 132.035127 118.528809 
L 127.986545 118.528809 
z
" style="fill:#ba611b;opacity:0.9;"/>
   </g>
   <g id="patch_38">
    <path clip-path="url(#padc7e9abcf)" d="M 158.350909 91.152 
L 162.399491 91.152 
L 162.399491 141.021567 
L 158.350909 141.021567 
z
" style="fill:#ba611b;opacity:0.9;"/>
   </g>
   <g id="patch_39">
    <path clip-path="url(#padc7e9abcf)" d="M 188.715273 91.152 
L 192.763855 91.152 
L 192.763855 152.37916 
L 188.715273 152.37916 
z
" style="fill:#ba611b;opacity:0.9;"/>
   </g>
   <g id="patch_40">
    <path clip-path="url(#padc7e9abcf)" d="M 219.079636 91.152 
L 223.128218 91.152 
L 223.128218 153.556164 
L 219.079636 153.556164 
z
" style="fill:#ba611b;opacity:0.9;"/>
   </g>
   <g id="patch_41">
    <path clip-path="url(#padc7e9abcf)" d="M 249.444 91.152 
L 253.492582 91.152 
L 253.492582 146.718908 
L 249.444 146.718908 
z
" style="fill:#ba611b;opacity:0.9;"/>
   </g>
   <g id="patch_42">
    <path clip-path="url(#padc7e9abcf)" d="M 279.808364 91.152 
L 283.856945 91.152 
L 283.856945 136.912807 
L 279.808364 136.912807 
z
" style="fill:#ba611b;opacity:0.9;"/>
   </g>
   <g id="patch_43">
    <path clip-path="url(#padc7e9abcf)" d="M 310.172727 91.152 
L 314.221309 91.152 
L 314.221309 128.421726 
L 310.172727 128.421726 
z
" style="fill:#ba611b;opacity:0.9;"/>
   </g>
   <g id="patch_44">
    <path clip-path="url(#padc7e9abcf)" d="M 340.537091 91.152 
L 344.585673 91.152 
L 344.585673 125.170578 
L 340.537091 125.170578 
z
" style="fill:#ba611b;opacity:0.9;"/>
   </g>
   <g id="patch_45">
    <path clip-path="url(#padc7e9abcf)" d="M 370.901455 91.152 
L 374.950036 91.152 
L 374.950036 130.359055 
L 370.901455 130.359055 
z
" style="fill:#ba611b;opacity:0.9;"/>
   </g>
   <g id="patch_46">
    <path clip-path="url(#padc7e9abcf)" d="M 401.265818 91.152 
L 405.3144 91.152 
L 405.3144 148.104632 
L 401.265818 148.104632 
z
" style="fill:#ba611b;opacity:0.9;"/>
   </g>
   <g id="patch_47">
    <path clip-path="url(#padc7e9abcf)" d="M 101.670764 91.152 
L 105.719345 91.152 
L 105.719345 91.152 
L 101.670764 91.152 
z
" style="fill:#c282b5;opacity:0.9;"/>
   </g>
   <g id="patch_48">
    <path clip-path="url(#padc7e9abcf)" d="M 132.035127 91.152 
L 136.083709 91.152 
L 136.083709 115.364772 
L 132.035127 115.364772 
z
" style="fill:#c282b5;opacity:0.9;"/>
   </g>
   <g id="patch_49">
    <path clip-path="url(#padc7e9abcf)" d="M 162.399491 91.152 
L 166.448073 91.152 
L 166.448073 138.978596 
L 162.399491 138.978596 
z
" style="fill:#c282b5;opacity:0.9;"/>
   </g>
   <g id="patch_50">
    <path clip-path="url(#padc7e9abcf)" d="M 192.763855 91.152 
L 196.812436 91.152 
L 196.812436 155.390152 
L 192.763855 155.390152 
z
" style="fill:#c282b5;opacity:0.9;"/>
   </g>
   <g id="patch_51">
    <path clip-path="url(#padc7e9abcf)" d="M 223.128218 91.152 
L 227.1768 91.152 
L 227.1768 160.656961 
L 223.128218 160.656961 
z
" style="fill:#c282b5;opacity:0.9;"/>
   </g>
   <g id="patch_52">
    <path clip-path="url(#padc7e9abcf)" d="M 253.492582 91.152 
L 257.541164 91.152 
L 257.541164 157.133686 
L 253.492582 157.133686 
z
" style="fill:#c282b5;opacity:0.9;"/>
   </g>
   <g id="patch_53">
    <path clip-path="url(#padc7e9abcf)" d="M 283.856945 91.152 
L 287.905527 91.152 
L 287.905527 149.283126 
L 283.856945 149.283126 
z
" style="fill:#c282b5;opacity:0.9;"/>
   </g>
   <g id="patch_54">
    <path clip-path="url(#padc7e9abcf)" d="M 314.221309 91.152 
L 318.269891 91.152 
L 318.269891 138.353393 
L 314.221309 138.353393 
z
" style="fill:#c282b5;opacity:0.9;"/>
   </g>
   <g id="patch_55">
    <path clip-path="url(#padc7e9abcf)" d="M 344.585673 91.152 
L 348.634255 91.152 
L 348.634255 128.421919 
L 344.585673 128.421919 
z
" style="fill:#c282b5;opacity:0.9;"/>
   </g>
   <g id="patch_56">
    <path clip-path="url(#padc7e9abcf)" d="M 374.950036 91.152 
L 378.998618 91.152 
L 378.998618 124.340058 
L 374.950036 124.340058 
z
" style="fill:#c282b5;opacity:0.9;"/>
   </g>
   <g id="patch_57">
    <path clip-path="url(#padc7e9abcf)" d="M 405.3144 91.152 
L 409.362982 91.152 
L 409.362982 132.544297 
L 405.3144 132.544297 
z
" style="fill:#c282b5;opacity:0.9;"/>
   </g>
   <g id="patch_58">
    <path clip-path="url(#padc7e9abcf)" d="M 105.719345 91.152 
L 109.767927 91.152 
L 109.767927 91.152 
L 105.719345 91.152 
z
" style="fill:#bd926e;opacity:0.9;"/>
   </g>
   <g id="patch_59">
    <path clip-path="url(#padc7e9abcf)" d="M 136.083709 91.152 
L 140.132291 91.152 
L 140.132291 133.752327 
L 136.083709 133.752327 
z
" style="fill:#bd926e;opacity:0.9;"/>
   </g>
   <g id="patch_60">
    <path clip-path="url(#padc7e9abcf)" d="M 166.448073 91.152 
L 170.496655 91.152 
L 170.496655 174.742685 
L 166.448073 174.742685 
z
" style="fill:#bd926e;opacity:0.9;"/>
   </g>
   <g id="patch_61">
    <path clip-path="url(#padc7e9abcf)" d="M 196.812436 91.152 
L 200.861018 91.152 
L 200.861018 197.815601 
L 196.812436 197.815601 
z
" style="fill:#bd926e;opacity:0.9;"/>
   </g>
   <g id="patch_62">
    <path clip-path="url(#padc7e9abcf)" d="M 227.1768 91.152 
L 231.225382 91.152 
L 231.225382 200.420571 
L 227.1768 200.420571 
z
" style="fill:#bd926e;opacity:0.9;"/>
   </g>
   <g id="patch_63">
    <path clip-path="url(#padc7e9abcf)" d="M 257.541164 91.152 
L 261.589745 91.152 
L 261.589745 188.395477 
L 257.541164 188.395477 
z
" style="fill:#bd926e;opacity:0.9;"/>
   </g>
   <g id="patch_64">
    <path clip-path="url(#padc7e9abcf)" d="M 287.905527 91.152 
L 291.954109 91.152 
L 291.954109 172.362944 
L 287.905527 172.362944 
z
" style="fill:#bd926e;opacity:0.9;"/>
   </g>
   <g id="patch_65">
    <path clip-path="url(#padc7e9abcf)" d="M 318.269891 91.152 
L 322.318473 91.152 
L 322.318473 156.746172 
L 318.269891 156.746172 
z
" style="fill:#bd926e;opacity:0.9;"/>
   </g>
   <g id="patch_66">
    <path clip-path="url(#padc7e9abcf)" d="M 348.634255 91.152 
L 352.682836 91.152 
L 352.682836 146.498052 
L 348.634255 146.498052 
z
" style="fill:#bd926e;opacity:0.9;"/>
   </g>
   <g id="patch_67">
    <path clip-path="url(#padc7e9abcf)" d="M 378.998618 91.152 
L 383.0472 91.152 
L 383.0472 145.885725 
L 378.998618 145.885725 
z
" style="fill:#bd926e;opacity:0.9;"/>
   </g>
   <g id="patch_68">
    <path clip-path="url(#padc7e9abcf)" d="M 409.362982 91.152 
L 413.411564 91.152 
L 413.411564 159.121768 
L 409.362982 159.121768 
z
" style="fill:#bd926e;opacity:0.9;"/>
   </g>
   <g id="matplotlib.axis_1">
    <g id="xtick_1">
     <g id="line2d_1">
      <defs>
       <path d="M 0 0 
L 0 6 
" id="mc9b09c5737" style="stroke:#000000;stroke-width:1.25;"/>
      </defs>
      <g>
       <use style="stroke:#000000;stroke-width:1.25;" x="97.622182" xlink:href="#mc9b09c5737" y="205.884"/>
      </g>
     </g>
     <g id="text_1">
      <!-- 0 -->
      <defs>
       <path d="M 31.78125 66.40625 
Q 24.171875 66.40625 20.328125 58.90625 
Q 16.5 51.421875 16.5 36.375 
Q 16.5 21.390625 20.328125 13.890625 
Q 24.171875 6.390625 31.78125 6.390625 
Q 39.453125 6.390625 43.28125 13.890625 
Q 47.125 21.390625 47.125 36.375 
Q 47.125 51.421875 43.28125 58.90625 
Q 39.453125 66.40625 31.78125 66.40625 
z
M 31.78125 74.21875 
Q 44.046875 74.21875 50.515625 64.515625 
Q 56.984375 54.828125 56.984375 36.375 
Q 56.984375 17.96875 50.515625 8.265625 
Q 44.046875 -1.421875 31.78125 -1.421875 
Q 19.53125 -1.421875 13.0625 8.265625 
Q 6.59375 17.96875 6.59375 36.375 
Q 6.59375 54.828125 13.0625 64.515625 
Q 19.53125 74.21875 31.78125 74.21875 
z
" id="DejaVuSans-48"/>
      </defs>
      <g transform="translate(93.422932 225.413938)scale(0.132 -0.132)">
       <use xlink:href="#DejaVuSans-48"/>
      </g>
     </g>
    </g>
    <g id="xtick_2">
     <g id="line2d_2">
      <g>
       <use style="stroke:#000000;stroke-width:1.25;" x="127.986545" xlink:href="#mc9b09c5737" y="205.884"/>
      </g>
     </g>
     <g id="text_2">
      <!-- 1 -->
      <defs>
       <path d="M 12.40625 8.296875 
L 28.515625 8.296875 
L 28.515625 63.921875 
L 10.984375 60.40625 
L 10.984375 69.390625 
L 28.421875 72.90625 
L 38.28125 72.90625 
L 38.28125 8.296875 
L 54.390625 8.296875 
L 54.390625 0 
L 12.40625 0 
z
" id="DejaVuSans-49"/>
      </defs>
      <g transform="translate(123.787295 225.413938)scale(0.132 -0.132)">
       <use xlink:href="#DejaVuSans-49"/>
      </g>
     </g>
    </g>
    <g id="xtick_3">
     <g id="line2d_3">
      <g>
       <use style="stroke:#000000;stroke-width:1.25;" x="158.350909" xlink:href="#mc9b09c5737" y="205.884"/>
      </g>
     </g>
     <g id="text_3">
      <!-- 2 -->
      <defs>
       <path d="M 19.1875 8.296875 
L 53.609375 8.296875 
L 53.609375 0 
L 7.328125 0 
L 7.328125 8.296875 
Q 12.9375 14.109375 22.625 23.890625 
Q 32.328125 33.6875 34.8125 36.53125 
Q 39.546875 41.84375 41.421875 45.53125 
Q 43.3125 49.21875 43.3125 52.78125 
Q 43.3125 58.59375 39.234375 62.25 
Q 35.15625 65.921875 28.609375 65.921875 
Q 23.96875 65.921875 18.8125 64.3125 
Q 13.671875 62.703125 7.8125 59.421875 
L 7.8125 69.390625 
Q 13.765625 71.78125 18.9375 73 
Q 24.125 74.21875 28.421875 74.21875 
Q 39.75 74.21875 46.484375 68.546875 
Q 53.21875 62.890625 53.21875 53.421875 
Q 53.21875 48.921875 51.53125 44.890625 
Q 49.859375 40.875 45.40625 35.40625 
Q 44.1875 33.984375 37.640625 27.21875 
Q 31.109375 20.453125 19.1875 8.296875 
z
" id="DejaVuSans-50"/>
      </defs>
      <g transform="translate(154.151659 225.413938)scale(0.132 -0.132)">
       <use xlink:href="#DejaVuSans-50"/>
      </g>
     </g>
    </g>
    <g id="xtick_4">
     <g id="line2d_4">
      <g>
       <use style="stroke:#000000;stroke-width:1.25;" x="188.715273" xlink:href="#mc9b09c5737" y="205.884"/>
      </g>
     </g>
     <g id="text_4">
      <!-- 3 -->
      <defs>
       <path d="M 40.578125 39.3125 
Q 47.65625 37.796875 51.625 33 
Q 55.609375 28.21875 55.609375 21.1875 
Q 55.609375 10.40625 48.1875 4.484375 
Q 40.765625 -1.421875 27.09375 -1.421875 
Q 22.515625 -1.421875 17.65625 -0.515625 
Q 12.796875 0.390625 7.625 2.203125 
L 7.625 11.71875 
Q 11.71875 9.328125 16.59375 8.109375 
Q 21.484375 6.890625 26.8125 6.890625 
Q 36.078125 6.890625 40.9375 10.546875 
Q 45.796875 14.203125 45.796875 21.1875 
Q 45.796875 27.640625 41.28125 31.265625 
Q 36.765625 34.90625 28.71875 34.90625 
L 20.21875 34.90625 
L 20.21875 43.015625 
L 29.109375 43.015625 
Q 36.375 43.015625 40.234375 45.921875 
Q 44.09375 48.828125 44.09375 54.296875 
Q 44.09375 59.90625 40.109375 62.90625 
Q 36.140625 65.921875 28.71875 65.921875 
Q 24.65625 65.921875 20.015625 65.03125 
Q 15.375 64.15625 9.8125 62.3125 
L 9.8125 71.09375 
Q 15.4375 72.65625 20.34375 73.4375 
Q 25.25 74.21875 29.59375 74.21875 
Q 40.828125 74.21875 47.359375 69.109375 
Q 53.90625 64.015625 53.90625 55.328125 
Q 53.90625 49.265625 50.4375 45.09375 
Q 46.96875 40.921875 40.578125 39.3125 
z
" id="DejaVuSans-51"/>
      </defs>
      <g transform="translate(184.516023 225.413938)scale(0.132 -0.132)">
       <use xlink:href="#DejaVuSans-51"/>
      </g>
     </g>
    </g>
    <g id="xtick_5">
     <g id="line2d_5">
      <g>
       <use style="stroke:#000000;stroke-width:1.25;" x="219.079636" xlink:href="#mc9b09c5737" y="205.884"/>
      </g>
     </g>
     <g id="text_5">
      <!-- 4 -->
      <defs>
       <path d="M 37.796875 64.3125 
L 12.890625 25.390625 
L 37.796875 25.390625 
z
M 35.203125 72.90625 
L 47.609375 72.90625 
L 47.609375 25.390625 
L 58.015625 25.390625 
L 58.015625 17.1875 
L 47.609375 17.1875 
L 47.609375 0 
L 37.796875 0 
L 37.796875 17.1875 
L 4.890625 17.1875 
L 4.890625 26.703125 
z
" id="DejaVuSans-52"/>
      </defs>
      <g transform="translate(214.880386 225.413938)scale(0.132 -0.132)">
       <use xlink:href="#DejaVuSans-52"/>
      </g>
     </g>
    </g>
    <g id="xtick_6">
     <g id="line2d_6">
      <g>
       <use style="stroke:#000000;stroke-width:1.25;" x="249.444" xlink:href="#mc9b09c5737" y="205.884"/>
      </g>
     </g>
     <g id="text_6">
      <!-- 5 -->
      <defs>
       <path d="M 10.796875 72.90625 
L 49.515625 72.90625 
L 49.515625 64.59375 
L 19.828125 64.59375 
L 19.828125 46.734375 
Q 21.96875 47.46875 24.109375 47.828125 
Q 26.265625 48.1875 28.421875 48.1875 
Q 40.625 48.1875 47.75 41.5 
Q 54.890625 34.8125 54.890625 23.390625 
Q 54.890625 11.625 47.5625 5.09375 
Q 40.234375 -1.421875 26.90625 -1.421875 
Q 22.3125 -1.421875 17.546875 -0.640625 
Q 12.796875 0.140625 7.71875 1.703125 
L 7.71875 11.625 
Q 12.109375 9.234375 16.796875 8.0625 
Q 21.484375 6.890625 26.703125 6.890625 
Q 35.15625 6.890625 40.078125 11.328125 
Q 45.015625 15.765625 45.015625 23.390625 
Q 45.015625 31 40.078125 35.4375 
Q 35.15625 39.890625 26.703125 39.890625 
Q 22.75 39.890625 18.8125 39.015625 
Q 14.890625 38.140625 10.796875 36.28125 
z
" id="DejaVuSans-53"/>
      </defs>
      <g transform="translate(245.24475 225.413938)scale(0.132 -0.132)">
       <use xlink:href="#DejaVuSans-53"/>
      </g>
     </g>
    </g>
    <g id="xtick_7">
     <g id="line2d_7">
      <g>
       <use style="stroke:#000000;stroke-width:1.25;" x="279.808364" xlink:href="#mc9b09c5737" y="205.884"/>
      </g>
     </g>
     <g id="text_7">
      <!-- 6 -->
      <defs>
       <path d="M 33.015625 40.375 
Q 26.375 40.375 22.484375 35.828125 
Q 18.609375 31.296875 18.609375 23.390625 
Q 18.609375 15.53125 22.484375 10.953125 
Q 26.375 6.390625 33.015625 6.390625 
Q 39.65625 6.390625 43.53125 10.953125 
Q 47.40625 15.53125 47.40625 23.390625 
Q 47.40625 31.296875 43.53125 35.828125 
Q 39.65625 40.375 33.015625 40.375 
z
M 52.59375 71.296875 
L 52.59375 62.3125 
Q 48.875 64.0625 45.09375 64.984375 
Q 41.3125 65.921875 37.59375 65.921875 
Q 27.828125 65.921875 22.671875 59.328125 
Q 17.53125 52.734375 16.796875 39.40625 
Q 19.671875 43.65625 24.015625 45.921875 
Q 28.375 48.1875 33.59375 48.1875 
Q 44.578125 48.1875 50.953125 41.515625 
Q 57.328125 34.859375 57.328125 23.390625 
Q 57.328125 12.15625 50.6875 5.359375 
Q 44.046875 -1.421875 33.015625 -1.421875 
Q 20.359375 -1.421875 13.671875 8.265625 
Q 6.984375 17.96875 6.984375 36.375 
Q 6.984375 53.65625 15.1875 63.9375 
Q 23.390625 74.21875 37.203125 74.21875 
Q 40.921875 74.21875 44.703125 73.484375 
Q 48.484375 72.75 52.59375 71.296875 
z
" id="DejaVuSans-54"/>
      </defs>
      <g transform="translate(275.609114 225.413938)scale(0.132 -0.132)">
       <use xlink:href="#DejaVuSans-54"/>
      </g>
     </g>
    </g>
    <g id="xtick_8">
     <g id="line2d_8">
      <g>
       <use style="stroke:#000000;stroke-width:1.25;" x="310.172727" xlink:href="#mc9b09c5737" y="205.884"/>
      </g>
     </g>
     <g id="text_8">
      <!-- 7 -->
      <defs>
       <path d="M 8.203125 72.90625 
L 55.078125 72.90625 
L 55.078125 68.703125 
L 28.609375 0 
L 18.3125 0 
L 43.21875 64.59375 
L 8.203125 64.59375 
z
" id="DejaVuSans-55"/>
      </defs>
      <g transform="translate(305.973477 225.413938)scale(0.132 -0.132)">
       <use xlink:href="#DejaVuSans-55"/>
      </g>
     </g>
    </g>
    <g id="xtick_9">
     <g id="line2d_9">
      <g>
       <use style="stroke:#000000;stroke-width:1.25;" x="340.537091" xlink:href="#mc9b09c5737" y="205.884"/>
      </g>
     </g>
     <g id="text_9">
      <!-- 8 -->
      <defs>
       <path d="M 31.78125 34.625 
Q 24.75 34.625 20.71875 30.859375 
Q 16.703125 27.09375 16.703125 20.515625 
Q 16.703125 13.921875 20.71875 10.15625 
Q 24.75 6.390625 31.78125 6.390625 
Q 38.8125 6.390625 42.859375 10.171875 
Q 46.921875 13.96875 46.921875 20.515625 
Q 46.921875 27.09375 42.890625 30.859375 
Q 38.875 34.625 31.78125 34.625 
z
M 21.921875 38.8125 
Q 15.578125 40.375 12.03125 44.71875 
Q 8.5 49.078125 8.5 55.328125 
Q 8.5 64.0625 14.71875 69.140625 
Q 20.953125 74.21875 31.78125 74.21875 
Q 42.671875 74.21875 48.875 69.140625 
Q 55.078125 64.0625 55.078125 55.328125 
Q 55.078125 49.078125 51.53125 44.71875 
Q 48 40.375 41.703125 38.8125 
Q 48.828125 37.15625 52.796875 32.3125 
Q 56.78125 27.484375 56.78125 20.515625 
Q 56.78125 9.90625 50.3125 4.234375 
Q 43.84375 -1.421875 31.78125 -1.421875 
Q 19.734375 -1.421875 13.25 4.234375 
Q 6.78125 9.90625 6.78125 20.515625 
Q 6.78125 27.484375 10.78125 32.3125 
Q 14.796875 37.15625 21.921875 38.8125 
z
M 18.3125 54.390625 
Q 18.3125 48.734375 21.84375 45.5625 
Q 25.390625 42.390625 31.78125 42.390625 
Q 38.140625 42.390625 41.71875 45.5625 
Q 45.3125 48.734375 45.3125 54.390625 
Q 45.3125 60.0625 41.71875 63.234375 
Q 38.140625 66.40625 31.78125 66.40625 
Q 25.390625 66.40625 21.84375 63.234375 
Q 18.3125 60.0625 18.3125 54.390625 
z
" id="DejaVuSans-56"/>
      </defs>
      <g transform="translate(336.337841 225.413938)scale(0.132 -0.132)">
       <use xlink:href="#DejaVuSans-56"/>
      </g>
     </g>
    </g>
    <g id="xtick_10">
     <g id="line2d_10">
      <g>
       <use style="stroke:#000000;stroke-width:1.25;" x="370.901455" xlink:href="#mc9b09c5737" y="205.884"/>
      </g>
     </g>
     <g id="text_10">
      <!-- 9 -->
      <defs>
       <path d="M 10.984375 1.515625 
L 10.984375 10.5 
Q 14.703125 8.734375 18.5 7.8125 
Q 22.3125 6.890625 25.984375 6.890625 
Q 35.75 6.890625 40.890625 13.453125 
Q 46.046875 20.015625 46.78125 33.40625 
Q 43.953125 29.203125 39.59375 26.953125 
Q 35.25 24.703125 29.984375 24.703125 
Q 19.046875 24.703125 12.671875 31.3125 
Q 6.296875 37.9375 6.296875 49.421875 
Q 6.296875 60.640625 12.9375 67.421875 
Q 19.578125 74.21875 30.609375 74.21875 
Q 43.265625 74.21875 49.921875 64.515625 
Q 56.59375 54.828125 56.59375 36.375 
Q 56.59375 19.140625 48.40625 8.859375 
Q 40.234375 -1.421875 26.421875 -1.421875 
Q 22.703125 -1.421875 18.890625 -0.6875 
Q 15.09375 0.046875 10.984375 1.515625 
z
M 30.609375 32.421875 
Q 37.25 32.421875 41.125 36.953125 
Q 45.015625 41.5 45.015625 49.421875 
Q 45.015625 57.28125 41.125 61.84375 
Q 37.25 66.40625 30.609375 66.40625 
Q 23.96875 66.40625 20.09375 61.84375 
Q 16.21875 57.28125 16.21875 49.421875 
Q 16.21875 41.5 20.09375 36.953125 
Q 23.96875 32.421875 30.609375 32.421875 
z
" id="DejaVuSans-57"/>
      </defs>
      <g transform="translate(366.702205 225.413938)scale(0.132 -0.132)">
       <use xlink:href="#DejaVuSans-57"/>
      </g>
     </g>
    </g>
    <g id="xtick_11">
     <g id="line2d_11">
      <g>
       <use style="stroke:#000000;stroke-width:1.25;" x="401.265818" xlink:href="#mc9b09c5737" y="205.884"/>
      </g>
     </g>
     <g id="text_11">
      <!-- 10 -->
      <g transform="translate(392.867318 225.413938)scale(0.132 -0.132)">
       <use xlink:href="#DejaVuSans-49"/>
       <use x="63.623047" xlink:href="#DejaVuSans-48"/>
      </g>
     </g>
    </g>
    <g id="text_12">
     <!-- fcday -->
     <defs>
      <path d="M 37.109375 75.984375 
L 37.109375 68.5 
L 28.515625 68.5 
Q 23.6875 68.5 21.796875 66.546875 
Q 19.921875 64.59375 19.921875 59.515625 
L 19.921875 54.6875 
L 34.71875 54.6875 
L 34.71875 47.703125 
L 19.921875 47.703125 
L 19.921875 0 
L 10.890625 0 
L 10.890625 47.703125 
L 2.296875 47.703125 
L 2.296875 54.6875 
L 10.890625 54.6875 
L 10.890625 58.5 
Q 10.890625 67.625 15.140625 71.796875 
Q 19.390625 75.984375 28.609375 75.984375 
z
" id="DejaVuSans-102"/>
      <path d="M 48.78125 52.59375 
L 48.78125 44.1875 
Q 44.96875 46.296875 41.140625 47.34375 
Q 37.3125 48.390625 33.40625 48.390625 
Q 24.65625 48.390625 19.8125 42.84375 
Q 14.984375 37.3125 14.984375 27.296875 
Q 14.984375 17.28125 19.8125 11.734375 
Q 24.65625 6.203125 33.40625 6.203125 
Q 37.3125 6.203125 41.140625 7.25 
Q 44.96875 8.296875 48.78125 10.40625 
L 48.78125 2.09375 
Q 45.015625 0.34375 40.984375 -0.53125 
Q 36.96875 -1.421875 32.421875 -1.421875 
Q 20.0625 -1.421875 12.78125 6.34375 
Q 5.515625 14.109375 5.515625 27.296875 
Q 5.515625 40.671875 12.859375 48.328125 
Q 20.21875 56 33.015625 56 
Q 37.15625 56 41.109375 55.140625 
Q 45.0625 54.296875 48.78125 52.59375 
z
" id="DejaVuSans-99"/>
      <path d="M 45.40625 46.390625 
L 45.40625 75.984375 
L 54.390625 75.984375 
L 54.390625 0 
L 45.40625 0 
L 45.40625 8.203125 
Q 42.578125 3.328125 38.25 0.953125 
Q 33.9375 -1.421875 27.875 -1.421875 
Q 17.96875 -1.421875 11.734375 6.484375 
Q 5.515625 14.40625 5.515625 27.296875 
Q 5.515625 40.1875 11.734375 48.09375 
Q 17.96875 56 27.875 56 
Q 33.9375 56 38.25 53.625 
Q 42.578125 51.265625 45.40625 46.390625 
z
M 14.796875 27.296875 
Q 14.796875 17.390625 18.875 11.75 
Q 22.953125 6.109375 30.078125 6.109375 
Q 37.203125 6.109375 41.296875 11.75 
Q 45.40625 17.390625 45.40625 27.296875 
Q 45.40625 37.203125 41.296875 42.84375 
Q 37.203125 48.484375 30.078125 48.484375 
Q 22.953125 48.484375 18.875 42.84375 
Q 14.796875 37.203125 14.796875 27.296875 
z
" id="DejaVuSans-100"/>
      <path d="M 34.28125 27.484375 
Q 23.390625 27.484375 19.1875 25 
Q 14.984375 22.515625 14.984375 16.5 
Q 14.984375 11.71875 18.140625 8.90625 
Q 21.296875 6.109375 26.703125 6.109375 
Q 34.1875 6.109375 38.703125 11.40625 
Q 43.21875 16.703125 43.21875 25.484375 
L 43.21875 27.484375 
z
M 52.203125 31.203125 
L 52.203125 0 
L 43.21875 0 
L 43.21875 8.296875 
Q 40.140625 3.328125 35.546875 0.953125 
Q 30.953125 -1.421875 24.3125 -1.421875 
Q 15.921875 -1.421875 10.953125 3.296875 
Q 6 8.015625 6 15.921875 
Q 6 25.140625 12.171875 29.828125 
Q 18.359375 34.515625 30.609375 34.515625 
L 43.21875 34.515625 
L 43.21875 35.40625 
Q 43.21875 41.609375 39.140625 45 
Q 35.0625 48.390625 27.6875 48.390625 
Q 23 48.390625 18.546875 47.265625 
Q 14.109375 46.140625 10.015625 43.890625 
L 10.015625 52.203125 
Q 14.9375 54.109375 19.578125 55.046875 
Q 24.21875 56 28.609375 56 
Q 40.484375 56 46.34375 49.84375 
Q 52.203125 43.703125 52.203125 31.203125 
z
" id="DejaVuSans-97"/>
      <path d="M 32.171875 -5.078125 
Q 28.375 -14.84375 24.75 -17.8125 
Q 21.140625 -20.796875 15.09375 -20.796875 
L 7.90625 -20.796875 
L 7.90625 -13.28125 
L 13.1875 -13.28125 
Q 16.890625 -13.28125 18.9375 -11.515625 
Q 21 -9.765625 23.484375 -3.21875 
L 25.09375 0.875 
L 2.984375 54.6875 
L 12.5 54.6875 
L 29.59375 11.921875 
L 46.6875 54.6875 
L 56.203125 54.6875 
z
" id="DejaVuSans-121"/>
     </defs>
     <g transform="translate(229.705875 243.100875)scale(0.144 -0.144)">
      <use xlink:href="#DejaVuSans-102"/>
      <use x="35.205078" xlink:href="#DejaVuSans-99"/>
      <use x="90.185547" xlink:href="#DejaVuSans-100"/>
      <use x="153.662109" xlink:href="#DejaVuSans-97"/>
      <use x="214.941406" xlink:href="#DejaVuSans-121"/>
     </g>
    </g>
   </g>
   <g id="matplotlib.axis_2">
    <g id="ytick_1">
     <g id="line2d_12">
      <defs>
       <path d="M 0 0 
L -6 0 
" id="m57a16fb6ea" style="stroke:#000000;stroke-width:1.25;"/>
      </defs>
      <g>
       <use style="stroke:#000000;stroke-width:1.25;" x="82.44" xlink:href="#m57a16fb6ea" y="200.3973"/>
      </g>
     </g>
     <g id="text_13">
      <!-- −100 -->
      <defs>
       <path d="M 10.59375 35.5 
L 73.1875 35.5 
L 73.1875 27.203125 
L 10.59375 27.203125 
z
" id="DejaVuSans-8722"/>
      </defs>
      <g transform="translate(36.683312 205.412269)scale(0.132 -0.132)">
       <use xlink:href="#DejaVuSans-8722"/>
       <use x="83.789062" xlink:href="#DejaVuSans-49"/>
       <use x="147.412109" xlink:href="#DejaVuSans-48"/>
       <use x="211.035156" xlink:href="#DejaVuSans-48"/>
      </g>
     </g>
    </g>
    <g id="ytick_2">
     <g id="line2d_13">
      <g>
       <use style="stroke:#000000;stroke-width:1.25;" x="82.44" xlink:href="#m57a16fb6ea" y="145.77465"/>
      </g>
     </g>
     <g id="text_14">
      <!-- −50 -->
      <g transform="translate(45.081812 150.789619)scale(0.132 -0.132)">
       <use xlink:href="#DejaVuSans-8722"/>
       <use x="83.789062" xlink:href="#DejaVuSans-53"/>
       <use x="147.412109" xlink:href="#DejaVuSans-48"/>
      </g>
     </g>
    </g>
    <g id="ytick_3">
     <g id="line2d_14">
      <g>
       <use style="stroke:#000000;stroke-width:1.25;" x="82.44" xlink:href="#m57a16fb6ea" y="91.152"/>
      </g>
     </g>
     <g id="text_15">
      <!-- 0 -->
      <g transform="translate(64.5415 96.166969)scale(0.132 -0.132)">
       <use xlink:href="#DejaVuSans-48"/>
      </g>
     </g>
    </g>
    <g id="text_16">
     <!-- RMSE $[m^2/s^2]$ -->
     <defs>
      <path d="M 44.390625 34.1875 
Q 47.5625 33.109375 50.5625 29.59375 
Q 53.5625 26.078125 56.59375 19.921875 
L 66.609375 0 
L 56 0 
L 46.6875 18.703125 
Q 43.0625 26.03125 39.671875 28.421875 
Q 36.28125 30.8125 30.421875 30.8125 
L 19.671875 30.8125 
L 19.671875 0 
L 9.8125 0 
L 9.8125 72.90625 
L 32.078125 72.90625 
Q 44.578125 72.90625 50.734375 67.671875 
Q 56.890625 62.453125 56.890625 51.90625 
Q 56.890625 45.015625 53.6875 40.46875 
Q 50.484375 35.9375 44.390625 34.1875 
z
M 19.671875 64.796875 
L 19.671875 38.921875 
L 32.078125 38.921875 
Q 39.203125 38.921875 42.84375 42.21875 
Q 46.484375 45.515625 46.484375 51.90625 
Q 46.484375 58.296875 42.84375 61.546875 
Q 39.203125 64.796875 32.078125 64.796875 
z
" id="DejaVuSans-82"/>
      <path d="M 9.8125 72.90625 
L 24.515625 72.90625 
L 43.109375 23.296875 
L 61.8125 72.90625 
L 76.515625 72.90625 
L 76.515625 0 
L 66.890625 0 
L 66.890625 64.015625 
L 48.09375 14.015625 
L 38.1875 14.015625 
L 19.390625 64.015625 
L 19.390625 0 
L 9.8125 0 
z
" id="DejaVuSans-77"/>
      <path d="M 53.515625 70.515625 
L 53.515625 60.890625 
Q 47.90625 63.578125 42.921875 64.890625 
Q 37.9375 66.21875 33.296875 66.21875 
Q 25.25 66.21875 20.875 63.09375 
Q 16.5 59.96875 16.5 54.203125 
Q 16.5 49.359375 19.40625 46.890625 
Q 22.3125 44.4375 30.421875 42.921875 
L 36.375 41.703125 
Q 47.40625 39.59375 52.65625 34.296875 
Q 57.90625 29 57.90625 20.125 
Q 57.90625 9.515625 50.796875 4.046875 
Q 43.703125 -1.421875 29.984375 -1.421875 
Q 24.8125 -1.421875 18.96875 -0.25 
Q 13.140625 0.921875 6.890625 3.21875 
L 6.890625 13.375 
Q 12.890625 10.015625 18.65625 8.296875 
Q 24.421875 6.59375 29.984375 6.59375 
Q 38.421875 6.59375 43.015625 9.90625 
Q 47.609375 13.234375 47.609375 19.390625 
Q 47.609375 24.75 44.3125 27.78125 
Q 41.015625 30.8125 33.5 32.328125 
L 27.484375 33.5 
Q 16.453125 35.6875 11.515625 40.375 
Q 6.59375 45.0625 6.59375 53.421875 
Q 6.59375 63.09375 13.40625 68.65625 
Q 20.21875 74.21875 32.171875 74.21875 
Q 37.3125 74.21875 42.625 73.28125 
Q 47.953125 72.359375 53.515625 70.515625 
z
" id="DejaVuSans-83"/>
      <path d="M 9.8125 72.90625 
L 55.90625 72.90625 
L 55.90625 64.59375 
L 19.671875 64.59375 
L 19.671875 43.015625 
L 54.390625 43.015625 
L 54.390625 34.71875 
L 19.671875 34.71875 
L 19.671875 8.296875 
L 56.78125 8.296875 
L 56.78125 0 
L 9.8125 0 
z
" id="DejaVuSans-69"/>
      <path id="DejaVuSans-32"/>
      <path d="M 8.59375 75.984375 
L 29.296875 75.984375 
L 29.296875 69 
L 17.578125 69 
L 17.578125 -6.203125 
L 29.296875 -6.203125 
L 29.296875 -13.1875 
L 8.59375 -13.1875 
z
" id="DejaVuSans-91"/>
      <path d="M 89.796875 33.015625 
L 83.40625 0 
L 74.421875 0 
L 80.71875 32.71875 
Q 81.109375 34.8125 81.296875 36.328125 
Q 81.5 37.84375 81.5 38.921875 
Q 81.5 43.3125 79.046875 45.75 
Q 76.609375 48.1875 72.21875 48.1875 
Q 65.671875 48.1875 60.546875 43.28125 
Q 55.421875 38.375 53.90625 30.515625 
L 47.90625 0 
L 38.921875 0 
L 45.3125 32.71875 
Q 45.703125 34.515625 45.890625 36.046875 
Q 46.09375 37.59375 46.09375 38.8125 
Q 46.09375 43.265625 43.65625 45.71875 
Q 41.21875 48.1875 36.921875 48.1875 
Q 30.28125 48.1875 25.140625 43.28125 
Q 20.015625 38.375 18.5 30.515625 
L 12.5 0 
L 3.515625 0 
L 14.203125 54.6875 
L 23.1875 54.6875 
L 21.484375 46.1875 
Q 25.140625 50.984375 30.046875 53.484375 
Q 34.96875 56 40.578125 56 
Q 46.53125 56 50.359375 52.875 
Q 54.203125 49.75 54.984375 44.1875 
Q 59.078125 49.953125 64.46875 52.96875 
Q 69.875 56 75.875 56 
Q 82.90625 56 86.734375 51.953125 
Q 90.578125 47.90625 90.578125 40.484375 
Q 90.578125 38.875 90.375 36.9375 
Q 90.1875 35.015625 89.796875 33.015625 
z
" id="DejaVuSans-Oblique-109"/>
      <path d="M 25.390625 72.90625 
L 33.6875 72.90625 
L 8.296875 -9.28125 
L 0 -9.28125 
z
" id="DejaVuSans-47"/>
      <path d="M 50 53.078125 
L 48.296875 44.578125 
Q 44.734375 46.53125 40.765625 47.5 
Q 36.8125 48.484375 32.625 48.484375 
Q 25.53125 48.484375 21.453125 46.0625 
Q 17.390625 43.65625 17.390625 39.5 
Q 17.390625 34.671875 26.859375 32.078125 
Q 27.59375 31.890625 27.9375 31.78125 
L 30.8125 30.90625 
Q 39.796875 28.421875 42.796875 25.6875 
Q 45.796875 22.953125 45.796875 18.21875 
Q 45.796875 9.515625 38.890625 4.046875 
Q 31.984375 -1.421875 20.796875 -1.421875 
Q 16.453125 -1.421875 11.671875 -0.578125 
Q 6.890625 0.25 1.125 2 
L 2.875 11.28125 
Q 7.8125 8.734375 12.59375 7.421875 
Q 17.390625 6.109375 21.78125 6.109375 
Q 28.375 6.109375 32.5 8.9375 
Q 36.625 11.765625 36.625 16.109375 
Q 36.625 20.796875 25.78125 23.6875 
L 24.859375 23.921875 
L 21.78125 24.703125 
Q 14.9375 26.515625 11.765625 29.46875 
Q 8.59375 32.421875 8.59375 37.015625 
Q 8.59375 45.75 15.15625 50.875 
Q 21.734375 56 33.015625 56 
Q 37.453125 56 41.671875 55.265625 
Q 45.90625 54.546875 50 53.078125 
z
" id="DejaVuSans-Oblique-115"/>
      <path d="M 30.421875 75.984375 
L 30.421875 -13.1875 
L 9.71875 -13.1875 
L 9.71875 -6.203125 
L 21.390625 -6.203125 
L 21.390625 69 
L 9.71875 69 
L 9.71875 75.984375 
z
" id="DejaVuSans-93"/>
     </defs>
     <g transform="translate(29.688562 197.478)rotate(-90)scale(0.144 -0.144)">
      <use transform="translate(0 0.765625)" xlink:href="#DejaVuSans-82"/>
      <use transform="translate(69.482422 0.765625)" xlink:href="#DejaVuSans-77"/>
      <use transform="translate(155.761719 0.765625)" xlink:href="#DejaVuSans-83"/>
      <use transform="translate(219.238281 0.765625)" xlink:href="#DejaVuSans-69"/>
      <use transform="translate(282.421875 0.765625)" xlink:href="#DejaVuSans-32"/>
      <use transform="translate(314.208984 0.765625)" xlink:href="#DejaVuSans-91"/>
      <use transform="translate(353.222656 0.765625)" xlink:href="#DejaVuSans-Oblique-109"/>
      <use transform="translate(455.284661 39.046875)scale(0.7)" xlink:href="#DejaVuSans-50"/>
      <use transform="translate(502.555169 0.765625)" xlink:href="#DejaVuSans-47"/>
      <use transform="translate(536.246576 0.765625)" xlink:href="#DejaVuSans-Oblique-115"/>
      <use transform="translate(592.996081 39.046875)scale(0.7)" xlink:href="#DejaVuSans-50"/>
      <use transform="translate(640.266589 0.765625)" xlink:href="#DejaVuSans-93"/>
     </g>
    </g>
   </g>
   <g id="line2d_15">
    <path clip-path="url(#padc7e9abcf)" d="M 0 0 
" style="fill:none;stroke:#424242;stroke-linecap:square;stroke-width:2.7;"/>
   </g>
   <g id="line2d_16">
    <path clip-path="url(#padc7e9abcf)" d="M 0 0 
" style="fill:none;stroke:#424242;stroke-linecap:square;stroke-width:2.7;"/>
   </g>
   <g id="line2d_17">
    <path clip-path="url(#padc7e9abcf)" d="M 0 0 
" style="fill:none;stroke:#424242;stroke-linecap:square;stroke-width:2.7;"/>
   </g>
   <g id="line2d_18">
    <path clip-path="url(#padc7e9abcf)" d="M 0 0 
" style="fill:none;stroke:#424242;stroke-linecap:square;stroke-width:2.7;"/>
   </g>
   <g id="line2d_19">
    <path clip-path="url(#padc7e9abcf)" d="M 0 0 
" style="fill:none;stroke:#424242;stroke-linecap:square;stroke-width:2.7;"/>
   </g>
   <g id="line2d_20">
    <path clip-path="url(#padc7e9abcf)" d="M 0 0 
" style="fill:none;stroke:#424242;stroke-linecap:square;stroke-width:2.7;"/>
   </g>
   <g id="line2d_21">
    <path clip-path="url(#padc7e9abcf)" d="M 0 0 
" style="fill:none;stroke:#424242;stroke-linecap:square;stroke-width:2.7;"/>
   </g>
   <g id="line2d_22">
    <path clip-path="url(#padc7e9abcf)" d="M 0 0 
" style="fill:none;stroke:#424242;stroke-linecap:square;stroke-width:2.7;"/>
   </g>
   <g id="line2d_23">
    <path clip-path="url(#padc7e9abcf)" d="M 0 0 
" style="fill:none;stroke:#424242;stroke-linecap:square;stroke-width:2.7;"/>
   </g>
   <g id="line2d_24">
    <path clip-path="url(#padc7e9abcf)" d="M 0 0 
" style="fill:none;stroke:#424242;stroke-linecap:square;stroke-width:2.7;"/>
   </g>
   <g id="line2d_25">
    <path clip-path="url(#padc7e9abcf)" d="M 0 0 
" style="fill:none;stroke:#424242;stroke-linecap:square;stroke-width:2.7;"/>
   </g>
   <g id="line2d_26">
    <path clip-path="url(#padc7e9abcf)" d="M 0 0 
" style="fill:none;stroke:#424242;stroke-linecap:square;stroke-width:2.7;"/>
   </g>
   <g id="line2d_27">
    <path clip-path="url(#padc7e9abcf)" d="M 0 0 
" style="fill:none;stroke:#424242;stroke-linecap:square;stroke-width:2.7;"/>
   </g>
   <g id="line2d_28">
    <path clip-path="url(#padc7e9abcf)" d="M 0 0 
" style="fill:none;stroke:#424242;stroke-linecap:square;stroke-width:2.7;"/>
   </g>
   <g id="line2d_29">
    <path clip-path="url(#padc7e9abcf)" d="M 0 0 
" style="fill:none;stroke:#424242;stroke-linecap:square;stroke-width:2.7;"/>
   </g>
   <g id="line2d_30">
    <path clip-path="url(#padc7e9abcf)" d="M 0 0 
" style="fill:none;stroke:#424242;stroke-linecap:square;stroke-width:2.7;"/>
   </g>
   <g id="line2d_31">
    <path clip-path="url(#padc7e9abcf)" d="M 0 0 
" style="fill:none;stroke:#424242;stroke-linecap:square;stroke-width:2.7;"/>
   </g>
   <g id="line2d_32">
    <path clip-path="url(#padc7e9abcf)" d="M 0 0 
" style="fill:none;stroke:#424242;stroke-linecap:square;stroke-width:2.7;"/>
   </g>
   <g id="line2d_33">
    <path clip-path="url(#padc7e9abcf)" d="M 0 0 
" style="fill:none;stroke:#424242;stroke-linecap:square;stroke-width:2.7;"/>
   </g>
   <g id="line2d_34">
    <path clip-path="url(#padc7e9abcf)" d="M 0 0 
" style="fill:none;stroke:#424242;stroke-linecap:square;stroke-width:2.7;"/>
   </g>
   <g id="line2d_35">
    <path clip-path="url(#padc7e9abcf)" d="M 0 0 
" style="fill:none;stroke:#424242;stroke-linecap:square;stroke-width:2.7;"/>
   </g>
   <g id="line2d_36">
    <path clip-path="url(#padc7e9abcf)" d="M 0 0 
" style="fill:none;stroke:#424242;stroke-linecap:square;stroke-width:2.7;"/>
   </g>
   <g id="line2d_37">
    <path clip-path="url(#padc7e9abcf)" d="M 0 0 
" style="fill:none;stroke:#424242;stroke-linecap:square;stroke-width:2.7;"/>
   </g>
   <g id="line2d_38">
    <path clip-path="url(#padc7e9abcf)" d="M 0 0 
" style="fill:none;stroke:#424242;stroke-linecap:square;stroke-width:2.7;"/>
   </g>
   <g id="line2d_39">
    <path clip-path="url(#padc7e9abcf)" d="M 0 0 
" style="fill:none;stroke:#424242;stroke-linecap:square;stroke-width:2.7;"/>
   </g>
   <g id="line2d_40">
    <path clip-path="url(#padc7e9abcf)" d="M 0 0 
" style="fill:none;stroke:#424242;stroke-linecap:square;stroke-width:2.7;"/>
   </g>
   <g id="line2d_41">
    <path clip-path="url(#padc7e9abcf)" d="M 0 0 
" style="fill:none;stroke:#424242;stroke-linecap:square;stroke-width:2.7;"/>
   </g>
   <g id="line2d_42">
    <path clip-path="url(#padc7e9abcf)" d="M 0 0 
" style="fill:none;stroke:#424242;stroke-linecap:square;stroke-width:2.7;"/>
   </g>
   <g id="line2d_43">
    <path clip-path="url(#padc7e9abcf)" d="M 0 0 
" style="fill:none;stroke:#424242;stroke-linecap:square;stroke-width:2.7;"/>
   </g>
   <g id="line2d_44">
    <path clip-path="url(#padc7e9abcf)" d="M 0 0 
" style="fill:none;stroke:#424242;stroke-linecap:square;stroke-width:2.7;"/>
   </g>
   <g id="line2d_45">
    <path clip-path="url(#padc7e9abcf)" d="M 0 0 
" style="fill:none;stroke:#424242;stroke-linecap:square;stroke-width:2.7;"/>
   </g>
   <g id="line2d_46">
    <path clip-path="url(#padc7e9abcf)" d="M 0 0 
" style="fill:none;stroke:#424242;stroke-linecap:square;stroke-width:2.7;"/>
   </g>
   <g id="line2d_47">
    <path clip-path="url(#padc7e9abcf)" d="M 0 0 
" style="fill:none;stroke:#424242;stroke-linecap:square;stroke-width:2.7;"/>
   </g>
   <g id="line2d_48">
    <path clip-path="url(#padc7e9abcf)" d="M 0 0 
" style="fill:none;stroke:#424242;stroke-linecap:square;stroke-width:2.7;"/>
   </g>
   <g id="line2d_49">
    <path clip-path="url(#padc7e9abcf)" d="M 0 0 
" style="fill:none;stroke:#424242;stroke-linecap:square;stroke-width:2.7;"/>
   </g>
   <g id="line2d_50">
    <path clip-path="url(#padc7e9abcf)" d="M 0 0 
" style="fill:none;stroke:#424242;stroke-linecap:square;stroke-width:2.7;"/>
   </g>
   <g id="line2d_51">
    <path clip-path="url(#padc7e9abcf)" d="M 0 0 
" style="fill:none;stroke:#424242;stroke-linecap:square;stroke-width:2.7;"/>
   </g>
   <g id="line2d_52">
    <path clip-path="url(#padc7e9abcf)" d="M 0 0 
" style="fill:none;stroke:#424242;stroke-linecap:square;stroke-width:2.7;"/>
   </g>
   <g id="line2d_53">
    <path clip-path="url(#padc7e9abcf)" d="M 0 0 
" style="fill:none;stroke:#424242;stroke-linecap:square;stroke-width:2.7;"/>
   </g>
   <g id="line2d_54">
    <path clip-path="url(#padc7e9abcf)" d="M 0 0 
" style="fill:none;stroke:#424242;stroke-linecap:square;stroke-width:2.7;"/>
   </g>
   <g id="line2d_55">
    <path clip-path="url(#padc7e9abcf)" d="M 0 0 
" style="fill:none;stroke:#424242;stroke-linecap:square;stroke-width:2.7;"/>
   </g>
   <g id="line2d_56">
    <path clip-path="url(#padc7e9abcf)" d="M 0 0 
" style="fill:none;stroke:#424242;stroke-linecap:square;stroke-width:2.7;"/>
   </g>
   <g id="line2d_57">
    <path clip-path="url(#padc7e9abcf)" d="M 0 0 
" style="fill:none;stroke:#424242;stroke-linecap:square;stroke-width:2.7;"/>
   </g>
   <g id="line2d_58">
    <path clip-path="url(#padc7e9abcf)" d="M 0 0 
" style="fill:none;stroke:#424242;stroke-linecap:square;stroke-width:2.7;"/>
   </g>
   <g id="line2d_59">
    <path clip-path="url(#padc7e9abcf)" d="M 0 0 
" style="fill:none;stroke:#424242;stroke-linecap:square;stroke-width:2.7;"/>
   </g>
   <g id="line2d_60">
    <path clip-path="url(#padc7e9abcf)" d="M 0 0 
" style="fill:none;stroke:#424242;stroke-linecap:square;stroke-width:2.7;"/>
   </g>
   <g id="line2d_61">
    <path clip-path="url(#padc7e9abcf)" d="M 0 0 
" style="fill:none;stroke:#424242;stroke-linecap:square;stroke-width:2.7;"/>
   </g>
   <g id="line2d_62">
    <path clip-path="url(#padc7e9abcf)" d="M 0 0 
" style="fill:none;stroke:#424242;stroke-linecap:square;stroke-width:2.7;"/>
   </g>
   <g id="line2d_63">
    <path clip-path="url(#padc7e9abcf)" d="M 0 0 
" style="fill:none;stroke:#424242;stroke-linecap:square;stroke-width:2.7;"/>
   </g>
   <g id="line2d_64">
    <path clip-path="url(#padc7e9abcf)" d="M 0 0 
" style="fill:none;stroke:#424242;stroke-linecap:square;stroke-width:2.7;"/>
   </g>
   <g id="line2d_65">
    <path clip-path="url(#padc7e9abcf)" d="M 0 0 
" style="fill:none;stroke:#424242;stroke-linecap:square;stroke-width:2.7;"/>
   </g>
   <g id="line2d_66">
    <path clip-path="url(#padc7e9abcf)" d="M 0 0 
" style="fill:none;stroke:#424242;stroke-linecap:square;stroke-width:2.7;"/>
   </g>
   <g id="line2d_67">
    <path clip-path="url(#padc7e9abcf)" d="M 0 0 
" style="fill:none;stroke:#424242;stroke-linecap:square;stroke-width:2.7;"/>
   </g>
   <g id="line2d_68">
    <path clip-path="url(#padc7e9abcf)" d="M 0 0 
" style="fill:none;stroke:#424242;stroke-linecap:square;stroke-width:2.7;"/>
   </g>
   <g id="line2d_69">
    <path clip-path="url(#padc7e9abcf)" d="M 0 0 
" style="fill:none;stroke:#424242;stroke-linecap:square;stroke-width:2.7;"/>
   </g>
   <g id="line2d_70">
    <path clip-path="url(#padc7e9abcf)" d="M 0 0 
" style="fill:none;stroke:#424242;stroke-linecap:square;stroke-width:2.7;"/>
   </g>
   <g id="line2d_71">
    <path clip-path="url(#padc7e9abcf)" d="M 0 0 
" style="fill:none;stroke:#424242;stroke-linecap:square;stroke-width:2.7;"/>
   </g>
   <g id="line2d_72">
    <path clip-path="url(#padc7e9abcf)" d="M 0 0 
" style="fill:none;stroke:#424242;stroke-linecap:square;stroke-width:2.7;"/>
   </g>
   <g id="line2d_73">
    <path clip-path="url(#padc7e9abcf)" d="M 0 0 
" style="fill:none;stroke:#424242;stroke-linecap:square;stroke-width:2.7;"/>
   </g>
   <g id="line2d_74">
    <path clip-path="url(#padc7e9abcf)" d="M 0 0 
" style="fill:none;stroke:#424242;stroke-linecap:square;stroke-width:2.7;"/>
   </g>
   <g id="line2d_75">
    <path clip-path="url(#padc7e9abcf)" d="M 0 0 
" style="fill:none;stroke:#424242;stroke-linecap:square;stroke-width:2.7;"/>
   </g>
   <g id="line2d_76">
    <path clip-path="url(#padc7e9abcf)" d="M 0 0 
" style="fill:none;stroke:#424242;stroke-linecap:square;stroke-width:2.7;"/>
   </g>
   <g id="line2d_77">
    <path clip-path="url(#padc7e9abcf)" d="M 0 0 
" style="fill:none;stroke:#424242;stroke-linecap:square;stroke-width:2.7;"/>
   </g>
   <g id="line2d_78">
    <path clip-path="url(#padc7e9abcf)" d="M 0 0 
" style="fill:none;stroke:#424242;stroke-linecap:square;stroke-width:2.7;"/>
   </g>
   <g id="line2d_79">
    <path clip-path="url(#padc7e9abcf)" d="M 0 0 
" style="fill:none;stroke:#424242;stroke-linecap:square;stroke-width:2.7;"/>
   </g>
   <g id="line2d_80">
    <path clip-path="url(#padc7e9abcf)" d="M 0 0 
" style="fill:none;stroke:#424242;stroke-linecap:square;stroke-width:2.7;"/>
   </g>
   <g id="patch_69">
    <path d="M 82.44 205.884 
L 82.44 91.152 
" style="fill:none;stroke:#000000;stroke-linecap:square;stroke-linejoin:miter;stroke-width:1.25;"/>
   </g>
   <g id="patch_70">
    <path d="M 82.44 205.884 
L 416.448 205.884 
" style="fill:none;stroke:#000000;stroke-linecap:square;stroke-linejoin:miter;stroke-width:1.25;"/>
   </g>
   <g id="legend_1">
    <g id="patch_71">
     <path d="M 84.44 81.65475 
L 370.529063 81.65475 
Q 372.529063 81.65475 372.529063 79.65475 
L 372.529063 35.786 
Q 372.529063 33.786 370.529063 33.786 
L 84.44 33.786 
Q 82.44 33.786 82.44 35.786 
L 82.44 79.65475 
Q 82.44 81.65475 84.44 81.65475 
z
" style="fill:#ffffff;opacity:0.8;stroke:#cccccc;stroke-linejoin:miter;"/>
    </g>
    <g id="patch_72">
     <path d="M 86.44 45.384438 
L 106.44 45.384438 
L 106.44 38.384438 
L 86.44 38.384438 
z
" style="fill:#176d9c;opacity:0.9;"/>
    </g>
    <g id="text_17">
     <!-- base -->
     <defs>
      <path d="M 48.6875 27.296875 
Q 48.6875 37.203125 44.609375 42.84375 
Q 40.53125 48.484375 33.40625 48.484375 
Q 26.265625 48.484375 22.1875 42.84375 
Q 18.109375 37.203125 18.109375 27.296875 
Q 18.109375 17.390625 22.1875 11.75 
Q 26.265625 6.109375 33.40625 6.109375 
Q 40.53125 6.109375 44.609375 11.75 
Q 48.6875 17.390625 48.6875 27.296875 
z
M 18.109375 46.390625 
Q 20.953125 51.265625 25.265625 53.625 
Q 29.59375 56 35.59375 56 
Q 45.5625 56 51.78125 48.09375 
Q 58.015625 40.1875 58.015625 27.296875 
Q 58.015625 14.40625 51.78125 6.484375 
Q 45.5625 -1.421875 35.59375 -1.421875 
Q 29.59375 -1.421875 25.265625 0.953125 
Q 20.953125 3.328125 18.109375 8.203125 
L 18.109375 0 
L 9.078125 0 
L 9.078125 75.984375 
L 18.109375 75.984375 
z
" id="DejaVuSans-98"/>
      <path d="M 44.28125 53.078125 
L 44.28125 44.578125 
Q 40.484375 46.53125 36.375 47.5 
Q 32.28125 48.484375 27.875 48.484375 
Q 21.1875 48.484375 17.84375 46.4375 
Q 14.5 44.390625 14.5 40.28125 
Q 14.5 37.15625 16.890625 35.375 
Q 19.28125 33.59375 26.515625 31.984375 
L 29.59375 31.296875 
Q 39.15625 29.25 43.1875 25.515625 
Q 47.21875 21.78125 47.21875 15.09375 
Q 47.21875 7.46875 41.1875 3.015625 
Q 35.15625 -1.421875 24.609375 -1.421875 
Q 20.21875 -1.421875 15.453125 -0.5625 
Q 10.6875 0.296875 5.421875 2 
L 5.421875 11.28125 
Q 10.40625 8.6875 15.234375 7.390625 
Q 20.0625 6.109375 24.8125 6.109375 
Q 31.15625 6.109375 34.5625 8.28125 
Q 37.984375 10.453125 37.984375 14.40625 
Q 37.984375 18.0625 35.515625 20.015625 
Q 33.0625 21.96875 24.703125 23.78125 
L 21.578125 24.515625 
Q 13.234375 26.265625 9.515625 29.90625 
Q 5.8125 33.546875 5.8125 39.890625 
Q 5.8125 47.609375 11.28125 51.796875 
Q 16.75 56 26.8125 56 
Q 31.78125 56 36.171875 55.265625 
Q 40.578125 54.546875 44.28125 53.078125 
z
" id="DejaVuSans-115"/>
      <path d="M 56.203125 29.59375 
L 56.203125 25.203125 
L 14.890625 25.203125 
Q 15.484375 15.921875 20.484375 11.0625 
Q 25.484375 6.203125 34.421875 6.203125 
Q 39.59375 6.203125 44.453125 7.46875 
Q 49.3125 8.734375 54.109375 11.28125 
L 54.109375 2.78125 
Q 49.265625 0.734375 44.1875 -0.34375 
Q 39.109375 -1.421875 33.890625 -1.421875 
Q 20.796875 -1.421875 13.15625 6.1875 
Q 5.515625 13.8125 5.515625 26.8125 
Q 5.515625 40.234375 12.765625 48.109375 
Q 20.015625 56 32.328125 56 
Q 43.359375 56 49.78125 48.890625 
Q 56.203125 41.796875 56.203125 29.59375 
z
M 47.21875 32.234375 
Q 47.125 39.59375 43.09375 43.984375 
Q 39.0625 48.390625 32.421875 48.390625 
Q 24.90625 48.390625 20.390625 44.140625 
Q 15.875 39.890625 15.1875 32.171875 
z
" id="DejaVuSans-101"/>
     </defs>
     <g transform="translate(114.44 45.384438)scale(0.1 -0.1)">
      <use xlink:href="#DejaVuSans-98"/>
      <use x="63.476562" xlink:href="#DejaVuSans-97"/>
      <use x="124.755859" xlink:href="#DejaVuSans-115"/>
      <use x="176.855469" xlink:href="#DejaVuSans-101"/>
     </g>
    </g>
    <g id="patch_73">
     <path d="M 86.44 60.062563 
L 106.44 60.062563 
L 106.44 53.062563 
L 86.44 53.062563 
z
" style="fill:#c38820;opacity:0.9;"/>
    </g>
    <g id="text_18">
     <!-- sphereconv -->
     <defs>
      <path d="M 18.109375 8.203125 
L 18.109375 -20.796875 
L 9.078125 -20.796875 
L 9.078125 54.6875 
L 18.109375 54.6875 
L 18.109375 46.390625 
Q 20.953125 51.265625 25.265625 53.625 
Q 29.59375 56 35.59375 56 
Q 45.5625 56 51.78125 48.09375 
Q 58.015625 40.1875 58.015625 27.296875 
Q 58.015625 14.40625 51.78125 6.484375 
Q 45.5625 -1.421875 35.59375 -1.421875 
Q 29.59375 -1.421875 25.265625 0.953125 
Q 20.953125 3.328125 18.109375 8.203125 
z
M 48.6875 27.296875 
Q 48.6875 37.203125 44.609375 42.84375 
Q 40.53125 48.484375 33.40625 48.484375 
Q 26.265625 48.484375 22.1875 42.84375 
Q 18.109375 37.203125 18.109375 27.296875 
Q 18.109375 17.390625 22.1875 11.75 
Q 26.265625 6.109375 33.40625 6.109375 
Q 40.53125 6.109375 44.609375 11.75 
Q 48.6875 17.390625 48.6875 27.296875 
z
" id="DejaVuSans-112"/>
      <path d="M 54.890625 33.015625 
L 54.890625 0 
L 45.90625 0 
L 45.90625 32.71875 
Q 45.90625 40.484375 42.875 44.328125 
Q 39.84375 48.1875 33.796875 48.1875 
Q 26.515625 48.1875 22.3125 43.546875 
Q 18.109375 38.921875 18.109375 30.90625 
L 18.109375 0 
L 9.078125 0 
L 9.078125 75.984375 
L 18.109375 75.984375 
L 18.109375 46.1875 
Q 21.34375 51.125 25.703125 53.5625 
Q 30.078125 56 35.796875 56 
Q 45.21875 56 50.046875 50.171875 
Q 54.890625 44.34375 54.890625 33.015625 
z
" id="DejaVuSans-104"/>
      <path d="M 41.109375 46.296875 
Q 39.59375 47.171875 37.8125 47.578125 
Q 36.03125 48 33.890625 48 
Q 26.265625 48 22.1875 43.046875 
Q 18.109375 38.09375 18.109375 28.8125 
L 18.109375 0 
L 9.078125 0 
L 9.078125 54.6875 
L 18.109375 54.6875 
L 18.109375 46.1875 
Q 20.953125 51.171875 25.484375 53.578125 
Q 30.03125 56 36.53125 56 
Q 37.453125 56 38.578125 55.875 
Q 39.703125 55.765625 41.0625 55.515625 
z
" id="DejaVuSans-114"/>
      <path d="M 30.609375 48.390625 
Q 23.390625 48.390625 19.1875 42.75 
Q 14.984375 37.109375 14.984375 27.296875 
Q 14.984375 17.484375 19.15625 11.84375 
Q 23.34375 6.203125 30.609375 6.203125 
Q 37.796875 6.203125 41.984375 11.859375 
Q 46.1875 17.53125 46.1875 27.296875 
Q 46.1875 37.015625 41.984375 42.703125 
Q 37.796875 48.390625 30.609375 48.390625 
z
M 30.609375 56 
Q 42.328125 56 49.015625 48.375 
Q 55.71875 40.765625 55.71875 27.296875 
Q 55.71875 13.875 49.015625 6.21875 
Q 42.328125 -1.421875 30.609375 -1.421875 
Q 18.84375 -1.421875 12.171875 6.21875 
Q 5.515625 13.875 5.515625 27.296875 
Q 5.515625 40.765625 12.171875 48.375 
Q 18.84375 56 30.609375 56 
z
" id="DejaVuSans-111"/>
      <path d="M 54.890625 33.015625 
L 54.890625 0 
L 45.90625 0 
L 45.90625 32.71875 
Q 45.90625 40.484375 42.875 44.328125 
Q 39.84375 48.1875 33.796875 48.1875 
Q 26.515625 48.1875 22.3125 43.546875 
Q 18.109375 38.921875 18.109375 30.90625 
L 18.109375 0 
L 9.078125 0 
L 9.078125 54.6875 
L 18.109375 54.6875 
L 18.109375 46.1875 
Q 21.34375 51.125 25.703125 53.5625 
Q 30.078125 56 35.796875 56 
Q 45.21875 56 50.046875 50.171875 
Q 54.890625 44.34375 54.890625 33.015625 
z
" id="DejaVuSans-110"/>
      <path d="M 2.984375 54.6875 
L 12.5 54.6875 
L 29.59375 8.796875 
L 46.6875 54.6875 
L 56.203125 54.6875 
L 35.6875 0 
L 23.484375 0 
z
" id="DejaVuSans-118"/>
     </defs>
     <g transform="translate(114.44 60.062563)scale(0.1 -0.1)">
      <use xlink:href="#DejaVuSans-115"/>
      <use x="52.099609" xlink:href="#DejaVuSans-112"/>
      <use x="115.576172" xlink:href="#DejaVuSans-104"/>
      <use x="178.955078" xlink:href="#DejaVuSans-101"/>
      <use x="240.478516" xlink:href="#DejaVuSans-114"/>
      <use x="279.341797" xlink:href="#DejaVuSans-101"/>
      <use x="340.865234" xlink:href="#DejaVuSans-99"/>
      <use x="395.845703" xlink:href="#DejaVuSans-111"/>
      <use x="457.027344" xlink:href="#DejaVuSans-110"/>
      <use x="520.40625" xlink:href="#DejaVuSans-118"/>
     </g>
    </g>
    <g id="patch_74">
     <path d="M 86.44 74.740688 
L 106.44 74.740688 
L 106.44 67.740688 
L 86.44 67.740688 
z
" style="fill:#158b6a;opacity:0.9;"/>
    </g>
    <g id="text_19">
     <!-- hemconv -->
     <defs>
      <path d="M 52 44.1875 
Q 55.375 50.25 60.0625 53.125 
Q 64.75 56 71.09375 56 
Q 79.640625 56 84.28125 50.015625 
Q 88.921875 44.046875 88.921875 33.015625 
L 88.921875 0 
L 79.890625 0 
L 79.890625 32.71875 
Q 79.890625 40.578125 77.09375 44.375 
Q 74.3125 48.1875 68.609375 48.1875 
Q 61.625 48.1875 57.5625 43.546875 
Q 53.515625 38.921875 53.515625 30.90625 
L 53.515625 0 
L 44.484375 0 
L 44.484375 32.71875 
Q 44.484375 40.625 41.703125 44.40625 
Q 38.921875 48.1875 33.109375 48.1875 
Q 26.21875 48.1875 22.15625 43.53125 
Q 18.109375 38.875 18.109375 30.90625 
L 18.109375 0 
L 9.078125 0 
L 9.078125 54.6875 
L 18.109375 54.6875 
L 18.109375 46.1875 
Q 21.1875 51.21875 25.484375 53.609375 
Q 29.78125 56 35.6875 56 
Q 41.65625 56 45.828125 52.96875 
Q 50 49.953125 52 44.1875 
z
" id="DejaVuSans-109"/>
     </defs>
     <g transform="translate(114.44 74.740688)scale(0.1 -0.1)">
      <use xlink:href="#DejaVuSans-104"/>
      <use x="63.378906" xlink:href="#DejaVuSans-101"/>
      <use x="124.902344" xlink:href="#DejaVuSans-109"/>
      <use x="222.314453" xlink:href="#DejaVuSans-99"/>
      <use x="277.294922" xlink:href="#DejaVuSans-111"/>
      <use x="338.476562" xlink:href="#DejaVuSans-110"/>
      <use x="401.855469" xlink:href="#DejaVuSans-118"/>
     </g>
    </g>
    <g id="patch_75">
     <path d="M 192.400937 45.384438 
L 212.400937 45.384438 
L 212.400937 38.384438 
L 192.400937 38.384438 
z
" style="fill:#ba611b;opacity:0.9;"/>
    </g>
    <g id="text_20">
     <!-- hemconv_sharedweights -->
     <defs>
      <path d="M 50.984375 -16.609375 
L 50.984375 -23.578125 
L -0.984375 -23.578125 
L -0.984375 -16.609375 
z
" id="DejaVuSans-95"/>
      <path d="M 4.203125 54.6875 
L 13.1875 54.6875 
L 24.421875 12.015625 
L 35.59375 54.6875 
L 46.1875 54.6875 
L 57.421875 12.015625 
L 68.609375 54.6875 
L 77.59375 54.6875 
L 63.28125 0 
L 52.6875 0 
L 40.921875 44.828125 
L 29.109375 0 
L 18.5 0 
z
" id="DejaVuSans-119"/>
      <path d="M 9.421875 54.6875 
L 18.40625 54.6875 
L 18.40625 0 
L 9.421875 0 
z
M 9.421875 75.984375 
L 18.40625 75.984375 
L 18.40625 64.59375 
L 9.421875 64.59375 
z
" id="DejaVuSans-105"/>
      <path d="M 45.40625 27.984375 
Q 45.40625 37.75 41.375 43.109375 
Q 37.359375 48.484375 30.078125 48.484375 
Q 22.859375 48.484375 18.828125 43.109375 
Q 14.796875 37.75 14.796875 27.984375 
Q 14.796875 18.265625 18.828125 12.890625 
Q 22.859375 7.515625 30.078125 7.515625 
Q 37.359375 7.515625 41.375 12.890625 
Q 45.40625 18.265625 45.40625 27.984375 
z
M 54.390625 6.78125 
Q 54.390625 -7.171875 48.1875 -13.984375 
Q 42 -20.796875 29.203125 -20.796875 
Q 24.46875 -20.796875 20.265625 -20.09375 
Q 16.0625 -19.390625 12.109375 -17.921875 
L 12.109375 -9.1875 
Q 16.0625 -11.328125 19.921875 -12.34375 
Q 23.78125 -13.375 27.78125 -13.375 
Q 36.625 -13.375 41.015625 -8.765625 
Q 45.40625 -4.15625 45.40625 5.171875 
L 45.40625 9.625 
Q 42.625 4.78125 38.28125 2.390625 
Q 33.9375 0 27.875 0 
Q 17.828125 0 11.671875 7.65625 
Q 5.515625 15.328125 5.515625 27.984375 
Q 5.515625 40.671875 11.671875 48.328125 
Q 17.828125 56 27.875 56 
Q 33.9375 56 38.28125 53.609375 
Q 42.625 51.21875 45.40625 46.390625 
L 45.40625 54.6875 
L 54.390625 54.6875 
z
" id="DejaVuSans-103"/>
      <path d="M 18.3125 70.21875 
L 18.3125 54.6875 
L 36.8125 54.6875 
L 36.8125 47.703125 
L 18.3125 47.703125 
L 18.3125 18.015625 
Q 18.3125 11.328125 20.140625 9.421875 
Q 21.96875 7.515625 27.59375 7.515625 
L 36.8125 7.515625 
L 36.8125 0 
L 27.59375 0 
Q 17.1875 0 13.234375 3.875 
Q 9.28125 7.765625 9.28125 18.015625 
L 9.28125 47.703125 
L 2.6875 47.703125 
L 2.6875 54.6875 
L 9.28125 54.6875 
L 9.28125 70.21875 
z
" id="DejaVuSans-116"/>
     </defs>
     <g transform="translate(220.400937 45.384438)scale(0.1 -0.1)">
      <use xlink:href="#DejaVuSans-104"/>
      <use x="63.378906" xlink:href="#DejaVuSans-101"/>
      <use x="124.902344" xlink:href="#DejaVuSans-109"/>
      <use x="222.314453" xlink:href="#DejaVuSans-99"/>
      <use x="277.294922" xlink:href="#DejaVuSans-111"/>
      <use x="338.476562" xlink:href="#DejaVuSans-110"/>
      <use x="401.855469" xlink:href="#DejaVuSans-118"/>
      <use x="461.035156" xlink:href="#DejaVuSans-95"/>
      <use x="511.035156" xlink:href="#DejaVuSans-115"/>
      <use x="563.134766" xlink:href="#DejaVuSans-104"/>
      <use x="626.513672" xlink:href="#DejaVuSans-97"/>
      <use x="687.792969" xlink:href="#DejaVuSans-114"/>
      <use x="726.65625" xlink:href="#DejaVuSans-101"/>
      <use x="788.179688" xlink:href="#DejaVuSans-100"/>
      <use x="851.65625" xlink:href="#DejaVuSans-119"/>
      <use x="933.443359" xlink:href="#DejaVuSans-101"/>
      <use x="994.966797" xlink:href="#DejaVuSans-105"/>
      <use x="1022.75" xlink:href="#DejaVuSans-103"/>
      <use x="1086.226562" xlink:href="#DejaVuSans-104"/>
      <use x="1149.605469" xlink:href="#DejaVuSans-116"/>
      <use x="1188.814453" xlink:href="#DejaVuSans-115"/>
     </g>
    </g>
    <g id="patch_76">
     <path d="M 192.400937 60.340688 
L 212.400937 60.340688 
L 212.400937 53.340688 
L 192.400937 53.340688 
z
" style="fill:#c282b5;opacity:0.9;"/>
    </g>
    <g id="text_21">
     <!-- sphereconv_hemconv -->
     <g transform="translate(220.400937 60.340688)scale(0.1 -0.1)">
      <use xlink:href="#DejaVuSans-115"/>
      <use x="52.099609" xlink:href="#DejaVuSans-112"/>
      <use x="115.576172" xlink:href="#DejaVuSans-104"/>
      <use x="178.955078" xlink:href="#DejaVuSans-101"/>
      <use x="240.478516" xlink:href="#DejaVuSans-114"/>
      <use x="279.341797" xlink:href="#DejaVuSans-101"/>
      <use x="340.865234" xlink:href="#DejaVuSans-99"/>
      <use x="395.845703" xlink:href="#DejaVuSans-111"/>
      <use x="457.027344" xlink:href="#DejaVuSans-110"/>
      <use x="520.40625" xlink:href="#DejaVuSans-118"/>
      <use x="579.585938" xlink:href="#DejaVuSans-95"/>
      <use x="629.585938" xlink:href="#DejaVuSans-104"/>
      <use x="692.964844" xlink:href="#DejaVuSans-101"/>
      <use x="754.488281" xlink:href="#DejaVuSans-109"/>
      <use x="851.900391" xlink:href="#DejaVuSans-99"/>
      <use x="906.880859" xlink:href="#DejaVuSans-111"/>
      <use x="968.0625" xlink:href="#DejaVuSans-110"/>
      <use x="1031.441406" xlink:href="#DejaVuSans-118"/>
     </g>
    </g>
    <g id="patch_77">
     <path d="M 192.400937 75.296938 
L 212.400937 75.296938 
L 212.400937 68.296938 
L 192.400937 68.296938 
z
" style="fill:#bd926e;opacity:0.9;"/>
    </g>
    <g id="text_22">
     <!-- sphereconv_hemconv_shared -->
     <g transform="translate(220.400937 75.296938)scale(0.1 -0.1)">
      <use xlink:href="#DejaVuSans-115"/>
      <use x="52.099609" xlink:href="#DejaVuSans-112"/>
      <use x="115.576172" xlink:href="#DejaVuSans-104"/>
      <use x="178.955078" xlink:href="#DejaVuSans-101"/>
      <use x="240.478516" xlink:href="#DejaVuSans-114"/>
      <use x="279.341797" xlink:href="#DejaVuSans-101"/>
      <use x="340.865234" xlink:href="#DejaVuSans-99"/>
      <use x="395.845703" xlink:href="#DejaVuSans-111"/>
      <use x="457.027344" xlink:href="#DejaVuSans-110"/>
      <use x="520.40625" xlink:href="#DejaVuSans-118"/>
      <use x="579.585938" xlink:href="#DejaVuSans-95"/>
      <use x="629.585938" xlink:href="#DejaVuSans-104"/>
      <use x="692.964844" xlink:href="#DejaVuSans-101"/>
      <use x="754.488281" xlink:href="#DejaVuSans-109"/>
      <use x="851.900391" xlink:href="#DejaVuSans-99"/>
      <use x="906.880859" xlink:href="#DejaVuSans-111"/>
      <use x="968.0625" xlink:href="#DejaVuSans-110"/>
      <use x="1031.441406" xlink:href="#DejaVuSans-118"/>
      <use x="1090.621094" xlink:href="#DejaVuSans-95"/>
      <use x="1140.621094" xlink:href="#DejaVuSans-115"/>
      <use x="1192.720703" xlink:href="#DejaVuSans-104"/>
      <use x="1256.099609" xlink:href="#DejaVuSans-97"/>
      <use x="1317.378906" xlink:href="#DejaVuSans-114"/>
      <use x="1356.242188" xlink:href="#DejaVuSans-101"/>
      <use x="1417.765625" xlink:href="#DejaVuSans-100"/>
     </g>
    </g>
   </g>
  </g>
  <g id="axes_2">
   <g id="patch_78">
    <path d="M 82.44 376.308 
L 416.448 376.308 
L 416.448 261.576 
L 82.44 261.576 
z
" style="fill:#ffffff;"/>
   </g>
   <g id="patch_79">
    <path clip-path="url(#pa7a49bd8ab)" d="M 85.476436 376.308 
L 89.525018 376.308 
L 89.525018 376.308 
L 85.476436 376.308 
z
" style="fill:#176d9c;opacity:0.9;"/>
   </g>
   <g id="patch_80">
    <path clip-path="url(#pa7a49bd8ab)" d="M 115.8408 376.308 
L 119.889382 376.308 
L 119.889382 376.308 
L 115.8408 376.308 
z
" style="fill:#176d9c;opacity:0.9;"/>
   </g>
   <g id="patch_81">
    <path clip-path="url(#pa7a49bd8ab)" d="M 146.205164 376.308 
L 150.253745 376.308 
L 150.253745 376.308 
L 146.205164 376.308 
z
" style="fill:#176d9c;opacity:0.9;"/>
   </g>
   <g id="patch_82">
    <path clip-path="url(#pa7a49bd8ab)" d="M 176.569527 376.308 
L 180.618109 376.308 
L 180.618109 376.308 
L 176.569527 376.308 
z
" style="fill:#176d9c;opacity:0.9;"/>
   </g>
   <g id="patch_83">
    <path clip-path="url(#pa7a49bd8ab)" d="M 206.933891 376.308 
L 210.982473 376.308 
L 210.982473 376.308 
L 206.933891 376.308 
z
" style="fill:#176d9c;opacity:0.9;"/>
   </g>
   <g id="patch_84">
    <path clip-path="url(#pa7a49bd8ab)" d="M 237.298255 376.308 
L 241.346836 376.308 
L 241.346836 376.308 
L 237.298255 376.308 
z
" style="fill:#176d9c;opacity:0.9;"/>
   </g>
   <g id="patch_85">
    <path clip-path="url(#pa7a49bd8ab)" d="M 267.662618 376.308 
L 271.7112 376.308 
L 271.7112 376.308 
L 267.662618 376.308 
z
" style="fill:#176d9c;opacity:0.9;"/>
   </g>
   <g id="patch_86">
    <path clip-path="url(#pa7a49bd8ab)" d="M 298.026982 376.308 
L 302.075564 376.308 
L 302.075564 376.308 
L 298.026982 376.308 
z
" style="fill:#176d9c;opacity:0.9;"/>
   </g>
   <g id="patch_87">
    <path clip-path="url(#pa7a49bd8ab)" d="M 328.391345 376.308 
L 332.439927 376.308 
L 332.439927 376.308 
L 328.391345 376.308 
z
" style="fill:#176d9c;opacity:0.9;"/>
   </g>
   <g id="patch_88">
    <path clip-path="url(#pa7a49bd8ab)" d="M 358.755709 376.308 
L 362.804291 376.308 
L 362.804291 376.308 
L 358.755709 376.308 
z
" style="fill:#176d9c;opacity:0.9;"/>
   </g>
   <g id="patch_89">
    <path clip-path="url(#pa7a49bd8ab)" d="M 389.120073 376.308 
L 393.168655 376.308 
L 393.168655 376.308 
L 389.120073 376.308 
z
" style="fill:#176d9c;opacity:0.9;"/>
   </g>
   <g id="patch_90">
    <path clip-path="url(#pa7a49bd8ab)" d="M 89.525018 376.308 
L 93.5736 376.308 
L 93.5736 376.308 
L 89.525018 376.308 
z
" style="fill:#c38820;opacity:0.9;"/>
   </g>
   <g id="patch_91">
    <path clip-path="url(#pa7a49bd8ab)" d="M 119.889382 376.308 
L 123.937964 376.308 
L 123.937964 373.494367 
L 119.889382 373.494367 
z
" style="fill:#c38820;opacity:0.9;"/>
   </g>
   <g id="patch_92">
    <path clip-path="url(#pa7a49bd8ab)" d="M 150.253745 376.308 
L 154.302327 376.308 
L 154.302327 363.958816 
L 150.253745 363.958816 
z
" style="fill:#c38820;opacity:0.9;"/>
   </g>
   <g id="patch_93">
    <path clip-path="url(#pa7a49bd8ab)" d="M 180.618109 376.308 
L 184.666691 376.308 
L 184.666691 349.39599 
L 180.618109 349.39599 
z
" style="fill:#c38820;opacity:0.9;"/>
   </g>
   <g id="patch_94">
    <path clip-path="url(#pa7a49bd8ab)" d="M 210.982473 376.308 
L 215.031055 376.308 
L 215.031055 336.03955 
L 210.982473 336.03955 
z
" style="fill:#c38820;opacity:0.9;"/>
   </g>
   <g id="patch_95">
    <path clip-path="url(#pa7a49bd8ab)" d="M 241.346836 376.308 
L 245.395418 376.308 
L 245.395418 328.135233 
L 241.346836 328.135233 
z
" style="fill:#c38820;opacity:0.9;"/>
   </g>
   <g id="patch_96">
    <path clip-path="url(#pa7a49bd8ab)" d="M 271.7112 376.308 
L 275.759782 376.308 
L 275.759782 324.327639 
L 271.7112 324.327639 
z
" style="fill:#c38820;opacity:0.9;"/>
   </g>
   <g id="patch_97">
    <path clip-path="url(#pa7a49bd8ab)" d="M 302.075564 376.308 
L 306.124145 376.308 
L 306.124145 323.051019 
L 302.075564 323.051019 
z
" style="fill:#c38820;opacity:0.9;"/>
   </g>
   <g id="patch_98">
    <path clip-path="url(#pa7a49bd8ab)" d="M 332.439927 376.308 
L 336.488509 376.308 
L 336.488509 321.562614 
L 332.439927 321.562614 
z
" style="fill:#c38820;opacity:0.9;"/>
   </g>
   <g id="patch_99">
    <path clip-path="url(#pa7a49bd8ab)" d="M 362.804291 376.308 
L 366.852873 376.308 
L 366.852873 317.879995 
L 362.804291 317.879995 
z
" style="fill:#c38820;opacity:0.9;"/>
   </g>
   <g id="patch_100">
    <path clip-path="url(#pa7a49bd8ab)" d="M 393.168655 376.308 
L 397.217236 376.308 
L 397.217236 311.403544 
L 393.168655 311.403544 
z
" style="fill:#c38820;opacity:0.9;"/>
   </g>
   <g id="patch_101">
    <path clip-path="url(#pa7a49bd8ab)" d="M 93.5736 376.308 
L 97.622182 376.308 
L 97.622182 376.308 
L 93.5736 376.308 
z
" style="fill:#158b6a;opacity:0.9;"/>
   </g>
   <g id="patch_102">
    <path clip-path="url(#pa7a49bd8ab)" d="M 123.937964 376.308 
L 127.986545 376.308 
L 127.986545 374.210963 
L 123.937964 374.210963 
z
" style="fill:#158b6a;opacity:0.9;"/>
   </g>
   <g id="patch_103">
    <path clip-path="url(#pa7a49bd8ab)" d="M 154.302327 376.308 
L 158.350909 376.308 
L 158.350909 367.598673 
L 154.302327 367.598673 
z
" style="fill:#158b6a;opacity:0.9;"/>
   </g>
   <g id="patch_104">
    <path clip-path="url(#pa7a49bd8ab)" d="M 184.666691 376.308 
L 188.715273 376.308 
L 188.715273 357.662707 
L 184.666691 357.662707 
z
" style="fill:#158b6a;opacity:0.9;"/>
   </g>
   <g id="patch_105">
    <path clip-path="url(#pa7a49bd8ab)" d="M 215.031055 376.308 
L 219.079636 376.308 
L 219.079636 347.570682 
L 215.031055 347.570682 
z
" style="fill:#158b6a;opacity:0.9;"/>
   </g>
   <g id="patch_106">
    <path clip-path="url(#pa7a49bd8ab)" d="M 245.395418 376.308 
L 249.444 376.308 
L 249.444 339.989832 
L 245.395418 339.989832 
z
" style="fill:#158b6a;opacity:0.9;"/>
   </g>
   <g id="patch_107">
    <path clip-path="url(#pa7a49bd8ab)" d="M 275.759782 376.308 
L 279.808364 376.308 
L 279.808364 334.061068 
L 275.759782 334.061068 
z
" style="fill:#158b6a;opacity:0.9;"/>
   </g>
   <g id="patch_108">
    <path clip-path="url(#pa7a49bd8ab)" d="M 306.124145 376.308 
L 310.172727 376.308 
L 310.172727 328.693223 
L 306.124145 328.693223 
z
" style="fill:#158b6a;opacity:0.9;"/>
   </g>
   <g id="patch_109">
    <path clip-path="url(#pa7a49bd8ab)" d="M 336.488509 376.308 
L 340.537091 376.308 
L 340.537091 322.792796 
L 336.488509 322.792796 
z
" style="fill:#158b6a;opacity:0.9;"/>
   </g>
   <g id="patch_110">
    <path clip-path="url(#pa7a49bd8ab)" d="M 366.852873 376.308 
L 370.901455 376.308 
L 370.901455 313.666242 
L 366.852873 313.666242 
z
" style="fill:#158b6a;opacity:0.9;"/>
   </g>
   <g id="patch_111">
    <path clip-path="url(#pa7a49bd8ab)" d="M 397.217236 376.308 
L 401.265818 376.308 
L 401.265818 300.649482 
L 397.217236 300.649482 
z
" style="fill:#158b6a;opacity:0.9;"/>
   </g>
   <g id="patch_112">
    <path clip-path="url(#pa7a49bd8ab)" d="M 97.622182 376.308 
L 101.670764 376.308 
L 101.670764 376.308 
L 97.622182 376.308 
z
" style="fill:#ba611b;opacity:0.9;"/>
   </g>
   <g id="patch_113">
    <path clip-path="url(#pa7a49bd8ab)" d="M 127.986545 376.308 
L 132.035127 376.308 
L 132.035127 371.470818 
L 127.986545 371.470818 
z
" style="fill:#ba611b;opacity:0.9;"/>
   </g>
   <g id="patch_114">
    <path clip-path="url(#pa7a49bd8ab)" d="M 158.350909 376.308 
L 162.399491 376.308 
L 162.399491 356.96171 
L 158.350909 356.96171 
z
" style="fill:#ba611b;opacity:0.9;"/>
   </g>
   <g id="patch_115">
    <path clip-path="url(#pa7a49bd8ab)" d="M 188.715273 376.308 
L 192.763855 376.308 
L 192.763855 336.247256 
L 188.715273 336.247256 
z
" style="fill:#ba611b;opacity:0.9;"/>
   </g>
   <g id="patch_116">
    <path clip-path="url(#pa7a49bd8ab)" d="M 219.079636 376.308 
L 223.128218 376.308 
L 223.128218 316.16413 
L 219.079636 316.16413 
z
" style="fill:#ba611b;opacity:0.9;"/>
   </g>
   <g id="patch_117">
    <path clip-path="url(#pa7a49bd8ab)" d="M 249.444 376.308 
L 253.492582 376.308 
L 253.492582 302.93932 
L 249.444 302.93932 
z
" style="fill:#ba611b;opacity:0.9;"/>
   </g>
   <g id="patch_118">
    <path clip-path="url(#pa7a49bd8ab)" d="M 279.808364 376.308 
L 283.856945 376.308 
L 283.856945 296.700374 
L 279.808364 296.700374 
z
" style="fill:#ba611b;opacity:0.9;"/>
   </g>
   <g id="patch_119">
    <path clip-path="url(#pa7a49bd8ab)" d="M 310.172727 376.308 
L 314.221309 376.308 
L 314.221309 294.560587 
L 310.172727 294.560587 
z
" style="fill:#ba611b;opacity:0.9;"/>
   </g>
   <g id="patch_120">
    <path clip-path="url(#pa7a49bd8ab)" d="M 340.537091 376.308 
L 344.585673 376.308 
L 344.585673 292.607891 
L 340.537091 292.607891 
z
" style="fill:#ba611b;opacity:0.9;"/>
   </g>
   <g id="patch_121">
    <path clip-path="url(#pa7a49bd8ab)" d="M 370.901455 376.308 
L 374.950036 376.308 
L 374.950036 287.660059 
L 370.901455 287.660059 
z
" style="fill:#ba611b;opacity:0.9;"/>
   </g>
   <g id="patch_122">
    <path clip-path="url(#pa7a49bd8ab)" d="M 401.265818 376.308 
L 405.3144 376.308 
L 405.3144 279.447846 
L 401.265818 279.447846 
z
" style="fill:#ba611b;opacity:0.9;"/>
   </g>
   <g id="patch_123">
    <path clip-path="url(#pa7a49bd8ab)" d="M 101.670764 376.308 
L 105.719345 376.308 
L 105.719345 376.308 
L 101.670764 376.308 
z
" style="fill:#c282b5;opacity:0.9;"/>
   </g>
   <g id="patch_124">
    <path clip-path="url(#pa7a49bd8ab)" d="M 132.035127 376.308 
L 136.083709 376.308 
L 136.083709 371.994853 
L 132.035127 371.994853 
z
" style="fill:#c282b5;opacity:0.9;"/>
   </g>
   <g id="patch_125">
    <path clip-path="url(#pa7a49bd8ab)" d="M 162.399491 376.308 
L 166.448073 376.308 
L 166.448073 359.13641 
L 162.399491 359.13641 
z
" style="fill:#c282b5;opacity:0.9;"/>
   </g>
   <g id="patch_126">
    <path clip-path="url(#pa7a49bd8ab)" d="M 192.763855 376.308 
L 196.812436 376.308 
L 196.812436 339.600217 
L 192.763855 339.600217 
z
" style="fill:#c282b5;opacity:0.9;"/>
   </g>
   <g id="patch_127">
    <path clip-path="url(#pa7a49bd8ab)" d="M 223.128218 376.308 
L 227.1768 376.308 
L 227.1768 320.5933 
L 223.128218 320.5933 
z
" style="fill:#c282b5;opacity:0.9;"/>
   </g>
   <g id="patch_128">
    <path clip-path="url(#pa7a49bd8ab)" d="M 253.492582 376.308 
L 257.541164 376.308 
L 257.541164 307.884423 
L 253.492582 307.884423 
z
" style="fill:#c282b5;opacity:0.9;"/>
   </g>
   <g id="patch_129">
    <path clip-path="url(#pa7a49bd8ab)" d="M 283.856945 376.308 
L 287.905527 376.308 
L 287.905527 301.739548 
L 283.856945 301.739548 
z
" style="fill:#c282b5;opacity:0.9;"/>
   </g>
   <g id="patch_130">
    <path clip-path="url(#pa7a49bd8ab)" d="M 314.221309 376.308 
L 318.269891 376.308 
L 318.269891 302.087 
L 314.221309 302.087 
z
" style="fill:#c282b5;opacity:0.9;"/>
   </g>
   <g id="patch_131">
    <path clip-path="url(#pa7a49bd8ab)" d="M 344.585673 376.308 
L 348.634255 376.308 
L 348.634255 305.645806 
L 344.585673 305.645806 
z
" style="fill:#c282b5;opacity:0.9;"/>
   </g>
   <g id="patch_132">
    <path clip-path="url(#pa7a49bd8ab)" d="M 374.950036 376.308 
L 378.998618 376.308 
L 378.998618 308.168809 
L 374.950036 308.168809 
z
" style="fill:#c282b5;opacity:0.9;"/>
   </g>
   <g id="patch_133">
    <path clip-path="url(#pa7a49bd8ab)" d="M 405.3144 376.308 
L 409.362982 376.308 
L 409.362982 306.653702 
L 405.3144 306.653702 
z
" style="fill:#c282b5;opacity:0.9;"/>
   </g>
   <g id="patch_134">
    <path clip-path="url(#pa7a49bd8ab)" d="M 105.719345 376.308 
L 109.767927 376.308 
L 109.767927 376.308 
L 105.719345 376.308 
z
" style="fill:#bd926e;opacity:0.9;"/>
   </g>
   <g id="patch_135">
    <path clip-path="url(#pa7a49bd8ab)" d="M 136.083709 376.308 
L 140.132291 376.308 
L 140.132291 369.274287 
L 136.083709 369.274287 
z
" style="fill:#bd926e;opacity:0.9;"/>
   </g>
   <g id="patch_136">
    <path clip-path="url(#pa7a49bd8ab)" d="M 166.448073 376.308 
L 170.496655 376.308 
L 170.496655 348.436773 
L 166.448073 348.436773 
z
" style="fill:#bd926e;opacity:0.9;"/>
   </g>
   <g id="patch_137">
    <path clip-path="url(#pa7a49bd8ab)" d="M 196.812436 376.308 
L 200.861018 376.308 
L 200.861018 318.824029 
L 196.812436 318.824029 
z
" style="fill:#bd926e;opacity:0.9;"/>
   </g>
   <g id="patch_138">
    <path clip-path="url(#pa7a49bd8ab)" d="M 227.1768 376.308 
L 231.225382 376.308 
L 231.225382 291.623828 
L 227.1768 291.623828 
z
" style="fill:#bd926e;opacity:0.9;"/>
   </g>
   <g id="patch_139">
    <path clip-path="url(#pa7a49bd8ab)" d="M 257.541164 376.308 
L 261.589745 376.308 
L 261.589745 275.544174 
L 257.541164 275.544174 
z
" style="fill:#bd926e;opacity:0.9;"/>
   </g>
   <g id="patch_140">
    <path clip-path="url(#pa7a49bd8ab)" d="M 287.905527 376.308 
L 291.954109 376.308 
L 291.954109 269.068697 
L 287.905527 269.068697 
z
" style="fill:#bd926e;opacity:0.9;"/>
   </g>
   <g id="patch_141">
    <path clip-path="url(#pa7a49bd8ab)" d="M 318.269891 376.308 
L 322.318473 376.308 
L 322.318473 269.341588 
L 318.269891 269.341588 
z
" style="fill:#bd926e;opacity:0.9;"/>
   </g>
   <g id="patch_142">
    <path clip-path="url(#pa7a49bd8ab)" d="M 348.634255 376.308 
L 352.682836 376.308 
L 352.682836 271.486888 
L 348.634255 271.486888 
z
" style="fill:#bd926e;opacity:0.9;"/>
   </g>
   <g id="patch_143">
    <path clip-path="url(#pa7a49bd8ab)" d="M 378.998618 376.308 
L 383.0472 376.308 
L 383.0472 271.069359 
L 378.998618 271.069359 
z
" style="fill:#bd926e;opacity:0.9;"/>
   </g>
   <g id="patch_144">
    <path clip-path="url(#pa7a49bd8ab)" d="M 409.362982 376.308 
L 413.411564 376.308 
L 413.411564 267.039429 
L 409.362982 267.039429 
z
" style="fill:#bd926e;opacity:0.9;"/>
   </g>
   <g id="matplotlib.axis_3">
    <g id="xtick_12">
     <g id="line2d_81">
      <g>
       <use style="stroke:#000000;stroke-width:1.25;" x="97.622182" xlink:href="#mc9b09c5737" y="376.308"/>
      </g>
     </g>
     <g id="text_23">
      <!-- 0 -->
      <g transform="translate(93.422932 395.837938)scale(0.132 -0.132)">
       <use xlink:href="#DejaVuSans-48"/>
      </g>
     </g>
    </g>
    <g id="xtick_13">
     <g id="line2d_82">
      <g>
       <use style="stroke:#000000;stroke-width:1.25;" x="127.986545" xlink:href="#mc9b09c5737" y="376.308"/>
      </g>
     </g>
     <g id="text_24">
      <!-- 1 -->
      <g transform="translate(123.787295 395.837938)scale(0.132 -0.132)">
       <use xlink:href="#DejaVuSans-49"/>
      </g>
     </g>
    </g>
    <g id="xtick_14">
     <g id="line2d_83">
      <g>
       <use style="stroke:#000000;stroke-width:1.25;" x="158.350909" xlink:href="#mc9b09c5737" y="376.308"/>
      </g>
     </g>
     <g id="text_25">
      <!-- 2 -->
      <g transform="translate(154.151659 395.837938)scale(0.132 -0.132)">
       <use xlink:href="#DejaVuSans-50"/>
      </g>
     </g>
    </g>
    <g id="xtick_15">
     <g id="line2d_84">
      <g>
       <use style="stroke:#000000;stroke-width:1.25;" x="188.715273" xlink:href="#mc9b09c5737" y="376.308"/>
      </g>
     </g>
     <g id="text_26">
      <!-- 3 -->
      <g transform="translate(184.516023 395.837938)scale(0.132 -0.132)">
       <use xlink:href="#DejaVuSans-51"/>
      </g>
     </g>
    </g>
    <g id="xtick_16">
     <g id="line2d_85">
      <g>
       <use style="stroke:#000000;stroke-width:1.25;" x="219.079636" xlink:href="#mc9b09c5737" y="376.308"/>
      </g>
     </g>
     <g id="text_27">
      <!-- 4 -->
      <g transform="translate(214.880386 395.837938)scale(0.132 -0.132)">
       <use xlink:href="#DejaVuSans-52"/>
      </g>
     </g>
    </g>
    <g id="xtick_17">
     <g id="line2d_86">
      <g>
       <use style="stroke:#000000;stroke-width:1.25;" x="249.444" xlink:href="#mc9b09c5737" y="376.308"/>
      </g>
     </g>
     <g id="text_28">
      <!-- 5 -->
      <g transform="translate(245.24475 395.837938)scale(0.132 -0.132)">
       <use xlink:href="#DejaVuSans-53"/>
      </g>
     </g>
    </g>
    <g id="xtick_18">
     <g id="line2d_87">
      <g>
       <use style="stroke:#000000;stroke-width:1.25;" x="279.808364" xlink:href="#mc9b09c5737" y="376.308"/>
      </g>
     </g>
     <g id="text_29">
      <!-- 6 -->
      <g transform="translate(275.609114 395.837938)scale(0.132 -0.132)">
       <use xlink:href="#DejaVuSans-54"/>
      </g>
     </g>
    </g>
    <g id="xtick_19">
     <g id="line2d_88">
      <g>
       <use style="stroke:#000000;stroke-width:1.25;" x="310.172727" xlink:href="#mc9b09c5737" y="376.308"/>
      </g>
     </g>
     <g id="text_30">
      <!-- 7 -->
      <g transform="translate(305.973477 395.837938)scale(0.132 -0.132)">
       <use xlink:href="#DejaVuSans-55"/>
      </g>
     </g>
    </g>
    <g id="xtick_20">
     <g id="line2d_89">
      <g>
       <use style="stroke:#000000;stroke-width:1.25;" x="340.537091" xlink:href="#mc9b09c5737" y="376.308"/>
      </g>
     </g>
     <g id="text_31">
      <!-- 8 -->
      <g transform="translate(336.337841 395.837938)scale(0.132 -0.132)">
       <use xlink:href="#DejaVuSans-56"/>
      </g>
     </g>
    </g>
    <g id="xtick_21">
     <g id="line2d_90">
      <g>
       <use style="stroke:#000000;stroke-width:1.25;" x="370.901455" xlink:href="#mc9b09c5737" y="376.308"/>
      </g>
     </g>
     <g id="text_32">
      <!-- 9 -->
      <g transform="translate(366.702205 395.837938)scale(0.132 -0.132)">
       <use xlink:href="#DejaVuSans-57"/>
      </g>
     </g>
    </g>
    <g id="xtick_22">
     <g id="line2d_91">
      <g>
       <use style="stroke:#000000;stroke-width:1.25;" x="401.265818" xlink:href="#mc9b09c5737" y="376.308"/>
      </g>
     </g>
     <g id="text_33">
      <!-- 10 -->
      <g transform="translate(392.867318 395.837938)scale(0.132 -0.132)">
       <use xlink:href="#DejaVuSans-49"/>
       <use x="63.623047" xlink:href="#DejaVuSans-48"/>
      </g>
     </g>
    </g>
    <g id="text_34">
     <!-- fcday -->
     <g transform="translate(229.705875 413.524875)scale(0.144 -0.144)">
      <use xlink:href="#DejaVuSans-102"/>
      <use x="35.205078" xlink:href="#DejaVuSans-99"/>
      <use x="90.185547" xlink:href="#DejaVuSans-100"/>
      <use x="153.662109" xlink:href="#DejaVuSans-97"/>
      <use x="214.941406" xlink:href="#DejaVuSans-121"/>
     </g>
    </g>
   </g>
   <g id="matplotlib.axis_4">
    <g id="ytick_4">
     <g id="line2d_92">
      <g>
       <use style="stroke:#000000;stroke-width:1.25;" x="82.44" xlink:href="#m57a16fb6ea" y="376.308"/>
      </g>
     </g>
     <g id="text_35">
      <!-- 0.000 -->
      <defs>
       <path d="M 10.6875 12.40625 
L 21 12.40625 
L 21 0 
L 10.6875 0 
z
" id="DejaVuSans-46"/>
      </defs>
      <g transform="translate(35.150875 381.322969)scale(0.132 -0.132)">
       <use xlink:href="#DejaVuSans-48"/>
       <use x="63.623047" xlink:href="#DejaVuSans-46"/>
       <use x="95.410156" xlink:href="#DejaVuSans-48"/>
       <use x="159.033203" xlink:href="#DejaVuSans-48"/>
       <use x="222.65625" xlink:href="#DejaVuSans-48"/>
      </g>
     </g>
    </g>
    <g id="ytick_5">
     <g id="line2d_93">
      <g>
       <use style="stroke:#000000;stroke-width:1.25;" x="82.44" xlink:href="#m57a16fb6ea" y="344.834197"/>
      </g>
     </g>
     <g id="text_36">
      <!-- 0.025 -->
      <g transform="translate(35.150875 349.849166)scale(0.132 -0.132)">
       <use xlink:href="#DejaVuSans-48"/>
       <use x="63.623047" xlink:href="#DejaVuSans-46"/>
       <use x="95.410156" xlink:href="#DejaVuSans-48"/>
       <use x="159.033203" xlink:href="#DejaVuSans-50"/>
       <use x="222.65625" xlink:href="#DejaVuSans-53"/>
      </g>
     </g>
    </g>
    <g id="ytick_6">
     <g id="line2d_94">
      <g>
       <use style="stroke:#000000;stroke-width:1.25;" x="82.44" xlink:href="#m57a16fb6ea" y="313.360394"/>
      </g>
     </g>
     <g id="text_37">
      <!-- 0.050 -->
      <g transform="translate(35.150875 318.375363)scale(0.132 -0.132)">
       <use xlink:href="#DejaVuSans-48"/>
       <use x="63.623047" xlink:href="#DejaVuSans-46"/>
       <use x="95.410156" xlink:href="#DejaVuSans-48"/>
       <use x="159.033203" xlink:href="#DejaVuSans-53"/>
       <use x="222.65625" xlink:href="#DejaVuSans-48"/>
      </g>
     </g>
    </g>
    <g id="ytick_7">
     <g id="line2d_95">
      <g>
       <use style="stroke:#000000;stroke-width:1.25;" x="82.44" xlink:href="#m57a16fb6ea" y="281.886592"/>
      </g>
     </g>
     <g id="text_38">
      <!-- 0.075 -->
      <g transform="translate(35.150875 286.90156)scale(0.132 -0.132)">
       <use xlink:href="#DejaVuSans-48"/>
       <use x="63.623047" xlink:href="#DejaVuSans-46"/>
       <use x="95.410156" xlink:href="#DejaVuSans-48"/>
       <use x="159.033203" xlink:href="#DejaVuSans-55"/>
       <use x="222.65625" xlink:href="#DejaVuSans-53"/>
      </g>
     </g>
    </g>
    <g id="text_39">
     <!-- acc -->
     <g transform="translate(28.156125 331.272)rotate(-90)scale(0.144 -0.144)">
      <use xlink:href="#DejaVuSans-97"/>
      <use x="61.279297" xlink:href="#DejaVuSans-99"/>
      <use x="116.259766" xlink:href="#DejaVuSans-99"/>
     </g>
    </g>
   </g>
   <g id="line2d_96">
    <path clip-path="url(#pa7a49bd8ab)" d="M 0 0 
" style="fill:none;stroke:#424242;stroke-linecap:square;stroke-width:2.7;"/>
   </g>
   <g id="line2d_97">
    <path clip-path="url(#pa7a49bd8ab)" d="M 0 0 
" style="fill:none;stroke:#424242;stroke-linecap:square;stroke-width:2.7;"/>
   </g>
   <g id="line2d_98">
    <path clip-path="url(#pa7a49bd8ab)" d="M 0 0 
" style="fill:none;stroke:#424242;stroke-linecap:square;stroke-width:2.7;"/>
   </g>
   <g id="line2d_99">
    <path clip-path="url(#pa7a49bd8ab)" d="M 0 0 
" style="fill:none;stroke:#424242;stroke-linecap:square;stroke-width:2.7;"/>
   </g>
   <g id="line2d_100">
    <path clip-path="url(#pa7a49bd8ab)" d="M 0 0 
" style="fill:none;stroke:#424242;stroke-linecap:square;stroke-width:2.7;"/>
   </g>
   <g id="line2d_101">
    <path clip-path="url(#pa7a49bd8ab)" d="M 0 0 
" style="fill:none;stroke:#424242;stroke-linecap:square;stroke-width:2.7;"/>
   </g>
   <g id="line2d_102">
    <path clip-path="url(#pa7a49bd8ab)" d="M 0 0 
" style="fill:none;stroke:#424242;stroke-linecap:square;stroke-width:2.7;"/>
   </g>
   <g id="line2d_103">
    <path clip-path="url(#pa7a49bd8ab)" d="M 0 0 
" style="fill:none;stroke:#424242;stroke-linecap:square;stroke-width:2.7;"/>
   </g>
   <g id="line2d_104">
    <path clip-path="url(#pa7a49bd8ab)" d="M 0 0 
" style="fill:none;stroke:#424242;stroke-linecap:square;stroke-width:2.7;"/>
   </g>
   <g id="line2d_105">
    <path clip-path="url(#pa7a49bd8ab)" d="M 0 0 
" style="fill:none;stroke:#424242;stroke-linecap:square;stroke-width:2.7;"/>
   </g>
   <g id="line2d_106">
    <path clip-path="url(#pa7a49bd8ab)" d="M 0 0 
" style="fill:none;stroke:#424242;stroke-linecap:square;stroke-width:2.7;"/>
   </g>
   <g id="line2d_107">
    <path clip-path="url(#pa7a49bd8ab)" d="M 0 0 
" style="fill:none;stroke:#424242;stroke-linecap:square;stroke-width:2.7;"/>
   </g>
   <g id="line2d_108">
    <path clip-path="url(#pa7a49bd8ab)" d="M 0 0 
" style="fill:none;stroke:#424242;stroke-linecap:square;stroke-width:2.7;"/>
   </g>
   <g id="line2d_109">
    <path clip-path="url(#pa7a49bd8ab)" d="M 0 0 
" style="fill:none;stroke:#424242;stroke-linecap:square;stroke-width:2.7;"/>
   </g>
   <g id="line2d_110">
    <path clip-path="url(#pa7a49bd8ab)" d="M 0 0 
" style="fill:none;stroke:#424242;stroke-linecap:square;stroke-width:2.7;"/>
   </g>
   <g id="line2d_111">
    <path clip-path="url(#pa7a49bd8ab)" d="M 0 0 
" style="fill:none;stroke:#424242;stroke-linecap:square;stroke-width:2.7;"/>
   </g>
   <g id="line2d_112">
    <path clip-path="url(#pa7a49bd8ab)" d="M 0 0 
" style="fill:none;stroke:#424242;stroke-linecap:square;stroke-width:2.7;"/>
   </g>
   <g id="line2d_113">
    <path clip-path="url(#pa7a49bd8ab)" d="M 0 0 
" style="fill:none;stroke:#424242;stroke-linecap:square;stroke-width:2.7;"/>
   </g>
   <g id="line2d_114">
    <path clip-path="url(#pa7a49bd8ab)" d="M 0 0 
" style="fill:none;stroke:#424242;stroke-linecap:square;stroke-width:2.7;"/>
   </g>
   <g id="line2d_115">
    <path clip-path="url(#pa7a49bd8ab)" d="M 0 0 
" style="fill:none;stroke:#424242;stroke-linecap:square;stroke-width:2.7;"/>
   </g>
   <g id="line2d_116">
    <path clip-path="url(#pa7a49bd8ab)" d="M 0 0 
" style="fill:none;stroke:#424242;stroke-linecap:square;stroke-width:2.7;"/>
   </g>
   <g id="line2d_117">
    <path clip-path="url(#pa7a49bd8ab)" d="M 0 0 
" style="fill:none;stroke:#424242;stroke-linecap:square;stroke-width:2.7;"/>
   </g>
   <g id="line2d_118">
    <path clip-path="url(#pa7a49bd8ab)" d="M 0 0 
" style="fill:none;stroke:#424242;stroke-linecap:square;stroke-width:2.7;"/>
   </g>
   <g id="line2d_119">
    <path clip-path="url(#pa7a49bd8ab)" d="M 0 0 
" style="fill:none;stroke:#424242;stroke-linecap:square;stroke-width:2.7;"/>
   </g>
   <g id="line2d_120">
    <path clip-path="url(#pa7a49bd8ab)" d="M 0 0 
" style="fill:none;stroke:#424242;stroke-linecap:square;stroke-width:2.7;"/>
   </g>
   <g id="line2d_121">
    <path clip-path="url(#pa7a49bd8ab)" d="M 0 0 
" style="fill:none;stroke:#424242;stroke-linecap:square;stroke-width:2.7;"/>
   </g>
   <g id="line2d_122">
    <path clip-path="url(#pa7a49bd8ab)" d="M 0 0 
" style="fill:none;stroke:#424242;stroke-linecap:square;stroke-width:2.7;"/>
   </g>
   <g id="line2d_123">
    <path clip-path="url(#pa7a49bd8ab)" d="M 0 0 
" style="fill:none;stroke:#424242;stroke-linecap:square;stroke-width:2.7;"/>
   </g>
   <g id="line2d_124">
    <path clip-path="url(#pa7a49bd8ab)" d="M 0 0 
" style="fill:none;stroke:#424242;stroke-linecap:square;stroke-width:2.7;"/>
   </g>
   <g id="line2d_125">
    <path clip-path="url(#pa7a49bd8ab)" d="M 0 0 
" style="fill:none;stroke:#424242;stroke-linecap:square;stroke-width:2.7;"/>
   </g>
   <g id="line2d_126">
    <path clip-path="url(#pa7a49bd8ab)" d="M 0 0 
" style="fill:none;stroke:#424242;stroke-linecap:square;stroke-width:2.7;"/>
   </g>
   <g id="line2d_127">
    <path clip-path="url(#pa7a49bd8ab)" d="M 0 0 
" style="fill:none;stroke:#424242;stroke-linecap:square;stroke-width:2.7;"/>
   </g>
   <g id="line2d_128">
    <path clip-path="url(#pa7a49bd8ab)" d="M 0 0 
" style="fill:none;stroke:#424242;stroke-linecap:square;stroke-width:2.7;"/>
   </g>
   <g id="line2d_129">
    <path clip-path="url(#pa7a49bd8ab)" d="M 0 0 
" style="fill:none;stroke:#424242;stroke-linecap:square;stroke-width:2.7;"/>
   </g>
   <g id="line2d_130">
    <path clip-path="url(#pa7a49bd8ab)" d="M 0 0 
" style="fill:none;stroke:#424242;stroke-linecap:square;stroke-width:2.7;"/>
   </g>
   <g id="line2d_131">
    <path clip-path="url(#pa7a49bd8ab)" d="M 0 0 
" style="fill:none;stroke:#424242;stroke-linecap:square;stroke-width:2.7;"/>
   </g>
   <g id="line2d_132">
    <path clip-path="url(#pa7a49bd8ab)" d="M 0 0 
" style="fill:none;stroke:#424242;stroke-linecap:square;stroke-width:2.7;"/>
   </g>
   <g id="line2d_133">
    <path clip-path="url(#pa7a49bd8ab)" d="M 0 0 
" style="fill:none;stroke:#424242;stroke-linecap:square;stroke-width:2.7;"/>
   </g>
   <g id="line2d_134">
    <path clip-path="url(#pa7a49bd8ab)" d="M 0 0 
" style="fill:none;stroke:#424242;stroke-linecap:square;stroke-width:2.7;"/>
   </g>
   <g id="line2d_135">
    <path clip-path="url(#pa7a49bd8ab)" d="M 0 0 
" style="fill:none;stroke:#424242;stroke-linecap:square;stroke-width:2.7;"/>
   </g>
   <g id="line2d_136">
    <path clip-path="url(#pa7a49bd8ab)" d="M 0 0 
" style="fill:none;stroke:#424242;stroke-linecap:square;stroke-width:2.7;"/>
   </g>
   <g id="line2d_137">
    <path clip-path="url(#pa7a49bd8ab)" d="M 0 0 
" style="fill:none;stroke:#424242;stroke-linecap:square;stroke-width:2.7;"/>
   </g>
   <g id="line2d_138">
    <path clip-path="url(#pa7a49bd8ab)" d="M 0 0 
" style="fill:none;stroke:#424242;stroke-linecap:square;stroke-width:2.7;"/>
   </g>
   <g id="line2d_139">
    <path clip-path="url(#pa7a49bd8ab)" d="M 0 0 
" style="fill:none;stroke:#424242;stroke-linecap:square;stroke-width:2.7;"/>
   </g>
   <g id="line2d_140">
    <path clip-path="url(#pa7a49bd8ab)" d="M 0 0 
" style="fill:none;stroke:#424242;stroke-linecap:square;stroke-width:2.7;"/>
   </g>
   <g id="line2d_141">
    <path clip-path="url(#pa7a49bd8ab)" d="M 0 0 
" style="fill:none;stroke:#424242;stroke-linecap:square;stroke-width:2.7;"/>
   </g>
   <g id="line2d_142">
    <path clip-path="url(#pa7a49bd8ab)" d="M 0 0 
" style="fill:none;stroke:#424242;stroke-linecap:square;stroke-width:2.7;"/>
   </g>
   <g id="line2d_143">
    <path clip-path="url(#pa7a49bd8ab)" d="M 0 0 
" style="fill:none;stroke:#424242;stroke-linecap:square;stroke-width:2.7;"/>
   </g>
   <g id="line2d_144">
    <path clip-path="url(#pa7a49bd8ab)" d="M 0 0 
" style="fill:none;stroke:#424242;stroke-linecap:square;stroke-width:2.7;"/>
   </g>
   <g id="line2d_145">
    <path clip-path="url(#pa7a49bd8ab)" d="M 0 0 
" style="fill:none;stroke:#424242;stroke-linecap:square;stroke-width:2.7;"/>
   </g>
   <g id="line2d_146">
    <path clip-path="url(#pa7a49bd8ab)" d="M 0 0 
" style="fill:none;stroke:#424242;stroke-linecap:square;stroke-width:2.7;"/>
   </g>
   <g id="line2d_147">
    <path clip-path="url(#pa7a49bd8ab)" d="M 0 0 
" style="fill:none;stroke:#424242;stroke-linecap:square;stroke-width:2.7;"/>
   </g>
   <g id="line2d_148">
    <path clip-path="url(#pa7a49bd8ab)" d="M 0 0 
" style="fill:none;stroke:#424242;stroke-linecap:square;stroke-width:2.7;"/>
   </g>
   <g id="line2d_149">
    <path clip-path="url(#pa7a49bd8ab)" d="M 0 0 
" style="fill:none;stroke:#424242;stroke-linecap:square;stroke-width:2.7;"/>
   </g>
   <g id="line2d_150">
    <path clip-path="url(#pa7a49bd8ab)" d="M 0 0 
" style="fill:none;stroke:#424242;stroke-linecap:square;stroke-width:2.7;"/>
   </g>
   <g id="line2d_151">
    <path clip-path="url(#pa7a49bd8ab)" d="M 0 0 
" style="fill:none;stroke:#424242;stroke-linecap:square;stroke-width:2.7;"/>
   </g>
   <g id="line2d_152">
    <path clip-path="url(#pa7a49bd8ab)" d="M 0 0 
" style="fill:none;stroke:#424242;stroke-linecap:square;stroke-width:2.7;"/>
   </g>
   <g id="line2d_153">
    <path clip-path="url(#pa7a49bd8ab)" d="M 0 0 
" style="fill:none;stroke:#424242;stroke-linecap:square;stroke-width:2.7;"/>
   </g>
   <g id="line2d_154">
    <path clip-path="url(#pa7a49bd8ab)" d="M 0 0 
" style="fill:none;stroke:#424242;stroke-linecap:square;stroke-width:2.7;"/>
   </g>
   <g id="line2d_155">
    <path clip-path="url(#pa7a49bd8ab)" d="M 0 0 
" style="fill:none;stroke:#424242;stroke-linecap:square;stroke-width:2.7;"/>
   </g>
   <g id="line2d_156">
    <path clip-path="url(#pa7a49bd8ab)" d="M 0 0 
" style="fill:none;stroke:#424242;stroke-linecap:square;stroke-width:2.7;"/>
   </g>
   <g id="line2d_157">
    <path clip-path="url(#pa7a49bd8ab)" d="M 0 0 
" style="fill:none;stroke:#424242;stroke-linecap:square;stroke-width:2.7;"/>
   </g>
   <g id="line2d_158">
    <path clip-path="url(#pa7a49bd8ab)" d="M 0 0 
" style="fill:none;stroke:#424242;stroke-linecap:square;stroke-width:2.7;"/>
   </g>
   <g id="line2d_159">
    <path clip-path="url(#pa7a49bd8ab)" d="M 0 0 
" style="fill:none;stroke:#424242;stroke-linecap:square;stroke-width:2.7;"/>
   </g>
   <g id="line2d_160">
    <path clip-path="url(#pa7a49bd8ab)" d="M 0 0 
" style="fill:none;stroke:#424242;stroke-linecap:square;stroke-width:2.7;"/>
   </g>
   <g id="line2d_161">
    <path clip-path="url(#pa7a49bd8ab)" d="M 0 0 
" style="fill:none;stroke:#424242;stroke-linecap:square;stroke-width:2.7;"/>
   </g>
   <g id="patch_145">
    <path d="M 82.44 376.308 
L 82.44 261.576 
" style="fill:none;stroke:#000000;stroke-linecap:square;stroke-linejoin:miter;stroke-width:1.25;"/>
   </g>
   <g id="patch_146">
    <path d="M 82.44 376.308 
L 416.448 376.308 
" style="fill:none;stroke:#000000;stroke-linecap:square;stroke-linejoin:miter;stroke-width:1.25;"/>
   </g>
  </g>
  <g id="text_40">
   <!-- geopotential500 -->
   <defs>
    <path d="M 9.421875 75.984375 
L 18.40625 75.984375 
L 18.40625 0 
L 9.421875 0 
z
" id="DejaVuSans-108"/>
   </defs>
   <g transform="translate(144.9873 21.7701)scale(0.1728 -0.1728)">
    <use xlink:href="#DejaVuSans-103"/>
    <use x="63.476562" xlink:href="#DejaVuSans-101"/>
    <use x="125" xlink:href="#DejaVuSans-111"/>
    <use x="186.181641" xlink:href="#DejaVuSans-112"/>
    <use x="249.658203" xlink:href="#DejaVuSans-111"/>
    <use x="310.839844" xlink:href="#DejaVuSans-116"/>
    <use x="350.048828" xlink:href="#DejaVuSans-101"/>
    <use x="411.572266" xlink:href="#DejaVuSans-110"/>
    <use x="474.951172" xlink:href="#DejaVuSans-116"/>
    <use x="514.160156" xlink:href="#DejaVuSans-105"/>
    <use x="541.943359" xlink:href="#DejaVuSans-97"/>
    <use x="603.222656" xlink:href="#DejaVuSans-108"/>
    <use x="631.005859" xlink:href="#DejaVuSans-53"/>
    <use x="694.628906" xlink:href="#DejaVuSans-48"/>
    <use x="758.251953" xlink:href="#DejaVuSans-48"/>
   </g>
  </g>
 </g>
 <defs>
  <clipPath id="padc7e9abcf">
   <rect height="114.732" width="334.008" x="82.44" y="91.152"/>
  </clipPath>
  <clipPath id="pa7a49bd8ab">
   <rect height="114.732" width="334.008" x="82.44" y="261.576"/>
  </clipPath>
 </defs>
</svg>
