<?xml version="1.0" encoding="utf-8" standalone="no"?>
<!DOCTYPE svg PUBLIC "-//W3C//DTD SVG 1.1//EN"
  "http://www.w3.org/Graphics/SVG/1.1/DTD/svg11.dtd">
<!-- Created with matplotlib (https://matplotlib.org/) -->
<svg height="432pt" version="1.1" viewBox="0 0 432 432" width="432pt" xmlns="http://www.w3.org/2000/svg" xmlns:xlink="http://www.w3.org/1999/xlink">
 <defs>
  <style type="text/css">
*{stroke-linecap:butt;stroke-linejoin:round;}
  </style>
 </defs>
 <g id="figure_1">
  <g id="patch_1">
   <path d="M 0 432 
L 432 432 
L 432 0 
L 0 0 
z
" style="fill:#ffffff;"/>
  </g>
  <g id="axes_1">
   <g id="patch_2">
    <path d="M 79.74 205.884 
L 416.448 205.884 
L 416.448 91.152 
L 79.74 91.152 
z
" style="fill:#ffffff;"/>
   </g>
   <g id="patch_3">
    <path clip-path="url(#p4be9412acc)" d="M 82.800982 205.884 
L 86.882291 205.884 
L 86.882291 205.884 
L 82.800982 205.884 
z
" style="fill:#176d9c;opacity:0.9;"/>
   </g>
   <g id="patch_4">
    <path clip-path="url(#p4be9412acc)" d="M 113.4108 205.884 
L 117.492109 205.884 
L 117.492109 196.199886 
L 113.4108 196.199886 
z
" style="fill:#176d9c;opacity:0.9;"/>
   </g>
   <g id="patch_5">
    <path clip-path="url(#p4be9412acc)" d="M 144.020618 205.884 
L 148.101927 205.884 
L 148.101927 187.077479 
L 144.020618 187.077479 
z
" style="fill:#176d9c;opacity:0.9;"/>
   </g>
   <g id="patch_6">
    <path clip-path="url(#p4be9412acc)" d="M 174.630436 205.884 
L 178.711745 205.884 
L 178.711745 178.252458 
L 174.630436 178.252458 
z
" style="fill:#176d9c;opacity:0.9;"/>
   </g>
   <g id="patch_7">
    <path clip-path="url(#p4be9412acc)" d="M 205.240255 205.884 
L 209.321564 205.884 
L 209.321564 170.22655 
L 205.240255 170.22655 
z
" style="fill:#176d9c;opacity:0.9;"/>
   </g>
   <g id="patch_8">
    <path clip-path="url(#p4be9412acc)" d="M 235.850073 205.884 
L 239.931382 205.884 
L 239.931382 162.815089 
L 235.850073 162.815089 
z
" style="fill:#176d9c;opacity:0.9;"/>
   </g>
   <g id="patch_9">
    <path clip-path="url(#p4be9412acc)" d="M 266.459891 205.884 
L 270.5412 205.884 
L 270.5412 154.749052 
L 266.459891 154.749052 
z
" style="fill:#176d9c;opacity:0.9;"/>
   </g>
   <g id="patch_10">
    <path clip-path="url(#p4be9412acc)" d="M 297.069709 205.884 
L 301.151018 205.884 
L 301.151018 144.549237 
L 297.069709 144.549237 
z
" style="fill:#176d9c;opacity:0.9;"/>
   </g>
   <g id="patch_11">
    <path clip-path="url(#p4be9412acc)" d="M 327.679527 205.884 
L 331.760836 205.884 
L 331.760836 131.54264 
L 327.679527 131.54264 
z
" style="fill:#176d9c;opacity:0.9;"/>
   </g>
   <g id="patch_12">
    <path clip-path="url(#p4be9412acc)" d="M 358.289345 205.884 
L 362.370655 205.884 
L 362.370655 115.638597 
L 358.289345 115.638597 
z
" style="fill:#176d9c;opacity:0.9;"/>
   </g>
   <g id="patch_13">
    <path clip-path="url(#p4be9412acc)" d="M 388.899164 205.884 
L 392.980473 205.884 
L 392.980473 96.615429 
L 388.899164 96.615429 
z
" style="fill:#176d9c;opacity:0.9;"/>
   </g>
   <g id="patch_14">
    <path clip-path="url(#p4be9412acc)" d="M 86.882291 205.884 
L 90.9636 205.884 
L 90.9636 205.884 
L 86.882291 205.884 
z
" style="fill:#c38820;opacity:0.9;"/>
   </g>
   <g id="patch_15">
    <path clip-path="url(#p4be9412acc)" d="M 117.492109 205.884 
L 121.573418 205.884 
L 121.573418 197.245373 
L 117.492109 197.245373 
z
" style="fill:#c38820;opacity:0.9;"/>
   </g>
   <g id="patch_16">
    <path clip-path="url(#p4be9412acc)" d="M 148.101927 205.884 
L 152.183236 205.884 
L 152.183236 189.212076 
L 148.101927 189.212076 
z
" style="fill:#c38820;opacity:0.9;"/>
   </g>
   <g id="patch_17">
    <path clip-path="url(#p4be9412acc)" d="M 178.711745 205.884 
L 182.793055 205.884 
L 182.793055 181.057546 
L 178.711745 181.057546 
z
" style="fill:#c38820;opacity:0.9;"/>
   </g>
   <g id="patch_18">
    <path clip-path="url(#p4be9412acc)" d="M 209.321564 205.884 
L 213.402873 205.884 
L 213.402873 173.290263 
L 209.321564 173.290263 
z
" style="fill:#c38820;opacity:0.9;"/>
   </g>
   <g id="patch_19">
    <path clip-path="url(#p4be9412acc)" d="M 239.931382 205.884 
L 244.012691 205.884 
L 244.012691 166.507622 
L 239.931382 166.507622 
z
" style="fill:#c38820;opacity:0.9;"/>
   </g>
   <g id="patch_20">
    <path clip-path="url(#p4be9412acc)" d="M 270.5412 205.884 
L 274.622509 205.884 
L 274.622509 160.972203 
L 270.5412 160.972203 
z
" style="fill:#c38820;opacity:0.9;"/>
   </g>
   <g id="patch_21">
    <path clip-path="url(#p4be9412acc)" d="M 301.151018 205.884 
L 305.232327 205.884 
L 305.232327 156.607395 
L 301.151018 156.607395 
z
" style="fill:#c38820;opacity:0.9;"/>
   </g>
   <g id="patch_22">
    <path clip-path="url(#p4be9412acc)" d="M 331.760836 205.884 
L 335.842145 205.884 
L 335.842145 153.237926 
L 331.760836 153.237926 
z
" style="fill:#c38820;opacity:0.9;"/>
   </g>
   <g id="patch_23">
    <path clip-path="url(#p4be9412acc)" d="M 362.370655 205.884 
L 366.451964 205.884 
L 366.451964 150.605982 
L 362.370655 150.605982 
z
" style="fill:#c38820;opacity:0.9;"/>
   </g>
   <g id="patch_24">
    <path clip-path="url(#p4be9412acc)" d="M 392.980473 205.884 
L 397.061782 205.884 
L 397.061782 148.535353 
L 392.980473 148.535353 
z
" style="fill:#c38820;opacity:0.9;"/>
   </g>
   <g id="patch_25">
    <path clip-path="url(#p4be9412acc)" d="M 90.9636 205.884 
L 95.044909 205.884 
L 95.044909 205.884 
L 90.9636 205.884 
z
" style="fill:#158b6a;opacity:0.9;"/>
   </g>
   <g id="patch_26">
    <path clip-path="url(#p4be9412acc)" d="M 121.573418 205.884 
L 125.654727 205.884 
L 125.654727 196.570986 
L 121.573418 196.570986 
z
" style="fill:#158b6a;opacity:0.9;"/>
   </g>
   <g id="patch_27">
    <path clip-path="url(#p4be9412acc)" d="M 152.183236 205.884 
L 156.264545 205.884 
L 156.264545 187.832467 
L 152.183236 187.832467 
z
" style="fill:#158b6a;opacity:0.9;"/>
   </g>
   <g id="patch_28">
    <path clip-path="url(#p4be9412acc)" d="M 182.793055 205.884 
L 186.874364 205.884 
L 186.874364 179.451434 
L 182.793055 179.451434 
z
" style="fill:#158b6a;opacity:0.9;"/>
   </g>
   <g id="patch_29">
    <path clip-path="url(#p4be9412acc)" d="M 213.402873 205.884 
L 217.484182 205.884 
L 217.484182 172.01707 
L 213.402873 172.01707 
z
" style="fill:#158b6a;opacity:0.9;"/>
   </g>
   <g id="patch_30">
    <path clip-path="url(#p4be9412acc)" d="M 244.012691 205.884 
L 248.094 205.884 
L 248.094 165.882315 
L 244.012691 165.882315 
z
" style="fill:#158b6a;opacity:0.9;"/>
   </g>
   <g id="patch_31">
    <path clip-path="url(#p4be9412acc)" d="M 274.622509 205.884 
L 278.703818 205.884 
L 278.703818 161.041555 
L 274.622509 161.041555 
z
" style="fill:#158b6a;opacity:0.9;"/>
   </g>
   <g id="patch_32">
    <path clip-path="url(#p4be9412acc)" d="M 305.232327 205.884 
L 309.313636 205.884 
L 309.313636 157.336742 
L 305.232327 157.336742 
z
" style="fill:#158b6a;opacity:0.9;"/>
   </g>
   <g id="patch_33">
    <path clip-path="url(#p4be9412acc)" d="M 335.842145 205.884 
L 339.923455 205.884 
L 339.923455 154.553706 
L 335.842145 154.553706 
z
" style="fill:#158b6a;opacity:0.9;"/>
   </g>
   <g id="patch_34">
    <path clip-path="url(#p4be9412acc)" d="M 366.451964 205.884 
L 370.533273 205.884 
L 370.533273 152.394252 
L 366.451964 152.394252 
z
" style="fill:#158b6a;opacity:0.9;"/>
   </g>
   <g id="patch_35">
    <path clip-path="url(#p4be9412acc)" d="M 397.061782 205.884 
L 401.143091 205.884 
L 401.143091 150.607055 
L 397.061782 150.607055 
z
" style="fill:#158b6a;opacity:0.9;"/>
   </g>
   <g id="patch_36">
    <path clip-path="url(#p4be9412acc)" d="M 95.044909 205.884 
L 99.126218 205.884 
L 99.126218 205.884 
L 95.044909 205.884 
z
" style="fill:#ba611b;opacity:0.9;"/>
   </g>
   <g id="patch_37">
    <path clip-path="url(#p4be9412acc)" d="M 125.654727 205.884 
L 129.736036 205.884 
L 129.736036 197.123012 
L 125.654727 197.123012 
z
" style="fill:#ba611b;opacity:0.9;"/>
   </g>
   <g id="patch_38">
    <path clip-path="url(#p4be9412acc)" d="M 156.264545 205.884 
L 160.345855 205.884 
L 160.345855 188.959961 
L 156.264545 188.959961 
z
" style="fill:#ba611b;opacity:0.9;"/>
   </g>
   <g id="patch_39">
    <path clip-path="url(#p4be9412acc)" d="M 186.874364 205.884 
L 190.955673 205.884 
L 190.955673 180.812941 
L 186.874364 180.812941 
z
" style="fill:#ba611b;opacity:0.9;"/>
   </g>
   <g id="patch_40">
    <path clip-path="url(#p4be9412acc)" d="M 217.484182 205.884 
L 221.565491 205.884 
L 221.565491 173.276942 
L 217.484182 173.276942 
z
" style="fill:#ba611b;opacity:0.9;"/>
   </g>
   <g id="patch_41">
    <path clip-path="url(#p4be9412acc)" d="M 248.094 205.884 
L 252.175309 205.884 
L 252.175309 166.805909 
L 248.094 166.805909 
z
" style="fill:#ba611b;opacity:0.9;"/>
   </g>
   <g id="patch_42">
    <path clip-path="url(#p4be9412acc)" d="M 278.703818 205.884 
L 282.785127 205.884 
L 282.785127 161.483124 
L 278.703818 161.483124 
z
" style="fill:#ba611b;opacity:0.9;"/>
   </g>
   <g id="patch_43">
    <path clip-path="url(#p4be9412acc)" d="M 309.313636 205.884 
L 313.394945 205.884 
L 313.394945 157.265685 
L 309.313636 157.265685 
z
" style="fill:#ba611b;opacity:0.9;"/>
   </g>
   <g id="patch_44">
    <path clip-path="url(#p4be9412acc)" d="M 339.923455 205.884 
L 344.004764 205.884 
L 344.004764 154.005587 
L 339.923455 154.005587 
z
" style="fill:#ba611b;opacity:0.9;"/>
   </g>
   <g id="patch_45">
    <path clip-path="url(#p4be9412acc)" d="M 370.533273 205.884 
L 374.614582 205.884 
L 374.614582 151.41224 
L 370.533273 151.41224 
z
" style="fill:#ba611b;opacity:0.9;"/>
   </g>
   <g id="patch_46">
    <path clip-path="url(#p4be9412acc)" d="M 401.143091 205.884 
L 405.2244 205.884 
L 405.2244 149.1941 
L 401.143091 149.1941 
z
" style="fill:#ba611b;opacity:0.9;"/>
   </g>
   <g id="patch_47">
    <path clip-path="url(#p4be9412acc)" d="M 99.126218 205.884 
L 103.207527 205.884 
L 103.207527 205.884 
L 99.126218 205.884 
z
" style="fill:#c282b5;opacity:0.9;"/>
   </g>
   <g id="patch_48">
    <path clip-path="url(#p4be9412acc)" d="M 129.736036 205.884 
L 133.817345 205.884 
L 133.817345 197.921054 
L 129.736036 197.921054 
z
" style="fill:#c282b5;opacity:0.9;"/>
   </g>
   <g id="patch_49">
    <path clip-path="url(#p4be9412acc)" d="M 160.345855 205.884 
L 164.427164 205.884 
L 164.427164 190.468126 
L 160.345855 190.468126 
z
" style="fill:#c282b5;opacity:0.9;"/>
   </g>
   <g id="patch_50">
    <path clip-path="url(#p4be9412acc)" d="M 190.955673 205.884 
L 195.036982 205.884 
L 195.036982 182.667755 
L 190.955673 182.667755 
z
" style="fill:#c282b5;opacity:0.9;"/>
   </g>
   <g id="patch_51">
    <path clip-path="url(#p4be9412acc)" d="M 221.565491 205.884 
L 225.6468 205.884 
L 225.6468 175.087504 
L 221.565491 175.087504 
z
" style="fill:#c282b5;opacity:0.9;"/>
   </g>
   <g id="patch_52">
    <path clip-path="url(#p4be9412acc)" d="M 252.175309 205.884 
L 256.256618 205.884 
L 256.256618 168.3473 
L 252.175309 168.3473 
z
" style="fill:#c282b5;opacity:0.9;"/>
   </g>
   <g id="patch_53">
    <path clip-path="url(#p4be9412acc)" d="M 282.785127 205.884 
L 286.866436 205.884 
L 286.866436 162.731011 
L 282.785127 162.731011 
z
" style="fill:#c282b5;opacity:0.9;"/>
   </g>
   <g id="patch_54">
    <path clip-path="url(#p4be9412acc)" d="M 313.394945 205.884 
L 317.476255 205.884 
L 317.476255 158.278658 
L 313.394945 158.278658 
z
" style="fill:#c282b5;opacity:0.9;"/>
   </g>
   <g id="patch_55">
    <path clip-path="url(#p4be9412acc)" d="M 344.004764 205.884 
L 348.086073 205.884 
L 348.086073 154.851629 
L 344.004764 154.851629 
z
" style="fill:#c282b5;opacity:0.9;"/>
   </g>
   <g id="patch_56">
    <path clip-path="url(#p4be9412acc)" d="M 374.614582 205.884 
L 378.695891 205.884 
L 378.695891 152.206593 
L 374.614582 152.206593 
z
" style="fill:#c282b5;opacity:0.9;"/>
   </g>
   <g id="patch_57">
    <path clip-path="url(#p4be9412acc)" d="M 405.2244 205.884 
L 409.305709 205.884 
L 409.305709 150.194457 
L 405.2244 150.194457 
z
" style="fill:#c282b5;opacity:0.9;"/>
   </g>
   <g id="patch_58">
    <path clip-path="url(#p4be9412acc)" d="M 103.207527 205.884 
L 107.288836 205.884 
L 107.288836 205.884 
L 103.207527 205.884 
z
" style="fill:#bd926e;opacity:0.9;"/>
   </g>
   <g id="patch_59">
    <path clip-path="url(#p4be9412acc)" d="M 133.817345 205.884 
L 137.898655 205.884 
L 137.898655 198.647676 
L 133.817345 198.647676 
z
" style="fill:#bd926e;opacity:0.9;"/>
   </g>
   <g id="patch_60">
    <path clip-path="url(#p4be9412acc)" d="M 164.427164 205.884 
L 168.508473 205.884 
L 168.508473 191.991875 
L 164.427164 191.991875 
z
" style="fill:#bd926e;opacity:0.9;"/>
   </g>
   <g id="patch_61">
    <path clip-path="url(#p4be9412acc)" d="M 195.036982 205.884 
L 199.118291 205.884 
L 199.118291 184.718826 
L 195.036982 184.718826 
z
" style="fill:#bd926e;opacity:0.9;"/>
   </g>
   <g id="patch_62">
    <path clip-path="url(#p4be9412acc)" d="M 225.6468 205.884 
L 229.728109 205.884 
L 229.728109 177.305669 
L 225.6468 177.305669 
z
" style="fill:#bd926e;opacity:0.9;"/>
   </g>
   <g id="patch_63">
    <path clip-path="url(#p4be9412acc)" d="M 256.256618 205.884 
L 260.337927 205.884 
L 260.337927 170.426507 
L 256.256618 170.426507 
z
" style="fill:#bd926e;opacity:0.9;"/>
   </g>
   <g id="patch_64">
    <path clip-path="url(#p4be9412acc)" d="M 286.866436 205.884 
L 290.947745 205.884 
L 290.947745 164.549137 
L 286.866436 164.549137 
z
" style="fill:#bd926e;opacity:0.9;"/>
   </g>
   <g id="patch_65">
    <path clip-path="url(#p4be9412acc)" d="M 317.476255 205.884 
L 321.557564 205.884 
L 321.557564 159.811621 
L 317.476255 159.811621 
z
" style="fill:#bd926e;opacity:0.9;"/>
   </g>
   <g id="patch_66">
    <path clip-path="url(#p4be9412acc)" d="M 348.086073 205.884 
L 352.167382 205.884 
L 352.167382 156.148289 
L 348.086073 156.148289 
z
" style="fill:#bd926e;opacity:0.9;"/>
   </g>
   <g id="patch_67">
    <path clip-path="url(#p4be9412acc)" d="M 378.695891 205.884 
L 382.7772 205.884 
L 382.7772 153.336188 
L 378.695891 153.336188 
z
" style="fill:#bd926e;opacity:0.9;"/>
   </g>
   <g id="patch_68">
    <path clip-path="url(#p4be9412acc)" d="M 409.305709 205.884 
L 413.387018 205.884 
L 413.387018 151.185841 
L 409.305709 151.185841 
z
" style="fill:#bd926e;opacity:0.9;"/>
   </g>
   <g id="matplotlib.axis_1">
    <g id="xtick_1">
     <g id="line2d_1">
      <defs>
       <path d="M 0 0 
L 0 6 
" id="md7abb09ea9" style="stroke:#000000;stroke-width:1.25;"/>
      </defs>
      <g>
       <use style="stroke:#000000;stroke-width:1.25;" x="95.044909" xlink:href="#md7abb09ea9" y="205.884"/>
      </g>
     </g>
     <g id="text_1">
      <!-- 0 -->
      <defs>
       <path d="M 31.78125 66.40625 
Q 24.171875 66.40625 20.328125 58.90625 
Q 16.5 51.421875 16.5 36.375 
Q 16.5 21.390625 20.328125 13.890625 
Q 24.171875 6.390625 31.78125 6.390625 
Q 39.453125 6.390625 43.28125 13.890625 
Q 47.125 21.390625 47.125 36.375 
Q 47.125 51.421875 43.28125 58.90625 
Q 39.453125 66.40625 31.78125 66.40625 
z
M 31.78125 74.21875 
Q 44.046875 74.21875 50.515625 64.515625 
Q 56.984375 54.828125 56.984375 36.375 
Q 56.984375 17.96875 50.515625 8.265625 
Q 44.046875 -1.421875 31.78125 -1.421875 
Q 19.53125 -1.421875 13.0625 8.265625 
Q 6.59375 17.96875 6.59375 36.375 
Q 6.59375 54.828125 13.0625 64.515625 
Q 19.53125 74.21875 31.78125 74.21875 
z
" id="DejaVuSans-48"/>
      </defs>
      <g transform="translate(90.845659 225.413938)scale(0.132 -0.132)">
       <use xlink:href="#DejaVuSans-48"/>
      </g>
     </g>
    </g>
    <g id="xtick_2">
     <g id="line2d_2">
      <g>
       <use style="stroke:#000000;stroke-width:1.25;" x="125.654727" xlink:href="#md7abb09ea9" y="205.884"/>
      </g>
     </g>
     <g id="text_2">
      <!-- 1 -->
      <defs>
       <path d="M 12.40625 8.296875 
L 28.515625 8.296875 
L 28.515625 63.921875 
L 10.984375 60.40625 
L 10.984375 69.390625 
L 28.421875 72.90625 
L 38.28125 72.90625 
L 38.28125 8.296875 
L 54.390625 8.296875 
L 54.390625 0 
L 12.40625 0 
z
" id="DejaVuSans-49"/>
      </defs>
      <g transform="translate(121.455477 225.413938)scale(0.132 -0.132)">
       <use xlink:href="#DejaVuSans-49"/>
      </g>
     </g>
    </g>
    <g id="xtick_3">
     <g id="line2d_3">
      <g>
       <use style="stroke:#000000;stroke-width:1.25;" x="156.264545" xlink:href="#md7abb09ea9" y="205.884"/>
      </g>
     </g>
     <g id="text_3">
      <!-- 2 -->
      <defs>
       <path d="M 19.1875 8.296875 
L 53.609375 8.296875 
L 53.609375 0 
L 7.328125 0 
L 7.328125 8.296875 
Q 12.9375 14.109375 22.625 23.890625 
Q 32.328125 33.6875 34.8125 36.53125 
Q 39.546875 41.84375 41.421875 45.53125 
Q 43.3125 49.21875 43.3125 52.78125 
Q 43.3125 58.59375 39.234375 62.25 
Q 35.15625 65.921875 28.609375 65.921875 
Q 23.96875 65.921875 18.8125 64.3125 
Q 13.671875 62.703125 7.8125 59.421875 
L 7.8125 69.390625 
Q 13.765625 71.78125 18.9375 73 
Q 24.125 74.21875 28.421875 74.21875 
Q 39.75 74.21875 46.484375 68.546875 
Q 53.21875 62.890625 53.21875 53.421875 
Q 53.21875 48.921875 51.53125 44.890625 
Q 49.859375 40.875 45.40625 35.40625 
Q 44.1875 33.984375 37.640625 27.21875 
Q 31.109375 20.453125 19.1875 8.296875 
z
" id="DejaVuSans-50"/>
      </defs>
      <g transform="translate(152.065295 225.413938)scale(0.132 -0.132)">
       <use xlink:href="#DejaVuSans-50"/>
      </g>
     </g>
    </g>
    <g id="xtick_4">
     <g id="line2d_4">
      <g>
       <use style="stroke:#000000;stroke-width:1.25;" x="186.874364" xlink:href="#md7abb09ea9" y="205.884"/>
      </g>
     </g>
     <g id="text_4">
      <!-- 3 -->
      <defs>
       <path d="M 40.578125 39.3125 
Q 47.65625 37.796875 51.625 33 
Q 55.609375 28.21875 55.609375 21.1875 
Q 55.609375 10.40625 48.1875 4.484375 
Q 40.765625 -1.421875 27.09375 -1.421875 
Q 22.515625 -1.421875 17.65625 -0.515625 
Q 12.796875 0.390625 7.625 2.203125 
L 7.625 11.71875 
Q 11.71875 9.328125 16.59375 8.109375 
Q 21.484375 6.890625 26.8125 6.890625 
Q 36.078125 6.890625 40.9375 10.546875 
Q 45.796875 14.203125 45.796875 21.1875 
Q 45.796875 27.640625 41.28125 31.265625 
Q 36.765625 34.90625 28.71875 34.90625 
L 20.21875 34.90625 
L 20.21875 43.015625 
L 29.109375 43.015625 
Q 36.375 43.015625 40.234375 45.921875 
Q 44.09375 48.828125 44.09375 54.296875 
Q 44.09375 59.90625 40.109375 62.90625 
Q 36.140625 65.921875 28.71875 65.921875 
Q 24.65625 65.921875 20.015625 65.03125 
Q 15.375 64.15625 9.8125 62.3125 
L 9.8125 71.09375 
Q 15.4375 72.65625 20.34375 73.4375 
Q 25.25 74.21875 29.59375 74.21875 
Q 40.828125 74.21875 47.359375 69.109375 
Q 53.90625 64.015625 53.90625 55.328125 
Q 53.90625 49.265625 50.4375 45.09375 
Q 46.96875 40.921875 40.578125 39.3125 
z
" id="DejaVuSans-51"/>
      </defs>
      <g transform="translate(182.675114 225.413938)scale(0.132 -0.132)">
       <use xlink:href="#DejaVuSans-51"/>
      </g>
     </g>
    </g>
    <g id="xtick_5">
     <g id="line2d_5">
      <g>
       <use style="stroke:#000000;stroke-width:1.25;" x="217.484182" xlink:href="#md7abb09ea9" y="205.884"/>
      </g>
     </g>
     <g id="text_5">
      <!-- 4 -->
      <defs>
       <path d="M 37.796875 64.3125 
L 12.890625 25.390625 
L 37.796875 25.390625 
z
M 35.203125 72.90625 
L 47.609375 72.90625 
L 47.609375 25.390625 
L 58.015625 25.390625 
L 58.015625 17.1875 
L 47.609375 17.1875 
L 47.609375 0 
L 37.796875 0 
L 37.796875 17.1875 
L 4.890625 17.1875 
L 4.890625 26.703125 
z
" id="DejaVuSans-52"/>
      </defs>
      <g transform="translate(213.284932 225.413938)scale(0.132 -0.132)">
       <use xlink:href="#DejaVuSans-52"/>
      </g>
     </g>
    </g>
    <g id="xtick_6">
     <g id="line2d_6">
      <g>
       <use style="stroke:#000000;stroke-width:1.25;" x="248.094" xlink:href="#md7abb09ea9" y="205.884"/>
      </g>
     </g>
     <g id="text_6">
      <!-- 5 -->
      <defs>
       <path d="M 10.796875 72.90625 
L 49.515625 72.90625 
L 49.515625 64.59375 
L 19.828125 64.59375 
L 19.828125 46.734375 
Q 21.96875 47.46875 24.109375 47.828125 
Q 26.265625 48.1875 28.421875 48.1875 
Q 40.625 48.1875 47.75 41.5 
Q 54.890625 34.8125 54.890625 23.390625 
Q 54.890625 11.625 47.5625 5.09375 
Q 40.234375 -1.421875 26.90625 -1.421875 
Q 22.3125 -1.421875 17.546875 -0.640625 
Q 12.796875 0.140625 7.71875 1.703125 
L 7.71875 11.625 
Q 12.109375 9.234375 16.796875 8.0625 
Q 21.484375 6.890625 26.703125 6.890625 
Q 35.15625 6.890625 40.078125 11.328125 
Q 45.015625 15.765625 45.015625 23.390625 
Q 45.015625 31 40.078125 35.4375 
Q 35.15625 39.890625 26.703125 39.890625 
Q 22.75 39.890625 18.8125 39.015625 
Q 14.890625 38.140625 10.796875 36.28125 
z
" id="DejaVuSans-53"/>
      </defs>
      <g transform="translate(243.89475 225.413938)scale(0.132 -0.132)">
       <use xlink:href="#DejaVuSans-53"/>
      </g>
     </g>
    </g>
    <g id="xtick_7">
     <g id="line2d_7">
      <g>
       <use style="stroke:#000000;stroke-width:1.25;" x="278.703818" xlink:href="#md7abb09ea9" y="205.884"/>
      </g>
     </g>
     <g id="text_7">
      <!-- 6 -->
      <defs>
       <path d="M 33.015625 40.375 
Q 26.375 40.375 22.484375 35.828125 
Q 18.609375 31.296875 18.609375 23.390625 
Q 18.609375 15.53125 22.484375 10.953125 
Q 26.375 6.390625 33.015625 6.390625 
Q 39.65625 6.390625 43.53125 10.953125 
Q 47.40625 15.53125 47.40625 23.390625 
Q 47.40625 31.296875 43.53125 35.828125 
Q 39.65625 40.375 33.015625 40.375 
z
M 52.59375 71.296875 
L 52.59375 62.3125 
Q 48.875 64.0625 45.09375 64.984375 
Q 41.3125 65.921875 37.59375 65.921875 
Q 27.828125 65.921875 22.671875 59.328125 
Q 17.53125 52.734375 16.796875 39.40625 
Q 19.671875 43.65625 24.015625 45.921875 
Q 28.375 48.1875 33.59375 48.1875 
Q 44.578125 48.1875 50.953125 41.515625 
Q 57.328125 34.859375 57.328125 23.390625 
Q 57.328125 12.15625 50.6875 5.359375 
Q 44.046875 -1.421875 33.015625 -1.421875 
Q 20.359375 -1.421875 13.671875 8.265625 
Q 6.984375 17.96875 6.984375 36.375 
Q 6.984375 53.65625 15.1875 63.9375 
Q 23.390625 74.21875 37.203125 74.21875 
Q 40.921875 74.21875 44.703125 73.484375 
Q 48.484375 72.75 52.59375 71.296875 
z
" id="DejaVuSans-54"/>
      </defs>
      <g transform="translate(274.504568 225.413938)scale(0.132 -0.132)">
       <use xlink:href="#DejaVuSans-54"/>
      </g>
     </g>
    </g>
    <g id="xtick_8">
     <g id="line2d_8">
      <g>
       <use style="stroke:#000000;stroke-width:1.25;" x="309.313636" xlink:href="#md7abb09ea9" y="205.884"/>
      </g>
     </g>
     <g id="text_8">
      <!-- 7 -->
      <defs>
       <path d="M 8.203125 72.90625 
L 55.078125 72.90625 
L 55.078125 68.703125 
L 28.609375 0 
L 18.3125 0 
L 43.21875 64.59375 
L 8.203125 64.59375 
z
" id="DejaVuSans-55"/>
      </defs>
      <g transform="translate(305.114386 225.413938)scale(0.132 -0.132)">
       <use xlink:href="#DejaVuSans-55"/>
      </g>
     </g>
    </g>
    <g id="xtick_9">
     <g id="line2d_9">
      <g>
       <use style="stroke:#000000;stroke-width:1.25;" x="339.923455" xlink:href="#md7abb09ea9" y="205.884"/>
      </g>
     </g>
     <g id="text_9">
      <!-- 8 -->
      <defs>
       <path d="M 31.78125 34.625 
Q 24.75 34.625 20.71875 30.859375 
Q 16.703125 27.09375 16.703125 20.515625 
Q 16.703125 13.921875 20.71875 10.15625 
Q 24.75 6.390625 31.78125 6.390625 
Q 38.8125 6.390625 42.859375 10.171875 
Q 46.921875 13.96875 46.921875 20.515625 
Q 46.921875 27.09375 42.890625 30.859375 
Q 38.875 34.625 31.78125 34.625 
z
M 21.921875 38.8125 
Q 15.578125 40.375 12.03125 44.71875 
Q 8.5 49.078125 8.5 55.328125 
Q 8.5 64.0625 14.71875 69.140625 
Q 20.953125 74.21875 31.78125 74.21875 
Q 42.671875 74.21875 48.875 69.140625 
Q 55.078125 64.0625 55.078125 55.328125 
Q 55.078125 49.078125 51.53125 44.71875 
Q 48 40.375 41.703125 38.8125 
Q 48.828125 37.15625 52.796875 32.3125 
Q 56.78125 27.484375 56.78125 20.515625 
Q 56.78125 9.90625 50.3125 4.234375 
Q 43.84375 -1.421875 31.78125 -1.421875 
Q 19.734375 -1.421875 13.25 4.234375 
Q 6.78125 9.90625 6.78125 20.515625 
Q 6.78125 27.484375 10.78125 32.3125 
Q 14.796875 37.15625 21.921875 38.8125 
z
M 18.3125 54.390625 
Q 18.3125 48.734375 21.84375 45.5625 
Q 25.390625 42.390625 31.78125 42.390625 
Q 38.140625 42.390625 41.71875 45.5625 
Q 45.3125 48.734375 45.3125 54.390625 
Q 45.3125 60.0625 41.71875 63.234375 
Q 38.140625 66.40625 31.78125 66.40625 
Q 25.390625 66.40625 21.84375 63.234375 
Q 18.3125 60.0625 18.3125 54.390625 
z
" id="DejaVuSans-56"/>
      </defs>
      <g transform="translate(335.724205 225.413938)scale(0.132 -0.132)">
       <use xlink:href="#DejaVuSans-56"/>
      </g>
     </g>
    </g>
    <g id="xtick_10">
     <g id="line2d_10">
      <g>
       <use style="stroke:#000000;stroke-width:1.25;" x="370.533273" xlink:href="#md7abb09ea9" y="205.884"/>
      </g>
     </g>
     <g id="text_10">
      <!-- 9 -->
      <defs>
       <path d="M 10.984375 1.515625 
L 10.984375 10.5 
Q 14.703125 8.734375 18.5 7.8125 
Q 22.3125 6.890625 25.984375 6.890625 
Q 35.75 6.890625 40.890625 13.453125 
Q 46.046875 20.015625 46.78125 33.40625 
Q 43.953125 29.203125 39.59375 26.953125 
Q 35.25 24.703125 29.984375 24.703125 
Q 19.046875 24.703125 12.671875 31.3125 
Q 6.296875 37.9375 6.296875 49.421875 
Q 6.296875 60.640625 12.9375 67.421875 
Q 19.578125 74.21875 30.609375 74.21875 
Q 43.265625 74.21875 49.921875 64.515625 
Q 56.59375 54.828125 56.59375 36.375 
Q 56.59375 19.140625 48.40625 8.859375 
Q 40.234375 -1.421875 26.421875 -1.421875 
Q 22.703125 -1.421875 18.890625 -0.6875 
Q 15.09375 0.046875 10.984375 1.515625 
z
M 30.609375 32.421875 
Q 37.25 32.421875 41.125 36.953125 
Q 45.015625 41.5 45.015625 49.421875 
Q 45.015625 57.28125 41.125 61.84375 
Q 37.25 66.40625 30.609375 66.40625 
Q 23.96875 66.40625 20.09375 61.84375 
Q 16.21875 57.28125 16.21875 49.421875 
Q 16.21875 41.5 20.09375 36.953125 
Q 23.96875 32.421875 30.609375 32.421875 
z
" id="DejaVuSans-57"/>
      </defs>
      <g transform="translate(366.334023 225.413938)scale(0.132 -0.132)">
       <use xlink:href="#DejaVuSans-57"/>
      </g>
     </g>
    </g>
    <g id="xtick_11">
     <g id="line2d_11">
      <g>
       <use style="stroke:#000000;stroke-width:1.25;" x="401.143091" xlink:href="#md7abb09ea9" y="205.884"/>
      </g>
     </g>
     <g id="text_11">
      <!-- 10 -->
      <g transform="translate(392.744591 225.413938)scale(0.132 -0.132)">
       <use xlink:href="#DejaVuSans-49"/>
       <use x="63.623047" xlink:href="#DejaVuSans-48"/>
      </g>
     </g>
    </g>
    <g id="text_12">
     <!-- fcday -->
     <defs>
      <path d="M 37.109375 75.984375 
L 37.109375 68.5 
L 28.515625 68.5 
Q 23.6875 68.5 21.796875 66.546875 
Q 19.921875 64.59375 19.921875 59.515625 
L 19.921875 54.6875 
L 34.71875 54.6875 
L 34.71875 47.703125 
L 19.921875 47.703125 
L 19.921875 0 
L 10.890625 0 
L 10.890625 47.703125 
L 2.296875 47.703125 
L 2.296875 54.6875 
L 10.890625 54.6875 
L 10.890625 58.5 
Q 10.890625 67.625 15.140625 71.796875 
Q 19.390625 75.984375 28.609375 75.984375 
z
" id="DejaVuSans-102"/>
      <path d="M 48.78125 52.59375 
L 48.78125 44.1875 
Q 44.96875 46.296875 41.140625 47.34375 
Q 37.3125 48.390625 33.40625 48.390625 
Q 24.65625 48.390625 19.8125 42.84375 
Q 14.984375 37.3125 14.984375 27.296875 
Q 14.984375 17.28125 19.8125 11.734375 
Q 24.65625 6.203125 33.40625 6.203125 
Q 37.3125 6.203125 41.140625 7.25 
Q 44.96875 8.296875 48.78125 10.40625 
L 48.78125 2.09375 
Q 45.015625 0.34375 40.984375 -0.53125 
Q 36.96875 -1.421875 32.421875 -1.421875 
Q 20.0625 -1.421875 12.78125 6.34375 
Q 5.515625 14.109375 5.515625 27.296875 
Q 5.515625 40.671875 12.859375 48.328125 
Q 20.21875 56 33.015625 56 
Q 37.15625 56 41.109375 55.140625 
Q 45.0625 54.296875 48.78125 52.59375 
z
" id="DejaVuSans-99"/>
      <path d="M 45.40625 46.390625 
L 45.40625 75.984375 
L 54.390625 75.984375 
L 54.390625 0 
L 45.40625 0 
L 45.40625 8.203125 
Q 42.578125 3.328125 38.25 0.953125 
Q 33.9375 -1.421875 27.875 -1.421875 
Q 17.96875 -1.421875 11.734375 6.484375 
Q 5.515625 14.40625 5.515625 27.296875 
Q 5.515625 40.1875 11.734375 48.09375 
Q 17.96875 56 27.875 56 
Q 33.9375 56 38.25 53.625 
Q 42.578125 51.265625 45.40625 46.390625 
z
M 14.796875 27.296875 
Q 14.796875 17.390625 18.875 11.75 
Q 22.953125 6.109375 30.078125 6.109375 
Q 37.203125 6.109375 41.296875 11.75 
Q 45.40625 17.390625 45.40625 27.296875 
Q 45.40625 37.203125 41.296875 42.84375 
Q 37.203125 48.484375 30.078125 48.484375 
Q 22.953125 48.484375 18.875 42.84375 
Q 14.796875 37.203125 14.796875 27.296875 
z
" id="DejaVuSans-100"/>
      <path d="M 34.28125 27.484375 
Q 23.390625 27.484375 19.1875 25 
Q 14.984375 22.515625 14.984375 16.5 
Q 14.984375 11.71875 18.140625 8.90625 
Q 21.296875 6.109375 26.703125 6.109375 
Q 34.1875 6.109375 38.703125 11.40625 
Q 43.21875 16.703125 43.21875 25.484375 
L 43.21875 27.484375 
z
M 52.203125 31.203125 
L 52.203125 0 
L 43.21875 0 
L 43.21875 8.296875 
Q 40.140625 3.328125 35.546875 0.953125 
Q 30.953125 -1.421875 24.3125 -1.421875 
Q 15.921875 -1.421875 10.953125 3.296875 
Q 6 8.015625 6 15.921875 
Q 6 25.140625 12.171875 29.828125 
Q 18.359375 34.515625 30.609375 34.515625 
L 43.21875 34.515625 
L 43.21875 35.40625 
Q 43.21875 41.609375 39.140625 45 
Q 35.0625 48.390625 27.6875 48.390625 
Q 23 48.390625 18.546875 47.265625 
Q 14.109375 46.140625 10.015625 43.890625 
L 10.015625 52.203125 
Q 14.9375 54.109375 19.578125 55.046875 
Q 24.21875 56 28.609375 56 
Q 40.484375 56 46.34375 49.84375 
Q 52.203125 43.703125 52.203125 31.203125 
z
" id="DejaVuSans-97"/>
      <path d="M 32.171875 -5.078125 
Q 28.375 -14.84375 24.75 -17.8125 
Q 21.140625 -20.796875 15.09375 -20.796875 
L 7.90625 -20.796875 
L 7.90625 -13.28125 
L 13.1875 -13.28125 
Q 16.890625 -13.28125 18.9375 -11.515625 
Q 21 -9.765625 23.484375 -3.21875 
L 25.09375 0.875 
L 2.984375 54.6875 
L 12.5 54.6875 
L 29.59375 11.921875 
L 46.6875 54.6875 
L 56.203125 54.6875 
z
" id="DejaVuSans-121"/>
     </defs>
     <g transform="translate(228.355875 243.100875)scale(0.144 -0.144)">
      <use xlink:href="#DejaVuSans-102"/>
      <use x="35.205078" xlink:href="#DejaVuSans-99"/>
      <use x="90.185547" xlink:href="#DejaVuSans-100"/>
      <use x="153.662109" xlink:href="#DejaVuSans-97"/>
      <use x="214.941406" xlink:href="#DejaVuSans-121"/>
     </g>
    </g>
   </g>
   <g id="matplotlib.axis_2">
    <g id="ytick_1">
     <g id="line2d_12">
      <defs>
       <path d="M 0 0 
L -6 0 
" id="m7dbbd69c0f" style="stroke:#000000;stroke-width:1.25;"/>
      </defs>
      <g>
       <use style="stroke:#000000;stroke-width:1.25;" x="79.74" xlink:href="#m7dbbd69c0f" y="205.884"/>
      </g>
     </g>
     <g id="text_13">
      <!-- 0 -->
      <g transform="translate(61.8415 210.898969)scale(0.132 -0.132)">
       <use xlink:href="#DejaVuSans-48"/>
      </g>
     </g>
    </g>
    <g id="ytick_2">
     <g id="line2d_13">
      <g>
       <use style="stroke:#000000;stroke-width:1.25;" x="79.74" xlink:href="#m7dbbd69c0f" y="154.912756"/>
      </g>
     </g>
     <g id="text_14">
      <!-- 1000 -->
      <g transform="translate(36.646 159.927725)scale(0.132 -0.132)">
       <use xlink:href="#DejaVuSans-49"/>
       <use x="63.623047" xlink:href="#DejaVuSans-48"/>
       <use x="127.246094" xlink:href="#DejaVuSans-48"/>
       <use x="190.869141" xlink:href="#DejaVuSans-48"/>
      </g>
     </g>
    </g>
    <g id="ytick_3">
     <g id="line2d_14">
      <g>
       <use style="stroke:#000000;stroke-width:1.25;" x="79.74" xlink:href="#m7dbbd69c0f" y="103.941513"/>
      </g>
     </g>
     <g id="text_15">
      <!-- 2000 -->
      <g transform="translate(36.646 108.956482)scale(0.132 -0.132)">
       <use xlink:href="#DejaVuSans-50"/>
       <use x="63.623047" xlink:href="#DejaVuSans-48"/>
       <use x="127.246094" xlink:href="#DejaVuSans-48"/>
       <use x="190.869141" xlink:href="#DejaVuSans-48"/>
      </g>
     </g>
    </g>
    <g id="text_16">
     <!-- RMSE $[m^2/s^2]$ -->
     <defs>
      <path d="M 44.390625 34.1875 
Q 47.5625 33.109375 50.5625 29.59375 
Q 53.5625 26.078125 56.59375 19.921875 
L 66.609375 0 
L 56 0 
L 46.6875 18.703125 
Q 43.0625 26.03125 39.671875 28.421875 
Q 36.28125 30.8125 30.421875 30.8125 
L 19.671875 30.8125 
L 19.671875 0 
L 9.8125 0 
L 9.8125 72.90625 
L 32.078125 72.90625 
Q 44.578125 72.90625 50.734375 67.671875 
Q 56.890625 62.453125 56.890625 51.90625 
Q 56.890625 45.015625 53.6875 40.46875 
Q 50.484375 35.9375 44.390625 34.1875 
z
M 19.671875 64.796875 
L 19.671875 38.921875 
L 32.078125 38.921875 
Q 39.203125 38.921875 42.84375 42.21875 
Q 46.484375 45.515625 46.484375 51.90625 
Q 46.484375 58.296875 42.84375 61.546875 
Q 39.203125 64.796875 32.078125 64.796875 
z
" id="DejaVuSans-82"/>
      <path d="M 9.8125 72.90625 
L 24.515625 72.90625 
L 43.109375 23.296875 
L 61.8125 72.90625 
L 76.515625 72.90625 
L 76.515625 0 
L 66.890625 0 
L 66.890625 64.015625 
L 48.09375 14.015625 
L 38.1875 14.015625 
L 19.390625 64.015625 
L 19.390625 0 
L 9.8125 0 
z
" id="DejaVuSans-77"/>
      <path d="M 53.515625 70.515625 
L 53.515625 60.890625 
Q 47.90625 63.578125 42.921875 64.890625 
Q 37.9375 66.21875 33.296875 66.21875 
Q 25.25 66.21875 20.875 63.09375 
Q 16.5 59.96875 16.5 54.203125 
Q 16.5 49.359375 19.40625 46.890625 
Q 22.3125 44.4375 30.421875 42.921875 
L 36.375 41.703125 
Q 47.40625 39.59375 52.65625 34.296875 
Q 57.90625 29 57.90625 20.125 
Q 57.90625 9.515625 50.796875 4.046875 
Q 43.703125 -1.421875 29.984375 -1.421875 
Q 24.8125 -1.421875 18.96875 -0.25 
Q 13.140625 0.921875 6.890625 3.21875 
L 6.890625 13.375 
Q 12.890625 10.015625 18.65625 8.296875 
Q 24.421875 6.59375 29.984375 6.59375 
Q 38.421875 6.59375 43.015625 9.90625 
Q 47.609375 13.234375 47.609375 19.390625 
Q 47.609375 24.75 44.3125 27.78125 
Q 41.015625 30.8125 33.5 32.328125 
L 27.484375 33.5 
Q 16.453125 35.6875 11.515625 40.375 
Q 6.59375 45.0625 6.59375 53.421875 
Q 6.59375 63.09375 13.40625 68.65625 
Q 20.21875 74.21875 32.171875 74.21875 
Q 37.3125 74.21875 42.625 73.28125 
Q 47.953125 72.359375 53.515625 70.515625 
z
" id="DejaVuSans-83"/>
      <path d="M 9.8125 72.90625 
L 55.90625 72.90625 
L 55.90625 64.59375 
L 19.671875 64.59375 
L 19.671875 43.015625 
L 54.390625 43.015625 
L 54.390625 34.71875 
L 19.671875 34.71875 
L 19.671875 8.296875 
L 56.78125 8.296875 
L 56.78125 0 
L 9.8125 0 
z
" id="DejaVuSans-69"/>
      <path id="DejaVuSans-32"/>
      <path d="M 8.59375 75.984375 
L 29.296875 75.984375 
L 29.296875 69 
L 17.578125 69 
L 17.578125 -6.203125 
L 29.296875 -6.203125 
L 29.296875 -13.1875 
L 8.59375 -13.1875 
z
" id="DejaVuSans-91"/>
      <path d="M 89.796875 33.015625 
L 83.40625 0 
L 74.421875 0 
L 80.71875 32.71875 
Q 81.109375 34.8125 81.296875 36.328125 
Q 81.5 37.84375 81.5 38.921875 
Q 81.5 43.3125 79.046875 45.75 
Q 76.609375 48.1875 72.21875 48.1875 
Q 65.671875 48.1875 60.546875 43.28125 
Q 55.421875 38.375 53.90625 30.515625 
L 47.90625 0 
L 38.921875 0 
L 45.3125 32.71875 
Q 45.703125 34.515625 45.890625 36.046875 
Q 46.09375 37.59375 46.09375 38.8125 
Q 46.09375 43.265625 43.65625 45.71875 
Q 41.21875 48.1875 36.921875 48.1875 
Q 30.28125 48.1875 25.140625 43.28125 
Q 20.015625 38.375 18.5 30.515625 
L 12.5 0 
L 3.515625 0 
L 14.203125 54.6875 
L 23.1875 54.6875 
L 21.484375 46.1875 
Q 25.140625 50.984375 30.046875 53.484375 
Q 34.96875 56 40.578125 56 
Q 46.53125 56 50.359375 52.875 
Q 54.203125 49.75 54.984375 44.1875 
Q 59.078125 49.953125 64.46875 52.96875 
Q 69.875 56 75.875 56 
Q 82.90625 56 86.734375 51.953125 
Q 90.578125 47.90625 90.578125 40.484375 
Q 90.578125 38.875 90.375 36.9375 
Q 90.1875 35.015625 89.796875 33.015625 
z
" id="DejaVuSans-Oblique-109"/>
      <path d="M 25.390625 72.90625 
L 33.6875 72.90625 
L 8.296875 -9.28125 
L 0 -9.28125 
z
" id="DejaVuSans-47"/>
      <path d="M 50 53.078125 
L 48.296875 44.578125 
Q 44.734375 46.53125 40.765625 47.5 
Q 36.8125 48.484375 32.625 48.484375 
Q 25.53125 48.484375 21.453125 46.0625 
Q 17.390625 43.65625 17.390625 39.5 
Q 17.390625 34.671875 26.859375 32.078125 
Q 27.59375 31.890625 27.9375 31.78125 
L 30.8125 30.90625 
Q 39.796875 28.421875 42.796875 25.6875 
Q 45.796875 22.953125 45.796875 18.21875 
Q 45.796875 9.515625 38.890625 4.046875 
Q 31.984375 -1.421875 20.796875 -1.421875 
Q 16.453125 -1.421875 11.671875 -0.578125 
Q 6.890625 0.25 1.125 2 
L 2.875 11.28125 
Q 7.8125 8.734375 12.59375 7.421875 
Q 17.390625 6.109375 21.78125 6.109375 
Q 28.375 6.109375 32.5 8.9375 
Q 36.625 11.765625 36.625 16.109375 
Q 36.625 20.796875 25.78125 23.6875 
L 24.859375 23.921875 
L 21.78125 24.703125 
Q 14.9375 26.515625 11.765625 29.46875 
Q 8.59375 32.421875 8.59375 37.015625 
Q 8.59375 45.75 15.15625 50.875 
Q 21.734375 56 33.015625 56 
Q 37.453125 56 41.671875 55.265625 
Q 45.90625 54.546875 50 53.078125 
z
" id="DejaVuSans-Oblique-115"/>
      <path d="M 30.421875 75.984375 
L 30.421875 -13.1875 
L 9.71875 -13.1875 
L 9.71875 -6.203125 
L 21.390625 -6.203125 
L 21.390625 69 
L 9.71875 69 
L 9.71875 75.984375 
z
" id="DejaVuSans-93"/>
     </defs>
     <g transform="translate(29.65125 197.478)rotate(-90)scale(0.144 -0.144)">
      <use transform="translate(0 0.765625)" xlink:href="#DejaVuSans-82"/>
      <use transform="translate(69.482422 0.765625)" xlink:href="#DejaVuSans-77"/>
      <use transform="translate(155.761719 0.765625)" xlink:href="#DejaVuSans-83"/>
      <use transform="translate(219.238281 0.765625)" xlink:href="#DejaVuSans-69"/>
      <use transform="translate(282.421875 0.765625)" xlink:href="#DejaVuSans-32"/>
      <use transform="translate(314.208984 0.765625)" xlink:href="#DejaVuSans-91"/>
      <use transform="translate(353.222656 0.765625)" xlink:href="#DejaVuSans-Oblique-109"/>
      <use transform="translate(455.284661 39.046875)scale(0.7)" xlink:href="#DejaVuSans-50"/>
      <use transform="translate(502.555169 0.765625)" xlink:href="#DejaVuSans-47"/>
      <use transform="translate(536.246576 0.765625)" xlink:href="#DejaVuSans-Oblique-115"/>
      <use transform="translate(592.996081 39.046875)scale(0.7)" xlink:href="#DejaVuSans-50"/>
      <use transform="translate(640.266589 0.765625)" xlink:href="#DejaVuSans-93"/>
     </g>
    </g>
   </g>
   <g id="line2d_15">
    <path clip-path="url(#p4be9412acc)" d="M 0 0 
" style="fill:none;stroke:#424242;stroke-linecap:square;stroke-width:2.7;"/>
   </g>
   <g id="line2d_16">
    <path clip-path="url(#p4be9412acc)" d="M 0 0 
" style="fill:none;stroke:#424242;stroke-linecap:square;stroke-width:2.7;"/>
   </g>
   <g id="line2d_17">
    <path clip-path="url(#p4be9412acc)" d="M 0 0 
" style="fill:none;stroke:#424242;stroke-linecap:square;stroke-width:2.7;"/>
   </g>
   <g id="line2d_18">
    <path clip-path="url(#p4be9412acc)" d="M 0 0 
" style="fill:none;stroke:#424242;stroke-linecap:square;stroke-width:2.7;"/>
   </g>
   <g id="line2d_19">
    <path clip-path="url(#p4be9412acc)" d="M 0 0 
" style="fill:none;stroke:#424242;stroke-linecap:square;stroke-width:2.7;"/>
   </g>
   <g id="line2d_20">
    <path clip-path="url(#p4be9412acc)" d="M 0 0 
" style="fill:none;stroke:#424242;stroke-linecap:square;stroke-width:2.7;"/>
   </g>
   <g id="line2d_21">
    <path clip-path="url(#p4be9412acc)" d="M 0 0 
" style="fill:none;stroke:#424242;stroke-linecap:square;stroke-width:2.7;"/>
   </g>
   <g id="line2d_22">
    <path clip-path="url(#p4be9412acc)" d="M 0 0 
" style="fill:none;stroke:#424242;stroke-linecap:square;stroke-width:2.7;"/>
   </g>
   <g id="line2d_23">
    <path clip-path="url(#p4be9412acc)" d="M 0 0 
" style="fill:none;stroke:#424242;stroke-linecap:square;stroke-width:2.7;"/>
   </g>
   <g id="line2d_24">
    <path clip-path="url(#p4be9412acc)" d="M 0 0 
" style="fill:none;stroke:#424242;stroke-linecap:square;stroke-width:2.7;"/>
   </g>
   <g id="line2d_25">
    <path clip-path="url(#p4be9412acc)" d="M 0 0 
" style="fill:none;stroke:#424242;stroke-linecap:square;stroke-width:2.7;"/>
   </g>
   <g id="line2d_26">
    <path clip-path="url(#p4be9412acc)" d="M 0 0 
" style="fill:none;stroke:#424242;stroke-linecap:square;stroke-width:2.7;"/>
   </g>
   <g id="line2d_27">
    <path clip-path="url(#p4be9412acc)" d="M 0 0 
" style="fill:none;stroke:#424242;stroke-linecap:square;stroke-width:2.7;"/>
   </g>
   <g id="line2d_28">
    <path clip-path="url(#p4be9412acc)" d="M 0 0 
" style="fill:none;stroke:#424242;stroke-linecap:square;stroke-width:2.7;"/>
   </g>
   <g id="line2d_29">
    <path clip-path="url(#p4be9412acc)" d="M 0 0 
" style="fill:none;stroke:#424242;stroke-linecap:square;stroke-width:2.7;"/>
   </g>
   <g id="line2d_30">
    <path clip-path="url(#p4be9412acc)" d="M 0 0 
" style="fill:none;stroke:#424242;stroke-linecap:square;stroke-width:2.7;"/>
   </g>
   <g id="line2d_31">
    <path clip-path="url(#p4be9412acc)" d="M 0 0 
" style="fill:none;stroke:#424242;stroke-linecap:square;stroke-width:2.7;"/>
   </g>
   <g id="line2d_32">
    <path clip-path="url(#p4be9412acc)" d="M 0 0 
" style="fill:none;stroke:#424242;stroke-linecap:square;stroke-width:2.7;"/>
   </g>
   <g id="line2d_33">
    <path clip-path="url(#p4be9412acc)" d="M 0 0 
" style="fill:none;stroke:#424242;stroke-linecap:square;stroke-width:2.7;"/>
   </g>
   <g id="line2d_34">
    <path clip-path="url(#p4be9412acc)" d="M 0 0 
" style="fill:none;stroke:#424242;stroke-linecap:square;stroke-width:2.7;"/>
   </g>
   <g id="line2d_35">
    <path clip-path="url(#p4be9412acc)" d="M 0 0 
" style="fill:none;stroke:#424242;stroke-linecap:square;stroke-width:2.7;"/>
   </g>
   <g id="line2d_36">
    <path clip-path="url(#p4be9412acc)" d="M 0 0 
" style="fill:none;stroke:#424242;stroke-linecap:square;stroke-width:2.7;"/>
   </g>
   <g id="line2d_37">
    <path clip-path="url(#p4be9412acc)" d="M 0 0 
" style="fill:none;stroke:#424242;stroke-linecap:square;stroke-width:2.7;"/>
   </g>
   <g id="line2d_38">
    <path clip-path="url(#p4be9412acc)" d="M 0 0 
" style="fill:none;stroke:#424242;stroke-linecap:square;stroke-width:2.7;"/>
   </g>
   <g id="line2d_39">
    <path clip-path="url(#p4be9412acc)" d="M 0 0 
" style="fill:none;stroke:#424242;stroke-linecap:square;stroke-width:2.7;"/>
   </g>
   <g id="line2d_40">
    <path clip-path="url(#p4be9412acc)" d="M 0 0 
" style="fill:none;stroke:#424242;stroke-linecap:square;stroke-width:2.7;"/>
   </g>
   <g id="line2d_41">
    <path clip-path="url(#p4be9412acc)" d="M 0 0 
" style="fill:none;stroke:#424242;stroke-linecap:square;stroke-width:2.7;"/>
   </g>
   <g id="line2d_42">
    <path clip-path="url(#p4be9412acc)" d="M 0 0 
" style="fill:none;stroke:#424242;stroke-linecap:square;stroke-width:2.7;"/>
   </g>
   <g id="line2d_43">
    <path clip-path="url(#p4be9412acc)" d="M 0 0 
" style="fill:none;stroke:#424242;stroke-linecap:square;stroke-width:2.7;"/>
   </g>
   <g id="line2d_44">
    <path clip-path="url(#p4be9412acc)" d="M 0 0 
" style="fill:none;stroke:#424242;stroke-linecap:square;stroke-width:2.7;"/>
   </g>
   <g id="line2d_45">
    <path clip-path="url(#p4be9412acc)" d="M 0 0 
" style="fill:none;stroke:#424242;stroke-linecap:square;stroke-width:2.7;"/>
   </g>
   <g id="line2d_46">
    <path clip-path="url(#p4be9412acc)" d="M 0 0 
" style="fill:none;stroke:#424242;stroke-linecap:square;stroke-width:2.7;"/>
   </g>
   <g id="line2d_47">
    <path clip-path="url(#p4be9412acc)" d="M 0 0 
" style="fill:none;stroke:#424242;stroke-linecap:square;stroke-width:2.7;"/>
   </g>
   <g id="line2d_48">
    <path clip-path="url(#p4be9412acc)" d="M 0 0 
" style="fill:none;stroke:#424242;stroke-linecap:square;stroke-width:2.7;"/>
   </g>
   <g id="line2d_49">
    <path clip-path="url(#p4be9412acc)" d="M 0 0 
" style="fill:none;stroke:#424242;stroke-linecap:square;stroke-width:2.7;"/>
   </g>
   <g id="line2d_50">
    <path clip-path="url(#p4be9412acc)" d="M 0 0 
" style="fill:none;stroke:#424242;stroke-linecap:square;stroke-width:2.7;"/>
   </g>
   <g id="line2d_51">
    <path clip-path="url(#p4be9412acc)" d="M 0 0 
" style="fill:none;stroke:#424242;stroke-linecap:square;stroke-width:2.7;"/>
   </g>
   <g id="line2d_52">
    <path clip-path="url(#p4be9412acc)" d="M 0 0 
" style="fill:none;stroke:#424242;stroke-linecap:square;stroke-width:2.7;"/>
   </g>
   <g id="line2d_53">
    <path clip-path="url(#p4be9412acc)" d="M 0 0 
" style="fill:none;stroke:#424242;stroke-linecap:square;stroke-width:2.7;"/>
   </g>
   <g id="line2d_54">
    <path clip-path="url(#p4be9412acc)" d="M 0 0 
" style="fill:none;stroke:#424242;stroke-linecap:square;stroke-width:2.7;"/>
   </g>
   <g id="line2d_55">
    <path clip-path="url(#p4be9412acc)" d="M 0 0 
" style="fill:none;stroke:#424242;stroke-linecap:square;stroke-width:2.7;"/>
   </g>
   <g id="line2d_56">
    <path clip-path="url(#p4be9412acc)" d="M 0 0 
" style="fill:none;stroke:#424242;stroke-linecap:square;stroke-width:2.7;"/>
   </g>
   <g id="line2d_57">
    <path clip-path="url(#p4be9412acc)" d="M 0 0 
" style="fill:none;stroke:#424242;stroke-linecap:square;stroke-width:2.7;"/>
   </g>
   <g id="line2d_58">
    <path clip-path="url(#p4be9412acc)" d="M 0 0 
" style="fill:none;stroke:#424242;stroke-linecap:square;stroke-width:2.7;"/>
   </g>
   <g id="line2d_59">
    <path clip-path="url(#p4be9412acc)" d="M 0 0 
" style="fill:none;stroke:#424242;stroke-linecap:square;stroke-width:2.7;"/>
   </g>
   <g id="line2d_60">
    <path clip-path="url(#p4be9412acc)" d="M 0 0 
" style="fill:none;stroke:#424242;stroke-linecap:square;stroke-width:2.7;"/>
   </g>
   <g id="line2d_61">
    <path clip-path="url(#p4be9412acc)" d="M 0 0 
" style="fill:none;stroke:#424242;stroke-linecap:square;stroke-width:2.7;"/>
   </g>
   <g id="line2d_62">
    <path clip-path="url(#p4be9412acc)" d="M 0 0 
" style="fill:none;stroke:#424242;stroke-linecap:square;stroke-width:2.7;"/>
   </g>
   <g id="line2d_63">
    <path clip-path="url(#p4be9412acc)" d="M 0 0 
" style="fill:none;stroke:#424242;stroke-linecap:square;stroke-width:2.7;"/>
   </g>
   <g id="line2d_64">
    <path clip-path="url(#p4be9412acc)" d="M 0 0 
" style="fill:none;stroke:#424242;stroke-linecap:square;stroke-width:2.7;"/>
   </g>
   <g id="line2d_65">
    <path clip-path="url(#p4be9412acc)" d="M 0 0 
" style="fill:none;stroke:#424242;stroke-linecap:square;stroke-width:2.7;"/>
   </g>
   <g id="line2d_66">
    <path clip-path="url(#p4be9412acc)" d="M 0 0 
" style="fill:none;stroke:#424242;stroke-linecap:square;stroke-width:2.7;"/>
   </g>
   <g id="line2d_67">
    <path clip-path="url(#p4be9412acc)" d="M 0 0 
" style="fill:none;stroke:#424242;stroke-linecap:square;stroke-width:2.7;"/>
   </g>
   <g id="line2d_68">
    <path clip-path="url(#p4be9412acc)" d="M 0 0 
" style="fill:none;stroke:#424242;stroke-linecap:square;stroke-width:2.7;"/>
   </g>
   <g id="line2d_69">
    <path clip-path="url(#p4be9412acc)" d="M 0 0 
" style="fill:none;stroke:#424242;stroke-linecap:square;stroke-width:2.7;"/>
   </g>
   <g id="line2d_70">
    <path clip-path="url(#p4be9412acc)" d="M 0 0 
" style="fill:none;stroke:#424242;stroke-linecap:square;stroke-width:2.7;"/>
   </g>
   <g id="line2d_71">
    <path clip-path="url(#p4be9412acc)" d="M 0 0 
" style="fill:none;stroke:#424242;stroke-linecap:square;stroke-width:2.7;"/>
   </g>
   <g id="line2d_72">
    <path clip-path="url(#p4be9412acc)" d="M 0 0 
" style="fill:none;stroke:#424242;stroke-linecap:square;stroke-width:2.7;"/>
   </g>
   <g id="line2d_73">
    <path clip-path="url(#p4be9412acc)" d="M 0 0 
" style="fill:none;stroke:#424242;stroke-linecap:square;stroke-width:2.7;"/>
   </g>
   <g id="line2d_74">
    <path clip-path="url(#p4be9412acc)" d="M 0 0 
" style="fill:none;stroke:#424242;stroke-linecap:square;stroke-width:2.7;"/>
   </g>
   <g id="line2d_75">
    <path clip-path="url(#p4be9412acc)" d="M 0 0 
" style="fill:none;stroke:#424242;stroke-linecap:square;stroke-width:2.7;"/>
   </g>
   <g id="line2d_76">
    <path clip-path="url(#p4be9412acc)" d="M 0 0 
" style="fill:none;stroke:#424242;stroke-linecap:square;stroke-width:2.7;"/>
   </g>
   <g id="line2d_77">
    <path clip-path="url(#p4be9412acc)" d="M 0 0 
" style="fill:none;stroke:#424242;stroke-linecap:square;stroke-width:2.7;"/>
   </g>
   <g id="line2d_78">
    <path clip-path="url(#p4be9412acc)" d="M 0 0 
" style="fill:none;stroke:#424242;stroke-linecap:square;stroke-width:2.7;"/>
   </g>
   <g id="line2d_79">
    <path clip-path="url(#p4be9412acc)" d="M 0 0 
" style="fill:none;stroke:#424242;stroke-linecap:square;stroke-width:2.7;"/>
   </g>
   <g id="line2d_80">
    <path clip-path="url(#p4be9412acc)" d="M 0 0 
" style="fill:none;stroke:#424242;stroke-linecap:square;stroke-width:2.7;"/>
   </g>
   <g id="patch_69">
    <path d="M 79.74 205.884 
L 79.74 91.152 
" style="fill:none;stroke:#000000;stroke-linecap:square;stroke-linejoin:miter;stroke-width:1.25;"/>
   </g>
   <g id="patch_70">
    <path d="M 79.74 205.884 
L 416.448 205.884 
" style="fill:none;stroke:#000000;stroke-linecap:square;stroke-linejoin:miter;stroke-width:1.25;"/>
   </g>
   <g id="legend_1">
    <g id="patch_71">
     <path d="M 81.74 81.65475 
L 367.829063 81.65475 
Q 369.829063 81.65475 369.829063 79.65475 
L 369.829063 35.786 
Q 369.829063 33.786 367.829063 33.786 
L 81.74 33.786 
Q 79.74 33.786 79.74 35.786 
L 79.74 79.65475 
Q 79.74 81.65475 81.74 81.65475 
z
" style="fill:#ffffff;opacity:0.8;stroke:#cccccc;stroke-linejoin:miter;"/>
    </g>
    <g id="patch_72">
     <path d="M 83.74 45.384438 
L 103.74 45.384438 
L 103.74 38.384438 
L 83.74 38.384438 
z
" style="fill:#176d9c;opacity:0.9;"/>
    </g>
    <g id="text_17">
     <!-- base -->
     <defs>
      <path d="M 48.6875 27.296875 
Q 48.6875 37.203125 44.609375 42.84375 
Q 40.53125 48.484375 33.40625 48.484375 
Q 26.265625 48.484375 22.1875 42.84375 
Q 18.109375 37.203125 18.109375 27.296875 
Q 18.109375 17.390625 22.1875 11.75 
Q 26.265625 6.109375 33.40625 6.109375 
Q 40.53125 6.109375 44.609375 11.75 
Q 48.6875 17.390625 48.6875 27.296875 
z
M 18.109375 46.390625 
Q 20.953125 51.265625 25.265625 53.625 
Q 29.59375 56 35.59375 56 
Q 45.5625 56 51.78125 48.09375 
Q 58.015625 40.1875 58.015625 27.296875 
Q 58.015625 14.40625 51.78125 6.484375 
Q 45.5625 -1.421875 35.59375 -1.421875 
Q 29.59375 -1.421875 25.265625 0.953125 
Q 20.953125 3.328125 18.109375 8.203125 
L 18.109375 0 
L 9.078125 0 
L 9.078125 75.984375 
L 18.109375 75.984375 
z
" id="DejaVuSans-98"/>
      <path d="M 44.28125 53.078125 
L 44.28125 44.578125 
Q 40.484375 46.53125 36.375 47.5 
Q 32.28125 48.484375 27.875 48.484375 
Q 21.1875 48.484375 17.84375 46.4375 
Q 14.5 44.390625 14.5 40.28125 
Q 14.5 37.15625 16.890625 35.375 
Q 19.28125 33.59375 26.515625 31.984375 
L 29.59375 31.296875 
Q 39.15625 29.25 43.1875 25.515625 
Q 47.21875 21.78125 47.21875 15.09375 
Q 47.21875 7.46875 41.1875 3.015625 
Q 35.15625 -1.421875 24.609375 -1.421875 
Q 20.21875 -1.421875 15.453125 -0.5625 
Q 10.6875 0.296875 5.421875 2 
L 5.421875 11.28125 
Q 10.40625 8.6875 15.234375 7.390625 
Q 20.0625 6.109375 24.8125 6.109375 
Q 31.15625 6.109375 34.5625 8.28125 
Q 37.984375 10.453125 37.984375 14.40625 
Q 37.984375 18.0625 35.515625 20.015625 
Q 33.0625 21.96875 24.703125 23.78125 
L 21.578125 24.515625 
Q 13.234375 26.265625 9.515625 29.90625 
Q 5.8125 33.546875 5.8125 39.890625 
Q 5.8125 47.609375 11.28125 51.796875 
Q 16.75 56 26.8125 56 
Q 31.78125 56 36.171875 55.265625 
Q 40.578125 54.546875 44.28125 53.078125 
z
" id="DejaVuSans-115"/>
      <path d="M 56.203125 29.59375 
L 56.203125 25.203125 
L 14.890625 25.203125 
Q 15.484375 15.921875 20.484375 11.0625 
Q 25.484375 6.203125 34.421875 6.203125 
Q 39.59375 6.203125 44.453125 7.46875 
Q 49.3125 8.734375 54.109375 11.28125 
L 54.109375 2.78125 
Q 49.265625 0.734375 44.1875 -0.34375 
Q 39.109375 -1.421875 33.890625 -1.421875 
Q 20.796875 -1.421875 13.15625 6.1875 
Q 5.515625 13.8125 5.515625 26.8125 
Q 5.515625 40.234375 12.765625 48.109375 
Q 20.015625 56 32.328125 56 
Q 43.359375 56 49.78125 48.890625 
Q 56.203125 41.796875 56.203125 29.59375 
z
M 47.21875 32.234375 
Q 47.125 39.59375 43.09375 43.984375 
Q 39.0625 48.390625 32.421875 48.390625 
Q 24.90625 48.390625 20.390625 44.140625 
Q 15.875 39.890625 15.1875 32.171875 
z
" id="DejaVuSans-101"/>
     </defs>
     <g transform="translate(111.74 45.384438)scale(0.1 -0.1)">
      <use xlink:href="#DejaVuSans-98"/>
      <use x="63.476562" xlink:href="#DejaVuSans-97"/>
      <use x="124.755859" xlink:href="#DejaVuSans-115"/>
      <use x="176.855469" xlink:href="#DejaVuSans-101"/>
     </g>
    </g>
    <g id="patch_73">
     <path d="M 83.74 60.062563 
L 103.74 60.062563 
L 103.74 53.062563 
L 83.74 53.062563 
z
" style="fill:#c38820;opacity:0.9;"/>
    </g>
    <g id="text_18">
     <!-- sphereconv -->
     <defs>
      <path d="M 18.109375 8.203125 
L 18.109375 -20.796875 
L 9.078125 -20.796875 
L 9.078125 54.6875 
L 18.109375 54.6875 
L 18.109375 46.390625 
Q 20.953125 51.265625 25.265625 53.625 
Q 29.59375 56 35.59375 56 
Q 45.5625 56 51.78125 48.09375 
Q 58.015625 40.1875 58.015625 27.296875 
Q 58.015625 14.40625 51.78125 6.484375 
Q 45.5625 -1.421875 35.59375 -1.421875 
Q 29.59375 -1.421875 25.265625 0.953125 
Q 20.953125 3.328125 18.109375 8.203125 
z
M 48.6875 27.296875 
Q 48.6875 37.203125 44.609375 42.84375 
Q 40.53125 48.484375 33.40625 48.484375 
Q 26.265625 48.484375 22.1875 42.84375 
Q 18.109375 37.203125 18.109375 27.296875 
Q 18.109375 17.390625 22.1875 11.75 
Q 26.265625 6.109375 33.40625 6.109375 
Q 40.53125 6.109375 44.609375 11.75 
Q 48.6875 17.390625 48.6875 27.296875 
z
" id="DejaVuSans-112"/>
      <path d="M 54.890625 33.015625 
L 54.890625 0 
L 45.90625 0 
L 45.90625 32.71875 
Q 45.90625 40.484375 42.875 44.328125 
Q 39.84375 48.1875 33.796875 48.1875 
Q 26.515625 48.1875 22.3125 43.546875 
Q 18.109375 38.921875 18.109375 30.90625 
L 18.109375 0 
L 9.078125 0 
L 9.078125 75.984375 
L 18.109375 75.984375 
L 18.109375 46.1875 
Q 21.34375 51.125 25.703125 53.5625 
Q 30.078125 56 35.796875 56 
Q 45.21875 56 50.046875 50.171875 
Q 54.890625 44.34375 54.890625 33.015625 
z
" id="DejaVuSans-104"/>
      <path d="M 41.109375 46.296875 
Q 39.59375 47.171875 37.8125 47.578125 
Q 36.03125 48 33.890625 48 
Q 26.265625 48 22.1875 43.046875 
Q 18.109375 38.09375 18.109375 28.8125 
L 18.109375 0 
L 9.078125 0 
L 9.078125 54.6875 
L 18.109375 54.6875 
L 18.109375 46.1875 
Q 20.953125 51.171875 25.484375 53.578125 
Q 30.03125 56 36.53125 56 
Q 37.453125 56 38.578125 55.875 
Q 39.703125 55.765625 41.0625 55.515625 
z
" id="DejaVuSans-114"/>
      <path d="M 30.609375 48.390625 
Q 23.390625 48.390625 19.1875 42.75 
Q 14.984375 37.109375 14.984375 27.296875 
Q 14.984375 17.484375 19.15625 11.84375 
Q 23.34375 6.203125 30.609375 6.203125 
Q 37.796875 6.203125 41.984375 11.859375 
Q 46.1875 17.53125 46.1875 27.296875 
Q 46.1875 37.015625 41.984375 42.703125 
Q 37.796875 48.390625 30.609375 48.390625 
z
M 30.609375 56 
Q 42.328125 56 49.015625 48.375 
Q 55.71875 40.765625 55.71875 27.296875 
Q 55.71875 13.875 49.015625 6.21875 
Q 42.328125 -1.421875 30.609375 -1.421875 
Q 18.84375 -1.421875 12.171875 6.21875 
Q 5.515625 13.875 5.515625 27.296875 
Q 5.515625 40.765625 12.171875 48.375 
Q 18.84375 56 30.609375 56 
z
" id="DejaVuSans-111"/>
      <path d="M 54.890625 33.015625 
L 54.890625 0 
L 45.90625 0 
L 45.90625 32.71875 
Q 45.90625 40.484375 42.875 44.328125 
Q 39.84375 48.1875 33.796875 48.1875 
Q 26.515625 48.1875 22.3125 43.546875 
Q 18.109375 38.921875 18.109375 30.90625 
L 18.109375 0 
L 9.078125 0 
L 9.078125 54.6875 
L 18.109375 54.6875 
L 18.109375 46.1875 
Q 21.34375 51.125 25.703125 53.5625 
Q 30.078125 56 35.796875 56 
Q 45.21875 56 50.046875 50.171875 
Q 54.890625 44.34375 54.890625 33.015625 
z
" id="DejaVuSans-110"/>
      <path d="M 2.984375 54.6875 
L 12.5 54.6875 
L 29.59375 8.796875 
L 46.6875 54.6875 
L 56.203125 54.6875 
L 35.6875 0 
L 23.484375 0 
z
" id="DejaVuSans-118"/>
     </defs>
     <g transform="translate(111.74 60.062563)scale(0.1 -0.1)">
      <use xlink:href="#DejaVuSans-115"/>
      <use x="52.099609" xlink:href="#DejaVuSans-112"/>
      <use x="115.576172" xlink:href="#DejaVuSans-104"/>
      <use x="178.955078" xlink:href="#DejaVuSans-101"/>
      <use x="240.478516" xlink:href="#DejaVuSans-114"/>
      <use x="279.341797" xlink:href="#DejaVuSans-101"/>
      <use x="340.865234" xlink:href="#DejaVuSans-99"/>
      <use x="395.845703" xlink:href="#DejaVuSans-111"/>
      <use x="457.027344" xlink:href="#DejaVuSans-110"/>
      <use x="520.40625" xlink:href="#DejaVuSans-118"/>
     </g>
    </g>
    <g id="patch_74">
     <path d="M 83.74 74.740688 
L 103.74 74.740688 
L 103.74 67.740688 
L 83.74 67.740688 
z
" style="fill:#158b6a;opacity:0.9;"/>
    </g>
    <g id="text_19">
     <!-- hemconv -->
     <defs>
      <path d="M 52 44.1875 
Q 55.375 50.25 60.0625 53.125 
Q 64.75 56 71.09375 56 
Q 79.640625 56 84.28125 50.015625 
Q 88.921875 44.046875 88.921875 33.015625 
L 88.921875 0 
L 79.890625 0 
L 79.890625 32.71875 
Q 79.890625 40.578125 77.09375 44.375 
Q 74.3125 48.1875 68.609375 48.1875 
Q 61.625 48.1875 57.5625 43.546875 
Q 53.515625 38.921875 53.515625 30.90625 
L 53.515625 0 
L 44.484375 0 
L 44.484375 32.71875 
Q 44.484375 40.625 41.703125 44.40625 
Q 38.921875 48.1875 33.109375 48.1875 
Q 26.21875 48.1875 22.15625 43.53125 
Q 18.109375 38.875 18.109375 30.90625 
L 18.109375 0 
L 9.078125 0 
L 9.078125 54.6875 
L 18.109375 54.6875 
L 18.109375 46.1875 
Q 21.1875 51.21875 25.484375 53.609375 
Q 29.78125 56 35.6875 56 
Q 41.65625 56 45.828125 52.96875 
Q 50 49.953125 52 44.1875 
z
" id="DejaVuSans-109"/>
     </defs>
     <g transform="translate(111.74 74.740688)scale(0.1 -0.1)">
      <use xlink:href="#DejaVuSans-104"/>
      <use x="63.378906" xlink:href="#DejaVuSans-101"/>
      <use x="124.902344" xlink:href="#DejaVuSans-109"/>
      <use x="222.314453" xlink:href="#DejaVuSans-99"/>
      <use x="277.294922" xlink:href="#DejaVuSans-111"/>
      <use x="338.476562" xlink:href="#DejaVuSans-110"/>
      <use x="401.855469" xlink:href="#DejaVuSans-118"/>
     </g>
    </g>
    <g id="patch_75">
     <path d="M 189.700938 45.384438 
L 209.700938 45.384438 
L 209.700938 38.384438 
L 189.700938 38.384438 
z
" style="fill:#ba611b;opacity:0.9;"/>
    </g>
    <g id="text_20">
     <!-- hemconv_sharedweights -->
     <defs>
      <path d="M 50.984375 -16.609375 
L 50.984375 -23.578125 
L -0.984375 -23.578125 
L -0.984375 -16.609375 
z
" id="DejaVuSans-95"/>
      <path d="M 4.203125 54.6875 
L 13.1875 54.6875 
L 24.421875 12.015625 
L 35.59375 54.6875 
L 46.1875 54.6875 
L 57.421875 12.015625 
L 68.609375 54.6875 
L 77.59375 54.6875 
L 63.28125 0 
L 52.6875 0 
L 40.921875 44.828125 
L 29.109375 0 
L 18.5 0 
z
" id="DejaVuSans-119"/>
      <path d="M 9.421875 54.6875 
L 18.40625 54.6875 
L 18.40625 0 
L 9.421875 0 
z
M 9.421875 75.984375 
L 18.40625 75.984375 
L 18.40625 64.59375 
L 9.421875 64.59375 
z
" id="DejaVuSans-105"/>
      <path d="M 45.40625 27.984375 
Q 45.40625 37.75 41.375 43.109375 
Q 37.359375 48.484375 30.078125 48.484375 
Q 22.859375 48.484375 18.828125 43.109375 
Q 14.796875 37.75 14.796875 27.984375 
Q 14.796875 18.265625 18.828125 12.890625 
Q 22.859375 7.515625 30.078125 7.515625 
Q 37.359375 7.515625 41.375 12.890625 
Q 45.40625 18.265625 45.40625 27.984375 
z
M 54.390625 6.78125 
Q 54.390625 -7.171875 48.1875 -13.984375 
Q 42 -20.796875 29.203125 -20.796875 
Q 24.46875 -20.796875 20.265625 -20.09375 
Q 16.0625 -19.390625 12.109375 -17.921875 
L 12.109375 -9.1875 
Q 16.0625 -11.328125 19.921875 -12.34375 
Q 23.78125 -13.375 27.78125 -13.375 
Q 36.625 -13.375 41.015625 -8.765625 
Q 45.40625 -4.15625 45.40625 5.171875 
L 45.40625 9.625 
Q 42.625 4.78125 38.28125 2.390625 
Q 33.9375 0 27.875 0 
Q 17.828125 0 11.671875 7.65625 
Q 5.515625 15.328125 5.515625 27.984375 
Q 5.515625 40.671875 11.671875 48.328125 
Q 17.828125 56 27.875 56 
Q 33.9375 56 38.28125 53.609375 
Q 42.625 51.21875 45.40625 46.390625 
L 45.40625 54.6875 
L 54.390625 54.6875 
z
" id="DejaVuSans-103"/>
      <path d="M 18.3125 70.21875 
L 18.3125 54.6875 
L 36.8125 54.6875 
L 36.8125 47.703125 
L 18.3125 47.703125 
L 18.3125 18.015625 
Q 18.3125 11.328125 20.140625 9.421875 
Q 21.96875 7.515625 27.59375 7.515625 
L 36.8125 7.515625 
L 36.8125 0 
L 27.59375 0 
Q 17.1875 0 13.234375 3.875 
Q 9.28125 7.765625 9.28125 18.015625 
L 9.28125 47.703125 
L 2.6875 47.703125 
L 2.6875 54.6875 
L 9.28125 54.6875 
L 9.28125 70.21875 
z
" id="DejaVuSans-116"/>
     </defs>
     <g transform="translate(217.700938 45.384438)scale(0.1 -0.1)">
      <use xlink:href="#DejaVuSans-104"/>
      <use x="63.378906" xlink:href="#DejaVuSans-101"/>
      <use x="124.902344" xlink:href="#DejaVuSans-109"/>
      <use x="222.314453" xlink:href="#DejaVuSans-99"/>
      <use x="277.294922" xlink:href="#DejaVuSans-111"/>
      <use x="338.476562" xlink:href="#DejaVuSans-110"/>
      <use x="401.855469" xlink:href="#DejaVuSans-118"/>
      <use x="461.035156" xlink:href="#DejaVuSans-95"/>
      <use x="511.035156" xlink:href="#DejaVuSans-115"/>
      <use x="563.134766" xlink:href="#DejaVuSans-104"/>
      <use x="626.513672" xlink:href="#DejaVuSans-97"/>
      <use x="687.792969" xlink:href="#DejaVuSans-114"/>
      <use x="726.65625" xlink:href="#DejaVuSans-101"/>
      <use x="788.179688" xlink:href="#DejaVuSans-100"/>
      <use x="851.65625" xlink:href="#DejaVuSans-119"/>
      <use x="933.443359" xlink:href="#DejaVuSans-101"/>
      <use x="994.966797" xlink:href="#DejaVuSans-105"/>
      <use x="1022.75" xlink:href="#DejaVuSans-103"/>
      <use x="1086.226562" xlink:href="#DejaVuSans-104"/>
      <use x="1149.605469" xlink:href="#DejaVuSans-116"/>
      <use x="1188.814453" xlink:href="#DejaVuSans-115"/>
     </g>
    </g>
    <g id="patch_76">
     <path d="M 189.700938 60.340688 
L 209.700938 60.340688 
L 209.700938 53.340688 
L 189.700938 53.340688 
z
" style="fill:#c282b5;opacity:0.9;"/>
    </g>
    <g id="text_21">
     <!-- sphereconv_hemconv -->
     <g transform="translate(217.700938 60.340688)scale(0.1 -0.1)">
      <use xlink:href="#DejaVuSans-115"/>
      <use x="52.099609" xlink:href="#DejaVuSans-112"/>
      <use x="115.576172" xlink:href="#DejaVuSans-104"/>
      <use x="178.955078" xlink:href="#DejaVuSans-101"/>
      <use x="240.478516" xlink:href="#DejaVuSans-114"/>
      <use x="279.341797" xlink:href="#DejaVuSans-101"/>
      <use x="340.865234" xlink:href="#DejaVuSans-99"/>
      <use x="395.845703" xlink:href="#DejaVuSans-111"/>
      <use x="457.027344" xlink:href="#DejaVuSans-110"/>
      <use x="520.40625" xlink:href="#DejaVuSans-118"/>
      <use x="579.585938" xlink:href="#DejaVuSans-95"/>
      <use x="629.585938" xlink:href="#DejaVuSans-104"/>
      <use x="692.964844" xlink:href="#DejaVuSans-101"/>
      <use x="754.488281" xlink:href="#DejaVuSans-109"/>
      <use x="851.900391" xlink:href="#DejaVuSans-99"/>
      <use x="906.880859" xlink:href="#DejaVuSans-111"/>
      <use x="968.0625" xlink:href="#DejaVuSans-110"/>
      <use x="1031.441406" xlink:href="#DejaVuSans-118"/>
     </g>
    </g>
    <g id="patch_77">
     <path d="M 189.700938 75.296938 
L 209.700938 75.296938 
L 209.700938 68.296938 
L 189.700938 68.296938 
z
" style="fill:#bd926e;opacity:0.9;"/>
    </g>
    <g id="text_22">
     <!-- sphereconv_hemconv_shared -->
     <g transform="translate(217.700938 75.296938)scale(0.1 -0.1)">
      <use xlink:href="#DejaVuSans-115"/>
      <use x="52.099609" xlink:href="#DejaVuSans-112"/>
      <use x="115.576172" xlink:href="#DejaVuSans-104"/>
      <use x="178.955078" xlink:href="#DejaVuSans-101"/>
      <use x="240.478516" xlink:href="#DejaVuSans-114"/>
      <use x="279.341797" xlink:href="#DejaVuSans-101"/>
      <use x="340.865234" xlink:href="#DejaVuSans-99"/>
      <use x="395.845703" xlink:href="#DejaVuSans-111"/>
      <use x="457.027344" xlink:href="#DejaVuSans-110"/>
      <use x="520.40625" xlink:href="#DejaVuSans-118"/>
      <use x="579.585938" xlink:href="#DejaVuSans-95"/>
      <use x="629.585938" xlink:href="#DejaVuSans-104"/>
      <use x="692.964844" xlink:href="#DejaVuSans-101"/>
      <use x="754.488281" xlink:href="#DejaVuSans-109"/>
      <use x="851.900391" xlink:href="#DejaVuSans-99"/>
      <use x="906.880859" xlink:href="#DejaVuSans-111"/>
      <use x="968.0625" xlink:href="#DejaVuSans-110"/>
      <use x="1031.441406" xlink:href="#DejaVuSans-118"/>
      <use x="1090.621094" xlink:href="#DejaVuSans-95"/>
      <use x="1140.621094" xlink:href="#DejaVuSans-115"/>
      <use x="1192.720703" xlink:href="#DejaVuSans-104"/>
      <use x="1256.099609" xlink:href="#DejaVuSans-97"/>
      <use x="1317.378906" xlink:href="#DejaVuSans-114"/>
      <use x="1356.242188" xlink:href="#DejaVuSans-101"/>
      <use x="1417.765625" xlink:href="#DejaVuSans-100"/>
     </g>
    </g>
   </g>
  </g>
  <g id="axes_2">
   <g id="patch_78">
    <path d="M 79.74 376.308 
L 416.448 376.308 
L 416.448 261.576 
L 79.74 261.576 
z
" style="fill:#ffffff;"/>
   </g>
   <g id="patch_79">
    <path clip-path="url(#pa90213fd1b)" d="M 82.800982 376.308 
L 86.882291 376.308 
L 86.882291 267.039429 
L 82.800982 267.039429 
z
" style="fill:#176d9c;opacity:0.9;"/>
   </g>
   <g id="patch_80">
    <path clip-path="url(#pa90213fd1b)" d="M 113.4108 376.308 
L 117.492109 376.308 
L 117.492109 268.758287 
L 113.4108 268.758287 
z
" style="fill:#176d9c;opacity:0.9;"/>
   </g>
   <g id="patch_81">
    <path clip-path="url(#pa90213fd1b)" d="M 144.020618 376.308 
L 148.101927 376.308 
L 148.101927 273.700903 
L 144.020618 273.700903 
z
" style="fill:#176d9c;opacity:0.9;"/>
   </g>
   <g id="patch_82">
    <path clip-path="url(#pa90213fd1b)" d="M 174.630436 376.308 
L 178.711745 376.308 
L 178.711745 281.890707 
L 174.630436 281.890707 
z
" style="fill:#176d9c;opacity:0.9;"/>
   </g>
   <g id="patch_83">
    <path clip-path="url(#pa90213fd1b)" d="M 205.240255 376.308 
L 209.321564 376.308 
L 209.321564 292.350427 
L 205.240255 292.350427 
z
" style="fill:#176d9c;opacity:0.9;"/>
   </g>
   <g id="patch_84">
    <path clip-path="url(#pa90213fd1b)" d="M 235.850073 376.308 
L 239.931382 376.308 
L 239.931382 304.0653 
L 235.850073 304.0653 
z
" style="fill:#176d9c;opacity:0.9;"/>
   </g>
   <g id="patch_85">
    <path clip-path="url(#pa90213fd1b)" d="M 266.459891 376.308 
L 270.5412 376.308 
L 270.5412 316.280322 
L 266.459891 316.280322 
z
" style="fill:#176d9c;opacity:0.9;"/>
   </g>
   <g id="patch_86">
    <path clip-path="url(#pa90213fd1b)" d="M 297.069709 376.308 
L 301.151018 376.308 
L 301.151018 327.085666 
L 297.069709 327.085666 
z
" style="fill:#176d9c;opacity:0.9;"/>
   </g>
   <g id="patch_87">
    <path clip-path="url(#pa90213fd1b)" d="M 327.679527 376.308 
L 331.760836 376.308 
L 331.760836 335.441023 
L 327.679527 335.441023 
z
" style="fill:#176d9c;opacity:0.9;"/>
   </g>
   <g id="patch_88">
    <path clip-path="url(#pa90213fd1b)" d="M 358.289345 376.308 
L 362.370655 376.308 
L 362.370655 342.127909 
L 358.289345 342.127909 
z
" style="fill:#176d9c;opacity:0.9;"/>
   </g>
   <g id="patch_89">
    <path clip-path="url(#pa90213fd1b)" d="M 388.899164 376.308 
L 392.980473 376.308 
L 392.980473 347.948121 
L 388.899164 347.948121 
z
" style="fill:#176d9c;opacity:0.9;"/>
   </g>
   <g id="patch_90">
    <path clip-path="url(#pa90213fd1b)" d="M 86.882291 376.308 
L 90.9636 376.308 
L 90.9636 267.039429 
L 86.882291 267.039429 
z
" style="fill:#c38820;opacity:0.9;"/>
   </g>
   <g id="patch_91">
    <path clip-path="url(#pa90213fd1b)" d="M 117.492109 376.308 
L 121.573418 376.308 
L 121.573418 268.413013 
L 117.492109 268.413013 
z
" style="fill:#c38820;opacity:0.9;"/>
   </g>
   <g id="patch_92">
    <path clip-path="url(#pa90213fd1b)" d="M 148.101927 376.308 
L 152.183236 376.308 
L 152.183236 272.276762 
L 148.101927 272.276762 
z
" style="fill:#c38820;opacity:0.9;"/>
   </g>
   <g id="patch_93">
    <path clip-path="url(#pa90213fd1b)" d="M 178.711745 376.308 
L 182.793055 376.308 
L 182.793055 278.884809 
L 178.711745 278.884809 
z
" style="fill:#c38820;opacity:0.9;"/>
   </g>
   <g id="patch_94">
    <path clip-path="url(#pa90213fd1b)" d="M 209.321564 376.308 
L 213.402873 376.308 
L 213.402873 287.719961 
L 209.321564 287.719961 
z
" style="fill:#c38820;opacity:0.9;"/>
   </g>
   <g id="patch_95">
    <path clip-path="url(#pa90213fd1b)" d="M 239.931382 376.308 
L 244.012691 376.308 
L 244.012691 297.446323 
L 239.931382 297.446323 
z
" style="fill:#c38820;opacity:0.9;"/>
   </g>
   <g id="patch_96">
    <path clip-path="url(#pa90213fd1b)" d="M 270.5412 376.308 
L 274.622509 376.308 
L 274.622509 306.750796 
L 270.5412 306.750796 
z
" style="fill:#c38820;opacity:0.9;"/>
   </g>
   <g id="patch_97">
    <path clip-path="url(#pa90213fd1b)" d="M 301.151018 376.308 
L 305.232327 376.308 
L 305.232327 314.896783 
L 301.151018 314.896783 
z
" style="fill:#c38820;opacity:0.9;"/>
   </g>
   <g id="patch_98">
    <path clip-path="url(#pa90213fd1b)" d="M 331.760836 376.308 
L 335.842145 376.308 
L 335.842145 321.567947 
L 331.760836 321.567947 
z
" style="fill:#c38820;opacity:0.9;"/>
   </g>
   <g id="patch_99">
    <path clip-path="url(#pa90213fd1b)" d="M 362.370655 376.308 
L 366.451964 376.308 
L 366.451964 326.898232 
L 362.370655 326.898232 
z
" style="fill:#c38820;opacity:0.9;"/>
   </g>
   <g id="patch_100">
    <path clip-path="url(#pa90213fd1b)" d="M 392.980473 376.308 
L 397.061782 376.308 
L 397.061782 331.121253 
L 392.980473 331.121253 
z
" style="fill:#c38820;opacity:0.9;"/>
   </g>
   <g id="patch_101">
    <path clip-path="url(#pa90213fd1b)" d="M 90.9636 376.308 
L 95.044909 376.308 
L 95.044909 267.039429 
L 90.9636 267.039429 
z
" style="fill:#158b6a;opacity:0.9;"/>
   </g>
   <g id="patch_102">
    <path clip-path="url(#pa90213fd1b)" d="M 121.573418 376.308 
L 125.654727 376.308 
L 125.654727 268.629269 
L 121.573418 268.629269 
z
" style="fill:#158b6a;opacity:0.9;"/>
   </g>
   <g id="patch_103">
    <path clip-path="url(#pa90213fd1b)" d="M 152.183236 376.308 
L 156.264545 376.308 
L 156.264545 273.038866 
L 152.183236 273.038866 
z
" style="fill:#158b6a;opacity:0.9;"/>
   </g>
   <g id="patch_104">
    <path clip-path="url(#pa90213fd1b)" d="M 182.793055 376.308 
L 186.874364 376.308 
L 186.874364 280.078671 
L 182.793055 280.078671 
z
" style="fill:#158b6a;opacity:0.9;"/>
   </g>
   <g id="patch_105">
    <path clip-path="url(#pa90213fd1b)" d="M 213.402873 376.308 
L 217.484182 376.308 
L 217.484182 288.70399 
L 213.402873 288.70399 
z
" style="fill:#158b6a;opacity:0.9;"/>
   </g>
   <g id="patch_106">
    <path clip-path="url(#pa90213fd1b)" d="M 244.012691 376.308 
L 248.094 376.308 
L 248.094 297.507806 
L 244.012691 297.507806 
z
" style="fill:#158b6a;opacity:0.9;"/>
   </g>
   <g id="patch_107">
    <path clip-path="url(#pa90213fd1b)" d="M 274.622509 376.308 
L 278.703818 376.308 
L 278.703818 305.504977 
L 274.622509 305.504977 
z
" style="fill:#158b6a;opacity:0.9;"/>
   </g>
   <g id="patch_108">
    <path clip-path="url(#pa90213fd1b)" d="M 305.232327 376.308 
L 309.313636 376.308 
L 309.313636 312.218291 
L 305.232327 312.218291 
z
" style="fill:#158b6a;opacity:0.9;"/>
   </g>
   <g id="patch_109">
    <path clip-path="url(#pa90213fd1b)" d="M 335.842145 376.308 
L 339.923455 376.308 
L 339.923455 317.524071 
L 335.842145 317.524071 
z
" style="fill:#158b6a;opacity:0.9;"/>
   </g>
   <g id="patch_110">
    <path clip-path="url(#pa90213fd1b)" d="M 366.451964 376.308 
L 370.533273 376.308 
L 370.533273 321.675596 
L 366.451964 321.675596 
z
" style="fill:#158b6a;opacity:0.9;"/>
   </g>
   <g id="patch_111">
    <path clip-path="url(#pa90213fd1b)" d="M 397.061782 376.308 
L 401.143091 376.308 
L 401.143091 324.997227 
L 397.061782 324.997227 
z
" style="fill:#158b6a;opacity:0.9;"/>
   </g>
   <g id="patch_112">
    <path clip-path="url(#pa90213fd1b)" d="M 95.044909 376.308 
L 99.126218 376.308 
L 99.126218 267.039429 
L 95.044909 267.039429 
z
" style="fill:#ba611b;opacity:0.9;"/>
   </g>
   <g id="patch_113">
    <path clip-path="url(#pa90213fd1b)" d="M 125.654727 376.308 
L 129.736036 376.308 
L 129.736036 268.404902 
L 125.654727 268.404902 
z
" style="fill:#ba611b;opacity:0.9;"/>
   </g>
   <g id="patch_114">
    <path clip-path="url(#pa90213fd1b)" d="M 156.264545 376.308 
L 160.345855 376.308 
L 160.345855 272.183926 
L 156.264545 272.183926 
z
" style="fill:#ba611b;opacity:0.9;"/>
   </g>
   <g id="patch_115">
    <path clip-path="url(#pa90213fd1b)" d="M 186.874364 376.308 
L 190.955673 376.308 
L 190.955673 278.541555 
L 186.874364 278.541555 
z
" style="fill:#ba611b;opacity:0.9;"/>
   </g>
   <g id="patch_116">
    <path clip-path="url(#pa90213fd1b)" d="M 217.484182 376.308 
L 221.565491 376.308 
L 221.565491 286.831918 
L 217.484182 286.831918 
z
" style="fill:#ba611b;opacity:0.9;"/>
   </g>
   <g id="patch_117">
    <path clip-path="url(#pa90213fd1b)" d="M 248.094 376.308 
L 252.175309 376.308 
L 252.175309 295.874125 
L 248.094 295.874125 
z
" style="fill:#ba611b;opacity:0.9;"/>
   </g>
   <g id="patch_118">
    <path clip-path="url(#pa90213fd1b)" d="M 278.703818 376.308 
L 282.785127 376.308 
L 282.785127 304.655658 
L 278.703818 304.655658 
z
" style="fill:#ba611b;opacity:0.9;"/>
   </g>
   <g id="patch_119">
    <path clip-path="url(#pa90213fd1b)" d="M 309.313636 376.308 
L 313.394945 376.308 
L 313.394945 312.445561 
L 309.313636 312.445561 
z
" style="fill:#ba611b;opacity:0.9;"/>
   </g>
   <g id="patch_120">
    <path clip-path="url(#pa90213fd1b)" d="M 339.923455 376.308 
L 344.004764 376.308 
L 344.004764 318.902576 
L 339.923455 318.902576 
z
" style="fill:#ba611b;opacity:0.9;"/>
   </g>
   <g id="patch_121">
    <path clip-path="url(#pa90213fd1b)" d="M 370.533273 376.308 
L 374.614582 376.308 
L 374.614582 324.145139 
L 370.533273 324.145139 
z
" style="fill:#ba611b;opacity:0.9;"/>
   </g>
   <g id="patch_122">
    <path clip-path="url(#pa90213fd1b)" d="M 401.143091 376.308 
L 405.2244 376.308 
L 405.2244 328.479253 
L 401.143091 328.479253 
z
" style="fill:#ba611b;opacity:0.9;"/>
   </g>
   <g id="patch_123">
    <path clip-path="url(#pa90213fd1b)" d="M 99.126218 376.308 
L 103.207527 376.308 
L 103.207527 267.039429 
L 99.126218 267.039429 
z
" style="fill:#c282b5;opacity:0.9;"/>
   </g>
   <g id="patch_124">
    <path clip-path="url(#pa90213fd1b)" d="M 129.736036 376.308 
L 133.817345 376.308 
L 133.817345 268.207167 
L 129.736036 268.207167 
z
" style="fill:#c282b5;opacity:0.9;"/>
   </g>
   <g id="patch_125">
    <path clip-path="url(#pa90213fd1b)" d="M 160.345855 376.308 
L 164.427164 376.308 
L 164.427164 271.492691 
L 160.345855 271.492691 
z
" style="fill:#c282b5;opacity:0.9;"/>
   </g>
   <g id="patch_126">
    <path clip-path="url(#pa90213fd1b)" d="M 190.955673 376.308 
L 195.036982 376.308 
L 195.036982 277.373463 
L 190.955673 277.373463 
z
" style="fill:#c282b5;opacity:0.9;"/>
   </g>
   <g id="patch_127">
    <path clip-path="url(#pa90213fd1b)" d="M 221.565491 376.308 
L 225.6468 376.308 
L 225.6468 285.580254 
L 221.565491 285.580254 
z
" style="fill:#c282b5;opacity:0.9;"/>
   </g>
   <g id="patch_128">
    <path clip-path="url(#pa90213fd1b)" d="M 252.175309 376.308 
L 256.256618 376.308 
L 256.256618 294.999719 
L 252.175309 294.999719 
z
" style="fill:#c282b5;opacity:0.9;"/>
   </g>
   <g id="patch_129">
    <path clip-path="url(#pa90213fd1b)" d="M 282.785127 376.308 
L 286.866436 376.308 
L 286.866436 304.386345 
L 282.785127 304.386345 
z
" style="fill:#c282b5;opacity:0.9;"/>
   </g>
   <g id="patch_130">
    <path clip-path="url(#pa90213fd1b)" d="M 313.394945 376.308 
L 317.476255 376.308 
L 317.476255 312.791863 
L 313.394945 312.791863 
z
" style="fill:#c282b5;opacity:0.9;"/>
   </g>
   <g id="patch_131">
    <path clip-path="url(#pa90213fd1b)" d="M 344.004764 376.308 
L 348.086073 376.308 
L 348.086073 319.795846 
L 344.004764 319.795846 
z
" style="fill:#c282b5;opacity:0.9;"/>
   </g>
   <g id="patch_132">
    <path clip-path="url(#pa90213fd1b)" d="M 374.614582 376.308 
L 378.695891 376.308 
L 378.695891 325.486764 
L 374.614582 325.486764 
z
" style="fill:#c282b5;opacity:0.9;"/>
   </g>
   <g id="patch_133">
    <path clip-path="url(#pa90213fd1b)" d="M 405.2244 376.308 
L 409.305709 376.308 
L 409.305709 330.000849 
L 405.2244 330.000849 
z
" style="fill:#c282b5;opacity:0.9;"/>
   </g>
   <g id="patch_134">
    <path clip-path="url(#pa90213fd1b)" d="M 103.207527 376.308 
L 107.288836 376.308 
L 107.288836 267.039429 
L 103.207527 267.039429 
z
" style="fill:#bd926e;opacity:0.9;"/>
   </g>
   <g id="patch_135">
    <path clip-path="url(#pa90213fd1b)" d="M 133.817345 376.308 
L 137.898655 376.308 
L 137.898655 267.999873 
L 133.817345 267.999873 
z
" style="fill:#bd926e;opacity:0.9;"/>
   </g>
   <g id="patch_136">
    <path clip-path="url(#pa90213fd1b)" d="M 164.427164 376.308 
L 168.508473 376.308 
L 168.508473 270.609038 
L 164.427164 270.609038 
z
" style="fill:#bd926e;opacity:0.9;"/>
   </g>
   <g id="patch_137">
    <path clip-path="url(#pa90213fd1b)" d="M 195.036982 376.308 
L 199.118291 376.308 
L 199.118291 275.437271 
L 195.036982 275.437271 
z
" style="fill:#bd926e;opacity:0.9;"/>
   </g>
   <g id="patch_138">
    <path clip-path="url(#pa90213fd1b)" d="M 225.6468 376.308 
L 229.728109 376.308 
L 229.728109 282.546337 
L 225.6468 282.546337 
z
" style="fill:#bd926e;opacity:0.9;"/>
   </g>
   <g id="patch_139">
    <path clip-path="url(#pa90213fd1b)" d="M 256.256618 376.308 
L 260.337927 376.308 
L 260.337927 291.161934 
L 256.256618 291.161934 
z
" style="fill:#bd926e;opacity:0.9;"/>
   </g>
   <g id="patch_140">
    <path clip-path="url(#pa90213fd1b)" d="M 286.866436 376.308 
L 290.947745 376.308 
L 290.947745 300.077807 
L 286.866436 300.077807 
z
" style="fill:#bd926e;opacity:0.9;"/>
   </g>
   <g id="patch_141">
    <path clip-path="url(#pa90213fd1b)" d="M 317.476255 376.308 
L 321.557564 376.308 
L 321.557564 308.306609 
L 317.476255 308.306609 
z
" style="fill:#bd926e;opacity:0.9;"/>
   </g>
   <g id="patch_142">
    <path clip-path="url(#pa90213fd1b)" d="M 348.086073 376.308 
L 352.167382 376.308 
L 352.167382 315.31505 
L 348.086073 315.31505 
z
" style="fill:#bd926e;opacity:0.9;"/>
   </g>
   <g id="patch_143">
    <path clip-path="url(#pa90213fd1b)" d="M 378.695891 376.308 
L 382.7772 376.308 
L 382.7772 321.068896 
L 378.695891 321.068896 
z
" style="fill:#bd926e;opacity:0.9;"/>
   </g>
   <g id="patch_144">
    <path clip-path="url(#pa90213fd1b)" d="M 409.305709 376.308 
L 413.387018 376.308 
L 413.387018 325.721247 
L 409.305709 325.721247 
z
" style="fill:#bd926e;opacity:0.9;"/>
   </g>
   <g id="matplotlib.axis_3">
    <g id="xtick_12">
     <g id="line2d_81">
      <g>
       <use style="stroke:#000000;stroke-width:1.25;" x="95.044909" xlink:href="#md7abb09ea9" y="376.308"/>
      </g>
     </g>
     <g id="text_23">
      <!-- 0 -->
      <g transform="translate(90.845659 395.837938)scale(0.132 -0.132)">
       <use xlink:href="#DejaVuSans-48"/>
      </g>
     </g>
    </g>
    <g id="xtick_13">
     <g id="line2d_82">
      <g>
       <use style="stroke:#000000;stroke-width:1.25;" x="125.654727" xlink:href="#md7abb09ea9" y="376.308"/>
      </g>
     </g>
     <g id="text_24">
      <!-- 1 -->
      <g transform="translate(121.455477 395.837938)scale(0.132 -0.132)">
       <use xlink:href="#DejaVuSans-49"/>
      </g>
     </g>
    </g>
    <g id="xtick_14">
     <g id="line2d_83">
      <g>
       <use style="stroke:#000000;stroke-width:1.25;" x="156.264545" xlink:href="#md7abb09ea9" y="376.308"/>
      </g>
     </g>
     <g id="text_25">
      <!-- 2 -->
      <g transform="translate(152.065295 395.837938)scale(0.132 -0.132)">
       <use xlink:href="#DejaVuSans-50"/>
      </g>
     </g>
    </g>
    <g id="xtick_15">
     <g id="line2d_84">
      <g>
       <use style="stroke:#000000;stroke-width:1.25;" x="186.874364" xlink:href="#md7abb09ea9" y="376.308"/>
      </g>
     </g>
     <g id="text_26">
      <!-- 3 -->
      <g transform="translate(182.675114 395.837938)scale(0.132 -0.132)">
       <use xlink:href="#DejaVuSans-51"/>
      </g>
     </g>
    </g>
    <g id="xtick_16">
     <g id="line2d_85">
      <g>
       <use style="stroke:#000000;stroke-width:1.25;" x="217.484182" xlink:href="#md7abb09ea9" y="376.308"/>
      </g>
     </g>
     <g id="text_27">
      <!-- 4 -->
      <g transform="translate(213.284932 395.837938)scale(0.132 -0.132)">
       <use xlink:href="#DejaVuSans-52"/>
      </g>
     </g>
    </g>
    <g id="xtick_17">
     <g id="line2d_86">
      <g>
       <use style="stroke:#000000;stroke-width:1.25;" x="248.094" xlink:href="#md7abb09ea9" y="376.308"/>
      </g>
     </g>
     <g id="text_28">
      <!-- 5 -->
      <g transform="translate(243.89475 395.837938)scale(0.132 -0.132)">
       <use xlink:href="#DejaVuSans-53"/>
      </g>
     </g>
    </g>
    <g id="xtick_18">
     <g id="line2d_87">
      <g>
       <use style="stroke:#000000;stroke-width:1.25;" x="278.703818" xlink:href="#md7abb09ea9" y="376.308"/>
      </g>
     </g>
     <g id="text_29">
      <!-- 6 -->
      <g transform="translate(274.504568 395.837938)scale(0.132 -0.132)">
       <use xlink:href="#DejaVuSans-54"/>
      </g>
     </g>
    </g>
    <g id="xtick_19">
     <g id="line2d_88">
      <g>
       <use style="stroke:#000000;stroke-width:1.25;" x="309.313636" xlink:href="#md7abb09ea9" y="376.308"/>
      </g>
     </g>
     <g id="text_30">
      <!-- 7 -->
      <g transform="translate(305.114386 395.837938)scale(0.132 -0.132)">
       <use xlink:href="#DejaVuSans-55"/>
      </g>
     </g>
    </g>
    <g id="xtick_20">
     <g id="line2d_89">
      <g>
       <use style="stroke:#000000;stroke-width:1.25;" x="339.923455" xlink:href="#md7abb09ea9" y="376.308"/>
      </g>
     </g>
     <g id="text_31">
      <!-- 8 -->
      <g transform="translate(335.724205 395.837938)scale(0.132 -0.132)">
       <use xlink:href="#DejaVuSans-56"/>
      </g>
     </g>
    </g>
    <g id="xtick_21">
     <g id="line2d_90">
      <g>
       <use style="stroke:#000000;stroke-width:1.25;" x="370.533273" xlink:href="#md7abb09ea9" y="376.308"/>
      </g>
     </g>
     <g id="text_32">
      <!-- 9 -->
      <g transform="translate(366.334023 395.837938)scale(0.132 -0.132)">
       <use xlink:href="#DejaVuSans-57"/>
      </g>
     </g>
    </g>
    <g id="xtick_22">
     <g id="line2d_91">
      <g>
       <use style="stroke:#000000;stroke-width:1.25;" x="401.143091" xlink:href="#md7abb09ea9" y="376.308"/>
      </g>
     </g>
     <g id="text_33">
      <!-- 10 -->
      <g transform="translate(392.744591 395.837938)scale(0.132 -0.132)">
       <use xlink:href="#DejaVuSans-49"/>
       <use x="63.623047" xlink:href="#DejaVuSans-48"/>
      </g>
     </g>
    </g>
    <g id="text_34">
     <!-- fcday -->
     <g transform="translate(228.355875 413.524875)scale(0.144 -0.144)">
      <use xlink:href="#DejaVuSans-102"/>
      <use x="35.205078" xlink:href="#DejaVuSans-99"/>
      <use x="90.185547" xlink:href="#DejaVuSans-100"/>
      <use x="153.662109" xlink:href="#DejaVuSans-97"/>
      <use x="214.941406" xlink:href="#DejaVuSans-121"/>
     </g>
    </g>
   </g>
   <g id="matplotlib.axis_4">
    <g id="ytick_4">
     <g id="line2d_92">
      <g>
       <use style="stroke:#000000;stroke-width:1.25;" x="79.74" xlink:href="#m7dbbd69c0f" y="376.308"/>
      </g>
     </g>
     <g id="text_35">
      <!-- 0.0 -->
      <defs>
       <path d="M 10.6875 12.40625 
L 21 12.40625 
L 21 0 
L 10.6875 0 
z
" id="DejaVuSans-46"/>
      </defs>
      <g transform="translate(49.247875 381.322969)scale(0.132 -0.132)">
       <use xlink:href="#DejaVuSans-48"/>
       <use x="63.623047" xlink:href="#DejaVuSans-46"/>
       <use x="95.410156" xlink:href="#DejaVuSans-48"/>
      </g>
     </g>
    </g>
    <g id="ytick_5">
     <g id="line2d_93">
      <g>
       <use style="stroke:#000000;stroke-width:1.25;" x="79.74" xlink:href="#m7dbbd69c0f" y="321.673714"/>
      </g>
     </g>
     <g id="text_36">
      <!-- 0.5 -->
      <g transform="translate(49.247875 326.688683)scale(0.132 -0.132)">
       <use xlink:href="#DejaVuSans-48"/>
       <use x="63.623047" xlink:href="#DejaVuSans-46"/>
       <use x="95.410156" xlink:href="#DejaVuSans-53"/>
      </g>
     </g>
    </g>
    <g id="ytick_6">
     <g id="line2d_94">
      <g>
       <use style="stroke:#000000;stroke-width:1.25;" x="79.74" xlink:href="#m7dbbd69c0f" y="267.039429"/>
      </g>
     </g>
     <g id="text_37">
      <!-- 1.0 -->
      <g transform="translate(49.247875 272.054397)scale(0.132 -0.132)">
       <use xlink:href="#DejaVuSans-49"/>
       <use x="63.623047" xlink:href="#DejaVuSans-46"/>
       <use x="95.410156" xlink:href="#DejaVuSans-48"/>
      </g>
     </g>
    </g>
    <g id="text_38">
     <!-- acc -->
     <g transform="translate(42.253125 331.272)rotate(-90)scale(0.144 -0.144)">
      <use xlink:href="#DejaVuSans-97"/>
      <use x="61.279297" xlink:href="#DejaVuSans-99"/>
      <use x="116.259766" xlink:href="#DejaVuSans-99"/>
     </g>
    </g>
   </g>
   <g id="line2d_95">
    <path clip-path="url(#pa90213fd1b)" d="M 0 0 
" style="fill:none;stroke:#424242;stroke-linecap:square;stroke-width:2.7;"/>
   </g>
   <g id="line2d_96">
    <path clip-path="url(#pa90213fd1b)" d="M 0 0 
" style="fill:none;stroke:#424242;stroke-linecap:square;stroke-width:2.7;"/>
   </g>
   <g id="line2d_97">
    <path clip-path="url(#pa90213fd1b)" d="M 0 0 
" style="fill:none;stroke:#424242;stroke-linecap:square;stroke-width:2.7;"/>
   </g>
   <g id="line2d_98">
    <path clip-path="url(#pa90213fd1b)" d="M 0 0 
" style="fill:none;stroke:#424242;stroke-linecap:square;stroke-width:2.7;"/>
   </g>
   <g id="line2d_99">
    <path clip-path="url(#pa90213fd1b)" d="M 0 0 
" style="fill:none;stroke:#424242;stroke-linecap:square;stroke-width:2.7;"/>
   </g>
   <g id="line2d_100">
    <path clip-path="url(#pa90213fd1b)" d="M 0 0 
" style="fill:none;stroke:#424242;stroke-linecap:square;stroke-width:2.7;"/>
   </g>
   <g id="line2d_101">
    <path clip-path="url(#pa90213fd1b)" d="M 0 0 
" style="fill:none;stroke:#424242;stroke-linecap:square;stroke-width:2.7;"/>
   </g>
   <g id="line2d_102">
    <path clip-path="url(#pa90213fd1b)" d="M 0 0 
" style="fill:none;stroke:#424242;stroke-linecap:square;stroke-width:2.7;"/>
   </g>
   <g id="line2d_103">
    <path clip-path="url(#pa90213fd1b)" d="M 0 0 
" style="fill:none;stroke:#424242;stroke-linecap:square;stroke-width:2.7;"/>
   </g>
   <g id="line2d_104">
    <path clip-path="url(#pa90213fd1b)" d="M 0 0 
" style="fill:none;stroke:#424242;stroke-linecap:square;stroke-width:2.7;"/>
   </g>
   <g id="line2d_105">
    <path clip-path="url(#pa90213fd1b)" d="M 0 0 
" style="fill:none;stroke:#424242;stroke-linecap:square;stroke-width:2.7;"/>
   </g>
   <g id="line2d_106">
    <path clip-path="url(#pa90213fd1b)" d="M 0 0 
" style="fill:none;stroke:#424242;stroke-linecap:square;stroke-width:2.7;"/>
   </g>
   <g id="line2d_107">
    <path clip-path="url(#pa90213fd1b)" d="M 0 0 
" style="fill:none;stroke:#424242;stroke-linecap:square;stroke-width:2.7;"/>
   </g>
   <g id="line2d_108">
    <path clip-path="url(#pa90213fd1b)" d="M 0 0 
" style="fill:none;stroke:#424242;stroke-linecap:square;stroke-width:2.7;"/>
   </g>
   <g id="line2d_109">
    <path clip-path="url(#pa90213fd1b)" d="M 0 0 
" style="fill:none;stroke:#424242;stroke-linecap:square;stroke-width:2.7;"/>
   </g>
   <g id="line2d_110">
    <path clip-path="url(#pa90213fd1b)" d="M 0 0 
" style="fill:none;stroke:#424242;stroke-linecap:square;stroke-width:2.7;"/>
   </g>
   <g id="line2d_111">
    <path clip-path="url(#pa90213fd1b)" d="M 0 0 
" style="fill:none;stroke:#424242;stroke-linecap:square;stroke-width:2.7;"/>
   </g>
   <g id="line2d_112">
    <path clip-path="url(#pa90213fd1b)" d="M 0 0 
" style="fill:none;stroke:#424242;stroke-linecap:square;stroke-width:2.7;"/>
   </g>
   <g id="line2d_113">
    <path clip-path="url(#pa90213fd1b)" d="M 0 0 
" style="fill:none;stroke:#424242;stroke-linecap:square;stroke-width:2.7;"/>
   </g>
   <g id="line2d_114">
    <path clip-path="url(#pa90213fd1b)" d="M 0 0 
" style="fill:none;stroke:#424242;stroke-linecap:square;stroke-width:2.7;"/>
   </g>
   <g id="line2d_115">
    <path clip-path="url(#pa90213fd1b)" d="M 0 0 
" style="fill:none;stroke:#424242;stroke-linecap:square;stroke-width:2.7;"/>
   </g>
   <g id="line2d_116">
    <path clip-path="url(#pa90213fd1b)" d="M 0 0 
" style="fill:none;stroke:#424242;stroke-linecap:square;stroke-width:2.7;"/>
   </g>
   <g id="line2d_117">
    <path clip-path="url(#pa90213fd1b)" d="M 0 0 
" style="fill:none;stroke:#424242;stroke-linecap:square;stroke-width:2.7;"/>
   </g>
   <g id="line2d_118">
    <path clip-path="url(#pa90213fd1b)" d="M 0 0 
" style="fill:none;stroke:#424242;stroke-linecap:square;stroke-width:2.7;"/>
   </g>
   <g id="line2d_119">
    <path clip-path="url(#pa90213fd1b)" d="M 0 0 
" style="fill:none;stroke:#424242;stroke-linecap:square;stroke-width:2.7;"/>
   </g>
   <g id="line2d_120">
    <path clip-path="url(#pa90213fd1b)" d="M 0 0 
" style="fill:none;stroke:#424242;stroke-linecap:square;stroke-width:2.7;"/>
   </g>
   <g id="line2d_121">
    <path clip-path="url(#pa90213fd1b)" d="M 0 0 
" style="fill:none;stroke:#424242;stroke-linecap:square;stroke-width:2.7;"/>
   </g>
   <g id="line2d_122">
    <path clip-path="url(#pa90213fd1b)" d="M 0 0 
" style="fill:none;stroke:#424242;stroke-linecap:square;stroke-width:2.7;"/>
   </g>
   <g id="line2d_123">
    <path clip-path="url(#pa90213fd1b)" d="M 0 0 
" style="fill:none;stroke:#424242;stroke-linecap:square;stroke-width:2.7;"/>
   </g>
   <g id="line2d_124">
    <path clip-path="url(#pa90213fd1b)" d="M 0 0 
" style="fill:none;stroke:#424242;stroke-linecap:square;stroke-width:2.7;"/>
   </g>
   <g id="line2d_125">
    <path clip-path="url(#pa90213fd1b)" d="M 0 0 
" style="fill:none;stroke:#424242;stroke-linecap:square;stroke-width:2.7;"/>
   </g>
   <g id="line2d_126">
    <path clip-path="url(#pa90213fd1b)" d="M 0 0 
" style="fill:none;stroke:#424242;stroke-linecap:square;stroke-width:2.7;"/>
   </g>
   <g id="line2d_127">
    <path clip-path="url(#pa90213fd1b)" d="M 0 0 
" style="fill:none;stroke:#424242;stroke-linecap:square;stroke-width:2.7;"/>
   </g>
   <g id="line2d_128">
    <path clip-path="url(#pa90213fd1b)" d="M 0 0 
" style="fill:none;stroke:#424242;stroke-linecap:square;stroke-width:2.7;"/>
   </g>
   <g id="line2d_129">
    <path clip-path="url(#pa90213fd1b)" d="M 0 0 
" style="fill:none;stroke:#424242;stroke-linecap:square;stroke-width:2.7;"/>
   </g>
   <g id="line2d_130">
    <path clip-path="url(#pa90213fd1b)" d="M 0 0 
" style="fill:none;stroke:#424242;stroke-linecap:square;stroke-width:2.7;"/>
   </g>
   <g id="line2d_131">
    <path clip-path="url(#pa90213fd1b)" d="M 0 0 
" style="fill:none;stroke:#424242;stroke-linecap:square;stroke-width:2.7;"/>
   </g>
   <g id="line2d_132">
    <path clip-path="url(#pa90213fd1b)" d="M 0 0 
" style="fill:none;stroke:#424242;stroke-linecap:square;stroke-width:2.7;"/>
   </g>
   <g id="line2d_133">
    <path clip-path="url(#pa90213fd1b)" d="M 0 0 
" style="fill:none;stroke:#424242;stroke-linecap:square;stroke-width:2.7;"/>
   </g>
   <g id="line2d_134">
    <path clip-path="url(#pa90213fd1b)" d="M 0 0 
" style="fill:none;stroke:#424242;stroke-linecap:square;stroke-width:2.7;"/>
   </g>
   <g id="line2d_135">
    <path clip-path="url(#pa90213fd1b)" d="M 0 0 
" style="fill:none;stroke:#424242;stroke-linecap:square;stroke-width:2.7;"/>
   </g>
   <g id="line2d_136">
    <path clip-path="url(#pa90213fd1b)" d="M 0 0 
" style="fill:none;stroke:#424242;stroke-linecap:square;stroke-width:2.7;"/>
   </g>
   <g id="line2d_137">
    <path clip-path="url(#pa90213fd1b)" d="M 0 0 
" style="fill:none;stroke:#424242;stroke-linecap:square;stroke-width:2.7;"/>
   </g>
   <g id="line2d_138">
    <path clip-path="url(#pa90213fd1b)" d="M 0 0 
" style="fill:none;stroke:#424242;stroke-linecap:square;stroke-width:2.7;"/>
   </g>
   <g id="line2d_139">
    <path clip-path="url(#pa90213fd1b)" d="M 0 0 
" style="fill:none;stroke:#424242;stroke-linecap:square;stroke-width:2.7;"/>
   </g>
   <g id="line2d_140">
    <path clip-path="url(#pa90213fd1b)" d="M 0 0 
" style="fill:none;stroke:#424242;stroke-linecap:square;stroke-width:2.7;"/>
   </g>
   <g id="line2d_141">
    <path clip-path="url(#pa90213fd1b)" d="M 0 0 
" style="fill:none;stroke:#424242;stroke-linecap:square;stroke-width:2.7;"/>
   </g>
   <g id="line2d_142">
    <path clip-path="url(#pa90213fd1b)" d="M 0 0 
" style="fill:none;stroke:#424242;stroke-linecap:square;stroke-width:2.7;"/>
   </g>
   <g id="line2d_143">
    <path clip-path="url(#pa90213fd1b)" d="M 0 0 
" style="fill:none;stroke:#424242;stroke-linecap:square;stroke-width:2.7;"/>
   </g>
   <g id="line2d_144">
    <path clip-path="url(#pa90213fd1b)" d="M 0 0 
" style="fill:none;stroke:#424242;stroke-linecap:square;stroke-width:2.7;"/>
   </g>
   <g id="line2d_145">
    <path clip-path="url(#pa90213fd1b)" d="M 0 0 
" style="fill:none;stroke:#424242;stroke-linecap:square;stroke-width:2.7;"/>
   </g>
   <g id="line2d_146">
    <path clip-path="url(#pa90213fd1b)" d="M 0 0 
" style="fill:none;stroke:#424242;stroke-linecap:square;stroke-width:2.7;"/>
   </g>
   <g id="line2d_147">
    <path clip-path="url(#pa90213fd1b)" d="M 0 0 
" style="fill:none;stroke:#424242;stroke-linecap:square;stroke-width:2.7;"/>
   </g>
   <g id="line2d_148">
    <path clip-path="url(#pa90213fd1b)" d="M 0 0 
" style="fill:none;stroke:#424242;stroke-linecap:square;stroke-width:2.7;"/>
   </g>
   <g id="line2d_149">
    <path clip-path="url(#pa90213fd1b)" d="M 0 0 
" style="fill:none;stroke:#424242;stroke-linecap:square;stroke-width:2.7;"/>
   </g>
   <g id="line2d_150">
    <path clip-path="url(#pa90213fd1b)" d="M 0 0 
" style="fill:none;stroke:#424242;stroke-linecap:square;stroke-width:2.7;"/>
   </g>
   <g id="line2d_151">
    <path clip-path="url(#pa90213fd1b)" d="M 0 0 
" style="fill:none;stroke:#424242;stroke-linecap:square;stroke-width:2.7;"/>
   </g>
   <g id="line2d_152">
    <path clip-path="url(#pa90213fd1b)" d="M 0 0 
" style="fill:none;stroke:#424242;stroke-linecap:square;stroke-width:2.7;"/>
   </g>
   <g id="line2d_153">
    <path clip-path="url(#pa90213fd1b)" d="M 0 0 
" style="fill:none;stroke:#424242;stroke-linecap:square;stroke-width:2.7;"/>
   </g>
   <g id="line2d_154">
    <path clip-path="url(#pa90213fd1b)" d="M 0 0 
" style="fill:none;stroke:#424242;stroke-linecap:square;stroke-width:2.7;"/>
   </g>
   <g id="line2d_155">
    <path clip-path="url(#pa90213fd1b)" d="M 0 0 
" style="fill:none;stroke:#424242;stroke-linecap:square;stroke-width:2.7;"/>
   </g>
   <g id="line2d_156">
    <path clip-path="url(#pa90213fd1b)" d="M 0 0 
" style="fill:none;stroke:#424242;stroke-linecap:square;stroke-width:2.7;"/>
   </g>
   <g id="line2d_157">
    <path clip-path="url(#pa90213fd1b)" d="M 0 0 
" style="fill:none;stroke:#424242;stroke-linecap:square;stroke-width:2.7;"/>
   </g>
   <g id="line2d_158">
    <path clip-path="url(#pa90213fd1b)" d="M 0 0 
" style="fill:none;stroke:#424242;stroke-linecap:square;stroke-width:2.7;"/>
   </g>
   <g id="line2d_159">
    <path clip-path="url(#pa90213fd1b)" d="M 0 0 
" style="fill:none;stroke:#424242;stroke-linecap:square;stroke-width:2.7;"/>
   </g>
   <g id="line2d_160">
    <path clip-path="url(#pa90213fd1b)" d="M 0 0 
" style="fill:none;stroke:#424242;stroke-linecap:square;stroke-width:2.7;"/>
   </g>
   <g id="patch_145">
    <path d="M 79.74 376.308 
L 79.74 261.576 
" style="fill:none;stroke:#000000;stroke-linecap:square;stroke-linejoin:miter;stroke-width:1.25;"/>
   </g>
   <g id="patch_146">
    <path d="M 79.74 376.308 
L 416.448 376.308 
" style="fill:none;stroke:#000000;stroke-linecap:square;stroke-linejoin:miter;stroke-width:1.25;"/>
   </g>
  </g>
  <g id="text_39">
   <!-- geopotential500 -->
   <defs>
    <path d="M 9.421875 75.984375 
L 18.40625 75.984375 
L 18.40625 0 
L 9.421875 0 
z
" id="DejaVuSans-108"/>
   </defs>
   <g transform="translate(144.9873 21.7701)scale(0.1728 -0.1728)">
    <use xlink:href="#DejaVuSans-103"/>
    <use x="63.476562" xlink:href="#DejaVuSans-101"/>
    <use x="125" xlink:href="#DejaVuSans-111"/>
    <use x="186.181641" xlink:href="#DejaVuSans-112"/>
    <use x="249.658203" xlink:href="#DejaVuSans-111"/>
    <use x="310.839844" xlink:href="#DejaVuSans-116"/>
    <use x="350.048828" xlink:href="#DejaVuSans-101"/>
    <use x="411.572266" xlink:href="#DejaVuSans-110"/>
    <use x="474.951172" xlink:href="#DejaVuSans-116"/>
    <use x="514.160156" xlink:href="#DejaVuSans-105"/>
    <use x="541.943359" xlink:href="#DejaVuSans-97"/>
    <use x="603.222656" xlink:href="#DejaVuSans-108"/>
    <use x="631.005859" xlink:href="#DejaVuSans-53"/>
    <use x="694.628906" xlink:href="#DejaVuSans-48"/>
    <use x="758.251953" xlink:href="#DejaVuSans-48"/>
   </g>
  </g>
 </g>
 <defs>
  <clipPath id="p4be9412acc">
   <rect height="114.732" width="336.708" x="79.74" y="91.152"/>
  </clipPath>
  <clipPath id="pa90213fd1b">
   <rect height="114.732" width="336.708" x="79.74" y="261.576"/>
  </clipPath>
 </defs>
</svg>
