<?xml version="1.0" encoding="UTF-8" standalone="no"?>
<!-- Created with Inkscape (http://www.inkscape.org/) -->

<svg
   version="1.1"
   id="svg2"
   xml:space="preserve"
   width="768"
   height="768"
   viewBox="0 0 768 768"
   sodipodi:docname="spherconv_drawing.pdf.2023_02_28_17_23_43.0.svg"
   inkscape:version="1.1.2 (0a00cf5339, 2022-02-04)"
   xmlns:inkscape="http://www.inkscape.org/namespaces/inkscape"
   xmlns:sodipodi="http://sodipodi.sourceforge.net/DTD/sodipodi-0.dtd"
   xmlns="http://www.w3.org/2000/svg"
   xmlns:svg="http://www.w3.org/2000/svg"><defs
     id="defs6"><clipPath
       clipPathUnits="userSpaceOnUse"
       id="clipPath16"><path
         d="M 0,0.028 H 575.971 V 575.999 H 0 Z"
         clip-rule="evenodd"
         id="path14" /></clipPath></defs><sodipodi:namedview
     id="namedview4"
     pagecolor="#ffffff"
     bordercolor="#666666"
     borderopacity="1.0"
     inkscape:pageshadow="2"
     inkscape:pageopacity="0.0"
     inkscape:pagecheckerboard="0"
     showgrid="false"
     showguides="true"
     inkscape:guide-bbox="true"
     inkscape:zoom="1.0846354"
     inkscape:cx="256.30733"
     inkscape:cy="123.08283"
     inkscape:window-width="1920"
     inkscape:window-height="1048"
     inkscape:window-x="0"
     inkscape:window-y="32"
     inkscape:window-maximized="1"
     inkscape:current-layer="g8"><sodipodi:guide
       position="434.65963,615.83841"
       orientation="0,-1"
       id="guide3201" /></sodipodi:namedview><g
     id="g8"
     inkscape:groupmode="layer"
     inkscape:label="spherconv_drawing"
     transform="matrix(1.3333333,0,0,-1.3333333,0,768)"><g
       id="g1685"><g
         id="g24"
         transform="matrix(0.74927814,0,0,1,26.360758,-1.0213566)"><path
           d="M 96.803,507.628 H 497.254"
           style="fill:none;stroke:#000000;stroke-width:0.79992;stroke-linecap:butt;stroke-linejoin:round;stroke-miterlimit:10;stroke-dasharray:none;stroke-opacity:1"
           id="path26" /></g><g
         id="g28"
         transform="matrix(1,0,0,0.74426618,2.0901299,127.19442)"><path
           d="M 97.2,508.025 V 90.085"
           style="fill:none;stroke:#000000;stroke-width:0.79992;stroke-linecap:butt;stroke-linejoin:round;stroke-miterlimit:10;stroke-dasharray:none;stroke-opacity:1"
           id="path30" /></g><g
         id="g32"
         transform="matrix(1,0,0,0.74426618,2.0901299,127.19442)"><path
           d="M 147.146,508.025 V 90.085"
           style="fill:none;stroke:#000000;stroke-width:0.79992;stroke-linecap:butt;stroke-linejoin:round;stroke-miterlimit:10;stroke-dasharray:none;stroke-opacity:1"
           id="path34" /></g><g
         id="g36"
         transform="matrix(1,0,0,0.74426618,2.0901299,127.19442)"><path
           d="M 197.093,508.025 V 90.085"
           style="fill:none;stroke:#000000;stroke-width:0.79992;stroke-linecap:butt;stroke-linejoin:round;stroke-miterlimit:10;stroke-dasharray:none;stroke-opacity:1"
           id="path38" /></g><g
         id="g40"
         transform="matrix(1,0,0,0.74426618,2.0901299,127.19442)"><path
           d="M 247.039,508.025 V 90.085"
           style="fill:none;stroke:#000000;stroke-width:0.79992;stroke-linecap:butt;stroke-linejoin:round;stroke-miterlimit:10;stroke-dasharray:none;stroke-opacity:1"
           id="path42" /></g><g
         id="g44"
         transform="matrix(1,0,0,0.74426618,2.0901299,127.19442)"><path
           d="M 299.254,508.025 V 90.085"
           style="fill:none;stroke:#000000;stroke-width:0.79992;stroke-linecap:butt;stroke-linejoin:round;stroke-miterlimit:10;stroke-dasharray:none;stroke-opacity:1"
           id="path46" /></g><g
         id="g48"
         transform="matrix(1,0,0,0.74426618,2.0901299,127.19442)"><path
           d="M 346.932,508.025 V 90.085"
           style="fill:none;stroke:#000000;stroke-width:0.79992;stroke-linecap:butt;stroke-linejoin:round;stroke-miterlimit:10;stroke-dasharray:none;stroke-opacity:1"
           id="path50" /></g><g
         id="g52"
         transform="matrix(1,0,0,0.74426618,2.0901299,127.19442)"><path
           d="M 396.879,508.025 V 90.085"
           style="fill:none;stroke:#000000;stroke-width:0.79992;stroke-linecap:butt;stroke-linejoin:round;stroke-miterlimit:10;stroke-dasharray:none;stroke-opacity:1"
           id="path54" /></g><g
         id="g64"
         transform="matrix(0.74927814,0,0,1,26.360758,-1.0213566)"><path
           d="M 96.803,455.499 H 497.254"
           style="fill:none;stroke:#000000;stroke-width:0.79992;stroke-linecap:butt;stroke-linejoin:round;stroke-miterlimit:10;stroke-dasharray:none;stroke-opacity:1"
           id="path66" /></g><g
         id="g68"
         transform="matrix(0.74927814,0,0,1,26.360758,-1.0213566)"><path
           d="M 96.803,403.37 H 497.254"
           style="fill:none;stroke:#000000;stroke-width:0.79992;stroke-linecap:butt;stroke-linejoin:round;stroke-miterlimit:10;stroke-dasharray:none;stroke-opacity:1"
           id="path70" /></g><g
         id="g72"
         transform="matrix(0.74927814,0,0,1,26.360758,-1.0213566)"><path
           d="M 96.803,351.241 H 497.254"
           style="fill:none;stroke:#000000;stroke-width:0.79992;stroke-linecap:butt;stroke-linejoin:round;stroke-miterlimit:10;stroke-dasharray:none;stroke-opacity:1"
           id="path74" /></g><g
         id="g76"
         transform="matrix(0.74927814,0,0,1,26.360758,-1.0213566)"><path
           d="M 96.803,299.112 H 497.254"
           style="fill:none;stroke:#000000;stroke-width:0.79992;stroke-linecap:butt;stroke-linejoin:round;stroke-miterlimit:10;stroke-dasharray:none;stroke-opacity:1"
           id="path78" /></g><g
         id="g80"
         transform="matrix(0.74927814,0,0,1,26.360758,-1.0213566)"><path
           d="M 96.803,246.983 H 497.254"
           style="fill:none;stroke:#000000;stroke-width:0.79992;stroke-linecap:butt;stroke-linejoin:round;stroke-miterlimit:10;stroke-dasharray:none;stroke-opacity:1"
           id="path82" /></g><g
         id="g84"
         transform="matrix(0.74927814,0,0,1,26.360758,-1.0213566)"><path
           d="M 96.803,194.854 H 497.254"
           style="fill:none;stroke:#000000;stroke-width:0.79992;stroke-linecap:butt;stroke-linejoin:round;stroke-miterlimit:10;stroke-dasharray:none;stroke-opacity:1"
           id="path86" /></g></g><g
       id="g20"
       transform="translate(53.11539,101.68764)"><path
         d="m 195.534,92.863 h -50.4 v 100.8 h 100.8 v -100.8 z"
         style="fill:none;stroke:#000000;stroke-width:4.30859;stroke-linecap:butt;stroke-linejoin:round;stroke-miterlimit:10;stroke-dasharray:none;stroke-opacity:1"
         id="path22" /></g><path
       d="m 255.68439,246.76464 c 0,-0.964 -0.256,-1.871 -0.738,-2.721 -0.453,-0.822 -1.133,-1.502 -1.955,-1.956 -0.851,-0.482 -1.758,-0.737 -2.722,-0.737 -0.963,0 -1.871,0.255 -2.693,0.737 -0.85,0.454 -1.53,1.134 -1.984,1.956 -0.482,0.85 -0.737,1.757 -0.737,2.721 0,0.964 0.255,1.871 0.737,2.693 0.454,0.85 1.134,1.531 1.984,1.984 0.822,0.482 1.73,0.737 2.693,0.737 0.964,0 1.871,-0.255 2.722,-0.737 0.822,-0.453 1.502,-1.134 1.955,-1.984 0.482,-0.822 0.738,-1.729 0.738,-2.693 z"
       style="fill:#729fcf;fill-opacity:1;fill-rule:evenodd;stroke:none"
       id="path112" /><g
       id="g114"
       transform="translate(50.11539,101.68764)"><path
         d="m 205.569,145.077 c 0,-0.964 -0.256,-1.871 -0.738,-2.721 -0.453,-0.822 -1.133,-1.502 -1.955,-1.956 -0.851,-0.482 -1.758,-0.737 -2.722,-0.737 -0.963,0 -1.871,0.255 -2.693,0.737 -0.85,0.454 -1.53,1.134 -1.984,1.956 -0.482,0.85 -0.737,1.757 -0.737,2.721 0,0.964 0.255,1.871 0.737,2.693 0.454,0.85 1.134,1.531 1.984,1.984 0.822,0.482 1.73,0.737 2.693,0.737 0.964,0 1.871,-0.255 2.722,-0.737 0.822,-0.453 1.502,-1.134 1.955,-1.984 0.482,-0.822 0.738,-1.729 0.738,-2.693 z"
         style="fill:none;stroke:#000000;stroke-width:0.75;stroke-linecap:butt;stroke-linejoin:round;stroke-miterlimit:10;stroke-dasharray:none;stroke-opacity:1"
         id="path116" /></g><path
       d="m 255.68439,297.78864 c 0,-0.964 -0.256,-1.871 -0.738,-2.721 -0.453,-0.823 -1.133,-1.503 -1.955,-1.956 -0.851,-0.482 -1.758,-0.737 -2.722,-0.737 -0.963,0 -1.871,0.255 -2.693,0.737 -0.85,0.453 -1.53,1.133 -1.984,1.956 -0.482,0.85 -0.737,1.757 -0.737,2.721 0,0.964 0.255,1.871 0.737,2.693 0.454,0.85 1.134,1.53 1.984,1.984 0.822,0.482 1.73,0.737 2.693,0.737 0.964,0 1.871,-0.255 2.722,-0.737 0.822,-0.454 1.502,-1.134 1.955,-1.984 0.482,-0.822 0.738,-1.729 0.738,-2.693 z"
       style="fill:#729fcf;fill-opacity:1;fill-rule:evenodd;stroke:none"
       id="path118" /><g
       id="g120"
       transform="translate(50.11539,101.68764)"><path
         d="m 205.569,196.101 c 0,-0.964 -0.256,-1.871 -0.738,-2.721 -0.453,-0.823 -1.133,-1.503 -1.955,-1.956 -0.851,-0.482 -1.758,-0.737 -2.722,-0.737 -0.963,0 -1.871,0.255 -2.693,0.737 -0.85,0.453 -1.53,1.133 -1.984,1.956 -0.482,0.85 -0.737,1.757 -0.737,2.721 0,0.964 0.255,1.871 0.737,2.693 0.454,0.85 1.134,1.53 1.984,1.984 0.822,0.482 1.73,0.737 2.693,0.737 0.964,0 1.871,-0.255 2.722,-0.737 0.822,-0.454 1.502,-1.134 1.955,-1.984 0.482,-0.822 0.738,-1.729 0.738,-2.693 z"
         style="fill:none;stroke:#000000;stroke-width:0.75;stroke-linecap:butt;stroke-linejoin:round;stroke-miterlimit:10;stroke-dasharray:none;stroke-opacity:1"
         id="path122" /></g><path
       d="m 306.87239,297.78864 c 0,-0.964 -0.255,-1.871 -0.737,-2.721 -0.453,-0.823 -1.133,-1.503 -1.955,-1.956 -0.851,-0.482 -1.758,-0.737 -2.722,-0.737 -0.963,0 -1.871,0.255 -2.693,0.737 -0.85,0.453 -1.53,1.133 -1.984,1.956 -0.482,0.85 -0.737,1.757 -0.737,2.721 0,0.964 0.255,1.871 0.737,2.693 0.454,0.85 1.134,1.53 1.984,1.984 0.822,0.482 1.73,0.737 2.693,0.737 0.964,0 1.871,-0.255 2.722,-0.737 0.822,-0.454 1.502,-1.134 1.955,-1.984 0.482,-0.822 0.737,-1.729 0.737,-2.693 z"
       style="fill:#729fcf;fill-opacity:1;fill-rule:evenodd;stroke:none"
       id="path124" /><g
       id="g126"
       transform="translate(53.11539,101.68764)"><path
         d="m 253.757,196.101 c 0,-0.964 -0.255,-1.871 -0.737,-2.721 -0.453,-0.823 -1.133,-1.503 -1.955,-1.956 -0.851,-0.482 -1.758,-0.737 -2.722,-0.737 -0.963,0 -1.871,0.255 -2.693,0.737 -0.85,0.453 -1.53,1.133 -1.984,1.956 -0.482,0.85 -0.737,1.757 -0.737,2.721 0,0.964 0.255,1.871 0.737,2.693 0.454,0.85 1.134,1.53 1.984,1.984 0.822,0.482 1.73,0.737 2.693,0.737 0.964,0 1.871,-0.255 2.722,-0.737 0.822,-0.454 1.502,-1.134 1.955,-1.984 0.482,-0.822 0.737,-1.729 0.737,-2.693 z"
         style="fill:none;stroke:#000000;stroke-width:0.75;stroke-linecap:butt;stroke-linejoin:round;stroke-miterlimit:10;stroke-dasharray:none;stroke-opacity:1"
         id="path128" /></g><path
       d="m 306.87239,246.76464 c 0,-0.964 -0.255,-1.871 -0.737,-2.721 -0.453,-0.822 -1.133,-1.502 -1.955,-1.956 -0.851,-0.482 -1.758,-0.737 -2.722,-0.737 -0.963,0 -1.871,0.255 -2.693,0.737 -0.85,0.454 -1.53,1.134 -1.984,1.956 -0.482,0.85 -0.737,1.757 -0.737,2.721 0,0.964 0.255,1.871 0.737,2.693 0.454,0.85 1.134,1.531 1.984,1.984 0.822,0.482 1.73,0.737 2.693,0.737 0.964,0 1.871,-0.255 2.722,-0.737 0.822,-0.453 1.502,-1.134 1.955,-1.984 0.482,-0.822 0.737,-1.729 0.737,-2.693 z"
       style="fill:#729fcf;fill-opacity:1;fill-rule:evenodd;stroke:none"
       id="path130" /><g
       id="g132"
       transform="translate(53.11539,101.68764)"><path
         d="m 253.757,145.077 c 0,-0.964 -0.255,-1.871 -0.737,-2.721 -0.453,-0.822 -1.133,-1.502 -1.955,-1.956 -0.851,-0.482 -1.758,-0.737 -2.722,-0.737 -0.963,0 -1.871,0.255 -2.693,0.737 -0.85,0.454 -1.53,1.134 -1.984,1.956 -0.482,0.85 -0.737,1.757 -0.737,2.721 0,0.964 0.255,1.871 0.737,2.693 0.454,0.85 1.134,1.531 1.984,1.984 0.822,0.482 1.73,0.737 2.693,0.737 0.964,0 1.871,-0.255 2.722,-0.737 0.822,-0.453 1.502,-1.134 1.955,-1.984 0.482,-0.822 0.737,-1.729 0.737,-2.693 z"
         style="fill:none;stroke:#000000;stroke-width:0.75;stroke-linecap:butt;stroke-linejoin:round;stroke-miterlimit:10;stroke-dasharray:none;stroke-opacity:1"
         id="path134" /></g><path
       d="m 255.68439,195.74164 c 0,-0.964 -0.256,-1.871 -0.738,-2.722 -0.453,-0.822 -1.133,-1.502 -1.955,-1.956 -0.851,-0.482 -1.758,-0.737 -2.722,-0.737 -0.963,0 -1.871,0.255 -2.693,0.737 -0.85,0.454 -1.53,1.134 -1.984,1.956 -0.482,0.851 -0.737,1.758 -0.737,2.722 0,0.963 0.255,1.87 0.737,2.692 0.454,0.851 1.134,1.531 1.984,1.985 0.822,0.482 1.73,0.737 2.693,0.737 0.964,0 1.871,-0.255 2.722,-0.737 0.822,-0.454 1.502,-1.134 1.955,-1.985 0.482,-0.822 0.738,-1.729 0.738,-2.692 z"
       style="fill:#729fcf;fill-opacity:1;fill-rule:evenodd;stroke:none"
       id="path136" /><g
       id="g138"
       transform="translate(50.11539,101.68764)"><path
         d="m 205.569,94.054 c 0,-0.964 -0.256,-1.871 -0.738,-2.722 -0.453,-0.822 -1.133,-1.502 -1.955,-1.956 -0.851,-0.482 -1.758,-0.737 -2.722,-0.737 -0.963,0 -1.871,0.255 -2.693,0.737 -0.85,0.454 -1.53,1.134 -1.984,1.956 -0.482,0.851 -0.737,1.758 -0.737,2.722 0,0.963 0.255,1.87 0.737,2.692 0.454,0.851 1.134,1.531 1.984,1.985 0.822,0.482 1.73,0.737 2.693,0.737 0.964,0 1.871,-0.255 2.722,-0.737 0.822,-0.454 1.502,-1.134 1.955,-1.985 0.482,-0.822 0.738,-1.729 0.738,-2.692 z"
         style="fill:none;stroke:#000000;stroke-width:0.75;stroke-linecap:butt;stroke-linejoin:round;stroke-miterlimit:10;stroke-dasharray:none;stroke-opacity:1"
         id="path140" /></g><path
       d="m 304.03839,195.74164 c 0,-0.964 -0.255,-1.871 -0.737,-2.722 -0.454,-0.822 -1.134,-1.502 -1.956,-1.956 -0.85,-0.482 -1.758,-0.737 -2.721,-0.737 -0.964,0 -1.871,0.255 -2.693,0.737 -0.851,0.454 -1.531,1.134 -1.985,1.956 -0.481,0.851 -0.737,1.758 -0.737,2.722 0,0.963 0.256,1.87 0.737,2.692 0.454,0.851 1.134,1.531 1.985,1.985 0.822,0.482 1.729,0.737 2.693,0.737 0.963,0 1.871,-0.255 2.721,-0.737 0.822,-0.454 1.502,-1.134 1.956,-1.985 0.482,-0.822 0.737,-1.729 0.737,-2.692 z"
       style="fill:#729fcf;fill-opacity:1;fill-rule:evenodd;stroke:none"
       id="path142" /><g
       id="g144"
       transform="translate(53.11539,101.68764)"><path
         d="m 250.923,94.054 c 0,-0.964 -0.255,-1.871 -0.737,-2.722 -0.454,-0.822 -1.134,-1.502 -1.956,-1.956 -0.85,-0.482 -1.758,-0.737 -2.721,-0.737 -0.964,0 -1.871,0.255 -2.693,0.737 -0.851,0.454 -1.531,1.134 -1.985,1.956 -0.481,0.851 -0.737,1.758 -0.737,2.722 0,0.963 0.256,1.87 0.737,2.692 0.454,0.851 1.134,1.531 1.985,1.985 0.822,0.482 1.729,0.737 2.693,0.737 0.963,0 1.871,-0.255 2.721,-0.737 0.822,-0.454 1.502,-1.134 1.956,-1.985 0.482,-0.822 0.737,-1.729 0.737,-2.692 z"
         style="fill:none;stroke:#000000;stroke-width:0.75;stroke-linecap:butt;stroke-linejoin:round;stroke-miterlimit:10;stroke-dasharray:none;stroke-opacity:1"
         id="path146" /></g><path
       d="m 204.82539,297.78864 c 0,-0.964 -0.255,-1.871 -0.737,-2.721 -0.453,-0.823 -1.134,-1.503 -1.956,-1.956 -0.85,-0.482 -1.757,-0.737 -2.721,-0.737 -0.964,0 -1.871,0.255 -2.693,0.737 -0.85,0.453 -1.531,1.133 -1.984,1.956 -0.482,0.85 -0.737,1.757 -0.737,2.721 0,0.964 0.255,1.871 0.737,2.693 0.453,0.85 1.134,1.53 1.984,1.984 0.822,0.482 1.729,0.737 2.693,0.737 0.964,0 1.871,-0.255 2.721,-0.737 0.822,-0.454 1.503,-1.134 1.956,-1.984 0.482,-0.822 0.737,-1.729 0.737,-2.693 z"
       style="fill:#729fcf;fill-opacity:1;fill-rule:evenodd;stroke:none"
       id="path148" /><g
       id="g150"
       transform="translate(53.11539,101.68764)"><path
         d="m 151.71,196.101 c 0,-0.964 -0.255,-1.871 -0.737,-2.721 -0.453,-0.823 -1.134,-1.503 -1.956,-1.956 -0.85,-0.482 -1.757,-0.737 -2.721,-0.737 -0.964,0 -1.871,0.255 -2.693,0.737 -0.85,0.453 -1.531,1.133 -1.984,1.956 -0.482,0.85 -0.737,1.757 -0.737,2.721 0,0.964 0.255,1.871 0.737,2.693 0.453,0.85 1.134,1.53 1.984,1.984 0.822,0.482 1.729,0.737 2.693,0.737 0.964,0 1.871,-0.255 2.721,-0.737 0.822,-0.454 1.503,-1.134 1.956,-1.984 0.482,-0.822 0.737,-1.729 0.737,-2.693 z"
         style="fill:none;stroke:#000000;stroke-width:0.75;stroke-linecap:butt;stroke-linejoin:round;stroke-miterlimit:10;stroke-dasharray:none;stroke-opacity:1"
         id="path152" /></g><path
       d="m 207.66039,195.74164 c 0,-0.964 -0.255,-1.871 -0.737,-2.722 -0.454,-0.822 -1.134,-1.502 -1.956,-1.956 -0.85,-0.482 -1.758,-0.737 -2.721,-0.737 -0.964,0 -1.871,0.255 -2.693,0.737 -0.851,0.454 -1.531,1.134 -1.984,1.956 -0.482,0.851 -0.737,1.758 -0.737,2.722 0,0.963 0.255,1.87 0.737,2.692 0.453,0.851 1.133,1.531 1.984,1.985 0.822,0.482 1.729,0.737 2.693,0.737 0.963,0 1.871,-0.255 2.721,-0.737 0.822,-0.454 1.502,-1.134 1.956,-1.985 0.482,-0.822 0.737,-1.729 0.737,-2.692 z"
       style="fill:#729fcf;fill-opacity:1;fill-rule:evenodd;stroke:none"
       id="path154" /><g
       id="g156"
       transform="translate(53.11539,101.68764)"><path
         d="m 154.545,94.054 c 0,-0.964 -0.255,-1.871 -0.737,-2.722 -0.454,-0.822 -1.134,-1.502 -1.956,-1.956 -0.85,-0.482 -1.758,-0.737 -2.721,-0.737 -0.964,0 -1.871,0.255 -2.693,0.737 -0.851,0.454 -1.531,1.134 -1.984,1.956 -0.482,0.851 -0.737,1.758 -0.737,2.722 0,0.963 0.255,1.87 0.737,2.692 0.453,0.851 1.133,1.531 1.984,1.985 0.822,0.482 1.729,0.737 2.693,0.737 0.963,0 1.871,-0.255 2.721,-0.737 0.822,-0.454 1.502,-1.134 1.956,-1.985 0.482,-0.822 0.737,-1.729 0.737,-2.692 z"
         style="fill:none;stroke:#000000;stroke-width:0.75;stroke-linecap:butt;stroke-linejoin:round;stroke-miterlimit:10;stroke-dasharray:none;stroke-opacity:1"
         id="path158" /></g><path
       d="m 255.68439,297.78864 c 0,-0.964 -0.256,-1.871 -0.738,-2.721 -0.453,-0.823 -1.133,-1.503 -1.955,-1.956 -0.851,-0.482 -1.758,-0.737 -2.722,-0.737 -0.963,0 -1.871,0.255 -2.693,0.737 -0.85,0.453 -1.53,1.133 -1.984,1.956 -0.482,0.85 -0.737,1.757 -0.737,2.721 0,0.964 0.255,1.871 0.737,2.693 0.454,0.85 1.134,1.53 1.984,1.984 0.822,0.482 1.73,0.737 2.693,0.737 0.964,0 1.871,-0.255 2.722,-0.737 0.822,-0.454 1.502,-1.134 1.955,-1.984 0.482,-0.822 0.738,-1.729 0.738,-2.693 z"
       style="fill:#729fcf;fill-opacity:1;fill-rule:evenodd;stroke:none"
       id="path160" /><g
       id="g162"
       transform="translate(50.11539,101.68764)"><path
         d="m 205.569,196.101 c 0,-0.964 -0.256,-1.871 -0.738,-2.721 -0.453,-0.823 -1.133,-1.503 -1.955,-1.956 -0.851,-0.482 -1.758,-0.737 -2.722,-0.737 -0.963,0 -1.871,0.255 -2.693,0.737 -0.85,0.453 -1.53,1.133 -1.984,1.956 -0.482,0.85 -0.737,1.757 -0.737,2.721 0,0.964 0.255,1.871 0.737,2.693 0.454,0.85 1.134,1.53 1.984,1.984 0.822,0.482 1.73,0.737 2.693,0.737 0.964,0 1.871,-0.255 2.722,-0.737 0.822,-0.454 1.502,-1.134 1.955,-1.984 0.482,-0.822 0.738,-1.729 0.738,-2.693 z"
         style="fill:none;stroke:#000000;stroke-width:0.75;stroke-linecap:butt;stroke-linejoin:round;stroke-miterlimit:10;stroke-dasharray:none;stroke-opacity:1"
         id="path164" /></g><path
       d="m 204.82539,246.76464 c 0,-0.964 -0.255,-1.871 -0.737,-2.721 -0.453,-0.822 -1.134,-1.502 -1.956,-1.956 -0.85,-0.482 -1.757,-0.737 -2.721,-0.737 -0.964,0 -1.871,0.255 -2.693,0.737 -0.85,0.454 -1.531,1.134 -1.984,1.956 -0.482,0.85 -0.737,1.757 -0.737,2.721 0,0.964 0.255,1.871 0.737,2.693 0.453,0.85 1.134,1.531 1.984,1.984 0.822,0.482 1.729,0.737 2.693,0.737 0.964,0 1.871,-0.255 2.721,-0.737 0.822,-0.453 1.503,-1.134 1.956,-1.984 0.482,-0.822 0.737,-1.729 0.737,-2.693 z"
       style="fill:#729fcf;fill-opacity:1;fill-rule:evenodd;stroke:none"
       id="path166" /><g
       id="g168"
       transform="translate(53.11539,101.68764)"><path
         d="m 151.71,145.077 c 0,-0.964 -0.255,-1.871 -0.737,-2.721 -0.453,-0.822 -1.134,-1.502 -1.956,-1.956 -0.85,-0.482 -1.757,-0.737 -2.721,-0.737 -0.964,0 -1.871,0.255 -2.693,0.737 -0.85,0.454 -1.531,1.134 -1.984,1.956 -0.482,0.85 -0.737,1.757 -0.737,2.721 0,0.964 0.255,1.871 0.737,2.693 0.453,0.85 1.134,1.531 1.984,1.984 0.822,0.482 1.729,0.737 2.693,0.737 0.964,0 1.871,-0.255 2.721,-0.737 0.822,-0.453 1.503,-1.134 1.956,-1.984 0.482,-0.822 0.737,-1.729 0.737,-2.693 z"
         style="fill:none;stroke:#000000;stroke-width:0.75;stroke-linecap:butt;stroke-linejoin:round;stroke-miterlimit:10;stroke-dasharray:none;stroke-opacity:1"
         id="path170" /></g><g
       id="g172"
       transform="translate(2.0901299,93.478644)"><text
         transform="matrix(1,0,0,-1,45.609,131.386)"
         style="font-variant:normal;font-weight:normal;font-size:18px;font-family:'Liberation Sans';-inkscape-font-specification:LiberationSans;writing-mode:lr-tb;fill:#000000;fill-opacity:1;fill-rule:nonzero;stroke:none"
         id="text176"><tspan
           x="0 11.898"
           y="0"
           sodipodi:role="line"
           id="tspan174">EQ</tspan></text></g><path
       d="m 60.11513,330.17164 v 48.642 h -4.507 l 9.014,16.186 9.014,-16.186 h -4.507 v -48.642 z"
       style="fill:#729fcf;fill-opacity:1;fill-rule:evenodd;stroke:none"
       id="path178" /><g
       id="g180"
       transform="translate(2.0901299,93.478644)"><path
         d="m 58.025,236.693 v 48.642 h -4.507 l 9.014,16.186 9.014,-16.186 h -4.507 v -48.642 z"
         style="fill:none;stroke:#000000;stroke-width:0.75;stroke-linecap:butt;stroke-linejoin:round;stroke-miterlimit:10;stroke-dasharray:none;stroke-opacity:1"
         id="path182" /></g><g
       id="g184"
       transform="translate(2.0901299,93.478644)"><text
         transform="matrix(1,0,0,-1,53.405,368.391)"
         style="font-variant:normal;font-weight:normal;font-size:18px;font-family:'Liberation Sans';-inkscape-font-specification:LiberationSans;writing-mode:lr-tb;fill:#000000;fill-opacity:1;fill-rule:nonzero;stroke:none"
         id="text188"><tspan
           x="0"
           y="0"
           id="tspan186">N</tspan></text></g><g
       id="g96"
       transform="translate(30.668631,15.637951)"><path
         d="M 122.56394,446.03731 C 161.19994,390.59131 159.222,351.014 159.222,351.014"
         style="fill:none;stroke:#000000;stroke-width:5.75423;stroke-linecap:butt;stroke-linejoin:round;stroke-miterlimit:10;stroke-dasharray:none;stroke-opacity:1"
         id="path98"
         sodipodi:nodetypes="cc" /></g><g
       id="g100"
       transform="translate(75.668631,15.637951)"><path
         d="M 269.74205,446.24087 C 231.10605,390.76687 233.546,350.22 233.546,350.22"
         style="fill:none;stroke:#000000;stroke-width:5.75423;stroke-linecap:butt;stroke-linejoin:round;stroke-miterlimit:10;stroke-dasharray:none;stroke-opacity:1"
         id="path102"
         sodipodi:nodetypes="cc" /></g><g
       id="g104"
       transform="translate(51.668631,20.137951)"><path
         d="m 101.56394,441.53731 c 0,0 51.66206,11.48998 96.30844,11.62582 45.83402,0.13946 95.86967,-11.42226 95.86967,-11.42226"
         style="fill:none;stroke:#000000;stroke-width:5.75423;stroke-linecap:butt;stroke-linejoin:round;stroke-miterlimit:10;stroke-dasharray:none;stroke-opacity:1"
         id="path106"
         sodipodi:nodetypes="csc" /></g><g
       id="g108"
       transform="translate(51.668631,20.137951)"><path
         d="m 138.222,346.514 c 0,0 46.26348,6.48849 59.40385,6.32485 12.76243,0.60865 47.60079,-4.34746 59.92015,-7.11885"
         style="fill:none;stroke:#000000;stroke-width:5.75423;stroke-linecap:butt;stroke-linejoin:round;stroke-miterlimit:10;stroke-dasharray:none;stroke-opacity:1"
         id="path110"
         sodipodi:nodetypes="ccc" /></g><path
       d="m 255.02563,423.70395 c 0,-0.964 -0.255,-1.871 -0.737,-2.721 -0.453,-0.822 -1.133,-1.502 -1.955,-1.956 -0.851,-0.482 -1.758,-0.737 -2.722,-0.737 -0.963,0 -1.871,0.255 -2.693,0.737 -0.85,0.454 -1.53,1.134 -1.984,1.956 -0.482,0.85 -0.737,1.757 -0.737,2.721 0,0.964 0.255,1.871 0.737,2.693 0.454,0.85 1.134,1.531 1.984,1.984 0.822,0.482 1.73,0.737 2.693,0.737 0.964,0 1.871,-0.255 2.722,-0.737 0.822,-0.453 1.502,-1.134 1.955,-1.984 0.482,-0.822 0.737,-1.729 0.737,-2.693 z"
       style="fill:#729fcf;fill-opacity:1;fill-rule:evenodd;stroke:none"
       id="path190" /><g
       id="g192"
       transform="translate(51.668631,20.137951)"><path
         d="m 203.357,402.066 c 0,-0.964 -0.255,-1.871 -0.737,-2.721 -0.453,-0.822 -1.133,-1.502 -1.955,-1.956 -0.851,-0.482 -1.758,-0.737 -2.722,-0.737 -0.963,0 -1.871,0.255 -2.693,0.737 -0.85,0.454 -1.53,1.134 -1.984,1.956 -0.482,0.85 -0.737,1.757 -0.737,2.721 0,0.964 0.255,1.871 0.737,2.693 0.454,0.85 1.134,1.531 1.984,1.984 0.822,0.482 1.73,0.737 2.693,0.737 0.964,0 1.871,-0.255 2.722,-0.737 0.822,-0.453 1.502,-1.134 1.955,-1.984 0.482,-0.822 0.737,-1.729 0.737,-2.693 z"
         style="fill:none;stroke:#000000;stroke-width:0.75;stroke-linecap:butt;stroke-linejoin:round;stroke-miterlimit:10;stroke-dasharray:none;stroke-opacity:1"
         id="path194" /></g><path
       d="m 255.02563,473.22795 c 0,-0.964 -0.255,-1.871 -0.737,-2.721 -0.453,-0.823 -1.133,-1.503 -1.955,-1.956 -0.851,-0.482 -1.758,-0.737 -2.722,-0.737 -0.963,0 -1.871,0.255 -2.693,0.737 -0.85,0.453 -1.53,1.133 -1.984,1.956 -0.482,0.85 -0.737,1.757 -0.737,2.721 0,0.964 0.255,1.871 0.737,2.693 0.454,0.85 1.134,1.53 1.984,1.984 0.822,0.482 1.73,0.737 2.693,0.737 0.964,0 1.871,-0.255 2.722,-0.737 0.822,-0.454 1.502,-1.134 1.955,-1.984 0.482,-0.822 0.737,-1.729 0.737,-2.693 z"
       style="fill:#729fcf;fill-opacity:1;fill-rule:evenodd;stroke:none"
       id="path196" /><g
       id="g198"
       transform="translate(51.668631,20.137951)"><path
         d="m 203.357,453.09 c 0,-0.964 -0.255,-1.871 -0.737,-2.721 -0.453,-0.823 -1.133,-1.503 -1.955,-1.956 -0.851,-0.482 -1.758,-0.737 -2.722,-0.737 -0.963,0 -1.871,0.255 -2.693,0.737 -0.85,0.453 -1.53,1.133 -1.984,1.956 -0.482,0.85 -0.737,1.757 -0.737,2.721 0,0.964 0.255,1.871 0.737,2.693 0.454,0.85 1.134,1.53 1.984,1.984 0.822,0.482 1.73,0.737 2.693,0.737 0.964,0 1.871,-0.255 2.722,-0.737 0.822,-0.454 1.502,-1.134 1.955,-1.984 0.482,-0.822 0.737,-1.729 0.737,-2.693 z"
         style="fill:none;stroke:#000000;stroke-width:0.75;stroke-linecap:butt;stroke-linejoin:round;stroke-miterlimit:10;stroke-dasharray:none;stroke-opacity:1"
         id="path200" /></g><g
       id="g1808"
       transform="translate(22.415951)"><path
         d="m 325.99473,461.87882 c 0,-0.964 -0.255,-1.871 -0.737,-2.721 -0.453,-0.823 -1.134,-1.503 -1.956,-1.956 -0.85,-0.482 -1.757,-0.737 -2.721,-0.737 -0.964,0 -1.871,0.255 -2.693,0.737 -0.85,0.453 -1.531,1.133 -1.984,1.956 -0.482,0.85 -0.737,1.757 -0.737,2.721 0,0.964 0.255,1.871 0.737,2.693 0.453,0.85 1.134,1.53 1.984,1.984 0.822,0.482 1.729,0.737 2.693,0.737 0.964,0 1.871,-0.255 2.721,-0.737 0.822,-0.454 1.503,-1.134 1.956,-1.984 0.482,-0.822 0.737,-1.729 0.737,-2.693 z"
         style="fill:#729fcf;fill-opacity:1;fill-rule:evenodd;stroke:none"
         id="path202" /><g
         id="g204"
         transform="translate(40.432727,8.7888232)"><path
           d="m 285.562,453.09 c 0,-0.964 -0.255,-1.871 -0.737,-2.721 -0.453,-0.823 -1.134,-1.503 -1.956,-1.956 -0.85,-0.482 -1.757,-0.737 -2.721,-0.737 -0.964,0 -1.871,0.255 -2.693,0.737 -0.85,0.453 -1.531,1.133 -1.984,1.956 -0.482,0.85 -0.737,1.757 -0.737,2.721 0,0.964 0.255,1.871 0.737,2.693 0.453,0.85 1.134,1.53 1.984,1.984 0.822,0.482 1.729,0.737 2.693,0.737 0.964,0 1.871,-0.255 2.721,-0.737 0.822,-0.454 1.503,-1.134 1.956,-1.984 0.482,-0.822 0.737,-1.729 0.737,-2.693 z"
           style="fill:none;stroke:#000000;stroke-width:0.75;stroke-linecap:butt;stroke-linejoin:round;stroke-miterlimit:10;stroke-dasharray:none;stroke-opacity:1"
           id="path206" /></g></g><g
       id="g687"
       transform="translate(24,-4.5)"><path
         d="m 303.21463,422.20395 c 0,-0.964 -0.255,-1.871 -0.737,-2.721 -0.453,-0.822 -1.133,-1.502 -1.955,-1.956 -0.851,-0.482 -1.758,-0.737 -2.722,-0.737 -0.963,0 -1.871,0.255 -2.693,0.737 -0.85,0.454 -1.53,1.134 -1.984,1.956 -0.482,0.85 -0.737,1.757 -0.737,2.721 0,0.964 0.255,1.871 0.737,2.693 0.454,0.85 1.134,1.531 1.984,1.984 0.822,0.482 1.73,0.737 2.693,0.737 0.964,0 1.871,-0.255 2.722,-0.737 0.822,-0.453 1.502,-1.134 1.955,-1.984 0.482,-0.822 0.737,-1.729 0.737,-2.693 z"
         style="fill:#729fcf;fill-opacity:1;fill-rule:evenodd;stroke:none"
         id="path208" /><g
         id="g210"
         transform="translate(51.668631,20.137951)"><path
           d="m 251.546,402.066 c 0,-0.964 -0.255,-1.871 -0.737,-2.721 -0.453,-0.822 -1.133,-1.502 -1.955,-1.956 -0.851,-0.482 -1.758,-0.737 -2.722,-0.737 -0.963,0 -1.871,0.255 -2.693,0.737 -0.85,0.454 -1.53,1.134 -1.984,1.956 -0.482,0.85 -0.737,1.757 -0.737,2.721 0,0.964 0.255,1.871 0.737,2.693 0.454,0.85 1.134,1.531 1.984,1.984 0.822,0.482 1.73,0.737 2.693,0.737 0.964,0 1.871,-0.255 2.722,-0.737 0.822,-0.453 1.502,-1.134 1.955,-1.984 0.482,-0.822 0.737,-1.729 0.737,-2.693 z"
           style="fill:none;stroke:#000000;stroke-width:0.75;stroke-linecap:butt;stroke-linejoin:round;stroke-miterlimit:10;stroke-dasharray:none;stroke-opacity:1"
           id="path212" /></g></g><g
       id="g3618"
       transform="translate(-0.4677518,1.6210198)"><path
         d="m 255.02563,371.18095 c 0,-0.964 -0.255,-1.871 -0.737,-2.722 -0.453,-0.822 -1.133,-1.502 -1.955,-1.956 -0.851,-0.482 -1.758,-0.737 -2.722,-0.737 -0.963,0 -1.871,0.255 -2.693,0.737 -0.85,0.454 -1.53,1.134 -1.984,1.956 -0.482,0.851 -0.737,1.758 -0.737,2.722 0,0.963 0.255,1.87 0.737,2.692 0.454,0.851 1.134,1.531 1.984,1.985 0.822,0.482 1.73,0.737 2.693,0.737 0.964,0 1.871,-0.255 2.722,-0.737 0.822,-0.454 1.502,-1.134 1.955,-1.985 0.482,-0.822 0.737,-1.729 0.737,-2.692 z"
         style="fill:#729fcf;fill-opacity:1;fill-rule:evenodd;stroke:none"
         id="path214" /><g
         id="g216"
         transform="translate(51.668631,20.137951)"><path
           d="m 203.357,351.043 c 0,-0.964 -0.255,-1.871 -0.737,-2.722 -0.453,-0.822 -1.133,-1.502 -1.955,-1.956 -0.851,-0.482 -1.758,-0.737 -2.722,-0.737 -0.963,0 -1.871,0.255 -2.693,0.737 -0.85,0.454 -1.53,1.134 -1.984,1.956 -0.482,0.851 -0.737,1.758 -0.737,2.722 0,0.963 0.255,1.87 0.737,2.692 0.454,0.851 1.134,1.531 1.984,1.985 0.822,0.482 1.73,0.737 2.693,0.737 0.964,0 1.871,-0.255 2.722,-0.737 0.822,-0.454 1.502,-1.134 1.955,-1.985 0.482,-0.822 0.737,-1.729 0.737,-2.692 z"
           style="fill:none;stroke:#000000;stroke-width:0.75;stroke-linecap:butt;stroke-linejoin:round;stroke-miterlimit:10;stroke-dasharray:none;stroke-opacity:1"
           id="path218" /></g></g><g
       id="g3623"
       transform="translate(24.673001,-4.5564207)"><path
         d="m 289.04163,371.18095 c 0,-0.964 -0.255,-1.871 -0.737,-2.722 -0.453,-0.822 -1.134,-1.502 -1.956,-1.956 -0.85,-0.482 -1.757,-0.737 -2.721,-0.737 -0.964,0 -1.871,0.255 -2.693,0.737 -0.85,0.454 -1.531,1.134 -1.984,1.956 -0.482,0.851 -0.737,1.758 -0.737,2.722 0,0.963 0.255,1.87 0.737,2.692 0.453,0.851 1.134,1.531 1.984,1.985 0.822,0.482 1.729,0.737 2.693,0.737 0.964,0 1.871,-0.255 2.721,-0.737 0.822,-0.454 1.503,-1.134 1.956,-1.985 0.482,-0.822 0.737,-1.729 0.737,-2.692 z"
         style="fill:#729fcf;fill-opacity:1;fill-rule:evenodd;stroke:none"
         id="path220" /><g
         id="g222"
         transform="translate(51.668631,20.137951)"><path
           d="m 237.373,351.043 c 0,-0.964 -0.255,-1.871 -0.737,-2.722 -0.453,-0.822 -1.134,-1.502 -1.956,-1.956 -0.85,-0.482 -1.757,-0.737 -2.721,-0.737 -0.964,0 -1.871,0.255 -2.693,0.737 -0.85,0.454 -1.531,1.134 -1.984,1.956 -0.482,0.851 -0.737,1.758 -0.737,2.722 0,0.963 0.255,1.87 0.737,2.692 0.453,0.851 1.134,1.531 1.984,1.985 0.822,0.482 1.729,0.737 2.693,0.737 0.964,0 1.871,-0.255 2.721,-0.737 0.822,-0.454 1.503,-1.134 1.956,-1.985 0.482,-0.822 0.737,-1.729 0.737,-2.692 z"
           style="fill:none;stroke:#000000;stroke-width:0.75;stroke-linecap:butt;stroke-linejoin:round;stroke-miterlimit:10;stroke-dasharray:none;stroke-opacity:1"
           id="path224" /></g></g><g
       id="g2853"
       transform="translate(-13.589059,-11.552689)"><g
         id="g1813"><path
           d="m 172.82163,473.22795 c 0,-0.964 -0.255,-1.871 -0.737,-2.721 -0.454,-0.823 -1.134,-1.503 -1.956,-1.956 -0.851,-0.482 -1.758,-0.737 -2.721,-0.737 -0.964,0 -1.871,0.255 -2.693,0.737 -0.851,0.453 -1.531,1.133 -1.985,1.956 -0.481,0.85 -0.737,1.757 -0.737,2.721 0,0.964 0.256,1.871 0.737,2.693 0.454,0.85 1.134,1.53 1.985,1.984 0.822,0.482 1.729,0.737 2.693,0.737 0.963,0 1.87,-0.255 2.721,-0.737 0.822,-0.454 1.502,-1.134 1.956,-1.984 0.482,-0.822 0.737,-1.729 0.737,-2.693 z"
           style="fill:#729fcf;fill-opacity:1;fill-rule:evenodd;stroke:none"
           id="path226" /><g
           id="g228"
           transform="translate(51.668631,20.137951)"><path
             d="m 121.153,453.09 c 0,-0.964 -0.255,-1.871 -0.737,-2.721 -0.454,-0.823 -1.134,-1.503 -1.956,-1.956 -0.851,-0.482 -1.758,-0.737 -2.721,-0.737 -0.964,0 -1.871,0.255 -2.693,0.737 -0.851,0.453 -1.531,1.133 -1.985,1.956 -0.481,0.85 -0.737,1.757 -0.737,2.721 0,0.964 0.256,1.871 0.737,2.693 0.454,0.85 1.134,1.53 1.985,1.984 0.822,0.482 1.729,0.737 2.693,0.737 0.963,0 1.87,-0.255 2.721,-0.737 0.822,-0.454 1.502,-1.134 1.956,-1.984 0.482,-0.822 0.737,-1.729 0.737,-2.693 z"
             style="fill:none;stroke:#000000;stroke-width:0.75;stroke-linecap:butt;stroke-linejoin:round;stroke-miterlimit:10;stroke-dasharray:none;stroke-opacity:1"
             id="path230" /></g></g></g><g
       id="g3628"
       transform="translate(-22.653626,-3.7487126)"><path
         d="m 218.17563,371.18095 c 0,-0.964 -0.255,-1.871 -0.737,-2.722 -0.453,-0.822 -1.134,-1.502 -1.956,-1.956 -0.85,-0.482 -1.757,-0.737 -2.721,-0.737 -0.964,0 -1.871,0.255 -2.693,0.737 -0.85,0.454 -1.531,1.134 -1.984,1.956 -0.482,0.851 -0.737,1.758 -0.737,2.722 0,0.963 0.255,1.87 0.737,2.692 0.453,0.851 1.134,1.531 1.984,1.985 0.822,0.482 1.729,0.737 2.693,0.737 0.964,0 1.871,-0.255 2.721,-0.737 0.822,-0.454 1.503,-1.134 1.956,-1.985 0.482,-0.822 0.737,-1.729 0.737,-2.692 z"
         style="fill:#729fcf;fill-opacity:1;fill-rule:evenodd;stroke:none"
         id="path232" /><g
         id="g234"
         transform="translate(51.668631,20.137951)"><path
           d="m 166.507,351.043 c 0,-0.964 -0.255,-1.871 -0.737,-2.722 -0.453,-0.822 -1.134,-1.502 -1.956,-1.956 -0.85,-0.482 -1.757,-0.737 -2.721,-0.737 -0.964,0 -1.871,0.255 -2.693,0.737 -0.85,0.454 -1.531,1.134 -1.984,1.956 -0.482,0.851 -0.737,1.758 -0.737,2.722 0,0.963 0.255,1.87 0.737,2.692 0.453,0.851 1.134,1.531 1.984,1.985 0.822,0.482 1.729,0.737 2.693,0.737 0.964,0 1.871,-0.255 2.721,-0.737 0.822,-0.454 1.503,-1.134 1.956,-1.985 0.482,-0.822 0.737,-1.729 0.737,-2.692 z"
           style="fill:none;stroke:#000000;stroke-width:0.75;stroke-linecap:butt;stroke-linejoin:round;stroke-miterlimit:10;stroke-dasharray:none;stroke-opacity:1"
           id="path236" /></g></g><path
       d="m 255.02563,473.22795 c 0,-0.964 -0.255,-1.871 -0.737,-2.721 -0.453,-0.823 -1.133,-1.503 -1.955,-1.956 -0.851,-0.482 -1.758,-0.737 -2.722,-0.737 -0.963,0 -1.871,0.255 -2.693,0.737 -0.85,0.453 -1.53,1.133 -1.984,1.956 -0.482,0.85 -0.737,1.757 -0.737,2.721 0,0.964 0.255,1.871 0.737,2.693 0.454,0.85 1.134,1.53 1.984,1.984 0.822,0.482 1.73,0.737 2.693,0.737 0.964,0 1.871,-0.255 2.722,-0.737 0.822,-0.454 1.502,-1.134 1.955,-1.984 0.482,-0.822 0.737,-1.729 0.737,-2.693 z"
       style="fill:#729fcf;fill-opacity:1;fill-rule:evenodd;stroke:none"
       id="path238" /><g
       id="g240"
       transform="translate(51.668631,20.137951)"><path
         d="m 203.357,453.09 c 0,-0.964 -0.255,-1.871 -0.737,-2.721 -0.453,-0.823 -1.133,-1.503 -1.955,-1.956 -0.851,-0.482 -1.758,-0.737 -2.722,-0.737 -0.963,0 -1.871,0.255 -2.693,0.737 -0.85,0.453 -1.53,1.133 -1.984,1.956 -0.482,0.85 -0.737,1.757 -0.737,2.721 0,0.964 0.255,1.871 0.737,2.693 0.454,0.85 1.134,1.53 1.984,1.984 0.822,0.482 1.73,0.737 2.693,0.737 0.964,0 1.871,-0.255 2.722,-0.737 0.822,-0.454 1.502,-1.134 1.955,-1.984 0.482,-0.822 0.737,-1.729 0.737,-2.693 z"
         style="fill:none;stroke:#000000;stroke-width:0.75;stroke-linecap:butt;stroke-linejoin:round;stroke-miterlimit:10;stroke-dasharray:none;stroke-opacity:1"
         id="path242" /></g><g
       id="g682"
       transform="translate(-21,-4.5)"><path
         d="m 204.00263,422.20395 c 0,-0.964 -0.255,-1.871 -0.737,-2.721 -0.454,-0.822 -1.134,-1.502 -1.956,-1.956 -0.85,-0.482 -1.758,-0.737 -2.721,-0.737 -0.964,0 -1.871,0.255 -2.693,0.737 -0.851,0.454 -1.531,1.134 -1.984,1.956 -0.482,0.85 -0.737,1.757 -0.737,2.721 0,0.964 0.255,1.871 0.737,2.693 0.453,0.85 1.133,1.531 1.984,1.984 0.822,0.482 1.729,0.737 2.693,0.737 0.963,0 1.871,-0.255 2.721,-0.737 0.822,-0.453 1.502,-1.134 1.956,-1.984 0.482,-0.822 0.737,-1.729 0.737,-2.693 z"
         style="fill:#729fcf;fill-opacity:1;fill-rule:evenodd;stroke:none"
         id="path244" /><g
         id="g246"
         transform="translate(51.668631,20.137951)"><path
           d="m 152.334,402.066 c 0,-0.964 -0.255,-1.871 -0.737,-2.721 -0.454,-0.822 -1.134,-1.502 -1.956,-1.956 -0.85,-0.482 -1.758,-0.737 -2.721,-0.737 -0.964,0 -1.871,0.255 -2.693,0.737 -0.851,0.454 -1.531,1.134 -1.984,1.956 -0.482,0.85 -0.737,1.757 -0.737,2.721 0,0.964 0.255,1.871 0.737,2.693 0.453,0.85 1.133,1.531 1.984,1.984 0.822,0.482 1.729,0.737 2.693,0.737 0.963,0 1.871,-0.255 2.721,-0.737 0.822,-0.453 1.502,-1.134 1.956,-1.984 0.482,-0.822 0.737,-1.729 0.737,-2.693 z"
           style="fill:none;stroke:#000000;stroke-width:0.75;stroke-linecap:butt;stroke-linejoin:round;stroke-miterlimit:10;stroke-dasharray:none;stroke-opacity:1"
           id="path248" /></g></g></g></svg>
