<?xml version="1.0" encoding="utf-8" standalone="no"?>
<!DOCTYPE svg PUBLIC "-//W3C//DTD SVG 1.1//EN"
  "http://www.w3.org/Graphics/SVG/1.1/DTD/svg11.dtd">
<!-- Created with matplotlib (https://matplotlib.org/) -->
<svg height="432pt" version="1.1" viewBox="0 0 432 432" width="432pt" xmlns="http://www.w3.org/2000/svg" xmlns:xlink="http://www.w3.org/1999/xlink">
 <defs>
  <style type="text/css">
*{stroke-linecap:butt;stroke-linejoin:round;}
  </style>
 </defs>
 <g id="figure_1">
  <g id="patch_1">
   <path d="M 0 432 
L 432 432 
L 432 0 
L 0 0 
z
" style="fill:#ffffff;"/>
  </g>
  <g id="axes_1">
   <g id="patch_2">
    <path d="M 57.44 217.24 
L 421.2 217.24 
L 421.2 86.4 
L 57.44 86.4 
z
" style="fill:#ffffff;"/>
   </g>
   <g id="patch_3">
    <path clip-path="url(#pd1c3ff7b37)" d="M 60.746909 217.24 
L 65.156121 217.24 
L 65.156121 217.24 
L 60.746909 217.24 
z
" style="fill:#176d9c;opacity:0.9;"/>
   </g>
   <g id="patch_4">
    <path clip-path="url(#pd1c3ff7b37)" d="M 93.816 217.24 
L 98.225212 217.24 
L 98.225212 196.985833 
L 93.816 196.985833 
z
" style="fill:#176d9c;opacity:0.9;"/>
   </g>
   <g id="patch_5">
    <path clip-path="url(#pd1c3ff7b37)" d="M 126.885091 217.24 
L 131.294303 217.24 
L 131.294303 178.799084 
L 126.885091 178.799084 
z
" style="fill:#176d9c;opacity:0.9;"/>
   </g>
   <g id="patch_6">
    <path clip-path="url(#pd1c3ff7b37)" d="M 159.954182 217.24 
L 164.363394 217.24 
L 164.363394 160.816022 
L 159.954182 160.816022 
z
" style="fill:#176d9c;opacity:0.9;"/>
   </g>
   <g id="patch_7">
    <path clip-path="url(#pd1c3ff7b37)" d="M 193.023273 217.24 
L 197.432485 217.24 
L 197.432485 144.428637 
L 193.023273 144.428637 
z
" style="fill:#176d9c;opacity:0.9;"/>
   </g>
   <g id="patch_8">
    <path clip-path="url(#pd1c3ff7b37)" d="M 226.092364 217.24 
L 230.501576 217.24 
L 230.501576 130.716817 
L 226.092364 130.716817 
z
" style="fill:#176d9c;opacity:0.9;"/>
   </g>
   <g id="patch_9">
    <path clip-path="url(#pd1c3ff7b37)" d="M 259.161455 217.24 
L 263.570667 217.24 
L 263.570667 119.789922 
L 259.161455 119.789922 
z
" style="fill:#176d9c;opacity:0.9;"/>
   </g>
   <g id="patch_10">
    <path clip-path="url(#pd1c3ff7b37)" d="M 292.230545 217.24 
L 296.639758 217.24 
L 296.639758 111.241987 
L 292.230545 111.241987 
z
" style="fill:#176d9c;opacity:0.9;"/>
   </g>
   <g id="patch_11">
    <path clip-path="url(#pd1c3ff7b37)" d="M 325.299636 217.24 
L 329.708848 217.24 
L 329.708848 104.44928 
L 325.299636 104.44928 
z
" style="fill:#176d9c;opacity:0.9;"/>
   </g>
   <g id="patch_12">
    <path clip-path="url(#pd1c3ff7b37)" d="M 358.368727 217.24 
L 362.777939 217.24 
L 362.777939 98.560604 
L 358.368727 98.560604 
z
" style="fill:#176d9c;opacity:0.9;"/>
   </g>
   <g id="patch_13">
    <path clip-path="url(#pd1c3ff7b37)" d="M 391.437818 217.24 
L 395.84703 217.24 
L 395.84703 92.630476 
L 391.437818 92.630476 
z
" style="fill:#176d9c;opacity:0.9;"/>
   </g>
   <g id="patch_14">
    <path clip-path="url(#pd1c3ff7b37)" d="M 65.156121 217.24 
L 69.565333 217.24 
L 69.565333 217.24 
L 65.156121 217.24 
z
" style="fill:#c38820;opacity:0.9;"/>
   </g>
   <g id="patch_15">
    <path clip-path="url(#pd1c3ff7b37)" d="M 98.225212 217.24 
L 102.634424 217.24 
L 102.634424 198.401087 
L 98.225212 198.401087 
z
" style="fill:#c38820;opacity:0.9;"/>
   </g>
   <g id="patch_16">
    <path clip-path="url(#pd1c3ff7b37)" d="M 131.294303 217.24 
L 135.703515 217.24 
L 135.703515 181.732576 
L 131.294303 181.732576 
z
" style="fill:#c38820;opacity:0.9;"/>
   </g>
   <g id="patch_17">
    <path clip-path="url(#pd1c3ff7b37)" d="M 164.363394 217.24 
L 168.772606 217.24 
L 168.772606 164.572374 
L 164.363394 164.572374 
z
" style="fill:#c38820;opacity:0.9;"/>
   </g>
   <g id="patch_18">
    <path clip-path="url(#pd1c3ff7b37)" d="M 197.432485 217.24 
L 201.841697 217.24 
L 201.841697 148.03175 
L 197.432485 148.03175 
z
" style="fill:#c38820;opacity:0.9;"/>
   </g>
   <g id="patch_19">
    <path clip-path="url(#pd1c3ff7b37)" d="M 230.501576 217.24 
L 234.910788 217.24 
L 234.910788 133.502879 
L 230.501576 133.502879 
z
" style="fill:#c38820;opacity:0.9;"/>
   </g>
   <g id="patch_20">
    <path clip-path="url(#pd1c3ff7b37)" d="M 263.570667 217.24 
L 267.979879 217.24 
L 267.979879 121.608495 
L 263.570667 121.608495 
z
" style="fill:#c38820;opacity:0.9;"/>
   </g>
   <g id="patch_21">
    <path clip-path="url(#pd1c3ff7b37)" d="M 296.639758 217.24 
L 301.04897 217.24 
L 301.04897 112.153767 
L 296.639758 112.153767 
z
" style="fill:#c38820;opacity:0.9;"/>
   </g>
   <g id="patch_22">
    <path clip-path="url(#pd1c3ff7b37)" d="M 329.708848 217.24 
L 334.118061 217.24 
L 334.118061 104.844525 
L 329.708848 104.844525 
z
" style="fill:#c38820;opacity:0.9;"/>
   </g>
   <g id="patch_23">
    <path clip-path="url(#pd1c3ff7b37)" d="M 362.777939 217.24 
L 367.187152 217.24 
L 367.187152 99.105232 
L 362.777939 99.105232 
z
" style="fill:#c38820;opacity:0.9;"/>
   </g>
   <g id="patch_24">
    <path clip-path="url(#pd1c3ff7b37)" d="M 395.84703 217.24 
L 400.256242 217.24 
L 400.256242 94.46633 
L 395.84703 94.46633 
z
" style="fill:#c38820;opacity:0.9;"/>
   </g>
   <g id="patch_25">
    <path clip-path="url(#pd1c3ff7b37)" d="M 69.565333 217.24 
L 73.974545 217.24 
L 73.974545 217.24 
L 69.565333 217.24 
z
" style="fill:#158b6a;opacity:0.9;"/>
   </g>
   <g id="patch_26">
    <path clip-path="url(#pd1c3ff7b37)" d="M 102.634424 217.24 
L 107.043636 217.24 
L 107.043636 198.147977 
L 102.634424 198.147977 
z
" style="fill:#158b6a;opacity:0.9;"/>
   </g>
   <g id="patch_27">
    <path clip-path="url(#pd1c3ff7b37)" d="M 135.703515 217.24 
L 140.112727 217.24 
L 140.112727 180.990574 
L 135.703515 180.990574 
z
" style="fill:#158b6a;opacity:0.9;"/>
   </g>
   <g id="patch_28">
    <path clip-path="url(#pd1c3ff7b37)" d="M 168.772606 217.24 
L 173.181818 217.24 
L 173.181818 163.399448 
L 168.772606 163.399448 
z
" style="fill:#158b6a;opacity:0.9;"/>
   </g>
   <g id="patch_29">
    <path clip-path="url(#pd1c3ff7b37)" d="M 201.841697 217.24 
L 206.250909 217.24 
L 206.250909 146.770089 
L 201.841697 146.770089 
z
" style="fill:#158b6a;opacity:0.9;"/>
   </g>
   <g id="patch_30">
    <path clip-path="url(#pd1c3ff7b37)" d="M 234.910788 217.24 
L 239.32 217.24 
L 239.32 132.396506 
L 234.910788 132.396506 
z
" style="fill:#158b6a;opacity:0.9;"/>
   </g>
   <g id="patch_31">
    <path clip-path="url(#pd1c3ff7b37)" d="M 267.979879 217.24 
L 272.389091 217.24 
L 272.389091 120.760672 
L 267.979879 120.760672 
z
" style="fill:#158b6a;opacity:0.9;"/>
   </g>
   <g id="patch_32">
    <path clip-path="url(#pd1c3ff7b37)" d="M 301.04897 217.24 
L 305.458182 217.24 
L 305.458182 111.640202 
L 301.04897 111.640202 
z
" style="fill:#158b6a;opacity:0.9;"/>
   </g>
   <g id="patch_33">
    <path clip-path="url(#pd1c3ff7b37)" d="M 334.118061 217.24 
L 338.527273 217.24 
L 338.527273 104.573621 
L 334.118061 104.573621 
z
" style="fill:#158b6a;opacity:0.9;"/>
   </g>
   <g id="patch_34">
    <path clip-path="url(#pd1c3ff7b37)" d="M 367.187152 217.24 
L 371.596364 217.24 
L 371.596364 99.095429 
L 367.187152 99.095429 
z
" style="fill:#158b6a;opacity:0.9;"/>
   </g>
   <g id="patch_35">
    <path clip-path="url(#pd1c3ff7b37)" d="M 400.256242 217.24 
L 404.665455 217.24 
L 404.665455 94.745907 
L 400.256242 94.745907 
z
" style="fill:#158b6a;opacity:0.9;"/>
   </g>
   <g id="patch_36">
    <path clip-path="url(#pd1c3ff7b37)" d="M 73.974545 217.24 
L 78.383758 217.24 
L 78.383758 217.24 
L 73.974545 217.24 
z
" style="fill:#ba611b;opacity:0.9;"/>
   </g>
   <g id="patch_37">
    <path clip-path="url(#pd1c3ff7b37)" d="M 107.043636 217.24 
L 111.452848 217.24 
L 111.452848 199.737983 
L 107.043636 199.737983 
z
" style="fill:#ba611b;opacity:0.9;"/>
   </g>
   <g id="patch_38">
    <path clip-path="url(#pd1c3ff7b37)" d="M 140.112727 217.24 
L 144.521939 217.24 
L 144.521939 183.812397 
L 140.112727 183.812397 
z
" style="fill:#ba611b;opacity:0.9;"/>
   </g>
   <g id="patch_39">
    <path clip-path="url(#pd1c3ff7b37)" d="M 173.181818 217.24 
L 177.59103 217.24 
L 177.59103 166.971097 
L 173.181818 166.971097 
z
" style="fill:#ba611b;opacity:0.9;"/>
   </g>
   <g id="patch_40">
    <path clip-path="url(#pd1c3ff7b37)" d="M 206.250909 217.24 
L 210.660121 217.24 
L 210.660121 150.702034 
L 206.250909 150.702034 
z
" style="fill:#ba611b;opacity:0.9;"/>
   </g>
   <g id="patch_41">
    <path clip-path="url(#pd1c3ff7b37)" d="M 239.32 217.24 
L 243.729212 217.24 
L 243.729212 136.302875 
L 239.32 136.302875 
z
" style="fill:#ba611b;opacity:0.9;"/>
   </g>
   <g id="patch_42">
    <path clip-path="url(#pd1c3ff7b37)" d="M 272.389091 217.24 
L 276.798303 217.24 
L 276.798303 124.390187 
L 272.389091 124.390187 
z
" style="fill:#ba611b;opacity:0.9;"/>
   </g>
   <g id="patch_43">
    <path clip-path="url(#pd1c3ff7b37)" d="M 305.458182 217.24 
L 309.867394 217.24 
L 309.867394 114.988657 
L 305.458182 114.988657 
z
" style="fill:#ba611b;opacity:0.9;"/>
   </g>
   <g id="patch_44">
    <path clip-path="url(#pd1c3ff7b37)" d="M 338.527273 217.24 
L 342.936485 217.24 
L 342.936485 107.869116 
L 338.527273 107.869116 
z
" style="fill:#ba611b;opacity:0.9;"/>
   </g>
   <g id="patch_45">
    <path clip-path="url(#pd1c3ff7b37)" d="M 371.596364 217.24 
L 376.005576 217.24 
L 376.005576 102.50203 
L 371.596364 102.50203 
z
" style="fill:#ba611b;opacity:0.9;"/>
   </g>
   <g id="patch_46">
    <path clip-path="url(#pd1c3ff7b37)" d="M 404.665455 217.24 
L 409.074667 217.24 
L 409.074667 98.355839 
L 404.665455 98.355839 
z
" style="fill:#ba611b;opacity:0.9;"/>
   </g>
   <g id="patch_47">
    <path clip-path="url(#pd1c3ff7b37)" d="M 78.383758 217.24 
L 82.79297 217.24 
L 82.79297 217.24 
L 78.383758 217.24 
z
" style="fill:#c282b5;opacity:0.9;"/>
   </g>
   <g id="patch_48">
    <path clip-path="url(#pd1c3ff7b37)" d="M 111.452848 217.24 
L 115.862061 217.24 
L 115.862061 199.419907 
L 111.452848 199.419907 
z
" style="fill:#c282b5;opacity:0.9;"/>
   </g>
   <g id="patch_49">
    <path clip-path="url(#pd1c3ff7b37)" d="M 144.521939 217.24 
L 148.931152 217.24 
L 148.931152 183.60702 
L 144.521939 183.60702 
z
" style="fill:#c282b5;opacity:0.9;"/>
   </g>
   <g id="patch_50">
    <path clip-path="url(#pd1c3ff7b37)" d="M 177.59103 217.24 
L 182.000242 217.24 
L 182.000242 167.273787 
L 177.59103 167.273787 
z
" style="fill:#c282b5;opacity:0.9;"/>
   </g>
   <g id="patch_51">
    <path clip-path="url(#pd1c3ff7b37)" d="M 210.660121 217.24 
L 215.069333 217.24 
L 215.069333 151.415866 
L 210.660121 151.415866 
z
" style="fill:#c282b5;opacity:0.9;"/>
   </g>
   <g id="patch_52">
    <path clip-path="url(#pd1c3ff7b37)" d="M 243.729212 217.24 
L 248.138424 217.24 
L 248.138424 137.349857 
L 243.729212 137.349857 
z
" style="fill:#c282b5;opacity:0.9;"/>
   </g>
   <g id="patch_53">
    <path clip-path="url(#pd1c3ff7b37)" d="M 276.798303 217.24 
L 281.207515 217.24 
L 281.207515 125.633757 
L 276.798303 125.633757 
z
" style="fill:#c282b5;opacity:0.9;"/>
   </g>
   <g id="patch_54">
    <path clip-path="url(#pd1c3ff7b37)" d="M 309.867394 217.24 
L 314.276606 217.24 
L 314.276606 115.987073 
L 309.867394 115.987073 
z
" style="fill:#c282b5;opacity:0.9;"/>
   </g>
   <g id="patch_55">
    <path clip-path="url(#pd1c3ff7b37)" d="M 342.936485 217.24 
L 347.345697 217.24 
L 347.345697 108.195969 
L 342.936485 108.195969 
z
" style="fill:#c282b5;opacity:0.9;"/>
   </g>
   <g id="patch_56">
    <path clip-path="url(#pd1c3ff7b37)" d="M 376.005576 217.24 
L 380.414788 217.24 
L 380.414788 101.89695 
L 376.005576 101.89695 
z
" style="fill:#c282b5;opacity:0.9;"/>
   </g>
   <g id="patch_57">
    <path clip-path="url(#pd1c3ff7b37)" d="M 409.074667 217.24 
L 413.483879 217.24 
L 413.483879 96.791582 
L 409.074667 96.791582 
z
" style="fill:#c282b5;opacity:0.9;"/>
   </g>
   <g id="patch_58">
    <path clip-path="url(#pd1c3ff7b37)" d="M 82.79297 217.24 
L 87.202182 217.24 
L 87.202182 217.24 
L 82.79297 217.24 
z
" style="fill:#bd926e;opacity:0.9;"/>
   </g>
   <g id="patch_59">
    <path clip-path="url(#pd1c3ff7b37)" d="M 115.862061 217.24 
L 120.271273 217.24 
L 120.271273 201.26838 
L 115.862061 201.26838 
z
" style="fill:#bd926e;opacity:0.9;"/>
   </g>
   <g id="patch_60">
    <path clip-path="url(#pd1c3ff7b37)" d="M 148.931152 217.24 
L 153.340364 217.24 
L 153.340364 187.20233 
L 148.931152 187.20233 
z
" style="fill:#bd926e;opacity:0.9;"/>
   </g>
   <g id="patch_61">
    <path clip-path="url(#pd1c3ff7b37)" d="M 182.000242 217.24 
L 186.409455 217.24 
L 186.409455 171.538754 
L 182.000242 171.538754 
z
" style="fill:#bd926e;opacity:0.9;"/>
   </g>
   <g id="patch_62">
    <path clip-path="url(#pd1c3ff7b37)" d="M 215.069333 217.24 
L 219.478545 217.24 
L 219.478545 155.413242 
L 215.069333 155.413242 
z
" style="fill:#bd926e;opacity:0.9;"/>
   </g>
   <g id="patch_63">
    <path clip-path="url(#pd1c3ff7b37)" d="M 248.138424 217.24 
L 252.547636 217.24 
L 252.547636 140.492558 
L 248.138424 140.492558 
z
" style="fill:#bd926e;opacity:0.9;"/>
   </g>
   <g id="patch_64">
    <path clip-path="url(#pd1c3ff7b37)" d="M 281.207515 217.24 
L 285.616727 217.24 
L 285.616727 127.953936 
L 281.207515 127.953936 
z
" style="fill:#bd926e;opacity:0.9;"/>
   </g>
   <g id="patch_65">
    <path clip-path="url(#pd1c3ff7b37)" d="M 314.276606 217.24 
L 318.685818 217.24 
L 318.685818 117.836071 
L 314.276606 117.836071 
z
" style="fill:#bd926e;opacity:0.9;"/>
   </g>
   <g id="patch_66">
    <path clip-path="url(#pd1c3ff7b37)" d="M 347.345697 217.24 
L 351.754909 217.24 
L 351.754909 110.013135 
L 347.345697 110.013135 
z
" style="fill:#bd926e;opacity:0.9;"/>
   </g>
   <g id="patch_67">
    <path clip-path="url(#pd1c3ff7b37)" d="M 380.414788 217.24 
L 384.824 217.24 
L 384.824 104.062903 
L 380.414788 104.062903 
z
" style="fill:#bd926e;opacity:0.9;"/>
   </g>
   <g id="patch_68">
    <path clip-path="url(#pd1c3ff7b37)" d="M 413.483879 217.24 
L 417.893091 217.24 
L 417.893091 99.463375 
L 413.483879 99.463375 
z
" style="fill:#bd926e;opacity:0.9;"/>
   </g>
   <g id="matplotlib.axis_1">
    <g id="xtick_1">
     <g id="line2d_1">
      <defs>
       <path d="M 0 0 
L 0 3.5 
" id="m9fc5fe9fc0" style="stroke:#000000;stroke-width:0.8;"/>
      </defs>
      <g>
       <use style="stroke:#000000;stroke-width:0.8;" x="73.974545" xlink:href="#m9fc5fe9fc0" y="217.24"/>
      </g>
     </g>
     <g id="text_1">
      <!-- 0 -->
      <defs>
       <path d="M 31.78125 66.40625 
Q 24.171875 66.40625 20.328125 58.90625 
Q 16.5 51.421875 16.5 36.375 
Q 16.5 21.390625 20.328125 13.890625 
Q 24.171875 6.390625 31.78125 6.390625 
Q 39.453125 6.390625 43.28125 13.890625 
Q 47.125 21.390625 47.125 36.375 
Q 47.125 51.421875 43.28125 58.90625 
Q 39.453125 66.40625 31.78125 66.40625 
z
M 31.78125 74.21875 
Q 44.046875 74.21875 50.515625 64.515625 
Q 56.984375 54.828125 56.984375 36.375 
Q 56.984375 17.96875 50.515625 8.265625 
Q 44.046875 -1.421875 31.78125 -1.421875 
Q 19.53125 -1.421875 13.0625 8.265625 
Q 6.59375 17.96875 6.59375 36.375 
Q 6.59375 54.828125 13.0625 64.515625 
Q 19.53125 74.21875 31.78125 74.21875 
z
" id="DejaVuSans-48"/>
      </defs>
      <g transform="translate(70.793295 231.838437)scale(0.1 -0.1)">
       <use xlink:href="#DejaVuSans-48"/>
      </g>
     </g>
    </g>
    <g id="xtick_2">
     <g id="line2d_2">
      <g>
       <use style="stroke:#000000;stroke-width:0.8;" x="107.043636" xlink:href="#m9fc5fe9fc0" y="217.24"/>
      </g>
     </g>
     <g id="text_2">
      <!-- 1 -->
      <defs>
       <path d="M 12.40625 8.296875 
L 28.515625 8.296875 
L 28.515625 63.921875 
L 10.984375 60.40625 
L 10.984375 69.390625 
L 28.421875 72.90625 
L 38.28125 72.90625 
L 38.28125 8.296875 
L 54.390625 8.296875 
L 54.390625 0 
L 12.40625 0 
z
" id="DejaVuSans-49"/>
      </defs>
      <g transform="translate(103.862386 231.838437)scale(0.1 -0.1)">
       <use xlink:href="#DejaVuSans-49"/>
      </g>
     </g>
    </g>
    <g id="xtick_3">
     <g id="line2d_3">
      <g>
       <use style="stroke:#000000;stroke-width:0.8;" x="140.112727" xlink:href="#m9fc5fe9fc0" y="217.24"/>
      </g>
     </g>
     <g id="text_3">
      <!-- 2 -->
      <defs>
       <path d="M 19.1875 8.296875 
L 53.609375 8.296875 
L 53.609375 0 
L 7.328125 0 
L 7.328125 8.296875 
Q 12.9375 14.109375 22.625 23.890625 
Q 32.328125 33.6875 34.8125 36.53125 
Q 39.546875 41.84375 41.421875 45.53125 
Q 43.3125 49.21875 43.3125 52.78125 
Q 43.3125 58.59375 39.234375 62.25 
Q 35.15625 65.921875 28.609375 65.921875 
Q 23.96875 65.921875 18.8125 64.3125 
Q 13.671875 62.703125 7.8125 59.421875 
L 7.8125 69.390625 
Q 13.765625 71.78125 18.9375 73 
Q 24.125 74.21875 28.421875 74.21875 
Q 39.75 74.21875 46.484375 68.546875 
Q 53.21875 62.890625 53.21875 53.421875 
Q 53.21875 48.921875 51.53125 44.890625 
Q 49.859375 40.875 45.40625 35.40625 
Q 44.1875 33.984375 37.640625 27.21875 
Q 31.109375 20.453125 19.1875 8.296875 
z
" id="DejaVuSans-50"/>
      </defs>
      <g transform="translate(136.931477 231.838437)scale(0.1 -0.1)">
       <use xlink:href="#DejaVuSans-50"/>
      </g>
     </g>
    </g>
    <g id="xtick_4">
     <g id="line2d_4">
      <g>
       <use style="stroke:#000000;stroke-width:0.8;" x="173.181818" xlink:href="#m9fc5fe9fc0" y="217.24"/>
      </g>
     </g>
     <g id="text_4">
      <!-- 3 -->
      <defs>
       <path d="M 40.578125 39.3125 
Q 47.65625 37.796875 51.625 33 
Q 55.609375 28.21875 55.609375 21.1875 
Q 55.609375 10.40625 48.1875 4.484375 
Q 40.765625 -1.421875 27.09375 -1.421875 
Q 22.515625 -1.421875 17.65625 -0.515625 
Q 12.796875 0.390625 7.625 2.203125 
L 7.625 11.71875 
Q 11.71875 9.328125 16.59375 8.109375 
Q 21.484375 6.890625 26.8125 6.890625 
Q 36.078125 6.890625 40.9375 10.546875 
Q 45.796875 14.203125 45.796875 21.1875 
Q 45.796875 27.640625 41.28125 31.265625 
Q 36.765625 34.90625 28.71875 34.90625 
L 20.21875 34.90625 
L 20.21875 43.015625 
L 29.109375 43.015625 
Q 36.375 43.015625 40.234375 45.921875 
Q 44.09375 48.828125 44.09375 54.296875 
Q 44.09375 59.90625 40.109375 62.90625 
Q 36.140625 65.921875 28.71875 65.921875 
Q 24.65625 65.921875 20.015625 65.03125 
Q 15.375 64.15625 9.8125 62.3125 
L 9.8125 71.09375 
Q 15.4375 72.65625 20.34375 73.4375 
Q 25.25 74.21875 29.59375 74.21875 
Q 40.828125 74.21875 47.359375 69.109375 
Q 53.90625 64.015625 53.90625 55.328125 
Q 53.90625 49.265625 50.4375 45.09375 
Q 46.96875 40.921875 40.578125 39.3125 
z
" id="DejaVuSans-51"/>
      </defs>
      <g transform="translate(170.000568 231.838437)scale(0.1 -0.1)">
       <use xlink:href="#DejaVuSans-51"/>
      </g>
     </g>
    </g>
    <g id="xtick_5">
     <g id="line2d_5">
      <g>
       <use style="stroke:#000000;stroke-width:0.8;" x="206.250909" xlink:href="#m9fc5fe9fc0" y="217.24"/>
      </g>
     </g>
     <g id="text_5">
      <!-- 4 -->
      <defs>
       <path d="M 37.796875 64.3125 
L 12.890625 25.390625 
L 37.796875 25.390625 
z
M 35.203125 72.90625 
L 47.609375 72.90625 
L 47.609375 25.390625 
L 58.015625 25.390625 
L 58.015625 17.1875 
L 47.609375 17.1875 
L 47.609375 0 
L 37.796875 0 
L 37.796875 17.1875 
L 4.890625 17.1875 
L 4.890625 26.703125 
z
" id="DejaVuSans-52"/>
      </defs>
      <g transform="translate(203.069659 231.838437)scale(0.1 -0.1)">
       <use xlink:href="#DejaVuSans-52"/>
      </g>
     </g>
    </g>
    <g id="xtick_6">
     <g id="line2d_6">
      <g>
       <use style="stroke:#000000;stroke-width:0.8;" x="239.32" xlink:href="#m9fc5fe9fc0" y="217.24"/>
      </g>
     </g>
     <g id="text_6">
      <!-- 5 -->
      <defs>
       <path d="M 10.796875 72.90625 
L 49.515625 72.90625 
L 49.515625 64.59375 
L 19.828125 64.59375 
L 19.828125 46.734375 
Q 21.96875 47.46875 24.109375 47.828125 
Q 26.265625 48.1875 28.421875 48.1875 
Q 40.625 48.1875 47.75 41.5 
Q 54.890625 34.8125 54.890625 23.390625 
Q 54.890625 11.625 47.5625 5.09375 
Q 40.234375 -1.421875 26.90625 -1.421875 
Q 22.3125 -1.421875 17.546875 -0.640625 
Q 12.796875 0.140625 7.71875 1.703125 
L 7.71875 11.625 
Q 12.109375 9.234375 16.796875 8.0625 
Q 21.484375 6.890625 26.703125 6.890625 
Q 35.15625 6.890625 40.078125 11.328125 
Q 45.015625 15.765625 45.015625 23.390625 
Q 45.015625 31 40.078125 35.4375 
Q 35.15625 39.890625 26.703125 39.890625 
Q 22.75 39.890625 18.8125 39.015625 
Q 14.890625 38.140625 10.796875 36.28125 
z
" id="DejaVuSans-53"/>
      </defs>
      <g transform="translate(236.13875 231.838437)scale(0.1 -0.1)">
       <use xlink:href="#DejaVuSans-53"/>
      </g>
     </g>
    </g>
    <g id="xtick_7">
     <g id="line2d_7">
      <g>
       <use style="stroke:#000000;stroke-width:0.8;" x="272.389091" xlink:href="#m9fc5fe9fc0" y="217.24"/>
      </g>
     </g>
     <g id="text_7">
      <!-- 6 -->
      <defs>
       <path d="M 33.015625 40.375 
Q 26.375 40.375 22.484375 35.828125 
Q 18.609375 31.296875 18.609375 23.390625 
Q 18.609375 15.53125 22.484375 10.953125 
Q 26.375 6.390625 33.015625 6.390625 
Q 39.65625 6.390625 43.53125 10.953125 
Q 47.40625 15.53125 47.40625 23.390625 
Q 47.40625 31.296875 43.53125 35.828125 
Q 39.65625 40.375 33.015625 40.375 
z
M 52.59375 71.296875 
L 52.59375 62.3125 
Q 48.875 64.0625 45.09375 64.984375 
Q 41.3125 65.921875 37.59375 65.921875 
Q 27.828125 65.921875 22.671875 59.328125 
Q 17.53125 52.734375 16.796875 39.40625 
Q 19.671875 43.65625 24.015625 45.921875 
Q 28.375 48.1875 33.59375 48.1875 
Q 44.578125 48.1875 50.953125 41.515625 
Q 57.328125 34.859375 57.328125 23.390625 
Q 57.328125 12.15625 50.6875 5.359375 
Q 44.046875 -1.421875 33.015625 -1.421875 
Q 20.359375 -1.421875 13.671875 8.265625 
Q 6.984375 17.96875 6.984375 36.375 
Q 6.984375 53.65625 15.1875 63.9375 
Q 23.390625 74.21875 37.203125 74.21875 
Q 40.921875 74.21875 44.703125 73.484375 
Q 48.484375 72.75 52.59375 71.296875 
z
" id="DejaVuSans-54"/>
      </defs>
      <g transform="translate(269.207841 231.838437)scale(0.1 -0.1)">
       <use xlink:href="#DejaVuSans-54"/>
      </g>
     </g>
    </g>
    <g id="xtick_8">
     <g id="line2d_8">
      <g>
       <use style="stroke:#000000;stroke-width:0.8;" x="305.458182" xlink:href="#m9fc5fe9fc0" y="217.24"/>
      </g>
     </g>
     <g id="text_8">
      <!-- 7 -->
      <defs>
       <path d="M 8.203125 72.90625 
L 55.078125 72.90625 
L 55.078125 68.703125 
L 28.609375 0 
L 18.3125 0 
L 43.21875 64.59375 
L 8.203125 64.59375 
z
" id="DejaVuSans-55"/>
      </defs>
      <g transform="translate(302.276932 231.838437)scale(0.1 -0.1)">
       <use xlink:href="#DejaVuSans-55"/>
      </g>
     </g>
    </g>
    <g id="xtick_9">
     <g id="line2d_9">
      <g>
       <use style="stroke:#000000;stroke-width:0.8;" x="338.527273" xlink:href="#m9fc5fe9fc0" y="217.24"/>
      </g>
     </g>
     <g id="text_9">
      <!-- 8 -->
      <defs>
       <path d="M 31.78125 34.625 
Q 24.75 34.625 20.71875 30.859375 
Q 16.703125 27.09375 16.703125 20.515625 
Q 16.703125 13.921875 20.71875 10.15625 
Q 24.75 6.390625 31.78125 6.390625 
Q 38.8125 6.390625 42.859375 10.171875 
Q 46.921875 13.96875 46.921875 20.515625 
Q 46.921875 27.09375 42.890625 30.859375 
Q 38.875 34.625 31.78125 34.625 
z
M 21.921875 38.8125 
Q 15.578125 40.375 12.03125 44.71875 
Q 8.5 49.078125 8.5 55.328125 
Q 8.5 64.0625 14.71875 69.140625 
Q 20.953125 74.21875 31.78125 74.21875 
Q 42.671875 74.21875 48.875 69.140625 
Q 55.078125 64.0625 55.078125 55.328125 
Q 55.078125 49.078125 51.53125 44.71875 
Q 48 40.375 41.703125 38.8125 
Q 48.828125 37.15625 52.796875 32.3125 
Q 56.78125 27.484375 56.78125 20.515625 
Q 56.78125 9.90625 50.3125 4.234375 
Q 43.84375 -1.421875 31.78125 -1.421875 
Q 19.734375 -1.421875 13.25 4.234375 
Q 6.78125 9.90625 6.78125 20.515625 
Q 6.78125 27.484375 10.78125 32.3125 
Q 14.796875 37.15625 21.921875 38.8125 
z
M 18.3125 54.390625 
Q 18.3125 48.734375 21.84375 45.5625 
Q 25.390625 42.390625 31.78125 42.390625 
Q 38.140625 42.390625 41.71875 45.5625 
Q 45.3125 48.734375 45.3125 54.390625 
Q 45.3125 60.0625 41.71875 63.234375 
Q 38.140625 66.40625 31.78125 66.40625 
Q 25.390625 66.40625 21.84375 63.234375 
Q 18.3125 60.0625 18.3125 54.390625 
z
" id="DejaVuSans-56"/>
      </defs>
      <g transform="translate(335.346023 231.838437)scale(0.1 -0.1)">
       <use xlink:href="#DejaVuSans-56"/>
      </g>
     </g>
    </g>
    <g id="xtick_10">
     <g id="line2d_10">
      <g>
       <use style="stroke:#000000;stroke-width:0.8;" x="371.596364" xlink:href="#m9fc5fe9fc0" y="217.24"/>
      </g>
     </g>
     <g id="text_10">
      <!-- 9 -->
      <defs>
       <path d="M 10.984375 1.515625 
L 10.984375 10.5 
Q 14.703125 8.734375 18.5 7.8125 
Q 22.3125 6.890625 25.984375 6.890625 
Q 35.75 6.890625 40.890625 13.453125 
Q 46.046875 20.015625 46.78125 33.40625 
Q 43.953125 29.203125 39.59375 26.953125 
Q 35.25 24.703125 29.984375 24.703125 
Q 19.046875 24.703125 12.671875 31.3125 
Q 6.296875 37.9375 6.296875 49.421875 
Q 6.296875 60.640625 12.9375 67.421875 
Q 19.578125 74.21875 30.609375 74.21875 
Q 43.265625 74.21875 49.921875 64.515625 
Q 56.59375 54.828125 56.59375 36.375 
Q 56.59375 19.140625 48.40625 8.859375 
Q 40.234375 -1.421875 26.421875 -1.421875 
Q 22.703125 -1.421875 18.890625 -0.6875 
Q 15.09375 0.046875 10.984375 1.515625 
z
M 30.609375 32.421875 
Q 37.25 32.421875 41.125 36.953125 
Q 45.015625 41.5 45.015625 49.421875 
Q 45.015625 57.28125 41.125 61.84375 
Q 37.25 66.40625 30.609375 66.40625 
Q 23.96875 66.40625 20.09375 61.84375 
Q 16.21875 57.28125 16.21875 49.421875 
Q 16.21875 41.5 20.09375 36.953125 
Q 23.96875 32.421875 30.609375 32.421875 
z
" id="DejaVuSans-57"/>
      </defs>
      <g transform="translate(368.415114 231.838437)scale(0.1 -0.1)">
       <use xlink:href="#DejaVuSans-57"/>
      </g>
     </g>
    </g>
    <g id="xtick_11">
     <g id="line2d_11">
      <g>
       <use style="stroke:#000000;stroke-width:0.8;" x="404.665455" xlink:href="#m9fc5fe9fc0" y="217.24"/>
      </g>
     </g>
     <g id="text_11">
      <!-- 10 -->
      <g transform="translate(398.302955 231.838437)scale(0.1 -0.1)">
       <use xlink:href="#DejaVuSans-49"/>
       <use x="63.623047" xlink:href="#DejaVuSans-48"/>
      </g>
     </g>
    </g>
    <g id="text_12">
     <!-- fcday -->
     <defs>
      <path d="M 37.109375 75.984375 
L 37.109375 68.5 
L 28.515625 68.5 
Q 23.6875 68.5 21.796875 66.546875 
Q 19.921875 64.59375 19.921875 59.515625 
L 19.921875 54.6875 
L 34.71875 54.6875 
L 34.71875 47.703125 
L 19.921875 47.703125 
L 19.921875 0 
L 10.890625 0 
L 10.890625 47.703125 
L 2.296875 47.703125 
L 2.296875 54.6875 
L 10.890625 54.6875 
L 10.890625 58.5 
Q 10.890625 67.625 15.140625 71.796875 
Q 19.390625 75.984375 28.609375 75.984375 
z
" id="DejaVuSans-102"/>
      <path d="M 48.78125 52.59375 
L 48.78125 44.1875 
Q 44.96875 46.296875 41.140625 47.34375 
Q 37.3125 48.390625 33.40625 48.390625 
Q 24.65625 48.390625 19.8125 42.84375 
Q 14.984375 37.3125 14.984375 27.296875 
Q 14.984375 17.28125 19.8125 11.734375 
Q 24.65625 6.203125 33.40625 6.203125 
Q 37.3125 6.203125 41.140625 7.25 
Q 44.96875 8.296875 48.78125 10.40625 
L 48.78125 2.09375 
Q 45.015625 0.34375 40.984375 -0.53125 
Q 36.96875 -1.421875 32.421875 -1.421875 
Q 20.0625 -1.421875 12.78125 6.34375 
Q 5.515625 14.109375 5.515625 27.296875 
Q 5.515625 40.671875 12.859375 48.328125 
Q 20.21875 56 33.015625 56 
Q 37.15625 56 41.109375 55.140625 
Q 45.0625 54.296875 48.78125 52.59375 
z
" id="DejaVuSans-99"/>
      <path d="M 45.40625 46.390625 
L 45.40625 75.984375 
L 54.390625 75.984375 
L 54.390625 0 
L 45.40625 0 
L 45.40625 8.203125 
Q 42.578125 3.328125 38.25 0.953125 
Q 33.9375 -1.421875 27.875 -1.421875 
Q 17.96875 -1.421875 11.734375 6.484375 
Q 5.515625 14.40625 5.515625 27.296875 
Q 5.515625 40.1875 11.734375 48.09375 
Q 17.96875 56 27.875 56 
Q 33.9375 56 38.25 53.625 
Q 42.578125 51.265625 45.40625 46.390625 
z
M 14.796875 27.296875 
Q 14.796875 17.390625 18.875 11.75 
Q 22.953125 6.109375 30.078125 6.109375 
Q 37.203125 6.109375 41.296875 11.75 
Q 45.40625 17.390625 45.40625 27.296875 
Q 45.40625 37.203125 41.296875 42.84375 
Q 37.203125 48.484375 30.078125 48.484375 
Q 22.953125 48.484375 18.875 42.84375 
Q 14.796875 37.203125 14.796875 27.296875 
z
" id="DejaVuSans-100"/>
      <path d="M 34.28125 27.484375 
Q 23.390625 27.484375 19.1875 25 
Q 14.984375 22.515625 14.984375 16.5 
Q 14.984375 11.71875 18.140625 8.90625 
Q 21.296875 6.109375 26.703125 6.109375 
Q 34.1875 6.109375 38.703125 11.40625 
Q 43.21875 16.703125 43.21875 25.484375 
L 43.21875 27.484375 
z
M 52.203125 31.203125 
L 52.203125 0 
L 43.21875 0 
L 43.21875 8.296875 
Q 40.140625 3.328125 35.546875 0.953125 
Q 30.953125 -1.421875 24.3125 -1.421875 
Q 15.921875 -1.421875 10.953125 3.296875 
Q 6 8.015625 6 15.921875 
Q 6 25.140625 12.171875 29.828125 
Q 18.359375 34.515625 30.609375 34.515625 
L 43.21875 34.515625 
L 43.21875 35.40625 
Q 43.21875 41.609375 39.140625 45 
Q 35.0625 48.390625 27.6875 48.390625 
Q 23 48.390625 18.546875 47.265625 
Q 14.109375 46.140625 10.015625 43.890625 
L 10.015625 52.203125 
Q 14.9375 54.109375 19.578125 55.046875 
Q 24.21875 56 28.609375 56 
Q 40.484375 56 46.34375 49.84375 
Q 52.203125 43.703125 52.203125 31.203125 
z
" id="DejaVuSans-97"/>
      <path d="M 32.171875 -5.078125 
Q 28.375 -14.84375 24.75 -17.8125 
Q 21.140625 -20.796875 15.09375 -20.796875 
L 7.90625 -20.796875 
L 7.90625 -13.28125 
L 13.1875 -13.28125 
Q 16.890625 -13.28125 18.9375 -11.515625 
Q 21 -9.765625 23.484375 -3.21875 
L 25.09375 0.875 
L 2.984375 54.6875 
L 12.5 54.6875 
L 29.59375 11.921875 
L 46.6875 54.6875 
L 56.203125 54.6875 
z
" id="DejaVuSans-121"/>
     </defs>
     <g transform="translate(225.612969 245.516562)scale(0.1 -0.1)">
      <use xlink:href="#DejaVuSans-102"/>
      <use x="35.205078" xlink:href="#DejaVuSans-99"/>
      <use x="90.185547" xlink:href="#DejaVuSans-100"/>
      <use x="153.662109" xlink:href="#DejaVuSans-97"/>
      <use x="214.941406" xlink:href="#DejaVuSans-121"/>
     </g>
    </g>
   </g>
   <g id="matplotlib.axis_2">
    <g id="ytick_1">
     <g id="line2d_12">
      <defs>
       <path d="M 0 0 
L -3.5 0 
" id="m8c1edf844c" style="stroke:#000000;stroke-width:0.8;"/>
      </defs>
      <g>
       <use style="stroke:#000000;stroke-width:0.8;" x="57.44" xlink:href="#m8c1edf844c" y="217.24"/>
      </g>
     </g>
     <g id="text_13">
      <!-- 0 -->
      <g transform="translate(44.0775 221.039219)scale(0.1 -0.1)">
       <use xlink:href="#DejaVuSans-48"/>
      </g>
     </g>
    </g>
    <g id="ytick_2">
     <g id="line2d_13">
      <g>
       <use style="stroke:#000000;stroke-width:0.8;" x="57.44" xlink:href="#m8c1edf844c" y="195.275468"/>
      </g>
     </g>
     <g id="text_14">
      <!-- 200 -->
      <g transform="translate(31.3525 199.074687)scale(0.1 -0.1)">
       <use xlink:href="#DejaVuSans-50"/>
       <use x="63.623047" xlink:href="#DejaVuSans-48"/>
       <use x="127.246094" xlink:href="#DejaVuSans-48"/>
      </g>
     </g>
    </g>
    <g id="ytick_3">
     <g id="line2d_14">
      <g>
       <use style="stroke:#000000;stroke-width:0.8;" x="57.44" xlink:href="#m8c1edf844c" y="173.310936"/>
      </g>
     </g>
     <g id="text_15">
      <!-- 400 -->
      <g transform="translate(31.3525 177.110155)scale(0.1 -0.1)">
       <use xlink:href="#DejaVuSans-52"/>
       <use x="63.623047" xlink:href="#DejaVuSans-48"/>
       <use x="127.246094" xlink:href="#DejaVuSans-48"/>
      </g>
     </g>
    </g>
    <g id="ytick_4">
     <g id="line2d_15">
      <g>
       <use style="stroke:#000000;stroke-width:0.8;" x="57.44" xlink:href="#m8c1edf844c" y="151.346404"/>
      </g>
     </g>
     <g id="text_16">
      <!-- 600 -->
      <g transform="translate(31.3525 155.145623)scale(0.1 -0.1)">
       <use xlink:href="#DejaVuSans-54"/>
       <use x="63.623047" xlink:href="#DejaVuSans-48"/>
       <use x="127.246094" xlink:href="#DejaVuSans-48"/>
      </g>
     </g>
    </g>
    <g id="ytick_5">
     <g id="line2d_16">
      <g>
       <use style="stroke:#000000;stroke-width:0.8;" x="57.44" xlink:href="#m8c1edf844c" y="129.381873"/>
      </g>
     </g>
     <g id="text_17">
      <!-- 800 -->
      <g transform="translate(31.3525 133.181091)scale(0.1 -0.1)">
       <use xlink:href="#DejaVuSans-56"/>
       <use x="63.623047" xlink:href="#DejaVuSans-48"/>
       <use x="127.246094" xlink:href="#DejaVuSans-48"/>
      </g>
     </g>
    </g>
    <g id="ytick_6">
     <g id="line2d_17">
      <g>
       <use style="stroke:#000000;stroke-width:0.8;" x="57.44" xlink:href="#m8c1edf844c" y="107.417341"/>
      </g>
     </g>
     <g id="text_18">
      <!-- 1000 -->
      <g transform="translate(24.99 111.216559)scale(0.1 -0.1)">
       <use xlink:href="#DejaVuSans-49"/>
       <use x="63.623047" xlink:href="#DejaVuSans-48"/>
       <use x="127.246094" xlink:href="#DejaVuSans-48"/>
       <use x="190.869141" xlink:href="#DejaVuSans-48"/>
      </g>
     </g>
    </g>
    <g id="text_19">
     <!-- rmse -->
     <defs>
      <path d="M 41.109375 46.296875 
Q 39.59375 47.171875 37.8125 47.578125 
Q 36.03125 48 33.890625 48 
Q 26.265625 48 22.1875 43.046875 
Q 18.109375 38.09375 18.109375 28.8125 
L 18.109375 0 
L 9.078125 0 
L 9.078125 54.6875 
L 18.109375 54.6875 
L 18.109375 46.1875 
Q 20.953125 51.171875 25.484375 53.578125 
Q 30.03125 56 36.53125 56 
Q 37.453125 56 38.578125 55.875 
Q 39.703125 55.765625 41.0625 55.515625 
z
" id="DejaVuSans-114"/>
      <path d="M 52 44.1875 
Q 55.375 50.25 60.0625 53.125 
Q 64.75 56 71.09375 56 
Q 79.640625 56 84.28125 50.015625 
Q 88.921875 44.046875 88.921875 33.015625 
L 88.921875 0 
L 79.890625 0 
L 79.890625 32.71875 
Q 79.890625 40.578125 77.09375 44.375 
Q 74.3125 48.1875 68.609375 48.1875 
Q 61.625 48.1875 57.5625 43.546875 
Q 53.515625 38.921875 53.515625 30.90625 
L 53.515625 0 
L 44.484375 0 
L 44.484375 32.71875 
Q 44.484375 40.625 41.703125 44.40625 
Q 38.921875 48.1875 33.109375 48.1875 
Q 26.21875 48.1875 22.15625 43.53125 
Q 18.109375 38.875 18.109375 30.90625 
L 18.109375 0 
L 9.078125 0 
L 9.078125 54.6875 
L 18.109375 54.6875 
L 18.109375 46.1875 
Q 21.1875 51.21875 25.484375 53.609375 
Q 29.78125 56 35.6875 56 
Q 41.65625 56 45.828125 52.96875 
Q 50 49.953125 52 44.1875 
z
" id="DejaVuSans-109"/>
      <path d="M 44.28125 53.078125 
L 44.28125 44.578125 
Q 40.484375 46.53125 36.375 47.5 
Q 32.28125 48.484375 27.875 48.484375 
Q 21.1875 48.484375 17.84375 46.4375 
Q 14.5 44.390625 14.5 40.28125 
Q 14.5 37.15625 16.890625 35.375 
Q 19.28125 33.59375 26.515625 31.984375 
L 29.59375 31.296875 
Q 39.15625 29.25 43.1875 25.515625 
Q 47.21875 21.78125 47.21875 15.09375 
Q 47.21875 7.46875 41.1875 3.015625 
Q 35.15625 -1.421875 24.609375 -1.421875 
Q 20.21875 -1.421875 15.453125 -0.5625 
Q 10.6875 0.296875 5.421875 2 
L 5.421875 11.28125 
Q 10.40625 8.6875 15.234375 7.390625 
Q 20.0625 6.109375 24.8125 6.109375 
Q 31.15625 6.109375 34.5625 8.28125 
Q 37.984375 10.453125 37.984375 14.40625 
Q 37.984375 18.0625 35.515625 20.015625 
Q 33.0625 21.96875 24.703125 23.78125 
L 21.578125 24.515625 
Q 13.234375 26.265625 9.515625 29.90625 
Q 5.8125 33.546875 5.8125 39.890625 
Q 5.8125 47.609375 11.28125 51.796875 
Q 16.75 56 26.8125 56 
Q 31.78125 56 36.171875 55.265625 
Q 40.578125 54.546875 44.28125 53.078125 
z
" id="DejaVuSans-115"/>
      <path d="M 56.203125 29.59375 
L 56.203125 25.203125 
L 14.890625 25.203125 
Q 15.484375 15.921875 20.484375 11.0625 
Q 25.484375 6.203125 34.421875 6.203125 
Q 39.59375 6.203125 44.453125 7.46875 
Q 49.3125 8.734375 54.109375 11.28125 
L 54.109375 2.78125 
Q 49.265625 0.734375 44.1875 -0.34375 
Q 39.109375 -1.421875 33.890625 -1.421875 
Q 20.796875 -1.421875 13.15625 6.1875 
Q 5.515625 13.8125 5.515625 26.8125 
Q 5.515625 40.234375 12.765625 48.109375 
Q 20.015625 56 32.328125 56 
Q 43.359375 56 49.78125 48.890625 
Q 56.203125 41.796875 56.203125 29.59375 
z
M 47.21875 32.234375 
Q 47.125 39.59375 43.09375 43.984375 
Q 39.0625 48.390625 32.421875 48.390625 
Q 24.90625 48.390625 20.390625 44.140625 
Q 15.875 39.890625 15.1875 32.171875 
z
" id="DejaVuSans-101"/>
     </defs>
     <g transform="translate(18.910313 164.339531)rotate(-90)scale(0.1 -0.1)">
      <use xlink:href="#DejaVuSans-114"/>
      <use x="39.363281" xlink:href="#DejaVuSans-109"/>
      <use x="136.775391" xlink:href="#DejaVuSans-115"/>
      <use x="188.875" xlink:href="#DejaVuSans-101"/>
     </g>
    </g>
   </g>
   <g id="line2d_18">
    <path clip-path="url(#pd1c3ff7b37)" d="M 0 0 
" style="fill:none;stroke:#424242;stroke-linecap:square;stroke-width:2.7;"/>
   </g>
   <g id="line2d_19">
    <path clip-path="url(#pd1c3ff7b37)" d="M 0 0 
" style="fill:none;stroke:#424242;stroke-linecap:square;stroke-width:2.7;"/>
   </g>
   <g id="line2d_20">
    <path clip-path="url(#pd1c3ff7b37)" d="M 0 0 
" style="fill:none;stroke:#424242;stroke-linecap:square;stroke-width:2.7;"/>
   </g>
   <g id="line2d_21">
    <path clip-path="url(#pd1c3ff7b37)" d="M 0 0 
" style="fill:none;stroke:#424242;stroke-linecap:square;stroke-width:2.7;"/>
   </g>
   <g id="line2d_22">
    <path clip-path="url(#pd1c3ff7b37)" d="M 0 0 
" style="fill:none;stroke:#424242;stroke-linecap:square;stroke-width:2.7;"/>
   </g>
   <g id="line2d_23">
    <path clip-path="url(#pd1c3ff7b37)" d="M 0 0 
" style="fill:none;stroke:#424242;stroke-linecap:square;stroke-width:2.7;"/>
   </g>
   <g id="line2d_24">
    <path clip-path="url(#pd1c3ff7b37)" d="M 0 0 
" style="fill:none;stroke:#424242;stroke-linecap:square;stroke-width:2.7;"/>
   </g>
   <g id="line2d_25">
    <path clip-path="url(#pd1c3ff7b37)" d="M 0 0 
" style="fill:none;stroke:#424242;stroke-linecap:square;stroke-width:2.7;"/>
   </g>
   <g id="line2d_26">
    <path clip-path="url(#pd1c3ff7b37)" d="M 0 0 
" style="fill:none;stroke:#424242;stroke-linecap:square;stroke-width:2.7;"/>
   </g>
   <g id="line2d_27">
    <path clip-path="url(#pd1c3ff7b37)" d="M 0 0 
" style="fill:none;stroke:#424242;stroke-linecap:square;stroke-width:2.7;"/>
   </g>
   <g id="line2d_28">
    <path clip-path="url(#pd1c3ff7b37)" d="M 0 0 
" style="fill:none;stroke:#424242;stroke-linecap:square;stroke-width:2.7;"/>
   </g>
   <g id="line2d_29">
    <path clip-path="url(#pd1c3ff7b37)" d="M 0 0 
" style="fill:none;stroke:#424242;stroke-linecap:square;stroke-width:2.7;"/>
   </g>
   <g id="line2d_30">
    <path clip-path="url(#pd1c3ff7b37)" d="M 0 0 
" style="fill:none;stroke:#424242;stroke-linecap:square;stroke-width:2.7;"/>
   </g>
   <g id="line2d_31">
    <path clip-path="url(#pd1c3ff7b37)" d="M 0 0 
" style="fill:none;stroke:#424242;stroke-linecap:square;stroke-width:2.7;"/>
   </g>
   <g id="line2d_32">
    <path clip-path="url(#pd1c3ff7b37)" d="M 0 0 
" style="fill:none;stroke:#424242;stroke-linecap:square;stroke-width:2.7;"/>
   </g>
   <g id="line2d_33">
    <path clip-path="url(#pd1c3ff7b37)" d="M 0 0 
" style="fill:none;stroke:#424242;stroke-linecap:square;stroke-width:2.7;"/>
   </g>
   <g id="line2d_34">
    <path clip-path="url(#pd1c3ff7b37)" d="M 0 0 
" style="fill:none;stroke:#424242;stroke-linecap:square;stroke-width:2.7;"/>
   </g>
   <g id="line2d_35">
    <path clip-path="url(#pd1c3ff7b37)" d="M 0 0 
" style="fill:none;stroke:#424242;stroke-linecap:square;stroke-width:2.7;"/>
   </g>
   <g id="line2d_36">
    <path clip-path="url(#pd1c3ff7b37)" d="M 0 0 
" style="fill:none;stroke:#424242;stroke-linecap:square;stroke-width:2.7;"/>
   </g>
   <g id="line2d_37">
    <path clip-path="url(#pd1c3ff7b37)" d="M 0 0 
" style="fill:none;stroke:#424242;stroke-linecap:square;stroke-width:2.7;"/>
   </g>
   <g id="line2d_38">
    <path clip-path="url(#pd1c3ff7b37)" d="M 0 0 
" style="fill:none;stroke:#424242;stroke-linecap:square;stroke-width:2.7;"/>
   </g>
   <g id="line2d_39">
    <path clip-path="url(#pd1c3ff7b37)" d="M 0 0 
" style="fill:none;stroke:#424242;stroke-linecap:square;stroke-width:2.7;"/>
   </g>
   <g id="line2d_40">
    <path clip-path="url(#pd1c3ff7b37)" d="M 0 0 
" style="fill:none;stroke:#424242;stroke-linecap:square;stroke-width:2.7;"/>
   </g>
   <g id="line2d_41">
    <path clip-path="url(#pd1c3ff7b37)" d="M 0 0 
" style="fill:none;stroke:#424242;stroke-linecap:square;stroke-width:2.7;"/>
   </g>
   <g id="line2d_42">
    <path clip-path="url(#pd1c3ff7b37)" d="M 0 0 
" style="fill:none;stroke:#424242;stroke-linecap:square;stroke-width:2.7;"/>
   </g>
   <g id="line2d_43">
    <path clip-path="url(#pd1c3ff7b37)" d="M 0 0 
" style="fill:none;stroke:#424242;stroke-linecap:square;stroke-width:2.7;"/>
   </g>
   <g id="line2d_44">
    <path clip-path="url(#pd1c3ff7b37)" d="M 0 0 
" style="fill:none;stroke:#424242;stroke-linecap:square;stroke-width:2.7;"/>
   </g>
   <g id="line2d_45">
    <path clip-path="url(#pd1c3ff7b37)" d="M 0 0 
" style="fill:none;stroke:#424242;stroke-linecap:square;stroke-width:2.7;"/>
   </g>
   <g id="line2d_46">
    <path clip-path="url(#pd1c3ff7b37)" d="M 0 0 
" style="fill:none;stroke:#424242;stroke-linecap:square;stroke-width:2.7;"/>
   </g>
   <g id="line2d_47">
    <path clip-path="url(#pd1c3ff7b37)" d="M 0 0 
" style="fill:none;stroke:#424242;stroke-linecap:square;stroke-width:2.7;"/>
   </g>
   <g id="line2d_48">
    <path clip-path="url(#pd1c3ff7b37)" d="M 0 0 
" style="fill:none;stroke:#424242;stroke-linecap:square;stroke-width:2.7;"/>
   </g>
   <g id="line2d_49">
    <path clip-path="url(#pd1c3ff7b37)" d="M 0 0 
" style="fill:none;stroke:#424242;stroke-linecap:square;stroke-width:2.7;"/>
   </g>
   <g id="line2d_50">
    <path clip-path="url(#pd1c3ff7b37)" d="M 0 0 
" style="fill:none;stroke:#424242;stroke-linecap:square;stroke-width:2.7;"/>
   </g>
   <g id="line2d_51">
    <path clip-path="url(#pd1c3ff7b37)" d="M 0 0 
" style="fill:none;stroke:#424242;stroke-linecap:square;stroke-width:2.7;"/>
   </g>
   <g id="line2d_52">
    <path clip-path="url(#pd1c3ff7b37)" d="M 0 0 
" style="fill:none;stroke:#424242;stroke-linecap:square;stroke-width:2.7;"/>
   </g>
   <g id="line2d_53">
    <path clip-path="url(#pd1c3ff7b37)" d="M 0 0 
" style="fill:none;stroke:#424242;stroke-linecap:square;stroke-width:2.7;"/>
   </g>
   <g id="line2d_54">
    <path clip-path="url(#pd1c3ff7b37)" d="M 0 0 
" style="fill:none;stroke:#424242;stroke-linecap:square;stroke-width:2.7;"/>
   </g>
   <g id="line2d_55">
    <path clip-path="url(#pd1c3ff7b37)" d="M 0 0 
" style="fill:none;stroke:#424242;stroke-linecap:square;stroke-width:2.7;"/>
   </g>
   <g id="line2d_56">
    <path clip-path="url(#pd1c3ff7b37)" d="M 0 0 
" style="fill:none;stroke:#424242;stroke-linecap:square;stroke-width:2.7;"/>
   </g>
   <g id="line2d_57">
    <path clip-path="url(#pd1c3ff7b37)" d="M 0 0 
" style="fill:none;stroke:#424242;stroke-linecap:square;stroke-width:2.7;"/>
   </g>
   <g id="line2d_58">
    <path clip-path="url(#pd1c3ff7b37)" d="M 0 0 
" style="fill:none;stroke:#424242;stroke-linecap:square;stroke-width:2.7;"/>
   </g>
   <g id="line2d_59">
    <path clip-path="url(#pd1c3ff7b37)" d="M 0 0 
" style="fill:none;stroke:#424242;stroke-linecap:square;stroke-width:2.7;"/>
   </g>
   <g id="line2d_60">
    <path clip-path="url(#pd1c3ff7b37)" d="M 0 0 
" style="fill:none;stroke:#424242;stroke-linecap:square;stroke-width:2.7;"/>
   </g>
   <g id="line2d_61">
    <path clip-path="url(#pd1c3ff7b37)" d="M 0 0 
" style="fill:none;stroke:#424242;stroke-linecap:square;stroke-width:2.7;"/>
   </g>
   <g id="line2d_62">
    <path clip-path="url(#pd1c3ff7b37)" d="M 0 0 
" style="fill:none;stroke:#424242;stroke-linecap:square;stroke-width:2.7;"/>
   </g>
   <g id="line2d_63">
    <path clip-path="url(#pd1c3ff7b37)" d="M 0 0 
" style="fill:none;stroke:#424242;stroke-linecap:square;stroke-width:2.7;"/>
   </g>
   <g id="line2d_64">
    <path clip-path="url(#pd1c3ff7b37)" d="M 0 0 
" style="fill:none;stroke:#424242;stroke-linecap:square;stroke-width:2.7;"/>
   </g>
   <g id="line2d_65">
    <path clip-path="url(#pd1c3ff7b37)" d="M 0 0 
" style="fill:none;stroke:#424242;stroke-linecap:square;stroke-width:2.7;"/>
   </g>
   <g id="line2d_66">
    <path clip-path="url(#pd1c3ff7b37)" d="M 0 0 
" style="fill:none;stroke:#424242;stroke-linecap:square;stroke-width:2.7;"/>
   </g>
   <g id="line2d_67">
    <path clip-path="url(#pd1c3ff7b37)" d="M 0 0 
" style="fill:none;stroke:#424242;stroke-linecap:square;stroke-width:2.7;"/>
   </g>
   <g id="line2d_68">
    <path clip-path="url(#pd1c3ff7b37)" d="M 0 0 
" style="fill:none;stroke:#424242;stroke-linecap:square;stroke-width:2.7;"/>
   </g>
   <g id="line2d_69">
    <path clip-path="url(#pd1c3ff7b37)" d="M 0 0 
" style="fill:none;stroke:#424242;stroke-linecap:square;stroke-width:2.7;"/>
   </g>
   <g id="line2d_70">
    <path clip-path="url(#pd1c3ff7b37)" d="M 0 0 
" style="fill:none;stroke:#424242;stroke-linecap:square;stroke-width:2.7;"/>
   </g>
   <g id="line2d_71">
    <path clip-path="url(#pd1c3ff7b37)" d="M 0 0 
" style="fill:none;stroke:#424242;stroke-linecap:square;stroke-width:2.7;"/>
   </g>
   <g id="line2d_72">
    <path clip-path="url(#pd1c3ff7b37)" d="M 0 0 
" style="fill:none;stroke:#424242;stroke-linecap:square;stroke-width:2.7;"/>
   </g>
   <g id="line2d_73">
    <path clip-path="url(#pd1c3ff7b37)" d="M 0 0 
" style="fill:none;stroke:#424242;stroke-linecap:square;stroke-width:2.7;"/>
   </g>
   <g id="line2d_74">
    <path clip-path="url(#pd1c3ff7b37)" d="M 0 0 
" style="fill:none;stroke:#424242;stroke-linecap:square;stroke-width:2.7;"/>
   </g>
   <g id="line2d_75">
    <path clip-path="url(#pd1c3ff7b37)" d="M 0 0 
" style="fill:none;stroke:#424242;stroke-linecap:square;stroke-width:2.7;"/>
   </g>
   <g id="line2d_76">
    <path clip-path="url(#pd1c3ff7b37)" d="M 0 0 
" style="fill:none;stroke:#424242;stroke-linecap:square;stroke-width:2.7;"/>
   </g>
   <g id="line2d_77">
    <path clip-path="url(#pd1c3ff7b37)" d="M 0 0 
" style="fill:none;stroke:#424242;stroke-linecap:square;stroke-width:2.7;"/>
   </g>
   <g id="line2d_78">
    <path clip-path="url(#pd1c3ff7b37)" d="M 0 0 
" style="fill:none;stroke:#424242;stroke-linecap:square;stroke-width:2.7;"/>
   </g>
   <g id="line2d_79">
    <path clip-path="url(#pd1c3ff7b37)" d="M 0 0 
" style="fill:none;stroke:#424242;stroke-linecap:square;stroke-width:2.7;"/>
   </g>
   <g id="line2d_80">
    <path clip-path="url(#pd1c3ff7b37)" d="M 0 0 
" style="fill:none;stroke:#424242;stroke-linecap:square;stroke-width:2.7;"/>
   </g>
   <g id="line2d_81">
    <path clip-path="url(#pd1c3ff7b37)" d="M 0 0 
" style="fill:none;stroke:#424242;stroke-linecap:square;stroke-width:2.7;"/>
   </g>
   <g id="line2d_82">
    <path clip-path="url(#pd1c3ff7b37)" d="M 0 0 
" style="fill:none;stroke:#424242;stroke-linecap:square;stroke-width:2.7;"/>
   </g>
   <g id="line2d_83">
    <path clip-path="url(#pd1c3ff7b37)" d="M 0 0 
" style="fill:none;stroke:#424242;stroke-linecap:square;stroke-width:2.7;"/>
   </g>
   <g id="patch_69">
    <path d="M 57.44 217.24 
L 57.44 86.4 
" style="fill:none;stroke:#000000;stroke-linecap:square;stroke-linejoin:miter;stroke-width:0.8;"/>
   </g>
   <g id="patch_70">
    <path d="M 57.44 217.24 
L 421.2 217.24 
" style="fill:none;stroke:#000000;stroke-linecap:square;stroke-linejoin:miter;stroke-width:0.8;"/>
   </g>
   <g id="legend_1">
    <g id="patch_71">
     <path d="M 59.44 68.84875 
L 345.529063 68.84875 
Q 347.529063 68.84875 347.529063 66.84875 
L 347.529063 22.98 
Q 347.529063 20.98 345.529063 20.98 
L 59.44 20.98 
Q 57.44 20.98 57.44 22.98 
L 57.44 66.84875 
Q 57.44 68.84875 59.44 68.84875 
z
" style="fill:#ffffff;opacity:0.8;stroke:#cccccc;stroke-linejoin:miter;"/>
    </g>
    <g id="patch_72">
     <path d="M 61.44 32.578438 
L 81.44 32.578438 
L 81.44 25.578438 
L 61.44 25.578438 
z
" style="fill:#176d9c;opacity:0.9;"/>
    </g>
    <g id="text_20">
     <!-- base -->
     <defs>
      <path d="M 48.6875 27.296875 
Q 48.6875 37.203125 44.609375 42.84375 
Q 40.53125 48.484375 33.40625 48.484375 
Q 26.265625 48.484375 22.1875 42.84375 
Q 18.109375 37.203125 18.109375 27.296875 
Q 18.109375 17.390625 22.1875 11.75 
Q 26.265625 6.109375 33.40625 6.109375 
Q 40.53125 6.109375 44.609375 11.75 
Q 48.6875 17.390625 48.6875 27.296875 
z
M 18.109375 46.390625 
Q 20.953125 51.265625 25.265625 53.625 
Q 29.59375 56 35.59375 56 
Q 45.5625 56 51.78125 48.09375 
Q 58.015625 40.1875 58.015625 27.296875 
Q 58.015625 14.40625 51.78125 6.484375 
Q 45.5625 -1.421875 35.59375 -1.421875 
Q 29.59375 -1.421875 25.265625 0.953125 
Q 20.953125 3.328125 18.109375 8.203125 
L 18.109375 0 
L 9.078125 0 
L 9.078125 75.984375 
L 18.109375 75.984375 
z
" id="DejaVuSans-98"/>
     </defs>
     <g transform="translate(89.44 32.578438)scale(0.1 -0.1)">
      <use xlink:href="#DejaVuSans-98"/>
      <use x="63.476562" xlink:href="#DejaVuSans-97"/>
      <use x="124.755859" xlink:href="#DejaVuSans-115"/>
      <use x="176.855469" xlink:href="#DejaVuSans-101"/>
     </g>
    </g>
    <g id="patch_73">
     <path d="M 61.44 47.256563 
L 81.44 47.256563 
L 81.44 40.256563 
L 61.44 40.256563 
z
" style="fill:#c38820;opacity:0.9;"/>
    </g>
    <g id="text_21">
     <!-- sphereconv -->
     <defs>
      <path d="M 18.109375 8.203125 
L 18.109375 -20.796875 
L 9.078125 -20.796875 
L 9.078125 54.6875 
L 18.109375 54.6875 
L 18.109375 46.390625 
Q 20.953125 51.265625 25.265625 53.625 
Q 29.59375 56 35.59375 56 
Q 45.5625 56 51.78125 48.09375 
Q 58.015625 40.1875 58.015625 27.296875 
Q 58.015625 14.40625 51.78125 6.484375 
Q 45.5625 -1.421875 35.59375 -1.421875 
Q 29.59375 -1.421875 25.265625 0.953125 
Q 20.953125 3.328125 18.109375 8.203125 
z
M 48.6875 27.296875 
Q 48.6875 37.203125 44.609375 42.84375 
Q 40.53125 48.484375 33.40625 48.484375 
Q 26.265625 48.484375 22.1875 42.84375 
Q 18.109375 37.203125 18.109375 27.296875 
Q 18.109375 17.390625 22.1875 11.75 
Q 26.265625 6.109375 33.40625 6.109375 
Q 40.53125 6.109375 44.609375 11.75 
Q 48.6875 17.390625 48.6875 27.296875 
z
" id="DejaVuSans-112"/>
      <path d="M 54.890625 33.015625 
L 54.890625 0 
L 45.90625 0 
L 45.90625 32.71875 
Q 45.90625 40.484375 42.875 44.328125 
Q 39.84375 48.1875 33.796875 48.1875 
Q 26.515625 48.1875 22.3125 43.546875 
Q 18.109375 38.921875 18.109375 30.90625 
L 18.109375 0 
L 9.078125 0 
L 9.078125 75.984375 
L 18.109375 75.984375 
L 18.109375 46.1875 
Q 21.34375 51.125 25.703125 53.5625 
Q 30.078125 56 35.796875 56 
Q 45.21875 56 50.046875 50.171875 
Q 54.890625 44.34375 54.890625 33.015625 
z
" id="DejaVuSans-104"/>
      <path d="M 30.609375 48.390625 
Q 23.390625 48.390625 19.1875 42.75 
Q 14.984375 37.109375 14.984375 27.296875 
Q 14.984375 17.484375 19.15625 11.84375 
Q 23.34375 6.203125 30.609375 6.203125 
Q 37.796875 6.203125 41.984375 11.859375 
Q 46.1875 17.53125 46.1875 27.296875 
Q 46.1875 37.015625 41.984375 42.703125 
Q 37.796875 48.390625 30.609375 48.390625 
z
M 30.609375 56 
Q 42.328125 56 49.015625 48.375 
Q 55.71875 40.765625 55.71875 27.296875 
Q 55.71875 13.875 49.015625 6.21875 
Q 42.328125 -1.421875 30.609375 -1.421875 
Q 18.84375 -1.421875 12.171875 6.21875 
Q 5.515625 13.875 5.515625 27.296875 
Q 5.515625 40.765625 12.171875 48.375 
Q 18.84375 56 30.609375 56 
z
" id="DejaVuSans-111"/>
      <path d="M 54.890625 33.015625 
L 54.890625 0 
L 45.90625 0 
L 45.90625 32.71875 
Q 45.90625 40.484375 42.875 44.328125 
Q 39.84375 48.1875 33.796875 48.1875 
Q 26.515625 48.1875 22.3125 43.546875 
Q 18.109375 38.921875 18.109375 30.90625 
L 18.109375 0 
L 9.078125 0 
L 9.078125 54.6875 
L 18.109375 54.6875 
L 18.109375 46.1875 
Q 21.34375 51.125 25.703125 53.5625 
Q 30.078125 56 35.796875 56 
Q 45.21875 56 50.046875 50.171875 
Q 54.890625 44.34375 54.890625 33.015625 
z
" id="DejaVuSans-110"/>
      <path d="M 2.984375 54.6875 
L 12.5 54.6875 
L 29.59375 8.796875 
L 46.6875 54.6875 
L 56.203125 54.6875 
L 35.6875 0 
L 23.484375 0 
z
" id="DejaVuSans-118"/>
     </defs>
     <g transform="translate(89.44 47.256563)scale(0.1 -0.1)">
      <use xlink:href="#DejaVuSans-115"/>
      <use x="52.099609" xlink:href="#DejaVuSans-112"/>
      <use x="115.576172" xlink:href="#DejaVuSans-104"/>
      <use x="178.955078" xlink:href="#DejaVuSans-101"/>
      <use x="240.478516" xlink:href="#DejaVuSans-114"/>
      <use x="279.341797" xlink:href="#DejaVuSans-101"/>
      <use x="340.865234" xlink:href="#DejaVuSans-99"/>
      <use x="395.845703" xlink:href="#DejaVuSans-111"/>
      <use x="457.027344" xlink:href="#DejaVuSans-110"/>
      <use x="520.40625" xlink:href="#DejaVuSans-118"/>
     </g>
    </g>
    <g id="patch_74">
     <path d="M 61.44 61.934688 
L 81.44 61.934688 
L 81.44 54.934688 
L 61.44 54.934688 
z
" style="fill:#158b6a;opacity:0.9;"/>
    </g>
    <g id="text_22">
     <!-- hemconv -->
     <g transform="translate(89.44 61.934688)scale(0.1 -0.1)">
      <use xlink:href="#DejaVuSans-104"/>
      <use x="63.378906" xlink:href="#DejaVuSans-101"/>
      <use x="124.902344" xlink:href="#DejaVuSans-109"/>
      <use x="222.314453" xlink:href="#DejaVuSans-99"/>
      <use x="277.294922" xlink:href="#DejaVuSans-111"/>
      <use x="338.476562" xlink:href="#DejaVuSans-110"/>
      <use x="401.855469" xlink:href="#DejaVuSans-118"/>
     </g>
    </g>
    <g id="patch_75">
     <path d="M 167.400937 32.578438 
L 187.400937 32.578438 
L 187.400937 25.578438 
L 167.400937 25.578438 
z
" style="fill:#ba611b;opacity:0.9;"/>
    </g>
    <g id="text_23">
     <!-- hemconv_sharedweights -->
     <defs>
      <path d="M 50.984375 -16.609375 
L 50.984375 -23.578125 
L -0.984375 -23.578125 
L -0.984375 -16.609375 
z
" id="DejaVuSans-95"/>
      <path d="M 4.203125 54.6875 
L 13.1875 54.6875 
L 24.421875 12.015625 
L 35.59375 54.6875 
L 46.1875 54.6875 
L 57.421875 12.015625 
L 68.609375 54.6875 
L 77.59375 54.6875 
L 63.28125 0 
L 52.6875 0 
L 40.921875 44.828125 
L 29.109375 0 
L 18.5 0 
z
" id="DejaVuSans-119"/>
      <path d="M 9.421875 54.6875 
L 18.40625 54.6875 
L 18.40625 0 
L 9.421875 0 
z
M 9.421875 75.984375 
L 18.40625 75.984375 
L 18.40625 64.59375 
L 9.421875 64.59375 
z
" id="DejaVuSans-105"/>
      <path d="M 45.40625 27.984375 
Q 45.40625 37.75 41.375 43.109375 
Q 37.359375 48.484375 30.078125 48.484375 
Q 22.859375 48.484375 18.828125 43.109375 
Q 14.796875 37.75 14.796875 27.984375 
Q 14.796875 18.265625 18.828125 12.890625 
Q 22.859375 7.515625 30.078125 7.515625 
Q 37.359375 7.515625 41.375 12.890625 
Q 45.40625 18.265625 45.40625 27.984375 
z
M 54.390625 6.78125 
Q 54.390625 -7.171875 48.1875 -13.984375 
Q 42 -20.796875 29.203125 -20.796875 
Q 24.46875 -20.796875 20.265625 -20.09375 
Q 16.0625 -19.390625 12.109375 -17.921875 
L 12.109375 -9.1875 
Q 16.0625 -11.328125 19.921875 -12.34375 
Q 23.78125 -13.375 27.78125 -13.375 
Q 36.625 -13.375 41.015625 -8.765625 
Q 45.40625 -4.15625 45.40625 5.171875 
L 45.40625 9.625 
Q 42.625 4.78125 38.28125 2.390625 
Q 33.9375 0 27.875 0 
Q 17.828125 0 11.671875 7.65625 
Q 5.515625 15.328125 5.515625 27.984375 
Q 5.515625 40.671875 11.671875 48.328125 
Q 17.828125 56 27.875 56 
Q 33.9375 56 38.28125 53.609375 
Q 42.625 51.21875 45.40625 46.390625 
L 45.40625 54.6875 
L 54.390625 54.6875 
z
" id="DejaVuSans-103"/>
      <path d="M 18.3125 70.21875 
L 18.3125 54.6875 
L 36.8125 54.6875 
L 36.8125 47.703125 
L 18.3125 47.703125 
L 18.3125 18.015625 
Q 18.3125 11.328125 20.140625 9.421875 
Q 21.96875 7.515625 27.59375 7.515625 
L 36.8125 7.515625 
L 36.8125 0 
L 27.59375 0 
Q 17.1875 0 13.234375 3.875 
Q 9.28125 7.765625 9.28125 18.015625 
L 9.28125 47.703125 
L 2.6875 47.703125 
L 2.6875 54.6875 
L 9.28125 54.6875 
L 9.28125 70.21875 
z
" id="DejaVuSans-116"/>
     </defs>
     <g transform="translate(195.400937 32.578438)scale(0.1 -0.1)">
      <use xlink:href="#DejaVuSans-104"/>
      <use x="63.378906" xlink:href="#DejaVuSans-101"/>
      <use x="124.902344" xlink:href="#DejaVuSans-109"/>
      <use x="222.314453" xlink:href="#DejaVuSans-99"/>
      <use x="277.294922" xlink:href="#DejaVuSans-111"/>
      <use x="338.476562" xlink:href="#DejaVuSans-110"/>
      <use x="401.855469" xlink:href="#DejaVuSans-118"/>
      <use x="461.035156" xlink:href="#DejaVuSans-95"/>
      <use x="511.035156" xlink:href="#DejaVuSans-115"/>
      <use x="563.134766" xlink:href="#DejaVuSans-104"/>
      <use x="626.513672" xlink:href="#DejaVuSans-97"/>
      <use x="687.792969" xlink:href="#DejaVuSans-114"/>
      <use x="726.65625" xlink:href="#DejaVuSans-101"/>
      <use x="788.179688" xlink:href="#DejaVuSans-100"/>
      <use x="851.65625" xlink:href="#DejaVuSans-119"/>
      <use x="933.443359" xlink:href="#DejaVuSans-101"/>
      <use x="994.966797" xlink:href="#DejaVuSans-105"/>
      <use x="1022.75" xlink:href="#DejaVuSans-103"/>
      <use x="1086.226562" xlink:href="#DejaVuSans-104"/>
      <use x="1149.605469" xlink:href="#DejaVuSans-116"/>
      <use x="1188.814453" xlink:href="#DejaVuSans-115"/>
     </g>
    </g>
    <g id="patch_76">
     <path d="M 167.400937 47.534688 
L 187.400937 47.534688 
L 187.400937 40.534688 
L 167.400937 40.534688 
z
" style="fill:#c282b5;opacity:0.9;"/>
    </g>
    <g id="text_24">
     <!-- sphereconv_hemconv -->
     <g transform="translate(195.400937 47.534688)scale(0.1 -0.1)">
      <use xlink:href="#DejaVuSans-115"/>
      <use x="52.099609" xlink:href="#DejaVuSans-112"/>
      <use x="115.576172" xlink:href="#DejaVuSans-104"/>
      <use x="178.955078" xlink:href="#DejaVuSans-101"/>
      <use x="240.478516" xlink:href="#DejaVuSans-114"/>
      <use x="279.341797" xlink:href="#DejaVuSans-101"/>
      <use x="340.865234" xlink:href="#DejaVuSans-99"/>
      <use x="395.845703" xlink:href="#DejaVuSans-111"/>
      <use x="457.027344" xlink:href="#DejaVuSans-110"/>
      <use x="520.40625" xlink:href="#DejaVuSans-118"/>
      <use x="579.585938" xlink:href="#DejaVuSans-95"/>
      <use x="629.585938" xlink:href="#DejaVuSans-104"/>
      <use x="692.964844" xlink:href="#DejaVuSans-101"/>
      <use x="754.488281" xlink:href="#DejaVuSans-109"/>
      <use x="851.900391" xlink:href="#DejaVuSans-99"/>
      <use x="906.880859" xlink:href="#DejaVuSans-111"/>
      <use x="968.0625" xlink:href="#DejaVuSans-110"/>
      <use x="1031.441406" xlink:href="#DejaVuSans-118"/>
     </g>
    </g>
    <g id="patch_77">
     <path d="M 167.400937 62.490938 
L 187.400937 62.490938 
L 187.400937 55.490938 
L 167.400937 55.490938 
z
" style="fill:#bd926e;opacity:0.9;"/>
    </g>
    <g id="text_25">
     <!-- sphereconv_hemconv_shared -->
     <g transform="translate(195.400937 62.490938)scale(0.1 -0.1)">
      <use xlink:href="#DejaVuSans-115"/>
      <use x="52.099609" xlink:href="#DejaVuSans-112"/>
      <use x="115.576172" xlink:href="#DejaVuSans-104"/>
      <use x="178.955078" xlink:href="#DejaVuSans-101"/>
      <use x="240.478516" xlink:href="#DejaVuSans-114"/>
      <use x="279.341797" xlink:href="#DejaVuSans-101"/>
      <use x="340.865234" xlink:href="#DejaVuSans-99"/>
      <use x="395.845703" xlink:href="#DejaVuSans-111"/>
      <use x="457.027344" xlink:href="#DejaVuSans-110"/>
      <use x="520.40625" xlink:href="#DejaVuSans-118"/>
      <use x="579.585938" xlink:href="#DejaVuSans-95"/>
      <use x="629.585938" xlink:href="#DejaVuSans-104"/>
      <use x="692.964844" xlink:href="#DejaVuSans-101"/>
      <use x="754.488281" xlink:href="#DejaVuSans-109"/>
      <use x="851.900391" xlink:href="#DejaVuSans-99"/>
      <use x="906.880859" xlink:href="#DejaVuSans-111"/>
      <use x="968.0625" xlink:href="#DejaVuSans-110"/>
      <use x="1031.441406" xlink:href="#DejaVuSans-118"/>
      <use x="1090.621094" xlink:href="#DejaVuSans-95"/>
      <use x="1140.621094" xlink:href="#DejaVuSans-115"/>
      <use x="1192.720703" xlink:href="#DejaVuSans-104"/>
      <use x="1256.099609" xlink:href="#DejaVuSans-97"/>
      <use x="1317.378906" xlink:href="#DejaVuSans-114"/>
      <use x="1356.242188" xlink:href="#DejaVuSans-101"/>
      <use x="1417.765625" xlink:href="#DejaVuSans-100"/>
     </g>
    </g>
   </g>
  </g>
  <g id="axes_2">
   <g id="patch_78">
    <path d="M 57.44 390.04 
L 421.2 390.04 
L 421.2 259.2 
L 57.44 259.2 
z
" style="fill:#ffffff;"/>
   </g>
   <g id="patch_79">
    <path clip-path="url(#pb63fb459e4)" d="M 60.746909 390.04 
L 65.156121 390.04 
L 65.156121 265.430476 
L 60.746909 265.430476 
z
" style="fill:#176d9c;opacity:0.9;"/>
   </g>
   <g id="patch_80">
    <path clip-path="url(#pb63fb459e4)" d="M 93.816 390.04 
L 98.225212 390.04 
L 98.225212 267.26671 
L 93.816 267.26671 
z
" style="fill:#176d9c;opacity:0.9;"/>
   </g>
   <g id="patch_81">
    <path clip-path="url(#pb63fb459e4)" d="M 126.885091 390.04 
L 131.294303 390.04 
L 131.294303 272.269446 
L 126.885091 272.269446 
z
" style="fill:#176d9c;opacity:0.9;"/>
   </g>
   <g id="patch_82">
    <path clip-path="url(#pb63fb459e4)" d="M 159.954182 390.04 
L 164.363394 390.04 
L 164.363394 280.711539 
L 159.954182 280.711539 
z
" style="fill:#176d9c;opacity:0.9;"/>
   </g>
   <g id="patch_83">
    <path clip-path="url(#pb63fb459e4)" d="M 193.023273 390.04 
L 197.432485 390.04 
L 197.432485 291.617931 
L 193.023273 291.617931 
z
" style="fill:#176d9c;opacity:0.9;"/>
   </g>
   <g id="patch_84">
    <path clip-path="url(#pb63fb459e4)" d="M 226.092364 390.04 
L 230.501576 390.04 
L 230.501576 303.186214 
L 226.092364 303.186214 
z
" style="fill:#176d9c;opacity:0.9;"/>
   </g>
   <g id="patch_85">
    <path clip-path="url(#pb63fb459e4)" d="M 259.161455 390.04 
L 263.570667 390.04 
L 263.570667 314.038361 
L 259.161455 314.038361 
z
" style="fill:#176d9c;opacity:0.9;"/>
   </g>
   <g id="patch_86">
    <path clip-path="url(#pb63fb459e4)" d="M 292.230545 390.04 
L 296.639758 390.04 
L 296.639758 323.470109 
L 292.230545 323.470109 
z
" style="fill:#176d9c;opacity:0.9;"/>
   </g>
   <g id="patch_87">
    <path clip-path="url(#pb63fb459e4)" d="M 325.299636 390.04 
L 329.708848 390.04 
L 329.708848 331.337525 
L 325.299636 331.337525 
z
" style="fill:#176d9c;opacity:0.9;"/>
   </g>
   <g id="patch_88">
    <path clip-path="url(#pb63fb459e4)" d="M 358.368727 390.04 
L 362.777939 390.04 
L 362.777939 338.018525 
L 358.368727 338.018525 
z
" style="fill:#176d9c;opacity:0.9;"/>
   </g>
   <g id="patch_89">
    <path clip-path="url(#pb63fb459e4)" d="M 391.437818 390.04 
L 395.84703 390.04 
L 395.84703 343.871743 
L 391.437818 343.871743 
z
" style="fill:#176d9c;opacity:0.9;"/>
   </g>
   <g id="patch_90">
    <path clip-path="url(#pb63fb459e4)" d="M 65.156121 390.04 
L 69.565333 390.04 
L 69.565333 265.430476 
L 65.156121 265.430476 
z
" style="fill:#c38820;opacity:0.9;"/>
   </g>
   <g id="patch_91">
    <path clip-path="url(#pb63fb459e4)" d="M 98.225212 390.04 
L 102.634424 390.04 
L 102.634424 266.988221 
L 98.225212 266.988221 
z
" style="fill:#c38820;opacity:0.9;"/>
   </g>
   <g id="patch_92">
    <path clip-path="url(#pb63fb459e4)" d="M 131.294303 390.04 
L 135.703515 390.04 
L 135.703515 271.047139 
L 131.294303 271.047139 
z
" style="fill:#c38820;opacity:0.9;"/>
   </g>
   <g id="patch_93">
    <path clip-path="url(#pb63fb459e4)" d="M 164.363394 390.04 
L 168.772606 390.04 
L 168.772606 278.047822 
L 164.363394 278.047822 
z
" style="fill:#c38820;opacity:0.9;"/>
   </g>
   <g id="patch_94">
    <path clip-path="url(#pb63fb459e4)" d="M 197.432485 390.04 
L 201.841697 390.04 
L 201.841697 287.632209 
L 197.432485 287.632209 
z
" style="fill:#c38820;opacity:0.9;"/>
   </g>
   <g id="patch_95">
    <path clip-path="url(#pb63fb459e4)" d="M 230.501576 390.04 
L 234.910788 390.04 
L 234.910788 298.418133 
L 230.501576 298.418133 
z
" style="fill:#c38820;opacity:0.9;"/>
   </g>
   <g id="patch_96">
    <path clip-path="url(#pb63fb459e4)" d="M 263.570667 390.04 
L 267.979879 390.04 
L 267.979879 308.893409 
L 263.570667 308.893409 
z
" style="fill:#c38820;opacity:0.9;"/>
   </g>
   <g id="patch_97">
    <path clip-path="url(#pb63fb459e4)" d="M 296.639758 390.04 
L 301.04897 390.04 
L 301.04897 318.198799 
L 296.639758 318.198799 
z
" style="fill:#c38820;opacity:0.9;"/>
   </g>
   <g id="patch_98">
    <path clip-path="url(#pb63fb459e4)" d="M 329.708848 390.04 
L 334.118061 390.04 
L 334.118061 325.918894 
L 329.708848 325.918894 
z
" style="fill:#c38820;opacity:0.9;"/>
   </g>
   <g id="patch_99">
    <path clip-path="url(#pb63fb459e4)" d="M 362.777939 390.04 
L 367.187152 390.04 
L 367.187152 332.235394 
L 362.777939 332.235394 
z
" style="fill:#c38820;opacity:0.9;"/>
   </g>
   <g id="patch_100">
    <path clip-path="url(#pb63fb459e4)" d="M 395.84703 390.04 
L 400.256242 390.04 
L 400.256242 337.447581 
L 395.84703 337.447581 
z
" style="fill:#c38820;opacity:0.9;"/>
   </g>
   <g id="patch_101">
    <path clip-path="url(#pb63fb459e4)" d="M 69.565333 390.04 
L 73.974545 390.04 
L 73.974545 265.430476 
L 69.565333 265.430476 
z
" style="fill:#158b6a;opacity:0.9;"/>
   </g>
   <g id="patch_102">
    <path clip-path="url(#pb63fb459e4)" d="M 102.634424 390.04 
L 107.043636 390.04 
L 107.043636 267.059148 
L 102.634424 267.059148 
z
" style="fill:#158b6a;opacity:0.9;"/>
   </g>
   <g id="patch_103">
    <path clip-path="url(#pb63fb459e4)" d="M 135.703515 390.04 
L 140.112727 390.04 
L 140.112727 271.407407 
L 135.703515 271.407407 
z
" style="fill:#158b6a;opacity:0.9;"/>
   </g>
   <g id="patch_104">
    <path clip-path="url(#pb63fb459e4)" d="M 168.772606 390.04 
L 173.181818 390.04 
L 173.181818 278.866051 
L 168.772606 278.866051 
z
" style="fill:#158b6a;opacity:0.9;"/>
   </g>
   <g id="patch_105">
    <path clip-path="url(#pb63fb459e4)" d="M 201.841697 390.04 
L 206.250909 390.04 
L 206.250909 288.773546 
L 201.841697 288.773546 
z
" style="fill:#158b6a;opacity:0.9;"/>
   </g>
   <g id="patch_106">
    <path clip-path="url(#pb63fb459e4)" d="M 234.910788 390.04 
L 239.32 390.04 
L 239.32 299.591487 
L 234.910788 299.591487 
z
" style="fill:#158b6a;opacity:0.9;"/>
   </g>
   <g id="patch_107">
    <path clip-path="url(#pb63fb459e4)" d="M 267.979879 390.04 
L 272.389091 390.04 
L 272.389091 309.856812 
L 267.979879 309.856812 
z
" style="fill:#158b6a;opacity:0.9;"/>
   </g>
   <g id="patch_108">
    <path clip-path="url(#pb63fb459e4)" d="M 301.04897 390.04 
L 305.458182 390.04 
L 305.458182 318.757257 
L 301.04897 318.757257 
z
" style="fill:#158b6a;opacity:0.9;"/>
   </g>
   <g id="patch_109">
    <path clip-path="url(#pb63fb459e4)" d="M 334.118061 390.04 
L 338.527273 390.04 
L 338.527273 326.040656 
L 334.118061 326.040656 
z
" style="fill:#158b6a;opacity:0.9;"/>
   </g>
   <g id="patch_110">
    <path clip-path="url(#pb63fb459e4)" d="M 367.187152 390.04 
L 371.596364 390.04 
L 371.596364 331.818322 
L 367.187152 331.818322 
z
" style="fill:#158b6a;opacity:0.9;"/>
   </g>
   <g id="patch_111">
    <path clip-path="url(#pb63fb459e4)" d="M 400.256242 390.04 
L 404.665455 390.04 
L 404.665455 336.383157 
L 400.256242 336.383157 
z
" style="fill:#158b6a;opacity:0.9;"/>
   </g>
   <g id="patch_112">
    <path clip-path="url(#pb63fb459e4)" d="M 73.974545 390.04 
L 78.383758 390.04 
L 78.383758 265.430476 
L 73.974545 265.430476 
z
" style="fill:#ba611b;opacity:0.9;"/>
   </g>
   <g id="patch_113">
    <path clip-path="url(#pb63fb459e4)" d="M 107.043636 390.04 
L 111.452848 390.04 
L 111.452848 266.787932 
L 107.043636 266.787932 
z
" style="fill:#ba611b;opacity:0.9;"/>
   </g>
   <g id="patch_114">
    <path clip-path="url(#pb63fb459e4)" d="M 140.112727 390.04 
L 144.521939 390.04 
L 144.521939 270.354574 
L 140.112727 270.354574 
z
" style="fill:#ba611b;opacity:0.9;"/>
   </g>
   <g id="patch_115">
    <path clip-path="url(#pb63fb459e4)" d="M 173.181818 390.04 
L 177.59103 390.04 
L 177.59103 276.746377 
L 173.181818 276.746377 
z
" style="fill:#ba611b;opacity:0.9;"/>
   </g>
   <g id="patch_116">
    <path clip-path="url(#pb63fb459e4)" d="M 206.250909 390.04 
L 210.660121 390.04 
L 210.660121 285.664965 
L 206.250909 285.664965 
z
" style="fill:#ba611b;opacity:0.9;"/>
   </g>
   <g id="patch_117">
    <path clip-path="url(#pb63fb459e4)" d="M 239.32 390.04 
L 243.729212 390.04 
L 243.729212 295.924273 
L 239.32 295.924273 
z
" style="fill:#ba611b;opacity:0.9;"/>
   </g>
   <g id="patch_118">
    <path clip-path="url(#pb63fb459e4)" d="M 272.389091 390.04 
L 276.798303 390.04 
L 276.798303 306.158896 
L 272.389091 306.158896 
z
" style="fill:#ba611b;opacity:0.9;"/>
   </g>
   <g id="patch_119">
    <path clip-path="url(#pb63fb459e4)" d="M 305.458182 390.04 
L 309.867394 390.04 
L 309.867394 315.378851 
L 305.458182 315.378851 
z
" style="fill:#ba611b;opacity:0.9;"/>
   </g>
   <g id="patch_120">
    <path clip-path="url(#pb63fb459e4)" d="M 338.527273 390.04 
L 342.936485 390.04 
L 342.936485 323.052992 
L 338.527273 323.052992 
z
" style="fill:#ba611b;opacity:0.9;"/>
   </g>
   <g id="patch_121">
    <path clip-path="url(#pb63fb459e4)" d="M 371.596364 390.04 
L 376.005576 390.04 
L 376.005576 329.244262 
L 371.596364 329.244262 
z
" style="fill:#ba611b;opacity:0.9;"/>
   </g>
   <g id="patch_122">
    <path clip-path="url(#pb63fb459e4)" d="M 404.665455 390.04 
L 409.074667 390.04 
L 409.074667 334.284645 
L 404.665455 334.284645 
z
" style="fill:#ba611b;opacity:0.9;"/>
   </g>
   <g id="patch_123">
    <path clip-path="url(#pb63fb459e4)" d="M 78.383758 390.04 
L 82.79297 390.04 
L 82.79297 265.430476 
L 78.383758 265.430476 
z
" style="fill:#c282b5;opacity:0.9;"/>
   </g>
   <g id="patch_124">
    <path clip-path="url(#pb63fb459e4)" d="M 111.452848 390.04 
L 115.862061 390.04 
L 115.862061 266.839801 
L 111.452848 266.839801 
z
" style="fill:#c282b5;opacity:0.9;"/>
   </g>
   <g id="patch_125">
    <path clip-path="url(#pb63fb459e4)" d="M 144.521939 390.04 
L 148.931152 390.04 
L 148.931152 270.569823 
L 144.521939 270.569823 
z
" style="fill:#c282b5;opacity:0.9;"/>
   </g>
   <g id="patch_126">
    <path clip-path="url(#pb63fb459e4)" d="M 177.59103 390.04 
L 182.000242 390.04 
L 182.000242 277.078248 
L 177.59103 277.078248 
z
" style="fill:#c282b5;opacity:0.9;"/>
   </g>
   <g id="patch_127">
    <path clip-path="url(#pb63fb459e4)" d="M 210.660121 390.04 
L 215.069333 390.04 
L 215.069333 286.103358 
L 210.660121 286.103358 
z
" style="fill:#c282b5;opacity:0.9;"/>
   </g>
   <g id="patch_128">
    <path clip-path="url(#pb63fb459e4)" d="M 243.729212 390.04 
L 248.138424 390.04 
L 248.138424 296.413733 
L 243.729212 296.413733 
z
" style="fill:#c282b5;opacity:0.9;"/>
   </g>
   <g id="patch_129">
    <path clip-path="url(#pb63fb459e4)" d="M 276.798303 390.04 
L 281.207515 390.04 
L 281.207515 306.657668 
L 276.798303 306.657668 
z
" style="fill:#c282b5;opacity:0.9;"/>
   </g>
   <g id="patch_130">
    <path clip-path="url(#pb63fb459e4)" d="M 309.867394 390.04 
L 314.276606 390.04 
L 314.276606 316.123806 
L 309.867394 316.123806 
z
" style="fill:#c282b5;opacity:0.9;"/>
   </g>
   <g id="patch_131">
    <path clip-path="url(#pb63fb459e4)" d="M 342.936485 390.04 
L 347.345697 390.04 
L 347.345697 324.343468 
L 342.936485 324.343468 
z
" style="fill:#c282b5;opacity:0.9;"/>
   </g>
   <g id="patch_132">
    <path clip-path="url(#pb63fb459e4)" d="M 376.005576 390.04 
L 380.414788 390.04 
L 380.414788 331.274193 
L 376.005576 331.274193 
z
" style="fill:#c282b5;opacity:0.9;"/>
   </g>
   <g id="patch_133">
    <path clip-path="url(#pb63fb459e4)" d="M 409.074667 390.04 
L 413.483879 390.04 
L 413.483879 336.977447 
L 409.074667 336.977447 
z
" style="fill:#c282b5;opacity:0.9;"/>
   </g>
   <g id="patch_134">
    <path clip-path="url(#pb63fb459e4)" d="M 82.79297 390.04 
L 87.202182 390.04 
L 87.202182 265.430476 
L 82.79297 265.430476 
z
" style="fill:#bd926e;opacity:0.9;"/>
   </g>
   <g id="patch_135">
    <path clip-path="url(#pb63fb459e4)" d="M 115.862061 390.04 
L 120.271273 390.04 
L 120.271273 266.570522 
L 115.862061 266.570522 
z
" style="fill:#bd926e;opacity:0.9;"/>
   </g>
   <g id="patch_136">
    <path clip-path="url(#pb63fb459e4)" d="M 148.931152 390.04 
L 153.340364 390.04 
L 153.340364 269.510786 
L 148.931152 269.510786 
z
" style="fill:#bd926e;opacity:0.9;"/>
   </g>
   <g id="patch_137">
    <path clip-path="url(#pb63fb459e4)" d="M 182.000242 390.04 
L 186.409455 390.04 
L 186.409455 275.021847 
L 182.000242 275.021847 
z
" style="fill:#bd926e;opacity:0.9;"/>
   </g>
   <g id="patch_138">
    <path clip-path="url(#pb63fb459e4)" d="M 215.069333 390.04 
L 219.478545 390.04 
L 219.478545 283.235996 
L 215.069333 283.235996 
z
" style="fill:#bd926e;opacity:0.9;"/>
   </g>
   <g id="patch_139">
    <path clip-path="url(#pb63fb459e4)" d="M 248.138424 390.04 
L 252.547636 390.04 
L 252.547636 293.212735 
L 248.138424 293.212735 
z
" style="fill:#bd926e;opacity:0.9;"/>
   </g>
   <g id="patch_140">
    <path clip-path="url(#pb63fb459e4)" d="M 281.207515 390.04 
L 285.616727 390.04 
L 285.616727 303.423947 
L 281.207515 303.423947 
z
" style="fill:#bd926e;opacity:0.9;"/>
   </g>
   <g id="patch_141">
    <path clip-path="url(#pb63fb459e4)" d="M 314.276606 390.04 
L 318.685818 390.04 
L 318.685818 312.882705 
L 314.276606 312.882705 
z
" style="fill:#bd926e;opacity:0.9;"/>
   </g>
   <g id="patch_142">
    <path clip-path="url(#pb63fb459e4)" d="M 347.345697 390.04 
L 351.754909 390.04 
L 351.754909 320.962461 
L 347.345697 320.962461 
z
" style="fill:#bd926e;opacity:0.9;"/>
   </g>
   <g id="patch_143">
    <path clip-path="url(#pb63fb459e4)" d="M 380.414788 390.04 
L 384.824 390.04 
L 384.824 327.602135 
L 380.414788 327.602135 
z
" style="fill:#bd926e;opacity:0.9;"/>
   </g>
   <g id="patch_144">
    <path clip-path="url(#pb63fb459e4)" d="M 413.483879 390.04 
L 417.893091 390.04 
L 417.893091 333.056475 
L 413.483879 333.056475 
z
" style="fill:#bd926e;opacity:0.9;"/>
   </g>
   <g id="matplotlib.axis_3">
    <g id="xtick_12">
     <g id="line2d_84">
      <g>
       <use style="stroke:#000000;stroke-width:0.8;" x="73.974545" xlink:href="#m9fc5fe9fc0" y="390.04"/>
      </g>
     </g>
     <g id="text_26">
      <!-- 0 -->
      <g transform="translate(70.793295 404.638437)scale(0.1 -0.1)">
       <use xlink:href="#DejaVuSans-48"/>
      </g>
     </g>
    </g>
    <g id="xtick_13">
     <g id="line2d_85">
      <g>
       <use style="stroke:#000000;stroke-width:0.8;" x="107.043636" xlink:href="#m9fc5fe9fc0" y="390.04"/>
      </g>
     </g>
     <g id="text_27">
      <!-- 1 -->
      <g transform="translate(103.862386 404.638437)scale(0.1 -0.1)">
       <use xlink:href="#DejaVuSans-49"/>
      </g>
     </g>
    </g>
    <g id="xtick_14">
     <g id="line2d_86">
      <g>
       <use style="stroke:#000000;stroke-width:0.8;" x="140.112727" xlink:href="#m9fc5fe9fc0" y="390.04"/>
      </g>
     </g>
     <g id="text_28">
      <!-- 2 -->
      <g transform="translate(136.931477 404.638437)scale(0.1 -0.1)">
       <use xlink:href="#DejaVuSans-50"/>
      </g>
     </g>
    </g>
    <g id="xtick_15">
     <g id="line2d_87">
      <g>
       <use style="stroke:#000000;stroke-width:0.8;" x="173.181818" xlink:href="#m9fc5fe9fc0" y="390.04"/>
      </g>
     </g>
     <g id="text_29">
      <!-- 3 -->
      <g transform="translate(170.000568 404.638437)scale(0.1 -0.1)">
       <use xlink:href="#DejaVuSans-51"/>
      </g>
     </g>
    </g>
    <g id="xtick_16">
     <g id="line2d_88">
      <g>
       <use style="stroke:#000000;stroke-width:0.8;" x="206.250909" xlink:href="#m9fc5fe9fc0" y="390.04"/>
      </g>
     </g>
     <g id="text_30">
      <!-- 4 -->
      <g transform="translate(203.069659 404.638437)scale(0.1 -0.1)">
       <use xlink:href="#DejaVuSans-52"/>
      </g>
     </g>
    </g>
    <g id="xtick_17">
     <g id="line2d_89">
      <g>
       <use style="stroke:#000000;stroke-width:0.8;" x="239.32" xlink:href="#m9fc5fe9fc0" y="390.04"/>
      </g>
     </g>
     <g id="text_31">
      <!-- 5 -->
      <g transform="translate(236.13875 404.638437)scale(0.1 -0.1)">
       <use xlink:href="#DejaVuSans-53"/>
      </g>
     </g>
    </g>
    <g id="xtick_18">
     <g id="line2d_90">
      <g>
       <use style="stroke:#000000;stroke-width:0.8;" x="272.389091" xlink:href="#m9fc5fe9fc0" y="390.04"/>
      </g>
     </g>
     <g id="text_32">
      <!-- 6 -->
      <g transform="translate(269.207841 404.638437)scale(0.1 -0.1)">
       <use xlink:href="#DejaVuSans-54"/>
      </g>
     </g>
    </g>
    <g id="xtick_19">
     <g id="line2d_91">
      <g>
       <use style="stroke:#000000;stroke-width:0.8;" x="305.458182" xlink:href="#m9fc5fe9fc0" y="390.04"/>
      </g>
     </g>
     <g id="text_33">
      <!-- 7 -->
      <g transform="translate(302.276932 404.638437)scale(0.1 -0.1)">
       <use xlink:href="#DejaVuSans-55"/>
      </g>
     </g>
    </g>
    <g id="xtick_20">
     <g id="line2d_92">
      <g>
       <use style="stroke:#000000;stroke-width:0.8;" x="338.527273" xlink:href="#m9fc5fe9fc0" y="390.04"/>
      </g>
     </g>
     <g id="text_34">
      <!-- 8 -->
      <g transform="translate(335.346023 404.638437)scale(0.1 -0.1)">
       <use xlink:href="#DejaVuSans-56"/>
      </g>
     </g>
    </g>
    <g id="xtick_21">
     <g id="line2d_93">
      <g>
       <use style="stroke:#000000;stroke-width:0.8;" x="371.596364" xlink:href="#m9fc5fe9fc0" y="390.04"/>
      </g>
     </g>
     <g id="text_35">
      <!-- 9 -->
      <g transform="translate(368.415114 404.638437)scale(0.1 -0.1)">
       <use xlink:href="#DejaVuSans-57"/>
      </g>
     </g>
    </g>
    <g id="xtick_22">
     <g id="line2d_94">
      <g>
       <use style="stroke:#000000;stroke-width:0.8;" x="404.665455" xlink:href="#m9fc5fe9fc0" y="390.04"/>
      </g>
     </g>
     <g id="text_36">
      <!-- 10 -->
      <g transform="translate(398.302955 404.638437)scale(0.1 -0.1)">
       <use xlink:href="#DejaVuSans-49"/>
       <use x="63.623047" xlink:href="#DejaVuSans-48"/>
      </g>
     </g>
    </g>
    <g id="text_37">
     <!-- fcday -->
     <g transform="translate(225.612969 418.316562)scale(0.1 -0.1)">
      <use xlink:href="#DejaVuSans-102"/>
      <use x="35.205078" xlink:href="#DejaVuSans-99"/>
      <use x="90.185547" xlink:href="#DejaVuSans-100"/>
      <use x="153.662109" xlink:href="#DejaVuSans-97"/>
      <use x="214.941406" xlink:href="#DejaVuSans-121"/>
     </g>
    </g>
   </g>
   <g id="matplotlib.axis_4">
    <g id="ytick_7">
     <g id="line2d_95">
      <g>
       <use style="stroke:#000000;stroke-width:0.8;" x="57.44" xlink:href="#m8c1edf844c" y="390.04"/>
      </g>
     </g>
     <g id="text_38">
      <!-- 0.0 -->
      <defs>
       <path d="M 10.6875 12.40625 
L 21 12.40625 
L 21 0 
L 10.6875 0 
z
" id="DejaVuSans-46"/>
      </defs>
      <g transform="translate(34.536875 393.839219)scale(0.1 -0.1)">
       <use xlink:href="#DejaVuSans-48"/>
       <use x="63.623047" xlink:href="#DejaVuSans-46"/>
       <use x="95.410156" xlink:href="#DejaVuSans-48"/>
      </g>
     </g>
    </g>
    <g id="ytick_8">
     <g id="line2d_96">
      <g>
       <use style="stroke:#000000;stroke-width:0.8;" x="57.44" xlink:href="#m8c1edf844c" y="365.118095"/>
      </g>
     </g>
     <g id="text_39">
      <!-- 0.2 -->
      <g transform="translate(34.536875 368.917314)scale(0.1 -0.1)">
       <use xlink:href="#DejaVuSans-48"/>
       <use x="63.623047" xlink:href="#DejaVuSans-46"/>
       <use x="95.410156" xlink:href="#DejaVuSans-50"/>
      </g>
     </g>
    </g>
    <g id="ytick_9">
     <g id="line2d_97">
      <g>
       <use style="stroke:#000000;stroke-width:0.8;" x="57.44" xlink:href="#m8c1edf844c" y="340.19619"/>
      </g>
     </g>
     <g id="text_40">
      <!-- 0.4 -->
      <g transform="translate(34.536875 343.995409)scale(0.1 -0.1)">
       <use xlink:href="#DejaVuSans-48"/>
       <use x="63.623047" xlink:href="#DejaVuSans-46"/>
       <use x="95.410156" xlink:href="#DejaVuSans-52"/>
      </g>
     </g>
    </g>
    <g id="ytick_10">
     <g id="line2d_98">
      <g>
       <use style="stroke:#000000;stroke-width:0.8;" x="57.44" xlink:href="#m8c1edf844c" y="315.274286"/>
      </g>
     </g>
     <g id="text_41">
      <!-- 0.6 -->
      <g transform="translate(34.536875 319.073504)scale(0.1 -0.1)">
       <use xlink:href="#DejaVuSans-48"/>
       <use x="63.623047" xlink:href="#DejaVuSans-46"/>
       <use x="95.410156" xlink:href="#DejaVuSans-54"/>
      </g>
     </g>
    </g>
    <g id="ytick_11">
     <g id="line2d_99">
      <g>
       <use style="stroke:#000000;stroke-width:0.8;" x="57.44" xlink:href="#m8c1edf844c" y="290.352381"/>
      </g>
     </g>
     <g id="text_42">
      <!-- 0.8 -->
      <g transform="translate(34.536875 294.1516)scale(0.1 -0.1)">
       <use xlink:href="#DejaVuSans-48"/>
       <use x="63.623047" xlink:href="#DejaVuSans-46"/>
       <use x="95.410156" xlink:href="#DejaVuSans-56"/>
      </g>
     </g>
    </g>
    <g id="ytick_12">
     <g id="line2d_100">
      <g>
       <use style="stroke:#000000;stroke-width:0.8;" x="57.44" xlink:href="#m8c1edf844c" y="265.430476"/>
      </g>
     </g>
     <g id="text_43">
      <!-- 1.0 -->
      <g transform="translate(34.536875 269.229695)scale(0.1 -0.1)">
       <use xlink:href="#DejaVuSans-49"/>
       <use x="63.623047" xlink:href="#DejaVuSans-46"/>
       <use x="95.410156" xlink:href="#DejaVuSans-48"/>
      </g>
     </g>
    </g>
    <g id="text_44">
     <!-- acc -->
     <g transform="translate(28.457188 333.1825)rotate(-90)scale(0.1 -0.1)">
      <use xlink:href="#DejaVuSans-97"/>
      <use x="61.279297" xlink:href="#DejaVuSans-99"/>
      <use x="116.259766" xlink:href="#DejaVuSans-99"/>
     </g>
    </g>
   </g>
   <g id="line2d_101">
    <path clip-path="url(#pb63fb459e4)" d="M 0 0 
" style="fill:none;stroke:#424242;stroke-linecap:square;stroke-width:2.7;"/>
   </g>
   <g id="line2d_102">
    <path clip-path="url(#pb63fb459e4)" d="M 0 0 
" style="fill:none;stroke:#424242;stroke-linecap:square;stroke-width:2.7;"/>
   </g>
   <g id="line2d_103">
    <path clip-path="url(#pb63fb459e4)" d="M 0 0 
" style="fill:none;stroke:#424242;stroke-linecap:square;stroke-width:2.7;"/>
   </g>
   <g id="line2d_104">
    <path clip-path="url(#pb63fb459e4)" d="M 0 0 
" style="fill:none;stroke:#424242;stroke-linecap:square;stroke-width:2.7;"/>
   </g>
   <g id="line2d_105">
    <path clip-path="url(#pb63fb459e4)" d="M 0 0 
" style="fill:none;stroke:#424242;stroke-linecap:square;stroke-width:2.7;"/>
   </g>
   <g id="line2d_106">
    <path clip-path="url(#pb63fb459e4)" d="M 0 0 
" style="fill:none;stroke:#424242;stroke-linecap:square;stroke-width:2.7;"/>
   </g>
   <g id="line2d_107">
    <path clip-path="url(#pb63fb459e4)" d="M 0 0 
" style="fill:none;stroke:#424242;stroke-linecap:square;stroke-width:2.7;"/>
   </g>
   <g id="line2d_108">
    <path clip-path="url(#pb63fb459e4)" d="M 0 0 
" style="fill:none;stroke:#424242;stroke-linecap:square;stroke-width:2.7;"/>
   </g>
   <g id="line2d_109">
    <path clip-path="url(#pb63fb459e4)" d="M 0 0 
" style="fill:none;stroke:#424242;stroke-linecap:square;stroke-width:2.7;"/>
   </g>
   <g id="line2d_110">
    <path clip-path="url(#pb63fb459e4)" d="M 0 0 
" style="fill:none;stroke:#424242;stroke-linecap:square;stroke-width:2.7;"/>
   </g>
   <g id="line2d_111">
    <path clip-path="url(#pb63fb459e4)" d="M 0 0 
" style="fill:none;stroke:#424242;stroke-linecap:square;stroke-width:2.7;"/>
   </g>
   <g id="line2d_112">
    <path clip-path="url(#pb63fb459e4)" d="M 0 0 
" style="fill:none;stroke:#424242;stroke-linecap:square;stroke-width:2.7;"/>
   </g>
   <g id="line2d_113">
    <path clip-path="url(#pb63fb459e4)" d="M 0 0 
" style="fill:none;stroke:#424242;stroke-linecap:square;stroke-width:2.7;"/>
   </g>
   <g id="line2d_114">
    <path clip-path="url(#pb63fb459e4)" d="M 0 0 
" style="fill:none;stroke:#424242;stroke-linecap:square;stroke-width:2.7;"/>
   </g>
   <g id="line2d_115">
    <path clip-path="url(#pb63fb459e4)" d="M 0 0 
" style="fill:none;stroke:#424242;stroke-linecap:square;stroke-width:2.7;"/>
   </g>
   <g id="line2d_116">
    <path clip-path="url(#pb63fb459e4)" d="M 0 0 
" style="fill:none;stroke:#424242;stroke-linecap:square;stroke-width:2.7;"/>
   </g>
   <g id="line2d_117">
    <path clip-path="url(#pb63fb459e4)" d="M 0 0 
" style="fill:none;stroke:#424242;stroke-linecap:square;stroke-width:2.7;"/>
   </g>
   <g id="line2d_118">
    <path clip-path="url(#pb63fb459e4)" d="M 0 0 
" style="fill:none;stroke:#424242;stroke-linecap:square;stroke-width:2.7;"/>
   </g>
   <g id="line2d_119">
    <path clip-path="url(#pb63fb459e4)" d="M 0 0 
" style="fill:none;stroke:#424242;stroke-linecap:square;stroke-width:2.7;"/>
   </g>
   <g id="line2d_120">
    <path clip-path="url(#pb63fb459e4)" d="M 0 0 
" style="fill:none;stroke:#424242;stroke-linecap:square;stroke-width:2.7;"/>
   </g>
   <g id="line2d_121">
    <path clip-path="url(#pb63fb459e4)" d="M 0 0 
" style="fill:none;stroke:#424242;stroke-linecap:square;stroke-width:2.7;"/>
   </g>
   <g id="line2d_122">
    <path clip-path="url(#pb63fb459e4)" d="M 0 0 
" style="fill:none;stroke:#424242;stroke-linecap:square;stroke-width:2.7;"/>
   </g>
   <g id="line2d_123">
    <path clip-path="url(#pb63fb459e4)" d="M 0 0 
" style="fill:none;stroke:#424242;stroke-linecap:square;stroke-width:2.7;"/>
   </g>
   <g id="line2d_124">
    <path clip-path="url(#pb63fb459e4)" d="M 0 0 
" style="fill:none;stroke:#424242;stroke-linecap:square;stroke-width:2.7;"/>
   </g>
   <g id="line2d_125">
    <path clip-path="url(#pb63fb459e4)" d="M 0 0 
" style="fill:none;stroke:#424242;stroke-linecap:square;stroke-width:2.7;"/>
   </g>
   <g id="line2d_126">
    <path clip-path="url(#pb63fb459e4)" d="M 0 0 
" style="fill:none;stroke:#424242;stroke-linecap:square;stroke-width:2.7;"/>
   </g>
   <g id="line2d_127">
    <path clip-path="url(#pb63fb459e4)" d="M 0 0 
" style="fill:none;stroke:#424242;stroke-linecap:square;stroke-width:2.7;"/>
   </g>
   <g id="line2d_128">
    <path clip-path="url(#pb63fb459e4)" d="M 0 0 
" style="fill:none;stroke:#424242;stroke-linecap:square;stroke-width:2.7;"/>
   </g>
   <g id="line2d_129">
    <path clip-path="url(#pb63fb459e4)" d="M 0 0 
" style="fill:none;stroke:#424242;stroke-linecap:square;stroke-width:2.7;"/>
   </g>
   <g id="line2d_130">
    <path clip-path="url(#pb63fb459e4)" d="M 0 0 
" style="fill:none;stroke:#424242;stroke-linecap:square;stroke-width:2.7;"/>
   </g>
   <g id="line2d_131">
    <path clip-path="url(#pb63fb459e4)" d="M 0 0 
" style="fill:none;stroke:#424242;stroke-linecap:square;stroke-width:2.7;"/>
   </g>
   <g id="line2d_132">
    <path clip-path="url(#pb63fb459e4)" d="M 0 0 
" style="fill:none;stroke:#424242;stroke-linecap:square;stroke-width:2.7;"/>
   </g>
   <g id="line2d_133">
    <path clip-path="url(#pb63fb459e4)" d="M 0 0 
" style="fill:none;stroke:#424242;stroke-linecap:square;stroke-width:2.7;"/>
   </g>
   <g id="line2d_134">
    <path clip-path="url(#pb63fb459e4)" d="M 0 0 
" style="fill:none;stroke:#424242;stroke-linecap:square;stroke-width:2.7;"/>
   </g>
   <g id="line2d_135">
    <path clip-path="url(#pb63fb459e4)" d="M 0 0 
" style="fill:none;stroke:#424242;stroke-linecap:square;stroke-width:2.7;"/>
   </g>
   <g id="line2d_136">
    <path clip-path="url(#pb63fb459e4)" d="M 0 0 
" style="fill:none;stroke:#424242;stroke-linecap:square;stroke-width:2.7;"/>
   </g>
   <g id="line2d_137">
    <path clip-path="url(#pb63fb459e4)" d="M 0 0 
" style="fill:none;stroke:#424242;stroke-linecap:square;stroke-width:2.7;"/>
   </g>
   <g id="line2d_138">
    <path clip-path="url(#pb63fb459e4)" d="M 0 0 
" style="fill:none;stroke:#424242;stroke-linecap:square;stroke-width:2.7;"/>
   </g>
   <g id="line2d_139">
    <path clip-path="url(#pb63fb459e4)" d="M 0 0 
" style="fill:none;stroke:#424242;stroke-linecap:square;stroke-width:2.7;"/>
   </g>
   <g id="line2d_140">
    <path clip-path="url(#pb63fb459e4)" d="M 0 0 
" style="fill:none;stroke:#424242;stroke-linecap:square;stroke-width:2.7;"/>
   </g>
   <g id="line2d_141">
    <path clip-path="url(#pb63fb459e4)" d="M 0 0 
" style="fill:none;stroke:#424242;stroke-linecap:square;stroke-width:2.7;"/>
   </g>
   <g id="line2d_142">
    <path clip-path="url(#pb63fb459e4)" d="M 0 0 
" style="fill:none;stroke:#424242;stroke-linecap:square;stroke-width:2.7;"/>
   </g>
   <g id="line2d_143">
    <path clip-path="url(#pb63fb459e4)" d="M 0 0 
" style="fill:none;stroke:#424242;stroke-linecap:square;stroke-width:2.7;"/>
   </g>
   <g id="line2d_144">
    <path clip-path="url(#pb63fb459e4)" d="M 0 0 
" style="fill:none;stroke:#424242;stroke-linecap:square;stroke-width:2.7;"/>
   </g>
   <g id="line2d_145">
    <path clip-path="url(#pb63fb459e4)" d="M 0 0 
" style="fill:none;stroke:#424242;stroke-linecap:square;stroke-width:2.7;"/>
   </g>
   <g id="line2d_146">
    <path clip-path="url(#pb63fb459e4)" d="M 0 0 
" style="fill:none;stroke:#424242;stroke-linecap:square;stroke-width:2.7;"/>
   </g>
   <g id="line2d_147">
    <path clip-path="url(#pb63fb459e4)" d="M 0 0 
" style="fill:none;stroke:#424242;stroke-linecap:square;stroke-width:2.7;"/>
   </g>
   <g id="line2d_148">
    <path clip-path="url(#pb63fb459e4)" d="M 0 0 
" style="fill:none;stroke:#424242;stroke-linecap:square;stroke-width:2.7;"/>
   </g>
   <g id="line2d_149">
    <path clip-path="url(#pb63fb459e4)" d="M 0 0 
" style="fill:none;stroke:#424242;stroke-linecap:square;stroke-width:2.7;"/>
   </g>
   <g id="line2d_150">
    <path clip-path="url(#pb63fb459e4)" d="M 0 0 
" style="fill:none;stroke:#424242;stroke-linecap:square;stroke-width:2.7;"/>
   </g>
   <g id="line2d_151">
    <path clip-path="url(#pb63fb459e4)" d="M 0 0 
" style="fill:none;stroke:#424242;stroke-linecap:square;stroke-width:2.7;"/>
   </g>
   <g id="line2d_152">
    <path clip-path="url(#pb63fb459e4)" d="M 0 0 
" style="fill:none;stroke:#424242;stroke-linecap:square;stroke-width:2.7;"/>
   </g>
   <g id="line2d_153">
    <path clip-path="url(#pb63fb459e4)" d="M 0 0 
" style="fill:none;stroke:#424242;stroke-linecap:square;stroke-width:2.7;"/>
   </g>
   <g id="line2d_154">
    <path clip-path="url(#pb63fb459e4)" d="M 0 0 
" style="fill:none;stroke:#424242;stroke-linecap:square;stroke-width:2.7;"/>
   </g>
   <g id="line2d_155">
    <path clip-path="url(#pb63fb459e4)" d="M 0 0 
" style="fill:none;stroke:#424242;stroke-linecap:square;stroke-width:2.7;"/>
   </g>
   <g id="line2d_156">
    <path clip-path="url(#pb63fb459e4)" d="M 0 0 
" style="fill:none;stroke:#424242;stroke-linecap:square;stroke-width:2.7;"/>
   </g>
   <g id="line2d_157">
    <path clip-path="url(#pb63fb459e4)" d="M 0 0 
" style="fill:none;stroke:#424242;stroke-linecap:square;stroke-width:2.7;"/>
   </g>
   <g id="line2d_158">
    <path clip-path="url(#pb63fb459e4)" d="M 0 0 
" style="fill:none;stroke:#424242;stroke-linecap:square;stroke-width:2.7;"/>
   </g>
   <g id="line2d_159">
    <path clip-path="url(#pb63fb459e4)" d="M 0 0 
" style="fill:none;stroke:#424242;stroke-linecap:square;stroke-width:2.7;"/>
   </g>
   <g id="line2d_160">
    <path clip-path="url(#pb63fb459e4)" d="M 0 0 
" style="fill:none;stroke:#424242;stroke-linecap:square;stroke-width:2.7;"/>
   </g>
   <g id="line2d_161">
    <path clip-path="url(#pb63fb459e4)" d="M 0 0 
" style="fill:none;stroke:#424242;stroke-linecap:square;stroke-width:2.7;"/>
   </g>
   <g id="line2d_162">
    <path clip-path="url(#pb63fb459e4)" d="M 0 0 
" style="fill:none;stroke:#424242;stroke-linecap:square;stroke-width:2.7;"/>
   </g>
   <g id="line2d_163">
    <path clip-path="url(#pb63fb459e4)" d="M 0 0 
" style="fill:none;stroke:#424242;stroke-linecap:square;stroke-width:2.7;"/>
   </g>
   <g id="line2d_164">
    <path clip-path="url(#pb63fb459e4)" d="M 0 0 
" style="fill:none;stroke:#424242;stroke-linecap:square;stroke-width:2.7;"/>
   </g>
   <g id="line2d_165">
    <path clip-path="url(#pb63fb459e4)" d="M 0 0 
" style="fill:none;stroke:#424242;stroke-linecap:square;stroke-width:2.7;"/>
   </g>
   <g id="line2d_166">
    <path clip-path="url(#pb63fb459e4)" d="M 0 0 
" style="fill:none;stroke:#424242;stroke-linecap:square;stroke-width:2.7;"/>
   </g>
   <g id="patch_145">
    <path d="M 57.44 390.04 
L 57.44 259.2 
" style="fill:none;stroke:#000000;stroke-linecap:square;stroke-linejoin:miter;stroke-width:0.8;"/>
   </g>
   <g id="patch_146">
    <path d="M 57.44 390.04 
L 421.2 390.04 
" style="fill:none;stroke:#000000;stroke-linecap:square;stroke-linejoin:miter;stroke-width:0.8;"/>
   </g>
  </g>
  <g id="text_45">
   <!-- geopotential500 -->
   <defs>
    <path d="M 9.421875 75.984375 
L 18.40625 75.984375 
L 18.40625 0 
L 9.421875 0 
z
" id="DejaVuSans-108"/>
   </defs>
   <g transform="translate(166.685625 17.758125)scale(0.12 -0.12)">
    <use xlink:href="#DejaVuSans-103"/>
    <use x="63.476562" xlink:href="#DejaVuSans-101"/>
    <use x="125" xlink:href="#DejaVuSans-111"/>
    <use x="186.181641" xlink:href="#DejaVuSans-112"/>
    <use x="249.658203" xlink:href="#DejaVuSans-111"/>
    <use x="310.839844" xlink:href="#DejaVuSans-116"/>
    <use x="350.048828" xlink:href="#DejaVuSans-101"/>
    <use x="411.572266" xlink:href="#DejaVuSans-110"/>
    <use x="474.951172" xlink:href="#DejaVuSans-116"/>
    <use x="514.160156" xlink:href="#DejaVuSans-105"/>
    <use x="541.943359" xlink:href="#DejaVuSans-97"/>
    <use x="603.222656" xlink:href="#DejaVuSans-108"/>
    <use x="631.005859" xlink:href="#DejaVuSans-53"/>
    <use x="694.628906" xlink:href="#DejaVuSans-48"/>
    <use x="758.251953" xlink:href="#DejaVuSans-48"/>
   </g>
  </g>
 </g>
 <defs>
  <clipPath id="pd1c3ff7b37">
   <rect height="130.84" width="363.76" x="57.44" y="86.4"/>
  </clipPath>
  <clipPath id="pb63fb459e4">
   <rect height="130.84" width="363.76" x="57.44" y="259.2"/>
  </clipPath>
 </defs>
</svg>
