<?xml version="1.0" encoding="utf-8" standalone="no"?>
<!DOCTYPE svg PUBLIC "-//W3C//DTD SVG 1.1//EN"
  "http://www.w3.org/Graphics/SVG/1.1/DTD/svg11.dtd">
<!-- Created with matplotlib (https://matplotlib.org/) -->
<svg height="432pt" version="1.1" viewBox="0 0 432 432" width="432pt" xmlns="http://www.w3.org/2000/svg" xmlns:xlink="http://www.w3.org/1999/xlink">
 <defs>
  <style type="text/css">
*{stroke-linecap:butt;stroke-linejoin:round;}
  </style>
 </defs>
 <g id="figure_1">
  <g id="patch_1">
   <path d="M 0 432 
L 432 432 
L 432 0 
L 0 0 
z
" style="fill:#ffffff;"/>
  </g>
  <g id="axes_1">
   <g id="patch_2">
    <path d="M 47.81 217.24 
L 421.2 217.24 
L 421.2 86.4 
L 47.81 86.4 
z
" style="fill:#ffffff;"/>
   </g>
   <g id="patch_3">
    <path clip-path="url(#p1188f95d64)" d="M 51.204455 217.24 
L 55.730394 217.24 
L 55.730394 217.24 
L 51.204455 217.24 
z
" style="fill:#176d9c;opacity:0.9;"/>
   </g>
   <g id="patch_4">
    <path clip-path="url(#p1188f95d64)" d="M 85.149 217.24 
L 89.674939 217.24 
L 89.674939 181.753316 
L 85.149 181.753316 
z
" style="fill:#176d9c;opacity:0.9;"/>
   </g>
   <g id="patch_5">
    <path clip-path="url(#p1188f95d64)" d="M 119.093545 217.24 
L 123.619485 217.24 
L 123.619485 167.061384 
L 119.093545 167.061384 
z
" style="fill:#176d9c;opacity:0.9;"/>
   </g>
   <g id="patch_6">
    <path clip-path="url(#p1188f95d64)" d="M 153.038091 217.24 
L 157.56403 217.24 
L 157.56403 152.722526 
L 153.038091 152.722526 
z
" style="fill:#176d9c;opacity:0.9;"/>
   </g>
   <g id="patch_7">
    <path clip-path="url(#p1188f95d64)" d="M 186.982636 217.24 
L 191.508576 217.24 
L 191.508576 139.266552 
L 186.982636 139.266552 
z
" style="fill:#176d9c;opacity:0.9;"/>
   </g>
   <g id="patch_8">
    <path clip-path="url(#p1188f95d64)" d="M 220.927182 217.24 
L 225.453121 217.24 
L 225.453121 127.646075 
L 220.927182 127.646075 
z
" style="fill:#176d9c;opacity:0.9;"/>
   </g>
   <g id="patch_9">
    <path clip-path="url(#p1188f95d64)" d="M 254.871727 217.24 
L 259.397667 217.24 
L 259.397667 118.112137 
L 254.871727 118.112137 
z
" style="fill:#176d9c;opacity:0.9;"/>
   </g>
   <g id="patch_10">
    <path clip-path="url(#p1188f95d64)" d="M 288.816273 217.24 
L 293.342212 217.24 
L 293.342212 110.435839 
L 288.816273 110.435839 
z
" style="fill:#176d9c;opacity:0.9;"/>
   </g>
   <g id="patch_11">
    <path clip-path="url(#p1188f95d64)" d="M 322.760818 217.24 
L 327.286758 217.24 
L 327.286758 104.210841 
L 322.760818 104.210841 
z
" style="fill:#176d9c;opacity:0.9;"/>
   </g>
   <g id="patch_12">
    <path clip-path="url(#p1188f95d64)" d="M 356.705364 217.24 
L 361.231303 217.24 
L 361.231303 98.87275 
L 356.705364 98.87275 
z
" style="fill:#176d9c;opacity:0.9;"/>
   </g>
   <g id="patch_13">
    <path clip-path="url(#p1188f95d64)" d="M 390.649909 217.24 
L 395.175848 217.24 
L 395.175848 93.497057 
L 390.649909 93.497057 
z
" style="fill:#176d9c;opacity:0.9;"/>
   </g>
   <g id="patch_14">
    <path clip-path="url(#p1188f95d64)" d="M 55.730394 217.24 
L 60.256333 217.24 
L 60.256333 217.24 
L 55.730394 217.24 
z
" style="fill:#c38820;opacity:0.9;"/>
   </g>
   <g id="patch_15">
    <path clip-path="url(#p1188f95d64)" d="M 89.674939 217.24 
L 94.200879 217.24 
L 94.200879 182.935612 
L 89.674939 182.935612 
z
" style="fill:#c38820;opacity:0.9;"/>
   </g>
   <g id="patch_16">
    <path clip-path="url(#p1188f95d64)" d="M 123.619485 217.24 
L 128.145424 217.24 
L 128.145424 169.310075 
L 123.619485 169.310075 
z
" style="fill:#c38820;opacity:0.9;"/>
   </g>
   <g id="patch_17">
    <path clip-path="url(#p1188f95d64)" d="M 157.56403 217.24 
L 162.08997 217.24 
L 162.08997 155.670971 
L 157.56403 155.670971 
z
" style="fill:#c38820;opacity:0.9;"/>
   </g>
   <g id="patch_18">
    <path clip-path="url(#p1188f95d64)" d="M 191.508576 217.24 
L 196.034515 217.24 
L 196.034515 142.335545 
L 191.508576 142.335545 
z
" style="fill:#c38820;opacity:0.9;"/>
   </g>
   <g id="patch_19">
    <path clip-path="url(#p1188f95d64)" d="M 225.453121 217.24 
L 229.979061 217.24 
L 229.979061 130.322008 
L 225.453121 130.322008 
z
" style="fill:#c38820;opacity:0.9;"/>
   </g>
   <g id="patch_20">
    <path clip-path="url(#p1188f95d64)" d="M 259.397667 217.24 
L 263.923606 217.24 
L 263.923606 120.147384 
L 259.397667 120.147384 
z
" style="fill:#c38820;opacity:0.9;"/>
   </g>
   <g id="patch_21">
    <path clip-path="url(#p1188f95d64)" d="M 293.342212 217.24 
L 297.868152 217.24 
L 297.868152 111.734542 
L 293.342212 111.734542 
z
" style="fill:#c38820;opacity:0.9;"/>
   </g>
   <g id="patch_22">
    <path clip-path="url(#p1188f95d64)" d="M 327.286758 217.24 
L 331.812697 217.24 
L 331.812697 104.913386 
L 327.286758 104.913386 
z
" style="fill:#c38820;opacity:0.9;"/>
   </g>
   <g id="patch_23">
    <path clip-path="url(#p1188f95d64)" d="M 361.231303 217.24 
L 365.757242 217.24 
L 365.757242 99.387962 
L 361.231303 99.387962 
z
" style="fill:#c38820;opacity:0.9;"/>
   </g>
   <g id="patch_24">
    <path clip-path="url(#p1188f95d64)" d="M 395.175848 217.24 
L 399.701788 217.24 
L 399.701788 94.798175 
L 395.175848 94.798175 
z
" style="fill:#c38820;opacity:0.9;"/>
   </g>
   <g id="patch_25">
    <path clip-path="url(#p1188f95d64)" d="M 60.256333 217.24 
L 64.782273 217.24 
L 64.782273 217.24 
L 60.256333 217.24 
z
" style="fill:#158b6a;opacity:0.9;"/>
   </g>
   <g id="patch_26">
    <path clip-path="url(#p1188f95d64)" d="M 94.200879 217.24 
L 98.726818 217.24 
L 98.726818 182.839896 
L 94.200879 182.839896 
z
" style="fill:#158b6a;opacity:0.9;"/>
   </g>
   <g id="patch_27">
    <path clip-path="url(#p1188f95d64)" d="M 128.145424 217.24 
L 132.671364 217.24 
L 132.671364 168.359738 
L 128.145424 168.359738 
z
" style="fill:#158b6a;opacity:0.9;"/>
   </g>
   <g id="patch_28">
    <path clip-path="url(#p1188f95d64)" d="M 162.08997 217.24 
L 166.615909 217.24 
L 166.615909 153.982999 
L 162.08997 153.982999 
z
" style="fill:#158b6a;opacity:0.9;"/>
   </g>
   <g id="patch_29">
    <path clip-path="url(#p1188f95d64)" d="M 196.034515 217.24 
L 200.560455 217.24 
L 200.560455 140.171668 
L 196.034515 140.171668 
z
" style="fill:#158b6a;opacity:0.9;"/>
   </g>
   <g id="patch_30">
    <path clip-path="url(#p1188f95d64)" d="M 229.979061 217.24 
L 234.505 217.24 
L 234.505 127.970993 
L 229.979061 127.970993 
z
" style="fill:#158b6a;opacity:0.9;"/>
   </g>
   <g id="patch_31">
    <path clip-path="url(#p1188f95d64)" d="M 263.923606 217.24 
L 268.449545 217.24 
L 268.449545 117.827573 
L 263.923606 117.827573 
z
" style="fill:#158b6a;opacity:0.9;"/>
   </g>
   <g id="patch_32">
    <path clip-path="url(#p1188f95d64)" d="M 297.868152 217.24 
L 302.394091 217.24 
L 302.394091 109.551184 
L 297.868152 109.551184 
z
" style="fill:#158b6a;opacity:0.9;"/>
   </g>
   <g id="patch_33">
    <path clip-path="url(#p1188f95d64)" d="M 331.812697 217.24 
L 336.338636 217.24 
L 336.338636 102.794936 
L 331.812697 102.794936 
z
" style="fill:#158b6a;opacity:0.9;"/>
   </g>
   <g id="patch_34">
    <path clip-path="url(#p1188f95d64)" d="M 365.757242 217.24 
L 370.283182 217.24 
L 370.283182 97.289742 
L 365.757242 97.289742 
z
" style="fill:#158b6a;opacity:0.9;"/>
   </g>
   <g id="patch_35">
    <path clip-path="url(#p1188f95d64)" d="M 399.701788 217.24 
L 404.227727 217.24 
L 404.227727 92.630476 
L 399.701788 92.630476 
z
" style="fill:#158b6a;opacity:0.9;"/>
   </g>
   <g id="patch_36">
    <path clip-path="url(#p1188f95d64)" d="M 64.782273 217.24 
L 69.308212 217.24 
L 69.308212 217.24 
L 64.782273 217.24 
z
" style="fill:#ba611b;opacity:0.9;"/>
   </g>
   <g id="patch_37">
    <path clip-path="url(#p1188f95d64)" d="M 98.726818 217.24 
L 103.252758 217.24 
L 103.252758 183.838548 
L 98.726818 183.838548 
z
" style="fill:#ba611b;opacity:0.9;"/>
   </g>
   <g id="patch_38">
    <path clip-path="url(#p1188f95d64)" d="M 132.671364 217.24 
L 137.197303 217.24 
L 137.197303 170.750421 
L 132.671364 170.750421 
z
" style="fill:#ba611b;opacity:0.9;"/>
   </g>
   <g id="patch_39">
    <path clip-path="url(#p1188f95d64)" d="M 166.615909 217.24 
L 171.141848 217.24 
L 171.141848 157.310149 
L 166.615909 157.310149 
z
" style="fill:#ba611b;opacity:0.9;"/>
   </g>
   <g id="patch_40">
    <path clip-path="url(#p1188f95d64)" d="M 200.560455 217.24 
L 205.086394 217.24 
L 205.086394 143.968633 
L 200.560455 143.968633 
z
" style="fill:#ba611b;opacity:0.9;"/>
   </g>
   <g id="patch_41">
    <path clip-path="url(#p1188f95d64)" d="M 234.505 217.24 
L 239.030939 217.24 
L 239.030939 131.842394 
L 234.505 131.842394 
z
" style="fill:#ba611b;opacity:0.9;"/>
   </g>
   <g id="patch_42">
    <path clip-path="url(#p1188f95d64)" d="M 268.449545 217.24 
L 272.975485 217.24 
L 272.975485 121.50892 
L 268.449545 121.50892 
z
" style="fill:#ba611b;opacity:0.9;"/>
   </g>
   <g id="patch_43">
    <path clip-path="url(#p1188f95d64)" d="M 302.394091 217.24 
L 306.92003 217.24 
L 306.92003 112.991039 
L 302.394091 112.991039 
z
" style="fill:#ba611b;opacity:0.9;"/>
   </g>
   <g id="patch_44">
    <path clip-path="url(#p1188f95d64)" d="M 336.338636 217.24 
L 340.864576 217.24 
L 340.864576 106.16871 
L 336.338636 106.16871 
z
" style="fill:#ba611b;opacity:0.9;"/>
   </g>
   <g id="patch_45">
    <path clip-path="url(#p1188f95d64)" d="M 370.283182 217.24 
L 374.809121 217.24 
L 374.809121 100.714513 
L 370.283182 100.714513 
z
" style="fill:#ba611b;opacity:0.9;"/>
   </g>
   <g id="patch_46">
    <path clip-path="url(#p1188f95d64)" d="M 404.227727 217.24 
L 408.753667 217.24 
L 408.753667 96.275115 
L 404.227727 96.275115 
z
" style="fill:#ba611b;opacity:0.9;"/>
   </g>
   <g id="patch_47">
    <path clip-path="url(#p1188f95d64)" d="M 69.308212 217.24 
L 73.834152 217.24 
L 73.834152 217.24 
L 69.308212 217.24 
z
" style="fill:#c282b5;opacity:0.9;"/>
   </g>
   <g id="patch_48">
    <path clip-path="url(#p1188f95d64)" d="M 103.252758 217.24 
L 107.778697 217.24 
L 107.778697 184.160142 
L 103.252758 184.160142 
z
" style="fill:#c282b5;opacity:0.9;"/>
   </g>
   <g id="patch_49">
    <path clip-path="url(#p1188f95d64)" d="M 137.197303 217.24 
L 141.723242 217.24 
L 141.723242 170.673138 
L 137.197303 170.673138 
z
" style="fill:#c282b5;opacity:0.9;"/>
   </g>
   <g id="patch_50">
    <path clip-path="url(#p1188f95d64)" d="M 171.141848 217.24 
L 175.667788 217.24 
L 175.667788 157.132506 
L 171.141848 157.132506 
z
" style="fill:#c282b5;opacity:0.9;"/>
   </g>
   <g id="patch_51">
    <path clip-path="url(#p1188f95d64)" d="M 205.086394 217.24 
L 209.612333 217.24 
L 209.612333 143.937771 
L 205.086394 143.937771 
z
" style="fill:#c282b5;opacity:0.9;"/>
   </g>
   <g id="patch_52">
    <path clip-path="url(#p1188f95d64)" d="M 239.030939 217.24 
L 243.556879 217.24 
L 243.556879 132.106483 
L 239.030939 132.106483 
z
" style="fill:#c282b5;opacity:0.9;"/>
   </g>
   <g id="patch_53">
    <path clip-path="url(#p1188f95d64)" d="M 272.975485 217.24 
L 277.501424 217.24 
L 277.501424 122.19517 
L 272.975485 122.19517 
z
" style="fill:#c282b5;opacity:0.9;"/>
   </g>
   <g id="patch_54">
    <path clip-path="url(#p1188f95d64)" d="M 306.92003 217.24 
L 311.44597 217.24 
L 311.44597 114.081475 
L 306.92003 114.081475 
z
" style="fill:#c282b5;opacity:0.9;"/>
   </g>
   <g id="patch_55">
    <path clip-path="url(#p1188f95d64)" d="M 340.864576 217.24 
L 345.390515 217.24 
L 345.390515 107.486771 
L 340.864576 107.486771 
z
" style="fill:#c282b5;opacity:0.9;"/>
   </g>
   <g id="patch_56">
    <path clip-path="url(#p1188f95d64)" d="M 374.809121 217.24 
L 379.335061 217.24 
L 379.335061 102.14253 
L 374.809121 102.14253 
z
" style="fill:#c282b5;opacity:0.9;"/>
   </g>
   <g id="patch_57">
    <path clip-path="url(#p1188f95d64)" d="M 408.753667 217.24 
L 413.279606 217.24 
L 413.279606 97.751383 
L 408.753667 97.751383 
z
" style="fill:#c282b5;opacity:0.9;"/>
   </g>
   <g id="patch_58">
    <path clip-path="url(#p1188f95d64)" d="M 73.834152 217.24 
L 78.360091 217.24 
L 78.360091 217.24 
L 73.834152 217.24 
z
" style="fill:#bd926e;opacity:0.9;"/>
   </g>
   <g id="patch_59">
    <path clip-path="url(#p1188f95d64)" d="M 107.778697 217.24 
L 112.304636 217.24 
L 112.304636 184.632001 
L 107.778697 184.632001 
z
" style="fill:#bd926e;opacity:0.9;"/>
   </g>
   <g id="patch_60">
    <path clip-path="url(#p1188f95d64)" d="M 141.723242 217.24 
L 146.249182 217.24 
L 146.249182 171.8079 
L 141.723242 171.8079 
z
" style="fill:#bd926e;opacity:0.9;"/>
   </g>
   <g id="patch_61">
    <path clip-path="url(#p1188f95d64)" d="M 175.667788 217.24 
L 180.193727 217.24 
L 180.193727 158.457818 
L 175.667788 158.457818 
z
" style="fill:#bd926e;opacity:0.9;"/>
   </g>
   <g id="patch_62">
    <path clip-path="url(#p1188f95d64)" d="M 209.612333 217.24 
L 214.138273 217.24 
L 214.138273 144.897022 
L 209.612333 144.897022 
z
" style="fill:#bd926e;opacity:0.9;"/>
   </g>
   <g id="patch_63">
    <path clip-path="url(#p1188f95d64)" d="M 243.556879 217.24 
L 248.082818 217.24 
L 248.082818 132.339051 
L 243.556879 132.339051 
z
" style="fill:#bd926e;opacity:0.9;"/>
   </g>
   <g id="patch_64">
    <path clip-path="url(#p1188f95d64)" d="M 277.501424 217.24 
L 282.027364 217.24 
L 282.027364 121.549266 
L 277.501424 121.549266 
z
" style="fill:#bd926e;opacity:0.9;"/>
   </g>
   <g id="patch_65">
    <path clip-path="url(#p1188f95d64)" d="M 311.44597 217.24 
L 315.971909 217.24 
L 315.971909 112.601448 
L 311.44597 112.601448 
z
" style="fill:#bd926e;opacity:0.9;"/>
   </g>
   <g id="patch_66">
    <path clip-path="url(#p1188f95d64)" d="M 345.390515 217.24 
L 349.916455 217.24 
L 349.916455 105.32505 
L 345.390515 105.32505 
z
" style="fill:#bd926e;opacity:0.9;"/>
   </g>
   <g id="patch_67">
    <path clip-path="url(#p1188f95d64)" d="M 379.335061 217.24 
L 383.861 217.24 
L 383.861 99.544726 
L 379.335061 99.544726 
z
" style="fill:#bd926e;opacity:0.9;"/>
   </g>
   <g id="patch_68">
    <path clip-path="url(#p1188f95d64)" d="M 413.279606 217.24 
L 417.805545 217.24 
L 417.805545 95.019194 
L 413.279606 95.019194 
z
" style="fill:#bd926e;opacity:0.9;"/>
   </g>
   <g id="matplotlib.axis_1">
    <g id="xtick_1">
     <g id="line2d_1">
      <defs>
       <path d="M 0 0 
L 0 3.5 
" id="m4a4de09f70" style="stroke:#000000;stroke-width:0.8;"/>
      </defs>
      <g>
       <use style="stroke:#000000;stroke-width:0.8;" x="64.782273" xlink:href="#m4a4de09f70" y="217.24"/>
      </g>
     </g>
     <g id="text_1">
      <!-- 0 -->
      <defs>
       <path d="M 31.78125 66.40625 
Q 24.171875 66.40625 20.328125 58.90625 
Q 16.5 51.421875 16.5 36.375 
Q 16.5 21.390625 20.328125 13.890625 
Q 24.171875 6.390625 31.78125 6.390625 
Q 39.453125 6.390625 43.28125 13.890625 
Q 47.125 21.390625 47.125 36.375 
Q 47.125 51.421875 43.28125 58.90625 
Q 39.453125 66.40625 31.78125 66.40625 
z
M 31.78125 74.21875 
Q 44.046875 74.21875 50.515625 64.515625 
Q 56.984375 54.828125 56.984375 36.375 
Q 56.984375 17.96875 50.515625 8.265625 
Q 44.046875 -1.421875 31.78125 -1.421875 
Q 19.53125 -1.421875 13.0625 8.265625 
Q 6.59375 17.96875 6.59375 36.375 
Q 6.59375 54.828125 13.0625 64.515625 
Q 19.53125 74.21875 31.78125 74.21875 
z
" id="DejaVuSans-48"/>
      </defs>
      <g transform="translate(61.601023 231.838437)scale(0.1 -0.1)">
       <use xlink:href="#DejaVuSans-48"/>
      </g>
     </g>
    </g>
    <g id="xtick_2">
     <g id="line2d_2">
      <g>
       <use style="stroke:#000000;stroke-width:0.8;" x="98.726818" xlink:href="#m4a4de09f70" y="217.24"/>
      </g>
     </g>
     <g id="text_2">
      <!-- 1 -->
      <defs>
       <path d="M 12.40625 8.296875 
L 28.515625 8.296875 
L 28.515625 63.921875 
L 10.984375 60.40625 
L 10.984375 69.390625 
L 28.421875 72.90625 
L 38.28125 72.90625 
L 38.28125 8.296875 
L 54.390625 8.296875 
L 54.390625 0 
L 12.40625 0 
z
" id="DejaVuSans-49"/>
      </defs>
      <g transform="translate(95.545568 231.838437)scale(0.1 -0.1)">
       <use xlink:href="#DejaVuSans-49"/>
      </g>
     </g>
    </g>
    <g id="xtick_3">
     <g id="line2d_3">
      <g>
       <use style="stroke:#000000;stroke-width:0.8;" x="132.671364" xlink:href="#m4a4de09f70" y="217.24"/>
      </g>
     </g>
     <g id="text_3">
      <!-- 2 -->
      <defs>
       <path d="M 19.1875 8.296875 
L 53.609375 8.296875 
L 53.609375 0 
L 7.328125 0 
L 7.328125 8.296875 
Q 12.9375 14.109375 22.625 23.890625 
Q 32.328125 33.6875 34.8125 36.53125 
Q 39.546875 41.84375 41.421875 45.53125 
Q 43.3125 49.21875 43.3125 52.78125 
Q 43.3125 58.59375 39.234375 62.25 
Q 35.15625 65.921875 28.609375 65.921875 
Q 23.96875 65.921875 18.8125 64.3125 
Q 13.671875 62.703125 7.8125 59.421875 
L 7.8125 69.390625 
Q 13.765625 71.78125 18.9375 73 
Q 24.125 74.21875 28.421875 74.21875 
Q 39.75 74.21875 46.484375 68.546875 
Q 53.21875 62.890625 53.21875 53.421875 
Q 53.21875 48.921875 51.53125 44.890625 
Q 49.859375 40.875 45.40625 35.40625 
Q 44.1875 33.984375 37.640625 27.21875 
Q 31.109375 20.453125 19.1875 8.296875 
z
" id="DejaVuSans-50"/>
      </defs>
      <g transform="translate(129.490114 231.838437)scale(0.1 -0.1)">
       <use xlink:href="#DejaVuSans-50"/>
      </g>
     </g>
    </g>
    <g id="xtick_4">
     <g id="line2d_4">
      <g>
       <use style="stroke:#000000;stroke-width:0.8;" x="166.615909" xlink:href="#m4a4de09f70" y="217.24"/>
      </g>
     </g>
     <g id="text_4">
      <!-- 3 -->
      <defs>
       <path d="M 40.578125 39.3125 
Q 47.65625 37.796875 51.625 33 
Q 55.609375 28.21875 55.609375 21.1875 
Q 55.609375 10.40625 48.1875 4.484375 
Q 40.765625 -1.421875 27.09375 -1.421875 
Q 22.515625 -1.421875 17.65625 -0.515625 
Q 12.796875 0.390625 7.625 2.203125 
L 7.625 11.71875 
Q 11.71875 9.328125 16.59375 8.109375 
Q 21.484375 6.890625 26.8125 6.890625 
Q 36.078125 6.890625 40.9375 10.546875 
Q 45.796875 14.203125 45.796875 21.1875 
Q 45.796875 27.640625 41.28125 31.265625 
Q 36.765625 34.90625 28.71875 34.90625 
L 20.21875 34.90625 
L 20.21875 43.015625 
L 29.109375 43.015625 
Q 36.375 43.015625 40.234375 45.921875 
Q 44.09375 48.828125 44.09375 54.296875 
Q 44.09375 59.90625 40.109375 62.90625 
Q 36.140625 65.921875 28.71875 65.921875 
Q 24.65625 65.921875 20.015625 65.03125 
Q 15.375 64.15625 9.8125 62.3125 
L 9.8125 71.09375 
Q 15.4375 72.65625 20.34375 73.4375 
Q 25.25 74.21875 29.59375 74.21875 
Q 40.828125 74.21875 47.359375 69.109375 
Q 53.90625 64.015625 53.90625 55.328125 
Q 53.90625 49.265625 50.4375 45.09375 
Q 46.96875 40.921875 40.578125 39.3125 
z
" id="DejaVuSans-51"/>
      </defs>
      <g transform="translate(163.434659 231.838437)scale(0.1 -0.1)">
       <use xlink:href="#DejaVuSans-51"/>
      </g>
     </g>
    </g>
    <g id="xtick_5">
     <g id="line2d_5">
      <g>
       <use style="stroke:#000000;stroke-width:0.8;" x="200.560455" xlink:href="#m4a4de09f70" y="217.24"/>
      </g>
     </g>
     <g id="text_5">
      <!-- 4 -->
      <defs>
       <path d="M 37.796875 64.3125 
L 12.890625 25.390625 
L 37.796875 25.390625 
z
M 35.203125 72.90625 
L 47.609375 72.90625 
L 47.609375 25.390625 
L 58.015625 25.390625 
L 58.015625 17.1875 
L 47.609375 17.1875 
L 47.609375 0 
L 37.796875 0 
L 37.796875 17.1875 
L 4.890625 17.1875 
L 4.890625 26.703125 
z
" id="DejaVuSans-52"/>
      </defs>
      <g transform="translate(197.379205 231.838437)scale(0.1 -0.1)">
       <use xlink:href="#DejaVuSans-52"/>
      </g>
     </g>
    </g>
    <g id="xtick_6">
     <g id="line2d_6">
      <g>
       <use style="stroke:#000000;stroke-width:0.8;" x="234.505" xlink:href="#m4a4de09f70" y="217.24"/>
      </g>
     </g>
     <g id="text_6">
      <!-- 5 -->
      <defs>
       <path d="M 10.796875 72.90625 
L 49.515625 72.90625 
L 49.515625 64.59375 
L 19.828125 64.59375 
L 19.828125 46.734375 
Q 21.96875 47.46875 24.109375 47.828125 
Q 26.265625 48.1875 28.421875 48.1875 
Q 40.625 48.1875 47.75 41.5 
Q 54.890625 34.8125 54.890625 23.390625 
Q 54.890625 11.625 47.5625 5.09375 
Q 40.234375 -1.421875 26.90625 -1.421875 
Q 22.3125 -1.421875 17.546875 -0.640625 
Q 12.796875 0.140625 7.71875 1.703125 
L 7.71875 11.625 
Q 12.109375 9.234375 16.796875 8.0625 
Q 21.484375 6.890625 26.703125 6.890625 
Q 35.15625 6.890625 40.078125 11.328125 
Q 45.015625 15.765625 45.015625 23.390625 
Q 45.015625 31 40.078125 35.4375 
Q 35.15625 39.890625 26.703125 39.890625 
Q 22.75 39.890625 18.8125 39.015625 
Q 14.890625 38.140625 10.796875 36.28125 
z
" id="DejaVuSans-53"/>
      </defs>
      <g transform="translate(231.32375 231.838437)scale(0.1 -0.1)">
       <use xlink:href="#DejaVuSans-53"/>
      </g>
     </g>
    </g>
    <g id="xtick_7">
     <g id="line2d_7">
      <g>
       <use style="stroke:#000000;stroke-width:0.8;" x="268.449545" xlink:href="#m4a4de09f70" y="217.24"/>
      </g>
     </g>
     <g id="text_7">
      <!-- 6 -->
      <defs>
       <path d="M 33.015625 40.375 
Q 26.375 40.375 22.484375 35.828125 
Q 18.609375 31.296875 18.609375 23.390625 
Q 18.609375 15.53125 22.484375 10.953125 
Q 26.375 6.390625 33.015625 6.390625 
Q 39.65625 6.390625 43.53125 10.953125 
Q 47.40625 15.53125 47.40625 23.390625 
Q 47.40625 31.296875 43.53125 35.828125 
Q 39.65625 40.375 33.015625 40.375 
z
M 52.59375 71.296875 
L 52.59375 62.3125 
Q 48.875 64.0625 45.09375 64.984375 
Q 41.3125 65.921875 37.59375 65.921875 
Q 27.828125 65.921875 22.671875 59.328125 
Q 17.53125 52.734375 16.796875 39.40625 
Q 19.671875 43.65625 24.015625 45.921875 
Q 28.375 48.1875 33.59375 48.1875 
Q 44.578125 48.1875 50.953125 41.515625 
Q 57.328125 34.859375 57.328125 23.390625 
Q 57.328125 12.15625 50.6875 5.359375 
Q 44.046875 -1.421875 33.015625 -1.421875 
Q 20.359375 -1.421875 13.671875 8.265625 
Q 6.984375 17.96875 6.984375 36.375 
Q 6.984375 53.65625 15.1875 63.9375 
Q 23.390625 74.21875 37.203125 74.21875 
Q 40.921875 74.21875 44.703125 73.484375 
Q 48.484375 72.75 52.59375 71.296875 
z
" id="DejaVuSans-54"/>
      </defs>
      <g transform="translate(265.268295 231.838437)scale(0.1 -0.1)">
       <use xlink:href="#DejaVuSans-54"/>
      </g>
     </g>
    </g>
    <g id="xtick_8">
     <g id="line2d_8">
      <g>
       <use style="stroke:#000000;stroke-width:0.8;" x="302.394091" xlink:href="#m4a4de09f70" y="217.24"/>
      </g>
     </g>
     <g id="text_8">
      <!-- 7 -->
      <defs>
       <path d="M 8.203125 72.90625 
L 55.078125 72.90625 
L 55.078125 68.703125 
L 28.609375 0 
L 18.3125 0 
L 43.21875 64.59375 
L 8.203125 64.59375 
z
" id="DejaVuSans-55"/>
      </defs>
      <g transform="translate(299.212841 231.838437)scale(0.1 -0.1)">
       <use xlink:href="#DejaVuSans-55"/>
      </g>
     </g>
    </g>
    <g id="xtick_9">
     <g id="line2d_9">
      <g>
       <use style="stroke:#000000;stroke-width:0.8;" x="336.338636" xlink:href="#m4a4de09f70" y="217.24"/>
      </g>
     </g>
     <g id="text_9">
      <!-- 8 -->
      <defs>
       <path d="M 31.78125 34.625 
Q 24.75 34.625 20.71875 30.859375 
Q 16.703125 27.09375 16.703125 20.515625 
Q 16.703125 13.921875 20.71875 10.15625 
Q 24.75 6.390625 31.78125 6.390625 
Q 38.8125 6.390625 42.859375 10.171875 
Q 46.921875 13.96875 46.921875 20.515625 
Q 46.921875 27.09375 42.890625 30.859375 
Q 38.875 34.625 31.78125 34.625 
z
M 21.921875 38.8125 
Q 15.578125 40.375 12.03125 44.71875 
Q 8.5 49.078125 8.5 55.328125 
Q 8.5 64.0625 14.71875 69.140625 
Q 20.953125 74.21875 31.78125 74.21875 
Q 42.671875 74.21875 48.875 69.140625 
Q 55.078125 64.0625 55.078125 55.328125 
Q 55.078125 49.078125 51.53125 44.71875 
Q 48 40.375 41.703125 38.8125 
Q 48.828125 37.15625 52.796875 32.3125 
Q 56.78125 27.484375 56.78125 20.515625 
Q 56.78125 9.90625 50.3125 4.234375 
Q 43.84375 -1.421875 31.78125 -1.421875 
Q 19.734375 -1.421875 13.25 4.234375 
Q 6.78125 9.90625 6.78125 20.515625 
Q 6.78125 27.484375 10.78125 32.3125 
Q 14.796875 37.15625 21.921875 38.8125 
z
M 18.3125 54.390625 
Q 18.3125 48.734375 21.84375 45.5625 
Q 25.390625 42.390625 31.78125 42.390625 
Q 38.140625 42.390625 41.71875 45.5625 
Q 45.3125 48.734375 45.3125 54.390625 
Q 45.3125 60.0625 41.71875 63.234375 
Q 38.140625 66.40625 31.78125 66.40625 
Q 25.390625 66.40625 21.84375 63.234375 
Q 18.3125 60.0625 18.3125 54.390625 
z
" id="DejaVuSans-56"/>
      </defs>
      <g transform="translate(333.157386 231.838437)scale(0.1 -0.1)">
       <use xlink:href="#DejaVuSans-56"/>
      </g>
     </g>
    </g>
    <g id="xtick_10">
     <g id="line2d_10">
      <g>
       <use style="stroke:#000000;stroke-width:0.8;" x="370.283182" xlink:href="#m4a4de09f70" y="217.24"/>
      </g>
     </g>
     <g id="text_10">
      <!-- 9 -->
      <defs>
       <path d="M 10.984375 1.515625 
L 10.984375 10.5 
Q 14.703125 8.734375 18.5 7.8125 
Q 22.3125 6.890625 25.984375 6.890625 
Q 35.75 6.890625 40.890625 13.453125 
Q 46.046875 20.015625 46.78125 33.40625 
Q 43.953125 29.203125 39.59375 26.953125 
Q 35.25 24.703125 29.984375 24.703125 
Q 19.046875 24.703125 12.671875 31.3125 
Q 6.296875 37.9375 6.296875 49.421875 
Q 6.296875 60.640625 12.9375 67.421875 
Q 19.578125 74.21875 30.609375 74.21875 
Q 43.265625 74.21875 49.921875 64.515625 
Q 56.59375 54.828125 56.59375 36.375 
Q 56.59375 19.140625 48.40625 8.859375 
Q 40.234375 -1.421875 26.421875 -1.421875 
Q 22.703125 -1.421875 18.890625 -0.6875 
Q 15.09375 0.046875 10.984375 1.515625 
z
M 30.609375 32.421875 
Q 37.25 32.421875 41.125 36.953125 
Q 45.015625 41.5 45.015625 49.421875 
Q 45.015625 57.28125 41.125 61.84375 
Q 37.25 66.40625 30.609375 66.40625 
Q 23.96875 66.40625 20.09375 61.84375 
Q 16.21875 57.28125 16.21875 49.421875 
Q 16.21875 41.5 20.09375 36.953125 
Q 23.96875 32.421875 30.609375 32.421875 
z
" id="DejaVuSans-57"/>
      </defs>
      <g transform="translate(367.101932 231.838437)scale(0.1 -0.1)">
       <use xlink:href="#DejaVuSans-57"/>
      </g>
     </g>
    </g>
    <g id="xtick_11">
     <g id="line2d_11">
      <g>
       <use style="stroke:#000000;stroke-width:0.8;" x="404.227727" xlink:href="#m4a4de09f70" y="217.24"/>
      </g>
     </g>
     <g id="text_11">
      <!-- 10 -->
      <g transform="translate(397.865227 231.838437)scale(0.1 -0.1)">
       <use xlink:href="#DejaVuSans-49"/>
       <use x="63.623047" xlink:href="#DejaVuSans-48"/>
      </g>
     </g>
    </g>
    <g id="text_12">
     <!-- fcday -->
     <defs>
      <path d="M 37.109375 75.984375 
L 37.109375 68.5 
L 28.515625 68.5 
Q 23.6875 68.5 21.796875 66.546875 
Q 19.921875 64.59375 19.921875 59.515625 
L 19.921875 54.6875 
L 34.71875 54.6875 
L 34.71875 47.703125 
L 19.921875 47.703125 
L 19.921875 0 
L 10.890625 0 
L 10.890625 47.703125 
L 2.296875 47.703125 
L 2.296875 54.6875 
L 10.890625 54.6875 
L 10.890625 58.5 
Q 10.890625 67.625 15.140625 71.796875 
Q 19.390625 75.984375 28.609375 75.984375 
z
" id="DejaVuSans-102"/>
      <path d="M 48.78125 52.59375 
L 48.78125 44.1875 
Q 44.96875 46.296875 41.140625 47.34375 
Q 37.3125 48.390625 33.40625 48.390625 
Q 24.65625 48.390625 19.8125 42.84375 
Q 14.984375 37.3125 14.984375 27.296875 
Q 14.984375 17.28125 19.8125 11.734375 
Q 24.65625 6.203125 33.40625 6.203125 
Q 37.3125 6.203125 41.140625 7.25 
Q 44.96875 8.296875 48.78125 10.40625 
L 48.78125 2.09375 
Q 45.015625 0.34375 40.984375 -0.53125 
Q 36.96875 -1.421875 32.421875 -1.421875 
Q 20.0625 -1.421875 12.78125 6.34375 
Q 5.515625 14.109375 5.515625 27.296875 
Q 5.515625 40.671875 12.859375 48.328125 
Q 20.21875 56 33.015625 56 
Q 37.15625 56 41.109375 55.140625 
Q 45.0625 54.296875 48.78125 52.59375 
z
" id="DejaVuSans-99"/>
      <path d="M 45.40625 46.390625 
L 45.40625 75.984375 
L 54.390625 75.984375 
L 54.390625 0 
L 45.40625 0 
L 45.40625 8.203125 
Q 42.578125 3.328125 38.25 0.953125 
Q 33.9375 -1.421875 27.875 -1.421875 
Q 17.96875 -1.421875 11.734375 6.484375 
Q 5.515625 14.40625 5.515625 27.296875 
Q 5.515625 40.1875 11.734375 48.09375 
Q 17.96875 56 27.875 56 
Q 33.9375 56 38.25 53.625 
Q 42.578125 51.265625 45.40625 46.390625 
z
M 14.796875 27.296875 
Q 14.796875 17.390625 18.875 11.75 
Q 22.953125 6.109375 30.078125 6.109375 
Q 37.203125 6.109375 41.296875 11.75 
Q 45.40625 17.390625 45.40625 27.296875 
Q 45.40625 37.203125 41.296875 42.84375 
Q 37.203125 48.484375 30.078125 48.484375 
Q 22.953125 48.484375 18.875 42.84375 
Q 14.796875 37.203125 14.796875 27.296875 
z
" id="DejaVuSans-100"/>
      <path d="M 34.28125 27.484375 
Q 23.390625 27.484375 19.1875 25 
Q 14.984375 22.515625 14.984375 16.5 
Q 14.984375 11.71875 18.140625 8.90625 
Q 21.296875 6.109375 26.703125 6.109375 
Q 34.1875 6.109375 38.703125 11.40625 
Q 43.21875 16.703125 43.21875 25.484375 
L 43.21875 27.484375 
z
M 52.203125 31.203125 
L 52.203125 0 
L 43.21875 0 
L 43.21875 8.296875 
Q 40.140625 3.328125 35.546875 0.953125 
Q 30.953125 -1.421875 24.3125 -1.421875 
Q 15.921875 -1.421875 10.953125 3.296875 
Q 6 8.015625 6 15.921875 
Q 6 25.140625 12.171875 29.828125 
Q 18.359375 34.515625 30.609375 34.515625 
L 43.21875 34.515625 
L 43.21875 35.40625 
Q 43.21875 41.609375 39.140625 45 
Q 35.0625 48.390625 27.6875 48.390625 
Q 23 48.390625 18.546875 47.265625 
Q 14.109375 46.140625 10.015625 43.890625 
L 10.015625 52.203125 
Q 14.9375 54.109375 19.578125 55.046875 
Q 24.21875 56 28.609375 56 
Q 40.484375 56 46.34375 49.84375 
Q 52.203125 43.703125 52.203125 31.203125 
z
" id="DejaVuSans-97"/>
      <path d="M 32.171875 -5.078125 
Q 28.375 -14.84375 24.75 -17.8125 
Q 21.140625 -20.796875 15.09375 -20.796875 
L 7.90625 -20.796875 
L 7.90625 -13.28125 
L 13.1875 -13.28125 
Q 16.890625 -13.28125 18.9375 -11.515625 
Q 21 -9.765625 23.484375 -3.21875 
L 25.09375 0.875 
L 2.984375 54.6875 
L 12.5 54.6875 
L 29.59375 11.921875 
L 46.6875 54.6875 
L 56.203125 54.6875 
z
" id="DejaVuSans-121"/>
     </defs>
     <g transform="translate(220.797969 245.516562)scale(0.1 -0.1)">
      <use xlink:href="#DejaVuSans-102"/>
      <use x="35.205078" xlink:href="#DejaVuSans-99"/>
      <use x="90.185547" xlink:href="#DejaVuSans-100"/>
      <use x="153.662109" xlink:href="#DejaVuSans-97"/>
      <use x="214.941406" xlink:href="#DejaVuSans-121"/>
     </g>
    </g>
   </g>
   <g id="matplotlib.axis_2">
    <g id="ytick_1">
     <g id="line2d_12">
      <defs>
       <path d="M 0 0 
L -3.5 0 
" id="mfb2308a27b" style="stroke:#000000;stroke-width:0.8;"/>
      </defs>
      <g>
       <use style="stroke:#000000;stroke-width:0.8;" x="47.81" xlink:href="#mfb2308a27b" y="217.24"/>
      </g>
     </g>
     <g id="text_13">
      <!-- 0 -->
      <g transform="translate(34.4475 221.039219)scale(0.1 -0.1)">
       <use xlink:href="#DejaVuSans-48"/>
      </g>
     </g>
    </g>
    <g id="ytick_2">
     <g id="line2d_13">
      <g>
       <use style="stroke:#000000;stroke-width:0.8;" x="47.81" xlink:href="#mfb2308a27b" y="193.741471"/>
      </g>
     </g>
     <g id="text_14">
      <!-- 1 -->
      <g transform="translate(34.4475 197.54069)scale(0.1 -0.1)">
       <use xlink:href="#DejaVuSans-49"/>
      </g>
     </g>
    </g>
    <g id="ytick_3">
     <g id="line2d_14">
      <g>
       <use style="stroke:#000000;stroke-width:0.8;" x="47.81" xlink:href="#mfb2308a27b" y="170.242943"/>
      </g>
     </g>
     <g id="text_15">
      <!-- 2 -->
      <g transform="translate(34.4475 174.042161)scale(0.1 -0.1)">
       <use xlink:href="#DejaVuSans-50"/>
      </g>
     </g>
    </g>
    <g id="ytick_4">
     <g id="line2d_15">
      <g>
       <use style="stroke:#000000;stroke-width:0.8;" x="47.81" xlink:href="#mfb2308a27b" y="146.744414"/>
      </g>
     </g>
     <g id="text_16">
      <!-- 3 -->
      <g transform="translate(34.4475 150.543633)scale(0.1 -0.1)">
       <use xlink:href="#DejaVuSans-51"/>
      </g>
     </g>
    </g>
    <g id="ytick_5">
     <g id="line2d_16">
      <g>
       <use style="stroke:#000000;stroke-width:0.8;" x="47.81" xlink:href="#mfb2308a27b" y="123.245885"/>
      </g>
     </g>
     <g id="text_17">
      <!-- 4 -->
      <g transform="translate(34.4475 127.045104)scale(0.1 -0.1)">
       <use xlink:href="#DejaVuSans-52"/>
      </g>
     </g>
    </g>
    <g id="ytick_6">
     <g id="line2d_17">
      <g>
       <use style="stroke:#000000;stroke-width:0.8;" x="47.81" xlink:href="#mfb2308a27b" y="99.747356"/>
      </g>
     </g>
     <g id="text_18">
      <!-- 5 -->
      <g transform="translate(34.4475 103.546575)scale(0.1 -0.1)">
       <use xlink:href="#DejaVuSans-53"/>
      </g>
     </g>
    </g>
    <g id="text_19">
     <!-- rmse -->
     <defs>
      <path d="M 41.109375 46.296875 
Q 39.59375 47.171875 37.8125 47.578125 
Q 36.03125 48 33.890625 48 
Q 26.265625 48 22.1875 43.046875 
Q 18.109375 38.09375 18.109375 28.8125 
L 18.109375 0 
L 9.078125 0 
L 9.078125 54.6875 
L 18.109375 54.6875 
L 18.109375 46.1875 
Q 20.953125 51.171875 25.484375 53.578125 
Q 30.03125 56 36.53125 56 
Q 37.453125 56 38.578125 55.875 
Q 39.703125 55.765625 41.0625 55.515625 
z
" id="DejaVuSans-114"/>
      <path d="M 52 44.1875 
Q 55.375 50.25 60.0625 53.125 
Q 64.75 56 71.09375 56 
Q 79.640625 56 84.28125 50.015625 
Q 88.921875 44.046875 88.921875 33.015625 
L 88.921875 0 
L 79.890625 0 
L 79.890625 32.71875 
Q 79.890625 40.578125 77.09375 44.375 
Q 74.3125 48.1875 68.609375 48.1875 
Q 61.625 48.1875 57.5625 43.546875 
Q 53.515625 38.921875 53.515625 30.90625 
L 53.515625 0 
L 44.484375 0 
L 44.484375 32.71875 
Q 44.484375 40.625 41.703125 44.40625 
Q 38.921875 48.1875 33.109375 48.1875 
Q 26.21875 48.1875 22.15625 43.53125 
Q 18.109375 38.875 18.109375 30.90625 
L 18.109375 0 
L 9.078125 0 
L 9.078125 54.6875 
L 18.109375 54.6875 
L 18.109375 46.1875 
Q 21.1875 51.21875 25.484375 53.609375 
Q 29.78125 56 35.6875 56 
Q 41.65625 56 45.828125 52.96875 
Q 50 49.953125 52 44.1875 
z
" id="DejaVuSans-109"/>
      <path d="M 44.28125 53.078125 
L 44.28125 44.578125 
Q 40.484375 46.53125 36.375 47.5 
Q 32.28125 48.484375 27.875 48.484375 
Q 21.1875 48.484375 17.84375 46.4375 
Q 14.5 44.390625 14.5 40.28125 
Q 14.5 37.15625 16.890625 35.375 
Q 19.28125 33.59375 26.515625 31.984375 
L 29.59375 31.296875 
Q 39.15625 29.25 43.1875 25.515625 
Q 47.21875 21.78125 47.21875 15.09375 
Q 47.21875 7.46875 41.1875 3.015625 
Q 35.15625 -1.421875 24.609375 -1.421875 
Q 20.21875 -1.421875 15.453125 -0.5625 
Q 10.6875 0.296875 5.421875 2 
L 5.421875 11.28125 
Q 10.40625 8.6875 15.234375 7.390625 
Q 20.0625 6.109375 24.8125 6.109375 
Q 31.15625 6.109375 34.5625 8.28125 
Q 37.984375 10.453125 37.984375 14.40625 
Q 37.984375 18.0625 35.515625 20.015625 
Q 33.0625 21.96875 24.703125 23.78125 
L 21.578125 24.515625 
Q 13.234375 26.265625 9.515625 29.90625 
Q 5.8125 33.546875 5.8125 39.890625 
Q 5.8125 47.609375 11.28125 51.796875 
Q 16.75 56 26.8125 56 
Q 31.78125 56 36.171875 55.265625 
Q 40.578125 54.546875 44.28125 53.078125 
z
" id="DejaVuSans-115"/>
      <path d="M 56.203125 29.59375 
L 56.203125 25.203125 
L 14.890625 25.203125 
Q 15.484375 15.921875 20.484375 11.0625 
Q 25.484375 6.203125 34.421875 6.203125 
Q 39.59375 6.203125 44.453125 7.46875 
Q 49.3125 8.734375 54.109375 11.28125 
L 54.109375 2.78125 
Q 49.265625 0.734375 44.1875 -0.34375 
Q 39.109375 -1.421875 33.890625 -1.421875 
Q 20.796875 -1.421875 13.15625 6.1875 
Q 5.515625 13.8125 5.515625 26.8125 
Q 5.515625 40.234375 12.765625 48.109375 
Q 20.015625 56 32.328125 56 
Q 43.359375 56 49.78125 48.890625 
Q 56.203125 41.796875 56.203125 29.59375 
z
M 47.21875 32.234375 
Q 47.125 39.59375 43.09375 43.984375 
Q 39.0625 48.390625 32.421875 48.390625 
Q 24.90625 48.390625 20.390625 44.140625 
Q 15.875 39.890625 15.1875 32.171875 
z
" id="DejaVuSans-101"/>
     </defs>
     <g transform="translate(28.367813 164.339531)rotate(-90)scale(0.1 -0.1)">
      <use xlink:href="#DejaVuSans-114"/>
      <use x="39.363281" xlink:href="#DejaVuSans-109"/>
      <use x="136.775391" xlink:href="#DejaVuSans-115"/>
      <use x="188.875" xlink:href="#DejaVuSans-101"/>
     </g>
    </g>
   </g>
   <g id="line2d_18">
    <path clip-path="url(#p1188f95d64)" d="M 0 0 
" style="fill:none;stroke:#424242;stroke-linecap:square;stroke-width:2.7;"/>
   </g>
   <g id="line2d_19">
    <path clip-path="url(#p1188f95d64)" d="M 0 0 
" style="fill:none;stroke:#424242;stroke-linecap:square;stroke-width:2.7;"/>
   </g>
   <g id="line2d_20">
    <path clip-path="url(#p1188f95d64)" d="M 0 0 
" style="fill:none;stroke:#424242;stroke-linecap:square;stroke-width:2.7;"/>
   </g>
   <g id="line2d_21">
    <path clip-path="url(#p1188f95d64)" d="M 0 0 
" style="fill:none;stroke:#424242;stroke-linecap:square;stroke-width:2.7;"/>
   </g>
   <g id="line2d_22">
    <path clip-path="url(#p1188f95d64)" d="M 0 0 
" style="fill:none;stroke:#424242;stroke-linecap:square;stroke-width:2.7;"/>
   </g>
   <g id="line2d_23">
    <path clip-path="url(#p1188f95d64)" d="M 0 0 
" style="fill:none;stroke:#424242;stroke-linecap:square;stroke-width:2.7;"/>
   </g>
   <g id="line2d_24">
    <path clip-path="url(#p1188f95d64)" d="M 0 0 
" style="fill:none;stroke:#424242;stroke-linecap:square;stroke-width:2.7;"/>
   </g>
   <g id="line2d_25">
    <path clip-path="url(#p1188f95d64)" d="M 0 0 
" style="fill:none;stroke:#424242;stroke-linecap:square;stroke-width:2.7;"/>
   </g>
   <g id="line2d_26">
    <path clip-path="url(#p1188f95d64)" d="M 0 0 
" style="fill:none;stroke:#424242;stroke-linecap:square;stroke-width:2.7;"/>
   </g>
   <g id="line2d_27">
    <path clip-path="url(#p1188f95d64)" d="M 0 0 
" style="fill:none;stroke:#424242;stroke-linecap:square;stroke-width:2.7;"/>
   </g>
   <g id="line2d_28">
    <path clip-path="url(#p1188f95d64)" d="M 0 0 
" style="fill:none;stroke:#424242;stroke-linecap:square;stroke-width:2.7;"/>
   </g>
   <g id="line2d_29">
    <path clip-path="url(#p1188f95d64)" d="M 0 0 
" style="fill:none;stroke:#424242;stroke-linecap:square;stroke-width:2.7;"/>
   </g>
   <g id="line2d_30">
    <path clip-path="url(#p1188f95d64)" d="M 0 0 
" style="fill:none;stroke:#424242;stroke-linecap:square;stroke-width:2.7;"/>
   </g>
   <g id="line2d_31">
    <path clip-path="url(#p1188f95d64)" d="M 0 0 
" style="fill:none;stroke:#424242;stroke-linecap:square;stroke-width:2.7;"/>
   </g>
   <g id="line2d_32">
    <path clip-path="url(#p1188f95d64)" d="M 0 0 
" style="fill:none;stroke:#424242;stroke-linecap:square;stroke-width:2.7;"/>
   </g>
   <g id="line2d_33">
    <path clip-path="url(#p1188f95d64)" d="M 0 0 
" style="fill:none;stroke:#424242;stroke-linecap:square;stroke-width:2.7;"/>
   </g>
   <g id="line2d_34">
    <path clip-path="url(#p1188f95d64)" d="M 0 0 
" style="fill:none;stroke:#424242;stroke-linecap:square;stroke-width:2.7;"/>
   </g>
   <g id="line2d_35">
    <path clip-path="url(#p1188f95d64)" d="M 0 0 
" style="fill:none;stroke:#424242;stroke-linecap:square;stroke-width:2.7;"/>
   </g>
   <g id="line2d_36">
    <path clip-path="url(#p1188f95d64)" d="M 0 0 
" style="fill:none;stroke:#424242;stroke-linecap:square;stroke-width:2.7;"/>
   </g>
   <g id="line2d_37">
    <path clip-path="url(#p1188f95d64)" d="M 0 0 
" style="fill:none;stroke:#424242;stroke-linecap:square;stroke-width:2.7;"/>
   </g>
   <g id="line2d_38">
    <path clip-path="url(#p1188f95d64)" d="M 0 0 
" style="fill:none;stroke:#424242;stroke-linecap:square;stroke-width:2.7;"/>
   </g>
   <g id="line2d_39">
    <path clip-path="url(#p1188f95d64)" d="M 0 0 
" style="fill:none;stroke:#424242;stroke-linecap:square;stroke-width:2.7;"/>
   </g>
   <g id="line2d_40">
    <path clip-path="url(#p1188f95d64)" d="M 0 0 
" style="fill:none;stroke:#424242;stroke-linecap:square;stroke-width:2.7;"/>
   </g>
   <g id="line2d_41">
    <path clip-path="url(#p1188f95d64)" d="M 0 0 
" style="fill:none;stroke:#424242;stroke-linecap:square;stroke-width:2.7;"/>
   </g>
   <g id="line2d_42">
    <path clip-path="url(#p1188f95d64)" d="M 0 0 
" style="fill:none;stroke:#424242;stroke-linecap:square;stroke-width:2.7;"/>
   </g>
   <g id="line2d_43">
    <path clip-path="url(#p1188f95d64)" d="M 0 0 
" style="fill:none;stroke:#424242;stroke-linecap:square;stroke-width:2.7;"/>
   </g>
   <g id="line2d_44">
    <path clip-path="url(#p1188f95d64)" d="M 0 0 
" style="fill:none;stroke:#424242;stroke-linecap:square;stroke-width:2.7;"/>
   </g>
   <g id="line2d_45">
    <path clip-path="url(#p1188f95d64)" d="M 0 0 
" style="fill:none;stroke:#424242;stroke-linecap:square;stroke-width:2.7;"/>
   </g>
   <g id="line2d_46">
    <path clip-path="url(#p1188f95d64)" d="M 0 0 
" style="fill:none;stroke:#424242;stroke-linecap:square;stroke-width:2.7;"/>
   </g>
   <g id="line2d_47">
    <path clip-path="url(#p1188f95d64)" d="M 0 0 
" style="fill:none;stroke:#424242;stroke-linecap:square;stroke-width:2.7;"/>
   </g>
   <g id="line2d_48">
    <path clip-path="url(#p1188f95d64)" d="M 0 0 
" style="fill:none;stroke:#424242;stroke-linecap:square;stroke-width:2.7;"/>
   </g>
   <g id="line2d_49">
    <path clip-path="url(#p1188f95d64)" d="M 0 0 
" style="fill:none;stroke:#424242;stroke-linecap:square;stroke-width:2.7;"/>
   </g>
   <g id="line2d_50">
    <path clip-path="url(#p1188f95d64)" d="M 0 0 
" style="fill:none;stroke:#424242;stroke-linecap:square;stroke-width:2.7;"/>
   </g>
   <g id="line2d_51">
    <path clip-path="url(#p1188f95d64)" d="M 0 0 
" style="fill:none;stroke:#424242;stroke-linecap:square;stroke-width:2.7;"/>
   </g>
   <g id="line2d_52">
    <path clip-path="url(#p1188f95d64)" d="M 0 0 
" style="fill:none;stroke:#424242;stroke-linecap:square;stroke-width:2.7;"/>
   </g>
   <g id="line2d_53">
    <path clip-path="url(#p1188f95d64)" d="M 0 0 
" style="fill:none;stroke:#424242;stroke-linecap:square;stroke-width:2.7;"/>
   </g>
   <g id="line2d_54">
    <path clip-path="url(#p1188f95d64)" d="M 0 0 
" style="fill:none;stroke:#424242;stroke-linecap:square;stroke-width:2.7;"/>
   </g>
   <g id="line2d_55">
    <path clip-path="url(#p1188f95d64)" d="M 0 0 
" style="fill:none;stroke:#424242;stroke-linecap:square;stroke-width:2.7;"/>
   </g>
   <g id="line2d_56">
    <path clip-path="url(#p1188f95d64)" d="M 0 0 
" style="fill:none;stroke:#424242;stroke-linecap:square;stroke-width:2.7;"/>
   </g>
   <g id="line2d_57">
    <path clip-path="url(#p1188f95d64)" d="M 0 0 
" style="fill:none;stroke:#424242;stroke-linecap:square;stroke-width:2.7;"/>
   </g>
   <g id="line2d_58">
    <path clip-path="url(#p1188f95d64)" d="M 0 0 
" style="fill:none;stroke:#424242;stroke-linecap:square;stroke-width:2.7;"/>
   </g>
   <g id="line2d_59">
    <path clip-path="url(#p1188f95d64)" d="M 0 0 
" style="fill:none;stroke:#424242;stroke-linecap:square;stroke-width:2.7;"/>
   </g>
   <g id="line2d_60">
    <path clip-path="url(#p1188f95d64)" d="M 0 0 
" style="fill:none;stroke:#424242;stroke-linecap:square;stroke-width:2.7;"/>
   </g>
   <g id="line2d_61">
    <path clip-path="url(#p1188f95d64)" d="M 0 0 
" style="fill:none;stroke:#424242;stroke-linecap:square;stroke-width:2.7;"/>
   </g>
   <g id="line2d_62">
    <path clip-path="url(#p1188f95d64)" d="M 0 0 
" style="fill:none;stroke:#424242;stroke-linecap:square;stroke-width:2.7;"/>
   </g>
   <g id="line2d_63">
    <path clip-path="url(#p1188f95d64)" d="M 0 0 
" style="fill:none;stroke:#424242;stroke-linecap:square;stroke-width:2.7;"/>
   </g>
   <g id="line2d_64">
    <path clip-path="url(#p1188f95d64)" d="M 0 0 
" style="fill:none;stroke:#424242;stroke-linecap:square;stroke-width:2.7;"/>
   </g>
   <g id="line2d_65">
    <path clip-path="url(#p1188f95d64)" d="M 0 0 
" style="fill:none;stroke:#424242;stroke-linecap:square;stroke-width:2.7;"/>
   </g>
   <g id="line2d_66">
    <path clip-path="url(#p1188f95d64)" d="M 0 0 
" style="fill:none;stroke:#424242;stroke-linecap:square;stroke-width:2.7;"/>
   </g>
   <g id="line2d_67">
    <path clip-path="url(#p1188f95d64)" d="M 0 0 
" style="fill:none;stroke:#424242;stroke-linecap:square;stroke-width:2.7;"/>
   </g>
   <g id="line2d_68">
    <path clip-path="url(#p1188f95d64)" d="M 0 0 
" style="fill:none;stroke:#424242;stroke-linecap:square;stroke-width:2.7;"/>
   </g>
   <g id="line2d_69">
    <path clip-path="url(#p1188f95d64)" d="M 0 0 
" style="fill:none;stroke:#424242;stroke-linecap:square;stroke-width:2.7;"/>
   </g>
   <g id="line2d_70">
    <path clip-path="url(#p1188f95d64)" d="M 0 0 
" style="fill:none;stroke:#424242;stroke-linecap:square;stroke-width:2.7;"/>
   </g>
   <g id="line2d_71">
    <path clip-path="url(#p1188f95d64)" d="M 0 0 
" style="fill:none;stroke:#424242;stroke-linecap:square;stroke-width:2.7;"/>
   </g>
   <g id="line2d_72">
    <path clip-path="url(#p1188f95d64)" d="M 0 0 
" style="fill:none;stroke:#424242;stroke-linecap:square;stroke-width:2.7;"/>
   </g>
   <g id="line2d_73">
    <path clip-path="url(#p1188f95d64)" d="M 0 0 
" style="fill:none;stroke:#424242;stroke-linecap:square;stroke-width:2.7;"/>
   </g>
   <g id="line2d_74">
    <path clip-path="url(#p1188f95d64)" d="M 0 0 
" style="fill:none;stroke:#424242;stroke-linecap:square;stroke-width:2.7;"/>
   </g>
   <g id="line2d_75">
    <path clip-path="url(#p1188f95d64)" d="M 0 0 
" style="fill:none;stroke:#424242;stroke-linecap:square;stroke-width:2.7;"/>
   </g>
   <g id="line2d_76">
    <path clip-path="url(#p1188f95d64)" d="M 0 0 
" style="fill:none;stroke:#424242;stroke-linecap:square;stroke-width:2.7;"/>
   </g>
   <g id="line2d_77">
    <path clip-path="url(#p1188f95d64)" d="M 0 0 
" style="fill:none;stroke:#424242;stroke-linecap:square;stroke-width:2.7;"/>
   </g>
   <g id="line2d_78">
    <path clip-path="url(#p1188f95d64)" d="M 0 0 
" style="fill:none;stroke:#424242;stroke-linecap:square;stroke-width:2.7;"/>
   </g>
   <g id="line2d_79">
    <path clip-path="url(#p1188f95d64)" d="M 0 0 
" style="fill:none;stroke:#424242;stroke-linecap:square;stroke-width:2.7;"/>
   </g>
   <g id="line2d_80">
    <path clip-path="url(#p1188f95d64)" d="M 0 0 
" style="fill:none;stroke:#424242;stroke-linecap:square;stroke-width:2.7;"/>
   </g>
   <g id="line2d_81">
    <path clip-path="url(#p1188f95d64)" d="M 0 0 
" style="fill:none;stroke:#424242;stroke-linecap:square;stroke-width:2.7;"/>
   </g>
   <g id="line2d_82">
    <path clip-path="url(#p1188f95d64)" d="M 0 0 
" style="fill:none;stroke:#424242;stroke-linecap:square;stroke-width:2.7;"/>
   </g>
   <g id="line2d_83">
    <path clip-path="url(#p1188f95d64)" d="M 0 0 
" style="fill:none;stroke:#424242;stroke-linecap:square;stroke-width:2.7;"/>
   </g>
   <g id="patch_69">
    <path d="M 47.81 217.24 
L 47.81 86.4 
" style="fill:none;stroke:#000000;stroke-linecap:square;stroke-linejoin:miter;stroke-width:0.8;"/>
   </g>
   <g id="patch_70">
    <path d="M 47.81 217.24 
L 421.2 217.24 
" style="fill:none;stroke:#000000;stroke-linecap:square;stroke-linejoin:miter;stroke-width:0.8;"/>
   </g>
   <g id="legend_1">
    <g id="patch_71">
     <path d="M 49.81 68.84875 
L 335.899063 68.84875 
Q 337.899063 68.84875 337.899063 66.84875 
L 337.899063 22.98 
Q 337.899063 20.98 335.899063 20.98 
L 49.81 20.98 
Q 47.81 20.98 47.81 22.98 
L 47.81 66.84875 
Q 47.81 68.84875 49.81 68.84875 
z
" style="fill:#ffffff;opacity:0.8;stroke:#cccccc;stroke-linejoin:miter;"/>
    </g>
    <g id="patch_72">
     <path d="M 51.81 32.578438 
L 71.81 32.578438 
L 71.81 25.578438 
L 51.81 25.578438 
z
" style="fill:#176d9c;opacity:0.9;"/>
    </g>
    <g id="text_20">
     <!-- base -->
     <defs>
      <path d="M 48.6875 27.296875 
Q 48.6875 37.203125 44.609375 42.84375 
Q 40.53125 48.484375 33.40625 48.484375 
Q 26.265625 48.484375 22.1875 42.84375 
Q 18.109375 37.203125 18.109375 27.296875 
Q 18.109375 17.390625 22.1875 11.75 
Q 26.265625 6.109375 33.40625 6.109375 
Q 40.53125 6.109375 44.609375 11.75 
Q 48.6875 17.390625 48.6875 27.296875 
z
M 18.109375 46.390625 
Q 20.953125 51.265625 25.265625 53.625 
Q 29.59375 56 35.59375 56 
Q 45.5625 56 51.78125 48.09375 
Q 58.015625 40.1875 58.015625 27.296875 
Q 58.015625 14.40625 51.78125 6.484375 
Q 45.5625 -1.421875 35.59375 -1.421875 
Q 29.59375 -1.421875 25.265625 0.953125 
Q 20.953125 3.328125 18.109375 8.203125 
L 18.109375 0 
L 9.078125 0 
L 9.078125 75.984375 
L 18.109375 75.984375 
z
" id="DejaVuSans-98"/>
     </defs>
     <g transform="translate(79.81 32.578438)scale(0.1 -0.1)">
      <use xlink:href="#DejaVuSans-98"/>
      <use x="63.476562" xlink:href="#DejaVuSans-97"/>
      <use x="124.755859" xlink:href="#DejaVuSans-115"/>
      <use x="176.855469" xlink:href="#DejaVuSans-101"/>
     </g>
    </g>
    <g id="patch_73">
     <path d="M 51.81 47.256563 
L 71.81 47.256563 
L 71.81 40.256563 
L 51.81 40.256563 
z
" style="fill:#c38820;opacity:0.9;"/>
    </g>
    <g id="text_21">
     <!-- sphereconv -->
     <defs>
      <path d="M 18.109375 8.203125 
L 18.109375 -20.796875 
L 9.078125 -20.796875 
L 9.078125 54.6875 
L 18.109375 54.6875 
L 18.109375 46.390625 
Q 20.953125 51.265625 25.265625 53.625 
Q 29.59375 56 35.59375 56 
Q 45.5625 56 51.78125 48.09375 
Q 58.015625 40.1875 58.015625 27.296875 
Q 58.015625 14.40625 51.78125 6.484375 
Q 45.5625 -1.421875 35.59375 -1.421875 
Q 29.59375 -1.421875 25.265625 0.953125 
Q 20.953125 3.328125 18.109375 8.203125 
z
M 48.6875 27.296875 
Q 48.6875 37.203125 44.609375 42.84375 
Q 40.53125 48.484375 33.40625 48.484375 
Q 26.265625 48.484375 22.1875 42.84375 
Q 18.109375 37.203125 18.109375 27.296875 
Q 18.109375 17.390625 22.1875 11.75 
Q 26.265625 6.109375 33.40625 6.109375 
Q 40.53125 6.109375 44.609375 11.75 
Q 48.6875 17.390625 48.6875 27.296875 
z
" id="DejaVuSans-112"/>
      <path d="M 54.890625 33.015625 
L 54.890625 0 
L 45.90625 0 
L 45.90625 32.71875 
Q 45.90625 40.484375 42.875 44.328125 
Q 39.84375 48.1875 33.796875 48.1875 
Q 26.515625 48.1875 22.3125 43.546875 
Q 18.109375 38.921875 18.109375 30.90625 
L 18.109375 0 
L 9.078125 0 
L 9.078125 75.984375 
L 18.109375 75.984375 
L 18.109375 46.1875 
Q 21.34375 51.125 25.703125 53.5625 
Q 30.078125 56 35.796875 56 
Q 45.21875 56 50.046875 50.171875 
Q 54.890625 44.34375 54.890625 33.015625 
z
" id="DejaVuSans-104"/>
      <path d="M 30.609375 48.390625 
Q 23.390625 48.390625 19.1875 42.75 
Q 14.984375 37.109375 14.984375 27.296875 
Q 14.984375 17.484375 19.15625 11.84375 
Q 23.34375 6.203125 30.609375 6.203125 
Q 37.796875 6.203125 41.984375 11.859375 
Q 46.1875 17.53125 46.1875 27.296875 
Q 46.1875 37.015625 41.984375 42.703125 
Q 37.796875 48.390625 30.609375 48.390625 
z
M 30.609375 56 
Q 42.328125 56 49.015625 48.375 
Q 55.71875 40.765625 55.71875 27.296875 
Q 55.71875 13.875 49.015625 6.21875 
Q 42.328125 -1.421875 30.609375 -1.421875 
Q 18.84375 -1.421875 12.171875 6.21875 
Q 5.515625 13.875 5.515625 27.296875 
Q 5.515625 40.765625 12.171875 48.375 
Q 18.84375 56 30.609375 56 
z
" id="DejaVuSans-111"/>
      <path d="M 54.890625 33.015625 
L 54.890625 0 
L 45.90625 0 
L 45.90625 32.71875 
Q 45.90625 40.484375 42.875 44.328125 
Q 39.84375 48.1875 33.796875 48.1875 
Q 26.515625 48.1875 22.3125 43.546875 
Q 18.109375 38.921875 18.109375 30.90625 
L 18.109375 0 
L 9.078125 0 
L 9.078125 54.6875 
L 18.109375 54.6875 
L 18.109375 46.1875 
Q 21.34375 51.125 25.703125 53.5625 
Q 30.078125 56 35.796875 56 
Q 45.21875 56 50.046875 50.171875 
Q 54.890625 44.34375 54.890625 33.015625 
z
" id="DejaVuSans-110"/>
      <path d="M 2.984375 54.6875 
L 12.5 54.6875 
L 29.59375 8.796875 
L 46.6875 54.6875 
L 56.203125 54.6875 
L 35.6875 0 
L 23.484375 0 
z
" id="DejaVuSans-118"/>
     </defs>
     <g transform="translate(79.81 47.256563)scale(0.1 -0.1)">
      <use xlink:href="#DejaVuSans-115"/>
      <use x="52.099609" xlink:href="#DejaVuSans-112"/>
      <use x="115.576172" xlink:href="#DejaVuSans-104"/>
      <use x="178.955078" xlink:href="#DejaVuSans-101"/>
      <use x="240.478516" xlink:href="#DejaVuSans-114"/>
      <use x="279.341797" xlink:href="#DejaVuSans-101"/>
      <use x="340.865234" xlink:href="#DejaVuSans-99"/>
      <use x="395.845703" xlink:href="#DejaVuSans-111"/>
      <use x="457.027344" xlink:href="#DejaVuSans-110"/>
      <use x="520.40625" xlink:href="#DejaVuSans-118"/>
     </g>
    </g>
    <g id="patch_74">
     <path d="M 51.81 61.934688 
L 71.81 61.934688 
L 71.81 54.934688 
L 51.81 54.934688 
z
" style="fill:#158b6a;opacity:0.9;"/>
    </g>
    <g id="text_22">
     <!-- hemconv -->
     <g transform="translate(79.81 61.934688)scale(0.1 -0.1)">
      <use xlink:href="#DejaVuSans-104"/>
      <use x="63.378906" xlink:href="#DejaVuSans-101"/>
      <use x="124.902344" xlink:href="#DejaVuSans-109"/>
      <use x="222.314453" xlink:href="#DejaVuSans-99"/>
      <use x="277.294922" xlink:href="#DejaVuSans-111"/>
      <use x="338.476562" xlink:href="#DejaVuSans-110"/>
      <use x="401.855469" xlink:href="#DejaVuSans-118"/>
     </g>
    </g>
    <g id="patch_75">
     <path d="M 157.770938 32.578438 
L 177.770938 32.578438 
L 177.770938 25.578438 
L 157.770938 25.578438 
z
" style="fill:#ba611b;opacity:0.9;"/>
    </g>
    <g id="text_23">
     <!-- hemconv_sharedweights -->
     <defs>
      <path d="M 50.984375 -16.609375 
L 50.984375 -23.578125 
L -0.984375 -23.578125 
L -0.984375 -16.609375 
z
" id="DejaVuSans-95"/>
      <path d="M 4.203125 54.6875 
L 13.1875 54.6875 
L 24.421875 12.015625 
L 35.59375 54.6875 
L 46.1875 54.6875 
L 57.421875 12.015625 
L 68.609375 54.6875 
L 77.59375 54.6875 
L 63.28125 0 
L 52.6875 0 
L 40.921875 44.828125 
L 29.109375 0 
L 18.5 0 
z
" id="DejaVuSans-119"/>
      <path d="M 9.421875 54.6875 
L 18.40625 54.6875 
L 18.40625 0 
L 9.421875 0 
z
M 9.421875 75.984375 
L 18.40625 75.984375 
L 18.40625 64.59375 
L 9.421875 64.59375 
z
" id="DejaVuSans-105"/>
      <path d="M 45.40625 27.984375 
Q 45.40625 37.75 41.375 43.109375 
Q 37.359375 48.484375 30.078125 48.484375 
Q 22.859375 48.484375 18.828125 43.109375 
Q 14.796875 37.75 14.796875 27.984375 
Q 14.796875 18.265625 18.828125 12.890625 
Q 22.859375 7.515625 30.078125 7.515625 
Q 37.359375 7.515625 41.375 12.890625 
Q 45.40625 18.265625 45.40625 27.984375 
z
M 54.390625 6.78125 
Q 54.390625 -7.171875 48.1875 -13.984375 
Q 42 -20.796875 29.203125 -20.796875 
Q 24.46875 -20.796875 20.265625 -20.09375 
Q 16.0625 -19.390625 12.109375 -17.921875 
L 12.109375 -9.1875 
Q 16.0625 -11.328125 19.921875 -12.34375 
Q 23.78125 -13.375 27.78125 -13.375 
Q 36.625 -13.375 41.015625 -8.765625 
Q 45.40625 -4.15625 45.40625 5.171875 
L 45.40625 9.625 
Q 42.625 4.78125 38.28125 2.390625 
Q 33.9375 0 27.875 0 
Q 17.828125 0 11.671875 7.65625 
Q 5.515625 15.328125 5.515625 27.984375 
Q 5.515625 40.671875 11.671875 48.328125 
Q 17.828125 56 27.875 56 
Q 33.9375 56 38.28125 53.609375 
Q 42.625 51.21875 45.40625 46.390625 
L 45.40625 54.6875 
L 54.390625 54.6875 
z
" id="DejaVuSans-103"/>
      <path d="M 18.3125 70.21875 
L 18.3125 54.6875 
L 36.8125 54.6875 
L 36.8125 47.703125 
L 18.3125 47.703125 
L 18.3125 18.015625 
Q 18.3125 11.328125 20.140625 9.421875 
Q 21.96875 7.515625 27.59375 7.515625 
L 36.8125 7.515625 
L 36.8125 0 
L 27.59375 0 
Q 17.1875 0 13.234375 3.875 
Q 9.28125 7.765625 9.28125 18.015625 
L 9.28125 47.703125 
L 2.6875 47.703125 
L 2.6875 54.6875 
L 9.28125 54.6875 
L 9.28125 70.21875 
z
" id="DejaVuSans-116"/>
     </defs>
     <g transform="translate(185.770938 32.578438)scale(0.1 -0.1)">
      <use xlink:href="#DejaVuSans-104"/>
      <use x="63.378906" xlink:href="#DejaVuSans-101"/>
      <use x="124.902344" xlink:href="#DejaVuSans-109"/>
      <use x="222.314453" xlink:href="#DejaVuSans-99"/>
      <use x="277.294922" xlink:href="#DejaVuSans-111"/>
      <use x="338.476562" xlink:href="#DejaVuSans-110"/>
      <use x="401.855469" xlink:href="#DejaVuSans-118"/>
      <use x="461.035156" xlink:href="#DejaVuSans-95"/>
      <use x="511.035156" xlink:href="#DejaVuSans-115"/>
      <use x="563.134766" xlink:href="#DejaVuSans-104"/>
      <use x="626.513672" xlink:href="#DejaVuSans-97"/>
      <use x="687.792969" xlink:href="#DejaVuSans-114"/>
      <use x="726.65625" xlink:href="#DejaVuSans-101"/>
      <use x="788.179688" xlink:href="#DejaVuSans-100"/>
      <use x="851.65625" xlink:href="#DejaVuSans-119"/>
      <use x="933.443359" xlink:href="#DejaVuSans-101"/>
      <use x="994.966797" xlink:href="#DejaVuSans-105"/>
      <use x="1022.75" xlink:href="#DejaVuSans-103"/>
      <use x="1086.226562" xlink:href="#DejaVuSans-104"/>
      <use x="1149.605469" xlink:href="#DejaVuSans-116"/>
      <use x="1188.814453" xlink:href="#DejaVuSans-115"/>
     </g>
    </g>
    <g id="patch_76">
     <path d="M 157.770938 47.534688 
L 177.770938 47.534688 
L 177.770938 40.534688 
L 157.770938 40.534688 
z
" style="fill:#c282b5;opacity:0.9;"/>
    </g>
    <g id="text_24">
     <!-- sphereconv_hemconv -->
     <g transform="translate(185.770938 47.534688)scale(0.1 -0.1)">
      <use xlink:href="#DejaVuSans-115"/>
      <use x="52.099609" xlink:href="#DejaVuSans-112"/>
      <use x="115.576172" xlink:href="#DejaVuSans-104"/>
      <use x="178.955078" xlink:href="#DejaVuSans-101"/>
      <use x="240.478516" xlink:href="#DejaVuSans-114"/>
      <use x="279.341797" xlink:href="#DejaVuSans-101"/>
      <use x="340.865234" xlink:href="#DejaVuSans-99"/>
      <use x="395.845703" xlink:href="#DejaVuSans-111"/>
      <use x="457.027344" xlink:href="#DejaVuSans-110"/>
      <use x="520.40625" xlink:href="#DejaVuSans-118"/>
      <use x="579.585938" xlink:href="#DejaVuSans-95"/>
      <use x="629.585938" xlink:href="#DejaVuSans-104"/>
      <use x="692.964844" xlink:href="#DejaVuSans-101"/>
      <use x="754.488281" xlink:href="#DejaVuSans-109"/>
      <use x="851.900391" xlink:href="#DejaVuSans-99"/>
      <use x="906.880859" xlink:href="#DejaVuSans-111"/>
      <use x="968.0625" xlink:href="#DejaVuSans-110"/>
      <use x="1031.441406" xlink:href="#DejaVuSans-118"/>
     </g>
    </g>
    <g id="patch_77">
     <path d="M 157.770938 62.490938 
L 177.770938 62.490938 
L 177.770938 55.490938 
L 157.770938 55.490938 
z
" style="fill:#bd926e;opacity:0.9;"/>
    </g>
    <g id="text_25">
     <!-- sphereconv_hemconv_shared -->
     <g transform="translate(185.770938 62.490938)scale(0.1 -0.1)">
      <use xlink:href="#DejaVuSans-115"/>
      <use x="52.099609" xlink:href="#DejaVuSans-112"/>
      <use x="115.576172" xlink:href="#DejaVuSans-104"/>
      <use x="178.955078" xlink:href="#DejaVuSans-101"/>
      <use x="240.478516" xlink:href="#DejaVuSans-114"/>
      <use x="279.341797" xlink:href="#DejaVuSans-101"/>
      <use x="340.865234" xlink:href="#DejaVuSans-99"/>
      <use x="395.845703" xlink:href="#DejaVuSans-111"/>
      <use x="457.027344" xlink:href="#DejaVuSans-110"/>
      <use x="520.40625" xlink:href="#DejaVuSans-118"/>
      <use x="579.585938" xlink:href="#DejaVuSans-95"/>
      <use x="629.585938" xlink:href="#DejaVuSans-104"/>
      <use x="692.964844" xlink:href="#DejaVuSans-101"/>
      <use x="754.488281" xlink:href="#DejaVuSans-109"/>
      <use x="851.900391" xlink:href="#DejaVuSans-99"/>
      <use x="906.880859" xlink:href="#DejaVuSans-111"/>
      <use x="968.0625" xlink:href="#DejaVuSans-110"/>
      <use x="1031.441406" xlink:href="#DejaVuSans-118"/>
      <use x="1090.621094" xlink:href="#DejaVuSans-95"/>
      <use x="1140.621094" xlink:href="#DejaVuSans-115"/>
      <use x="1192.720703" xlink:href="#DejaVuSans-104"/>
      <use x="1256.099609" xlink:href="#DejaVuSans-97"/>
      <use x="1317.378906" xlink:href="#DejaVuSans-114"/>
      <use x="1356.242188" xlink:href="#DejaVuSans-101"/>
      <use x="1417.765625" xlink:href="#DejaVuSans-100"/>
     </g>
    </g>
   </g>
  </g>
  <g id="axes_2">
   <g id="patch_78">
    <path d="M 47.81 390.04 
L 421.2 390.04 
L 421.2 259.2 
L 47.81 259.2 
z
" style="fill:#ffffff;"/>
   </g>
   <g id="patch_79">
    <path clip-path="url(#p5b9a6f7825)" d="M 51.204455 390.04 
L 55.730394 390.04 
L 55.730394 265.430476 
L 51.204455 265.430476 
z
" style="fill:#176d9c;opacity:0.9;"/>
   </g>
   <g id="patch_80">
    <path clip-path="url(#p5b9a6f7825)" d="M 85.149 390.04 
L 89.674939 390.04 
L 89.674939 270.190039 
L 85.149 270.190039 
z
" style="fill:#176d9c;opacity:0.9;"/>
   </g>
   <g id="patch_81">
    <path clip-path="url(#p5b9a6f7825)" d="M 119.093545 390.04 
L 123.619485 390.04 
L 123.619485 275.201223 
L 119.093545 275.201223 
z
" style="fill:#176d9c;opacity:0.9;"/>
   </g>
   <g id="patch_82">
    <path clip-path="url(#p5b9a6f7825)" d="M 153.038091 390.04 
L 157.56403 390.04 
L 157.56403 282.076485 
L 153.038091 282.076485 
z
" style="fill:#176d9c;opacity:0.9;"/>
   </g>
   <g id="patch_83">
    <path clip-path="url(#p5b9a6f7825)" d="M 186.982636 390.04 
L 191.508576 390.04 
L 191.508576 290.389951 
L 186.982636 290.389951 
z
" style="fill:#176d9c;opacity:0.9;"/>
   </g>
   <g id="patch_84">
    <path clip-path="url(#p5b9a6f7825)" d="M 220.927182 390.04 
L 225.453121 390.04 
L 225.453121 299.085913 
L 220.927182 299.085913 
z
" style="fill:#176d9c;opacity:0.9;"/>
   </g>
   <g id="patch_85">
    <path clip-path="url(#p5b9a6f7825)" d="M 254.871727 390.04 
L 259.397667 390.04 
L 259.397667 307.311042 
L 254.871727 307.311042 
z
" style="fill:#176d9c;opacity:0.9;"/>
   </g>
   <g id="patch_86">
    <path clip-path="url(#p5b9a6f7825)" d="M 288.816273 390.04 
L 293.342212 390.04 
L 293.342212 314.655258 
L 288.816273 314.655258 
z
" style="fill:#176d9c;opacity:0.9;"/>
   </g>
   <g id="patch_87">
    <path clip-path="url(#p5b9a6f7825)" d="M 322.760818 390.04 
L 327.286758 390.04 
L 327.286758 321.034331 
L 322.760818 321.034331 
z
" style="fill:#176d9c;opacity:0.9;"/>
   </g>
   <g id="patch_88">
    <path clip-path="url(#p5b9a6f7825)" d="M 356.705364 390.04 
L 361.231303 390.04 
L 361.231303 326.601898 
L 356.705364 326.601898 
z
" style="fill:#176d9c;opacity:0.9;"/>
   </g>
   <g id="patch_89">
    <path clip-path="url(#p5b9a6f7825)" d="M 390.649909 390.04 
L 395.175848 390.04 
L 395.175848 331.813807 
L 390.649909 331.813807 
z
" style="fill:#176d9c;opacity:0.9;"/>
   </g>
   <g id="patch_90">
    <path clip-path="url(#p5b9a6f7825)" d="M 55.730394 390.04 
L 60.256333 390.04 
L 60.256333 265.430476 
L 55.730394 265.430476 
z
" style="fill:#c38820;opacity:0.9;"/>
   </g>
   <g id="patch_91">
    <path clip-path="url(#p5b9a6f7825)" d="M 89.674939 390.04 
L 94.200879 390.04 
L 94.200879 269.849623 
L 89.674939 269.849623 
z
" style="fill:#c38820;opacity:0.9;"/>
   </g>
   <g id="patch_92">
    <path clip-path="url(#p5b9a6f7825)" d="M 123.619485 390.04 
L 128.145424 390.04 
L 128.145424 274.204366 
L 123.619485 274.204366 
z
" style="fill:#c38820;opacity:0.9;"/>
   </g>
   <g id="patch_93">
    <path clip-path="url(#p5b9a6f7825)" d="M 157.56403 390.04 
L 162.08997 390.04 
L 162.08997 280.215483 
L 157.56403 280.215483 
z
" style="fill:#c38820;opacity:0.9;"/>
   </g>
   <g id="patch_94">
    <path clip-path="url(#p5b9a6f7825)" d="M 191.508576 390.04 
L 196.034515 390.04 
L 196.034515 287.72414 
L 191.508576 287.72414 
z
" style="fill:#c38820;opacity:0.9;"/>
   </g>
   <g id="patch_95">
    <path clip-path="url(#p5b9a6f7825)" d="M 225.453121 390.04 
L 229.979061 390.04 
L 229.979061 295.86991 
L 225.453121 295.86991 
z
" style="fill:#c38820;opacity:0.9;"/>
   </g>
   <g id="patch_96">
    <path clip-path="url(#p5b9a6f7825)" d="M 259.397667 390.04 
L 263.923606 390.04 
L 263.923606 303.772218 
L 259.397667 303.772218 
z
" style="fill:#c38820;opacity:0.9;"/>
   </g>
   <g id="patch_97">
    <path clip-path="url(#p5b9a6f7825)" d="M 293.342212 390.04 
L 297.868152 390.04 
L 297.868152 310.950549 
L 293.342212 310.950549 
z
" style="fill:#c38820;opacity:0.9;"/>
   </g>
   <g id="patch_98">
    <path clip-path="url(#p5b9a6f7825)" d="M 327.286758 390.04 
L 331.812697 390.04 
L 331.812697 317.143658 
L 327.286758 317.143658 
z
" style="fill:#c38820;opacity:0.9;"/>
   </g>
   <g id="patch_99">
    <path clip-path="url(#p5b9a6f7825)" d="M 361.231303 390.04 
L 365.757242 390.04 
L 365.757242 322.319671 
L 361.231303 322.319671 
z
" style="fill:#c38820;opacity:0.9;"/>
   </g>
   <g id="patch_100">
    <path clip-path="url(#p5b9a6f7825)" d="M 395.175848 390.04 
L 399.701788 390.04 
L 399.701788 326.661965 
L 395.175848 326.661965 
z
" style="fill:#c38820;opacity:0.9;"/>
   </g>
   <g id="patch_101">
    <path clip-path="url(#p5b9a6f7825)" d="M 60.256333 390.04 
L 64.782273 390.04 
L 64.782273 265.430476 
L 60.256333 265.430476 
z
" style="fill:#158b6a;opacity:0.9;"/>
   </g>
   <g id="patch_102">
    <path clip-path="url(#p5b9a6f7825)" d="M 94.200879 390.04 
L 98.726818 390.04 
L 98.726818 269.907749 
L 94.200879 269.907749 
z
" style="fill:#158b6a;opacity:0.9;"/>
   </g>
   <g id="patch_103">
    <path clip-path="url(#p5b9a6f7825)" d="M 128.145424 390.04 
L 132.671364 390.04 
L 132.671364 274.713605 
L 128.145424 274.713605 
z
" style="fill:#158b6a;opacity:0.9;"/>
   </g>
   <g id="patch_104">
    <path clip-path="url(#p5b9a6f7825)" d="M 162.08997 390.04 
L 166.615909 390.04 
L 166.615909 281.382551 
L 162.08997 281.382551 
z
" style="fill:#158b6a;opacity:0.9;"/>
   </g>
   <g id="patch_105">
    <path clip-path="url(#p5b9a6f7825)" d="M 196.034515 390.04 
L 200.560455 390.04 
L 200.560455 289.541627 
L 196.034515 289.541627 
z
" style="fill:#158b6a;opacity:0.9;"/>
   </g>
   <g id="patch_106">
    <path clip-path="url(#p5b9a6f7825)" d="M 229.979061 390.04 
L 234.505 390.04 
L 234.505 298.132626 
L 229.979061 298.132626 
z
" style="fill:#158b6a;opacity:0.9;"/>
   </g>
   <g id="patch_107">
    <path clip-path="url(#p5b9a6f7825)" d="M 263.923606 390.04 
L 268.449545 390.04 
L 268.449545 306.194912 
L 263.923606 306.194912 
z
" style="fill:#158b6a;opacity:0.9;"/>
   </g>
   <g id="patch_108">
    <path clip-path="url(#p5b9a6f7825)" d="M 297.868152 390.04 
L 302.394091 390.04 
L 302.394091 313.295658 
L 297.868152 313.295658 
z
" style="fill:#158b6a;opacity:0.9;"/>
   </g>
   <g id="patch_109">
    <path clip-path="url(#p5b9a6f7825)" d="M 331.812697 390.04 
L 336.338636 390.04 
L 336.338636 319.33538 
L 331.812697 319.33538 
z
" style="fill:#158b6a;opacity:0.9;"/>
   </g>
   <g id="patch_110">
    <path clip-path="url(#p5b9a6f7825)" d="M 365.757242 390.04 
L 370.283182 390.04 
L 370.283182 324.313821 
L 365.757242 324.313821 
z
" style="fill:#158b6a;opacity:0.9;"/>
   </g>
   <g id="patch_111">
    <path clip-path="url(#p5b9a6f7825)" d="M 399.701788 390.04 
L 404.227727 390.04 
L 404.227727 328.45188 
L 399.701788 328.45188 
z
" style="fill:#158b6a;opacity:0.9;"/>
   </g>
   <g id="patch_112">
    <path clip-path="url(#p5b9a6f7825)" d="M 64.782273 390.04 
L 69.308212 390.04 
L 69.308212 265.430476 
L 64.782273 265.430476 
z
" style="fill:#ba611b;opacity:0.9;"/>
   </g>
   <g id="patch_113">
    <path clip-path="url(#p5b9a6f7825)" d="M 98.726818 390.04 
L 103.252758 390.04 
L 103.252758 269.574957 
L 98.726818 269.574957 
z
" style="fill:#ba611b;opacity:0.9;"/>
   </g>
   <g id="patch_114">
    <path clip-path="url(#p5b9a6f7825)" d="M 132.671364 390.04 
L 137.197303 390.04 
L 137.197303 273.516228 
L 132.671364 273.516228 
z
" style="fill:#ba611b;opacity:0.9;"/>
   </g>
   <g id="patch_115">
    <path clip-path="url(#p5b9a6f7825)" d="M 166.615909 390.04 
L 171.141848 390.04 
L 171.141848 279.15612 
L 166.615909 279.15612 
z
" style="fill:#ba611b;opacity:0.9;"/>
   </g>
   <g id="patch_116">
    <path clip-path="url(#p5b9a6f7825)" d="M 200.560455 390.04 
L 205.086394 390.04 
L 205.086394 286.412126 
L 200.560455 286.412126 
z
" style="fill:#ba611b;opacity:0.9;"/>
   </g>
   <g id="patch_117">
    <path clip-path="url(#p5b9a6f7825)" d="M 234.505 390.04 
L 239.030939 390.04 
L 239.030939 294.450248 
L 234.505 294.450248 
z
" style="fill:#ba611b;opacity:0.9;"/>
   </g>
   <g id="patch_118">
    <path clip-path="url(#p5b9a6f7825)" d="M 268.449545 390.04 
L 272.975485 390.04 
L 272.975485 302.374343 
L 268.449545 302.374343 
z
" style="fill:#ba611b;opacity:0.9;"/>
   </g>
   <g id="patch_119">
    <path clip-path="url(#p5b9a6f7825)" d="M 302.394091 390.04 
L 306.92003 390.04 
L 306.92003 309.617013 
L 302.394091 309.617013 
z
" style="fill:#ba611b;opacity:0.9;"/>
   </g>
   <g id="patch_120">
    <path clip-path="url(#p5b9a6f7825)" d="M 336.338636 390.04 
L 340.864576 390.04 
L 340.864576 315.839206 
L 336.338636 315.839206 
z
" style="fill:#ba611b;opacity:0.9;"/>
   </g>
   <g id="patch_121">
    <path clip-path="url(#p5b9a6f7825)" d="M 370.283182 390.04 
L 374.809121 390.04 
L 374.809121 321.03928 
L 370.283182 321.03928 
z
" style="fill:#ba611b;opacity:0.9;"/>
   </g>
   <g id="patch_122">
    <path clip-path="url(#p5b9a6f7825)" d="M 404.227727 390.04 
L 408.753667 390.04 
L 408.753667 325.386879 
L 404.227727 325.386879 
z
" style="fill:#ba611b;opacity:0.9;"/>
   </g>
   <g id="patch_123">
    <path clip-path="url(#p5b9a6f7825)" d="M 69.308212 390.04 
L 73.834152 390.04 
L 73.834152 265.430476 
L 69.308212 265.430476 
z
" style="fill:#c282b5;opacity:0.9;"/>
   </g>
   <g id="patch_124">
    <path clip-path="url(#p5b9a6f7825)" d="M 103.252758 390.04 
L 107.778697 390.04 
L 107.778697 269.569787 
L 103.252758 269.569787 
z
" style="fill:#c282b5;opacity:0.9;"/>
   </g>
   <g id="patch_125">
    <path clip-path="url(#p5b9a6f7825)" d="M 137.197303 390.04 
L 141.723242 390.04 
L 141.723242 273.813739 
L 137.197303 273.813739 
z
" style="fill:#c282b5;opacity:0.9;"/>
   </g>
   <g id="patch_126">
    <path clip-path="url(#p5b9a6f7825)" d="M 171.141848 390.04 
L 175.667788 390.04 
L 175.667788 279.733072 
L 171.141848 279.733072 
z
" style="fill:#c282b5;opacity:0.9;"/>
   </g>
   <g id="patch_127">
    <path clip-path="url(#p5b9a6f7825)" d="M 205.086394 390.04 
L 209.612333 390.04 
L 209.612333 287.140021 
L 205.086394 287.140021 
z
" style="fill:#c282b5;opacity:0.9;"/>
   </g>
   <g id="patch_128">
    <path clip-path="url(#p5b9a6f7825)" d="M 239.030939 390.04 
L 243.556879 390.04 
L 243.556879 295.187485 
L 239.030939 295.187485 
z
" style="fill:#c282b5;opacity:0.9;"/>
   </g>
   <g id="patch_129">
    <path clip-path="url(#p5b9a6f7825)" d="M 272.975485 390.04 
L 277.501424 390.04 
L 277.501424 302.971909 
L 272.975485 302.971909 
z
" style="fill:#c282b5;opacity:0.9;"/>
   </g>
   <g id="patch_130">
    <path clip-path="url(#p5b9a6f7825)" d="M 306.92003 390.04 
L 311.44597 390.04 
L 311.44597 310.056711 
L 306.92003 310.056711 
z
" style="fill:#c282b5;opacity:0.9;"/>
   </g>
   <g id="patch_131">
    <path clip-path="url(#p5b9a6f7825)" d="M 340.864576 390.04 
L 345.390515 390.04 
L 345.390515 316.292533 
L 340.864576 316.292533 
z
" style="fill:#c282b5;opacity:0.9;"/>
   </g>
   <g id="patch_132">
    <path clip-path="url(#p5b9a6f7825)" d="M 374.809121 390.04 
L 379.335061 390.04 
L 379.335061 321.657552 
L 374.809121 321.657552 
z
" style="fill:#c282b5;opacity:0.9;"/>
   </g>
   <g id="patch_133">
    <path clip-path="url(#p5b9a6f7825)" d="M 408.753667 390.04 
L 413.279606 390.04 
L 413.279606 326.242247 
L 408.753667 326.242247 
z
" style="fill:#c282b5;opacity:0.9;"/>
   </g>
   <g id="patch_134">
    <path clip-path="url(#p5b9a6f7825)" d="M 73.834152 390.04 
L 78.360091 390.04 
L 78.360091 265.430476 
L 73.834152 265.430476 
z
" style="fill:#bd926e;opacity:0.9;"/>
   </g>
   <g id="patch_135">
    <path clip-path="url(#p5b9a6f7825)" d="M 107.778697 390.04 
L 112.304636 390.04 
L 112.304636 269.33191 
L 107.778697 269.33191 
z
" style="fill:#bd926e;opacity:0.9;"/>
   </g>
   <g id="patch_136">
    <path clip-path="url(#p5b9a6f7825)" d="M 141.723242 390.04 
L 146.249182 390.04 
L 146.249182 272.960655 
L 141.723242 272.960655 
z
" style="fill:#bd926e;opacity:0.9;"/>
   </g>
   <g id="patch_137">
    <path clip-path="url(#p5b9a6f7825)" d="M 175.667788 390.04 
L 180.193727 390.04 
L 180.193727 278.247172 
L 175.667788 278.247172 
z
" style="fill:#bd926e;opacity:0.9;"/>
   </g>
   <g id="patch_138">
    <path clip-path="url(#p5b9a6f7825)" d="M 209.612333 390.04 
L 214.138273 390.04 
L 214.138273 285.301941 
L 209.612333 285.301941 
z
" style="fill:#bd926e;opacity:0.9;"/>
   </g>
   <g id="patch_139">
    <path clip-path="url(#p5b9a6f7825)" d="M 243.556879 390.04 
L 248.082818 390.04 
L 248.082818 293.384323 
L 243.556879 293.384323 
z
" style="fill:#bd926e;opacity:0.9;"/>
   </g>
   <g id="patch_140">
    <path clip-path="url(#p5b9a6f7825)" d="M 277.501424 390.04 
L 282.027364 390.04 
L 282.027364 301.534247 
L 277.501424 301.534247 
z
" style="fill:#bd926e;opacity:0.9;"/>
   </g>
   <g id="patch_141">
    <path clip-path="url(#p5b9a6f7825)" d="M 311.44597 390.04 
L 315.971909 390.04 
L 315.971909 309.139162 
L 311.44597 309.139162 
z
" style="fill:#bd926e;opacity:0.9;"/>
   </g>
   <g id="patch_142">
    <path clip-path="url(#p5b9a6f7825)" d="M 345.390515 390.04 
L 349.916455 390.04 
L 349.916455 315.891569 
L 345.390515 315.891569 
z
" style="fill:#bd926e;opacity:0.9;"/>
   </g>
   <g id="patch_143">
    <path clip-path="url(#p5b9a6f7825)" d="M 379.335061 390.04 
L 383.861 390.04 
L 383.861 321.62139 
L 379.335061 321.62139 
z
" style="fill:#bd926e;opacity:0.9;"/>
   </g>
   <g id="patch_144">
    <path clip-path="url(#p5b9a6f7825)" d="M 413.279606 390.04 
L 417.805545 390.04 
L 417.805545 326.338963 
L 413.279606 326.338963 
z
" style="fill:#bd926e;opacity:0.9;"/>
   </g>
   <g id="matplotlib.axis_3">
    <g id="xtick_12">
     <g id="line2d_84">
      <g>
       <use style="stroke:#000000;stroke-width:0.8;" x="64.782273" xlink:href="#m4a4de09f70" y="390.04"/>
      </g>
     </g>
     <g id="text_26">
      <!-- 0 -->
      <g transform="translate(61.601023 404.638437)scale(0.1 -0.1)">
       <use xlink:href="#DejaVuSans-48"/>
      </g>
     </g>
    </g>
    <g id="xtick_13">
     <g id="line2d_85">
      <g>
       <use style="stroke:#000000;stroke-width:0.8;" x="98.726818" xlink:href="#m4a4de09f70" y="390.04"/>
      </g>
     </g>
     <g id="text_27">
      <!-- 1 -->
      <g transform="translate(95.545568 404.638437)scale(0.1 -0.1)">
       <use xlink:href="#DejaVuSans-49"/>
      </g>
     </g>
    </g>
    <g id="xtick_14">
     <g id="line2d_86">
      <g>
       <use style="stroke:#000000;stroke-width:0.8;" x="132.671364" xlink:href="#m4a4de09f70" y="390.04"/>
      </g>
     </g>
     <g id="text_28">
      <!-- 2 -->
      <g transform="translate(129.490114 404.638437)scale(0.1 -0.1)">
       <use xlink:href="#DejaVuSans-50"/>
      </g>
     </g>
    </g>
    <g id="xtick_15">
     <g id="line2d_87">
      <g>
       <use style="stroke:#000000;stroke-width:0.8;" x="166.615909" xlink:href="#m4a4de09f70" y="390.04"/>
      </g>
     </g>
     <g id="text_29">
      <!-- 3 -->
      <g transform="translate(163.434659 404.638437)scale(0.1 -0.1)">
       <use xlink:href="#DejaVuSans-51"/>
      </g>
     </g>
    </g>
    <g id="xtick_16">
     <g id="line2d_88">
      <g>
       <use style="stroke:#000000;stroke-width:0.8;" x="200.560455" xlink:href="#m4a4de09f70" y="390.04"/>
      </g>
     </g>
     <g id="text_30">
      <!-- 4 -->
      <g transform="translate(197.379205 404.638437)scale(0.1 -0.1)">
       <use xlink:href="#DejaVuSans-52"/>
      </g>
     </g>
    </g>
    <g id="xtick_17">
     <g id="line2d_89">
      <g>
       <use style="stroke:#000000;stroke-width:0.8;" x="234.505" xlink:href="#m4a4de09f70" y="390.04"/>
      </g>
     </g>
     <g id="text_31">
      <!-- 5 -->
      <g transform="translate(231.32375 404.638437)scale(0.1 -0.1)">
       <use xlink:href="#DejaVuSans-53"/>
      </g>
     </g>
    </g>
    <g id="xtick_18">
     <g id="line2d_90">
      <g>
       <use style="stroke:#000000;stroke-width:0.8;" x="268.449545" xlink:href="#m4a4de09f70" y="390.04"/>
      </g>
     </g>
     <g id="text_32">
      <!-- 6 -->
      <g transform="translate(265.268295 404.638437)scale(0.1 -0.1)">
       <use xlink:href="#DejaVuSans-54"/>
      </g>
     </g>
    </g>
    <g id="xtick_19">
     <g id="line2d_91">
      <g>
       <use style="stroke:#000000;stroke-width:0.8;" x="302.394091" xlink:href="#m4a4de09f70" y="390.04"/>
      </g>
     </g>
     <g id="text_33">
      <!-- 7 -->
      <g transform="translate(299.212841 404.638437)scale(0.1 -0.1)">
       <use xlink:href="#DejaVuSans-55"/>
      </g>
     </g>
    </g>
    <g id="xtick_20">
     <g id="line2d_92">
      <g>
       <use style="stroke:#000000;stroke-width:0.8;" x="336.338636" xlink:href="#m4a4de09f70" y="390.04"/>
      </g>
     </g>
     <g id="text_34">
      <!-- 8 -->
      <g transform="translate(333.157386 404.638437)scale(0.1 -0.1)">
       <use xlink:href="#DejaVuSans-56"/>
      </g>
     </g>
    </g>
    <g id="xtick_21">
     <g id="line2d_93">
      <g>
       <use style="stroke:#000000;stroke-width:0.8;" x="370.283182" xlink:href="#m4a4de09f70" y="390.04"/>
      </g>
     </g>
     <g id="text_35">
      <!-- 9 -->
      <g transform="translate(367.101932 404.638437)scale(0.1 -0.1)">
       <use xlink:href="#DejaVuSans-57"/>
      </g>
     </g>
    </g>
    <g id="xtick_22">
     <g id="line2d_94">
      <g>
       <use style="stroke:#000000;stroke-width:0.8;" x="404.227727" xlink:href="#m4a4de09f70" y="390.04"/>
      </g>
     </g>
     <g id="text_36">
      <!-- 10 -->
      <g transform="translate(397.865227 404.638437)scale(0.1 -0.1)">
       <use xlink:href="#DejaVuSans-49"/>
       <use x="63.623047" xlink:href="#DejaVuSans-48"/>
      </g>
     </g>
    </g>
    <g id="text_37">
     <!-- fcday -->
     <g transform="translate(220.797969 418.316562)scale(0.1 -0.1)">
      <use xlink:href="#DejaVuSans-102"/>
      <use x="35.205078" xlink:href="#DejaVuSans-99"/>
      <use x="90.185547" xlink:href="#DejaVuSans-100"/>
      <use x="153.662109" xlink:href="#DejaVuSans-97"/>
      <use x="214.941406" xlink:href="#DejaVuSans-121"/>
     </g>
    </g>
   </g>
   <g id="matplotlib.axis_4">
    <g id="ytick_7">
     <g id="line2d_95">
      <g>
       <use style="stroke:#000000;stroke-width:0.8;" x="47.81" xlink:href="#mfb2308a27b" y="390.04"/>
      </g>
     </g>
     <g id="text_38">
      <!-- 0.0 -->
      <defs>
       <path d="M 10.6875 12.40625 
L 21 12.40625 
L 21 0 
L 10.6875 0 
z
" id="DejaVuSans-46"/>
      </defs>
      <g transform="translate(24.906875 393.839219)scale(0.1 -0.1)">
       <use xlink:href="#DejaVuSans-48"/>
       <use x="63.623047" xlink:href="#DejaVuSans-46"/>
       <use x="95.410156" xlink:href="#DejaVuSans-48"/>
      </g>
     </g>
    </g>
    <g id="ytick_8">
     <g id="line2d_96">
      <g>
       <use style="stroke:#000000;stroke-width:0.8;" x="47.81" xlink:href="#mfb2308a27b" y="365.118095"/>
      </g>
     </g>
     <g id="text_39">
      <!-- 0.2 -->
      <g transform="translate(24.906875 368.917314)scale(0.1 -0.1)">
       <use xlink:href="#DejaVuSans-48"/>
       <use x="63.623047" xlink:href="#DejaVuSans-46"/>
       <use x="95.410156" xlink:href="#DejaVuSans-50"/>
      </g>
     </g>
    </g>
    <g id="ytick_9">
     <g id="line2d_97">
      <g>
       <use style="stroke:#000000;stroke-width:0.8;" x="47.81" xlink:href="#mfb2308a27b" y="340.19619"/>
      </g>
     </g>
     <g id="text_40">
      <!-- 0.4 -->
      <g transform="translate(24.906875 343.995409)scale(0.1 -0.1)">
       <use xlink:href="#DejaVuSans-48"/>
       <use x="63.623047" xlink:href="#DejaVuSans-46"/>
       <use x="95.410156" xlink:href="#DejaVuSans-52"/>
      </g>
     </g>
    </g>
    <g id="ytick_10">
     <g id="line2d_98">
      <g>
       <use style="stroke:#000000;stroke-width:0.8;" x="47.81" xlink:href="#mfb2308a27b" y="315.274286"/>
      </g>
     </g>
     <g id="text_41">
      <!-- 0.6 -->
      <g transform="translate(24.906875 319.073504)scale(0.1 -0.1)">
       <use xlink:href="#DejaVuSans-48"/>
       <use x="63.623047" xlink:href="#DejaVuSans-46"/>
       <use x="95.410156" xlink:href="#DejaVuSans-54"/>
      </g>
     </g>
    </g>
    <g id="ytick_11">
     <g id="line2d_99">
      <g>
       <use style="stroke:#000000;stroke-width:0.8;" x="47.81" xlink:href="#mfb2308a27b" y="290.352381"/>
      </g>
     </g>
     <g id="text_42">
      <!-- 0.8 -->
      <g transform="translate(24.906875 294.1516)scale(0.1 -0.1)">
       <use xlink:href="#DejaVuSans-48"/>
       <use x="63.623047" xlink:href="#DejaVuSans-46"/>
       <use x="95.410156" xlink:href="#DejaVuSans-56"/>
      </g>
     </g>
    </g>
    <g id="ytick_12">
     <g id="line2d_100">
      <g>
       <use style="stroke:#000000;stroke-width:0.8;" x="47.81" xlink:href="#mfb2308a27b" y="265.430476"/>
      </g>
     </g>
     <g id="text_43">
      <!-- 1.0 -->
      <g transform="translate(24.906875 269.229695)scale(0.1 -0.1)">
       <use xlink:href="#DejaVuSans-49"/>
       <use x="63.623047" xlink:href="#DejaVuSans-46"/>
       <use x="95.410156" xlink:href="#DejaVuSans-48"/>
      </g>
     </g>
    </g>
    <g id="text_44">
     <!-- acc -->
     <g transform="translate(18.827188 333.1825)rotate(-90)scale(0.1 -0.1)">
      <use xlink:href="#DejaVuSans-97"/>
      <use x="61.279297" xlink:href="#DejaVuSans-99"/>
      <use x="116.259766" xlink:href="#DejaVuSans-99"/>
     </g>
    </g>
   </g>
   <g id="line2d_101">
    <path clip-path="url(#p5b9a6f7825)" d="M 0 0 
" style="fill:none;stroke:#424242;stroke-linecap:square;stroke-width:2.7;"/>
   </g>
   <g id="line2d_102">
    <path clip-path="url(#p5b9a6f7825)" d="M 0 0 
" style="fill:none;stroke:#424242;stroke-linecap:square;stroke-width:2.7;"/>
   </g>
   <g id="line2d_103">
    <path clip-path="url(#p5b9a6f7825)" d="M 0 0 
" style="fill:none;stroke:#424242;stroke-linecap:square;stroke-width:2.7;"/>
   </g>
   <g id="line2d_104">
    <path clip-path="url(#p5b9a6f7825)" d="M 0 0 
" style="fill:none;stroke:#424242;stroke-linecap:square;stroke-width:2.7;"/>
   </g>
   <g id="line2d_105">
    <path clip-path="url(#p5b9a6f7825)" d="M 0 0 
" style="fill:none;stroke:#424242;stroke-linecap:square;stroke-width:2.7;"/>
   </g>
   <g id="line2d_106">
    <path clip-path="url(#p5b9a6f7825)" d="M 0 0 
" style="fill:none;stroke:#424242;stroke-linecap:square;stroke-width:2.7;"/>
   </g>
   <g id="line2d_107">
    <path clip-path="url(#p5b9a6f7825)" d="M 0 0 
" style="fill:none;stroke:#424242;stroke-linecap:square;stroke-width:2.7;"/>
   </g>
   <g id="line2d_108">
    <path clip-path="url(#p5b9a6f7825)" d="M 0 0 
" style="fill:none;stroke:#424242;stroke-linecap:square;stroke-width:2.7;"/>
   </g>
   <g id="line2d_109">
    <path clip-path="url(#p5b9a6f7825)" d="M 0 0 
" style="fill:none;stroke:#424242;stroke-linecap:square;stroke-width:2.7;"/>
   </g>
   <g id="line2d_110">
    <path clip-path="url(#p5b9a6f7825)" d="M 0 0 
" style="fill:none;stroke:#424242;stroke-linecap:square;stroke-width:2.7;"/>
   </g>
   <g id="line2d_111">
    <path clip-path="url(#p5b9a6f7825)" d="M 0 0 
" style="fill:none;stroke:#424242;stroke-linecap:square;stroke-width:2.7;"/>
   </g>
   <g id="line2d_112">
    <path clip-path="url(#p5b9a6f7825)" d="M 0 0 
" style="fill:none;stroke:#424242;stroke-linecap:square;stroke-width:2.7;"/>
   </g>
   <g id="line2d_113">
    <path clip-path="url(#p5b9a6f7825)" d="M 0 0 
" style="fill:none;stroke:#424242;stroke-linecap:square;stroke-width:2.7;"/>
   </g>
   <g id="line2d_114">
    <path clip-path="url(#p5b9a6f7825)" d="M 0 0 
" style="fill:none;stroke:#424242;stroke-linecap:square;stroke-width:2.7;"/>
   </g>
   <g id="line2d_115">
    <path clip-path="url(#p5b9a6f7825)" d="M 0 0 
" style="fill:none;stroke:#424242;stroke-linecap:square;stroke-width:2.7;"/>
   </g>
   <g id="line2d_116">
    <path clip-path="url(#p5b9a6f7825)" d="M 0 0 
" style="fill:none;stroke:#424242;stroke-linecap:square;stroke-width:2.7;"/>
   </g>
   <g id="line2d_117">
    <path clip-path="url(#p5b9a6f7825)" d="M 0 0 
" style="fill:none;stroke:#424242;stroke-linecap:square;stroke-width:2.7;"/>
   </g>
   <g id="line2d_118">
    <path clip-path="url(#p5b9a6f7825)" d="M 0 0 
" style="fill:none;stroke:#424242;stroke-linecap:square;stroke-width:2.7;"/>
   </g>
   <g id="line2d_119">
    <path clip-path="url(#p5b9a6f7825)" d="M 0 0 
" style="fill:none;stroke:#424242;stroke-linecap:square;stroke-width:2.7;"/>
   </g>
   <g id="line2d_120">
    <path clip-path="url(#p5b9a6f7825)" d="M 0 0 
" style="fill:none;stroke:#424242;stroke-linecap:square;stroke-width:2.7;"/>
   </g>
   <g id="line2d_121">
    <path clip-path="url(#p5b9a6f7825)" d="M 0 0 
" style="fill:none;stroke:#424242;stroke-linecap:square;stroke-width:2.7;"/>
   </g>
   <g id="line2d_122">
    <path clip-path="url(#p5b9a6f7825)" d="M 0 0 
" style="fill:none;stroke:#424242;stroke-linecap:square;stroke-width:2.7;"/>
   </g>
   <g id="line2d_123">
    <path clip-path="url(#p5b9a6f7825)" d="M 0 0 
" style="fill:none;stroke:#424242;stroke-linecap:square;stroke-width:2.7;"/>
   </g>
   <g id="line2d_124">
    <path clip-path="url(#p5b9a6f7825)" d="M 0 0 
" style="fill:none;stroke:#424242;stroke-linecap:square;stroke-width:2.7;"/>
   </g>
   <g id="line2d_125">
    <path clip-path="url(#p5b9a6f7825)" d="M 0 0 
" style="fill:none;stroke:#424242;stroke-linecap:square;stroke-width:2.7;"/>
   </g>
   <g id="line2d_126">
    <path clip-path="url(#p5b9a6f7825)" d="M 0 0 
" style="fill:none;stroke:#424242;stroke-linecap:square;stroke-width:2.7;"/>
   </g>
   <g id="line2d_127">
    <path clip-path="url(#p5b9a6f7825)" d="M 0 0 
" style="fill:none;stroke:#424242;stroke-linecap:square;stroke-width:2.7;"/>
   </g>
   <g id="line2d_128">
    <path clip-path="url(#p5b9a6f7825)" d="M 0 0 
" style="fill:none;stroke:#424242;stroke-linecap:square;stroke-width:2.7;"/>
   </g>
   <g id="line2d_129">
    <path clip-path="url(#p5b9a6f7825)" d="M 0 0 
" style="fill:none;stroke:#424242;stroke-linecap:square;stroke-width:2.7;"/>
   </g>
   <g id="line2d_130">
    <path clip-path="url(#p5b9a6f7825)" d="M 0 0 
" style="fill:none;stroke:#424242;stroke-linecap:square;stroke-width:2.7;"/>
   </g>
   <g id="line2d_131">
    <path clip-path="url(#p5b9a6f7825)" d="M 0 0 
" style="fill:none;stroke:#424242;stroke-linecap:square;stroke-width:2.7;"/>
   </g>
   <g id="line2d_132">
    <path clip-path="url(#p5b9a6f7825)" d="M 0 0 
" style="fill:none;stroke:#424242;stroke-linecap:square;stroke-width:2.7;"/>
   </g>
   <g id="line2d_133">
    <path clip-path="url(#p5b9a6f7825)" d="M 0 0 
" style="fill:none;stroke:#424242;stroke-linecap:square;stroke-width:2.7;"/>
   </g>
   <g id="line2d_134">
    <path clip-path="url(#p5b9a6f7825)" d="M 0 0 
" style="fill:none;stroke:#424242;stroke-linecap:square;stroke-width:2.7;"/>
   </g>
   <g id="line2d_135">
    <path clip-path="url(#p5b9a6f7825)" d="M 0 0 
" style="fill:none;stroke:#424242;stroke-linecap:square;stroke-width:2.7;"/>
   </g>
   <g id="line2d_136">
    <path clip-path="url(#p5b9a6f7825)" d="M 0 0 
" style="fill:none;stroke:#424242;stroke-linecap:square;stroke-width:2.7;"/>
   </g>
   <g id="line2d_137">
    <path clip-path="url(#p5b9a6f7825)" d="M 0 0 
" style="fill:none;stroke:#424242;stroke-linecap:square;stroke-width:2.7;"/>
   </g>
   <g id="line2d_138">
    <path clip-path="url(#p5b9a6f7825)" d="M 0 0 
" style="fill:none;stroke:#424242;stroke-linecap:square;stroke-width:2.7;"/>
   </g>
   <g id="line2d_139">
    <path clip-path="url(#p5b9a6f7825)" d="M 0 0 
" style="fill:none;stroke:#424242;stroke-linecap:square;stroke-width:2.7;"/>
   </g>
   <g id="line2d_140">
    <path clip-path="url(#p5b9a6f7825)" d="M 0 0 
" style="fill:none;stroke:#424242;stroke-linecap:square;stroke-width:2.7;"/>
   </g>
   <g id="line2d_141">
    <path clip-path="url(#p5b9a6f7825)" d="M 0 0 
" style="fill:none;stroke:#424242;stroke-linecap:square;stroke-width:2.7;"/>
   </g>
   <g id="line2d_142">
    <path clip-path="url(#p5b9a6f7825)" d="M 0 0 
" style="fill:none;stroke:#424242;stroke-linecap:square;stroke-width:2.7;"/>
   </g>
   <g id="line2d_143">
    <path clip-path="url(#p5b9a6f7825)" d="M 0 0 
" style="fill:none;stroke:#424242;stroke-linecap:square;stroke-width:2.7;"/>
   </g>
   <g id="line2d_144">
    <path clip-path="url(#p5b9a6f7825)" d="M 0 0 
" style="fill:none;stroke:#424242;stroke-linecap:square;stroke-width:2.7;"/>
   </g>
   <g id="line2d_145">
    <path clip-path="url(#p5b9a6f7825)" d="M 0 0 
" style="fill:none;stroke:#424242;stroke-linecap:square;stroke-width:2.7;"/>
   </g>
   <g id="line2d_146">
    <path clip-path="url(#p5b9a6f7825)" d="M 0 0 
" style="fill:none;stroke:#424242;stroke-linecap:square;stroke-width:2.7;"/>
   </g>
   <g id="line2d_147">
    <path clip-path="url(#p5b9a6f7825)" d="M 0 0 
" style="fill:none;stroke:#424242;stroke-linecap:square;stroke-width:2.7;"/>
   </g>
   <g id="line2d_148">
    <path clip-path="url(#p5b9a6f7825)" d="M 0 0 
" style="fill:none;stroke:#424242;stroke-linecap:square;stroke-width:2.7;"/>
   </g>
   <g id="line2d_149">
    <path clip-path="url(#p5b9a6f7825)" d="M 0 0 
" style="fill:none;stroke:#424242;stroke-linecap:square;stroke-width:2.7;"/>
   </g>
   <g id="line2d_150">
    <path clip-path="url(#p5b9a6f7825)" d="M 0 0 
" style="fill:none;stroke:#424242;stroke-linecap:square;stroke-width:2.7;"/>
   </g>
   <g id="line2d_151">
    <path clip-path="url(#p5b9a6f7825)" d="M 0 0 
" style="fill:none;stroke:#424242;stroke-linecap:square;stroke-width:2.7;"/>
   </g>
   <g id="line2d_152">
    <path clip-path="url(#p5b9a6f7825)" d="M 0 0 
" style="fill:none;stroke:#424242;stroke-linecap:square;stroke-width:2.7;"/>
   </g>
   <g id="line2d_153">
    <path clip-path="url(#p5b9a6f7825)" d="M 0 0 
" style="fill:none;stroke:#424242;stroke-linecap:square;stroke-width:2.7;"/>
   </g>
   <g id="line2d_154">
    <path clip-path="url(#p5b9a6f7825)" d="M 0 0 
" style="fill:none;stroke:#424242;stroke-linecap:square;stroke-width:2.7;"/>
   </g>
   <g id="line2d_155">
    <path clip-path="url(#p5b9a6f7825)" d="M 0 0 
" style="fill:none;stroke:#424242;stroke-linecap:square;stroke-width:2.7;"/>
   </g>
   <g id="line2d_156">
    <path clip-path="url(#p5b9a6f7825)" d="M 0 0 
" style="fill:none;stroke:#424242;stroke-linecap:square;stroke-width:2.7;"/>
   </g>
   <g id="line2d_157">
    <path clip-path="url(#p5b9a6f7825)" d="M 0 0 
" style="fill:none;stroke:#424242;stroke-linecap:square;stroke-width:2.7;"/>
   </g>
   <g id="line2d_158">
    <path clip-path="url(#p5b9a6f7825)" d="M 0 0 
" style="fill:none;stroke:#424242;stroke-linecap:square;stroke-width:2.7;"/>
   </g>
   <g id="line2d_159">
    <path clip-path="url(#p5b9a6f7825)" d="M 0 0 
" style="fill:none;stroke:#424242;stroke-linecap:square;stroke-width:2.7;"/>
   </g>
   <g id="line2d_160">
    <path clip-path="url(#p5b9a6f7825)" d="M 0 0 
" style="fill:none;stroke:#424242;stroke-linecap:square;stroke-width:2.7;"/>
   </g>
   <g id="line2d_161">
    <path clip-path="url(#p5b9a6f7825)" d="M 0 0 
" style="fill:none;stroke:#424242;stroke-linecap:square;stroke-width:2.7;"/>
   </g>
   <g id="line2d_162">
    <path clip-path="url(#p5b9a6f7825)" d="M 0 0 
" style="fill:none;stroke:#424242;stroke-linecap:square;stroke-width:2.7;"/>
   </g>
   <g id="line2d_163">
    <path clip-path="url(#p5b9a6f7825)" d="M 0 0 
" style="fill:none;stroke:#424242;stroke-linecap:square;stroke-width:2.7;"/>
   </g>
   <g id="line2d_164">
    <path clip-path="url(#p5b9a6f7825)" d="M 0 0 
" style="fill:none;stroke:#424242;stroke-linecap:square;stroke-width:2.7;"/>
   </g>
   <g id="line2d_165">
    <path clip-path="url(#p5b9a6f7825)" d="M 0 0 
" style="fill:none;stroke:#424242;stroke-linecap:square;stroke-width:2.7;"/>
   </g>
   <g id="line2d_166">
    <path clip-path="url(#p5b9a6f7825)" d="M 0 0 
" style="fill:none;stroke:#424242;stroke-linecap:square;stroke-width:2.7;"/>
   </g>
   <g id="patch_145">
    <path d="M 47.81 390.04 
L 47.81 259.2 
" style="fill:none;stroke:#000000;stroke-linecap:square;stroke-linejoin:miter;stroke-width:0.8;"/>
   </g>
   <g id="patch_146">
    <path d="M 47.81 390.04 
L 421.2 390.04 
" style="fill:none;stroke:#000000;stroke-linecap:square;stroke-linejoin:miter;stroke-width:0.8;"/>
   </g>
  </g>
  <g id="text_45">
   <!-- temperature850 -->
   <defs>
    <path d="M 8.5 21.578125 
L 8.5 54.6875 
L 17.484375 54.6875 
L 17.484375 21.921875 
Q 17.484375 14.15625 20.5 10.265625 
Q 23.53125 6.390625 29.59375 6.390625 
Q 36.859375 6.390625 41.078125 11.03125 
Q 45.3125 15.671875 45.3125 23.6875 
L 45.3125 54.6875 
L 54.296875 54.6875 
L 54.296875 0 
L 45.3125 0 
L 45.3125 8.40625 
Q 42.046875 3.421875 37.71875 1 
Q 33.40625 -1.421875 27.6875 -1.421875 
Q 18.265625 -1.421875 13.375 4.4375 
Q 8.5 10.296875 8.5 21.578125 
z
M 31.109375 56 
z
" id="DejaVuSans-117"/>
   </defs>
   <g transform="translate(166.836563 17.758125)scale(0.12 -0.12)">
    <use xlink:href="#DejaVuSans-116"/>
    <use x="39.208984" xlink:href="#DejaVuSans-101"/>
    <use x="100.732422" xlink:href="#DejaVuSans-109"/>
    <use x="198.144531" xlink:href="#DejaVuSans-112"/>
    <use x="261.621094" xlink:href="#DejaVuSans-101"/>
    <use x="323.144531" xlink:href="#DejaVuSans-114"/>
    <use x="364.257812" xlink:href="#DejaVuSans-97"/>
    <use x="425.537109" xlink:href="#DejaVuSans-116"/>
    <use x="464.746094" xlink:href="#DejaVuSans-117"/>
    <use x="528.125" xlink:href="#DejaVuSans-114"/>
    <use x="566.988281" xlink:href="#DejaVuSans-101"/>
    <use x="628.511719" xlink:href="#DejaVuSans-56"/>
    <use x="692.134766" xlink:href="#DejaVuSans-53"/>
    <use x="755.757812" xlink:href="#DejaVuSans-48"/>
   </g>
  </g>
 </g>
 <defs>
  <clipPath id="p1188f95d64">
   <rect height="130.84" width="373.39" x="47.81" y="86.4"/>
  </clipPath>
  <clipPath id="p5b9a6f7825">
   <rect height="130.84" width="373.39" x="47.81" y="259.2"/>
  </clipPath>
 </defs>
</svg>
